<svg width="318" height="105" fill="none" xmlns="http://www.w3.org/2000/svg"><path d="M74.292 43.551l.155-.686c2.417-.622 4.985-.347 7.48-.887-.701-.589.312-.142-2.864-.349-1.332-.086-2.714-.097-4.05.043-5.754.604-17.025 1.222-18.072 1.438-1.676.345-6.523.715-8.363.313-.315-.07-1.736-.32-2.123-.16-2.918 1.198-5.313 1.057-10.705 1.26-.404-.142-.453-.451-.617-.708.206.005.413.018.62.01.583-.021.245-.366-.053-.235-.178.078-.336.18-.502.274-1.057.312-2.045-.073-3.07-.033-.93.037-1.833.391-2.791.237-.813-.13-.939-.065-3.385.181-.105.181-.034.3.209.323 2.293.215 1.78-.016 1.992.494-.745.45-1.48.203-4.58.444-1.224.095-.49.126-4.453.43.835-.678.831-.683 2.3-1.009.503.53 1.2.438 1.926.216.36-.11-.076-.45-.163-.46-.641-.084-1.223.147-1.817.302-.777-.494-1.565-.059-7.186-.126.21-.104.291-.173.383-.185 3.308-.433 6.585-1.045 9.926-1.281 1.454-.103 2.948.038 4.365-.183.623-.097 33.995-3.132-5.107-.255l-.502-.622c-1.1-.424-3.148.413-4.71-.416-.322-.854 3.53-.355-.115-.862.113-.14.171-.315.293-.346 1.824-.454 3.675-.66 5.573-.455.688-.158 1.38-.398 2.09-.463 1.98-.183 3.974-.394 5.951-.407 2.415-.016 4.785-.446 7.189-.497.495-.01.997-.203 1.496-.31l1.148-1.696c-.746-.322-.155-.47-3.63-.238-12.512.834-21.286 1.984-22.12 1.38.724-.552 1.827-.33 2.611-.729.119-.06.113-.247.165-.375-2.592-.176-5.206.401-8.017.195 1.74-.471 3.394-.38 4.939-.749-1.055-.583-1.41-.636-6.068-.186-3.947.382-3.075-.158-7.484.616-.296.052-1.465.154-1.432-.074.019-.128.052-.328.165-.368.375-.13.798-.292 1.182-.282 3.68.092 7.293-.56 10.996-.86-3.35-.604-2.236-.522-10.296-.1 1.858-.692 3.461-1.027 5.127-1.016 3.674.023 7.302-.47 10.945-.814 3.038-.287 7.053-.439 8.95-.935-.439-.597-1.381-.436-1.845-.823.016-.047.018-.128.048-.134 1.012-.223 2.02-.513 3.08-.48 1.328.043 1.3-.178 5.56-.743 3.264-.433 2.28-.108 3.132-.877-4.186-.422-14.195.675-14.756.729-1.561.15-3.126.127-4.692.236-6.393.447-7.257.97-10.093.82.734-1.48.437-1.24 24.605-3.168.206-.016.409-.07.639-.11-.416-.26-.908-.123-1.352-.088-3 .236-3.376-.678-5.78-.524-3.742.238-12.854 1.08-13.484.927.777-.807 19.09-1.145 22.076-2.21.896-.319 1.772.207 2.746.013.815-.163 45.074-3.37 45.09-3.371.726-.047 1.471-.075 2.116-.405-1.081-1.27-4.62.039-7.194-.471 2.783-.547 1.617-.195 4.004-.386 6.385-.51 6.357-1.514 7.88-1.586 1.485-.07 11.601-2.792 19.348-3.24 4.653-.269 12.53-.93 15.359-1.145 1.701-.129 1.833.512 1.812.234-.275.114-.539.296-.826.33-1.839.217-20.804.505-29.13 3.524 1.069.778.976-.373 23.559-2.167.851-.067 2.442-.342 3.094-.284 2.506.223 5.454-.341 20.071-1.301 14.46-.95 3.123.03 17.886-1.018 2.782-.198 22.256-1.883 24.523-.848 3.609-.536 7.056-.56 10.489-.797.08-.006.166.077.249.12-.135.092-.257.245-.407.266-1.651.226-38.242 2.443-37.651 3.29 1.263 1.809 61.578-3.707 72.058-3.02 1.953-.4 3.944-.073 5.907-.392 1.25-.203 2.504-.131 3.776-.031-.711.576-1.774.328-2.584.69.375.32 3.63-.172 4.527.595-.93.755-3.442.371-4.375 1.222 1.664.337 3.35-.329 5.001-.113-.052.14-.068.341-.14.355-3.642.67-2.631.19-3.8 1.257-6.919 1.79.979.1 1.651 1.272-.497.485-1.386.246-2.03.629.047.233.114.495.151.76.036.256-.455.524.089.843 6.093-.311 10.708-2.472 12.8-1.732-.123.183-.179.428-.38.539-3.161 1.748-5.936.762-6.085 1.424-.025.11.107.292.246.338 1.444.478 1.976-.139-.4 1.347.762.521 1.805.267 3.62.055l2.112.849c.18.617-.813.637-1.038 1.105 2.402.283 3.999-1.203 5.834-.213l-.274.905c.587.401 2.216.082 3.04-.072-.066-.86-.226-.942.946-1.037l.41 1.233c2.007.039 3.966.148 5.949-.086.421-.05.323.4.081.473-1.963.6.334-.364-5.799.49-.377.335-.706.63-1.034.923.513.486.506.496 1.933.87 2.529.173 16.265-1.377 18.742-.734l1.182-.498c3.419.43 4.094-.326 8.363-.232.038.343-.314.342-.509.36-13.359 1.222-1.055.471.084.541.428.026.724.21.841.512-.721.65-1.825.721-2.781 1.018-.11.034-.126.237-.215.423 3.383.31 3.624.256 3.613.646-.012.424-1.184.22-4.767.793 1.849.388 5.154-.148 5.438.623l-2.507.535c.183.068.283.138.391.14 7.351.121 6.522-.328 5.061 1.911-.21.072-.409.2-.585.191a12.334 12.334 0 00-2.913.2l.199.594c-.824.543-.362.826.209 1.401-1.86.383-3.607.64-5.489.384-1.788-1.338.189-1.234-12.427-.1-.456.04-.934.295-1.053.431-.139.16-.08.402-.107.599 1.206.373 2.308-.203 3.44-.19 1.348.017 4.855-.128 6.732-.197-1.183.71-2.882.422-3.061 1.294-.023.112.538.238.758.3-.3.17-.827.14-.891.522.801.505 1.46.158 2.034.13.363-.017.75.407.58.636-.798 1.076-.551.648-2.351 1.796-.235.15.114.504.238.516 3.719.338 4.403-.04-.123.685-1.542.247-.772.575-.14 1.516-.479.209-5.444 1.897-9.112 1.6-.529-.453-.372-.856.016-1.262-.516-.365-1.391.02-1.982-.41 1.656-1.513 4.039-1.373 5.183-2.193-1.714-.239-3.599.395-6.455.107a2.697 2.697 0 00-.933.056c-1.504.411-3.104.395-4.619.717-.61.13-1.245-.105-1.819.208-.419.228-.872.425-1.29.626-1.358-.098-2.69-.042-4.012-.277-1.176-.208-2.472.085-3.75.253-1.58 1.506-.685.946-2.659 1.072-.168.01-.342.163-.485.27-.061.045-.052.136-.074.206.466.61 1.658.416 2.201.934.201.444-.512.62-.643 1.03.175.122.344.342.595.394 1.84.381 2.317.039 4.597.342.268.036.45.388.313.54-3.04 3.406-6.279.828-6.592 3.576 1.522.301 3.026.365 4.5-.306.242-.696-.527-.44-1.494-.29-.262-.245-.448-.054.951-.886.707-.136 1.324-.197 1.974-.007l-.14 1.01c1.068.433.82.187 1.079 1.163.397.458 1.126.202 1.74.326-.098.08-.165.179-.267.207-.295.081-.668.077-.896.208-2.251 1.292-3.855.46-5.08.893-1.769.623-3.685.624-5.47.872-.519.388-.052.62.683 1.284-.076.569-1.2.43-1.398 1.058 1.098.278 1.825-1.066 3.309.4-2.218 1.316-2.373.398-2.569 1.962-.4.031-.894-.034-1.197.11-2.064.98-4.126.626-7.644 1.28-4.599.855-4.559-.365-7.716 1.212-.104.26-.001.325.271.319 1.321-.03.839.08 1.016.878.242.09.497.262.78.276 1.665.081 3.323.068 4.94-.447.683-.218 1.116-.208 1.347.72.362.387 1.611.109 1.486.467-.064.182.044.101-2.096 1.108-3.424.263-2.795-.169-7.038.53-2.172.357-3.045-.084-4.645-.34-1.503.46-3.182.68-4.656 1.285-.051.49-.402.818-.912 1.081.124.118-.045.19 1.082.11 7.292-.519 5.294-.351 9.84-1.464 1.396-.341 1.883.273 3.477.442.264.028.5.154.807.256-.279.115-.454.237-.645.259-3.816.44-5.196 1.14-6.483.943-1.961-.3-2.782.404-8.735.754-8.772.515-8.908.6-10.608.941-5.021 1.01-4.008 1.162-5.038.323.124.063.039-.019-.033-.01-1.143.13-2.246-.125-3.409.013-6.362.758-7.873.587-9.003.995-.848.306-1.798-.192-3.064.221-.282.092-.669.227-.891.162-.97-.284-1.86.265-2.778.19-1.223-.1-1.461.306-6.534.77-5.806.53-7.002 1.332-9.284 1.083-9.97.826-11.064.855-12.477 1.275-2.175.647-2.988-.081-1.431.92-.856.657-1.742-.002-2.61.13l-.191.582c-1.208.266-2.319.75-3.605.856-.842.07-1.576.397-2.344.85 1.507.178 2.93-.144 4.479-.064l.727.686c2.177.11 4.471-.536 6.804-.249-2.399.765-1.404.432-3.747 1.273.863-.066 1.537-.013 2.088-.183 2.258-.698 6.016-.473 9.881-1.453.711-.18.934-.19 8.061-1.08.393.533-.731.385-.555.81l.76.22c-.304.344-1.164.055-1.341.577.867.244 1.873-.164 2.731.182-.684 1.128-2.822.7-2.981 1.248l2.407.059c-.121.425-.533.55-.937.593-1.906.206-1.669-.284-1.393.43.085.22.015.194-.783.482-.413.334.413.455.099.76-14.086 2.778-8.042 1.245-12.969 2.648 1.335.06 2.563-.139 3.728-.494l1.809.362c-.065.11-.075.173-.115.186-.293.097-10.889 1.854-14.292 2.116-.66-.896.101-.77-5.587-.272 1.242.291 1.408.024 4.083.125-1.01 1.046-10.337 1.546-28.028 2.873-21.041 1.578-21.439 2.008-33.501 2.406-1.452.048-2.894-.05-4.357.112-.523.058-.937-.229-1.033-.644 1.357-.758 14.78-1.096 14.113-1.77-.457-.462.397-.055-4.655.177-2.224.64-4.551.552-6.838.75a8.553 8.553 0 01-2.47-.155c-.171-.035-.308-.142-.496-.233l.49-.629-1.748-.864c-1.03.03-2.075.029-3.115.1-6.157.42-2.115-.177-7.182.345-.415.043-.824.165-1.236.182-.836.033-1.68-.036-2.508.041-1.3.121-2.775.617-2.685.331.079-.247.008-.427 1.089-.54 6.323-.667 7.206-.705 8.432-.918 6.832-1.187 11.578-.848 19.973-2.222 5.05-.827 13.053-.766 12.647-1.884-.213-.585-1.403-.696-1.764-.62-1.833.393-3.688.67-5.574.81-2.376.745-8.128.94-9.902 1.332-4.485.99-7.308.647-8.988 1.157-.38.116-.821.2-1.22.19-3.368-.081-6.653.63-9.984.879-4.885.364-5.46.763-6.166.193 1.107-.62 2.491-.225 3.637-.648-.132-.376-.58-.188-.855-.168-11.44.824-11.31 1.016-12.126.548-2.273-1.302 25.307-1.31 20.928-3.003-2.724-1.054 4.88-1.792-8.463-.772-.421-.679 1.92-.577 2.915-1.24l-1.082-.812c-.907-.155-1.867-.118-2.783.047-2.435.44-7.712.346-10.627.826-.502.082-1.043.037-1.56.016-.137-.006-.253-.139-.385-.216 1.028-.802 5.779.024 8.285-1.538-3.739-.145-9.02 1.544-25.975 3.218-.504.05-1.033.122-1.426-.182 1.184-.653 3.053-.324 6.71-1.024 2.55-.489 5.425-.36 8.032-1.186 1.828-.58 4.589-.798 5.079-1.258l-.359-.784 2.035-.426c-.908-.164-1.571.022-2.387-.001l-2.007-.751c-1.122-.074-4.973.24-7.459.785-1.895.416-6.966.63-15.023 1.362-6.316.573-4.957.846-7.16.774-.189-.006-.34-.278-.509-.429 1.173-.69 3.294-.198 7.778-1.128 1.127-.234 2.29-.001 3.407-.305.183-.05.413.011.622.003 1.774-.071 3.46-.609 5.283-.586 1.683.021 2.519-.156 10.327-.918.845-.083 1.666-.193 2.338-.76-.166-.136-.322-.396-.518-.404-2.532-.103-2.391.617-8.29 1.26-9.93 1.083-7.629.509-9.689.843-1.15.187-2.283.175-3.419.073.04-.072.057-.185.116-.2 3.98-.97.403-.164 7.63-.953 11.068-1.207 6.584-1.043 9.943-1.294 1.35-.101 2.72-.08 3.974-.626.598-.26.28.3 3.453-.678-.392-.09-.628-.196-.865-.189-4.139.139-2.784.297-3.927-.15l.77-.71c-4.63-.08-6.332-.17-10.227.242-3.535.373-2.052.014-6.619.366.078-.19.08-.357.174-.392.278-.103.63-.251.886-.211 1.507.234 2.862-.269 4.262-.546.248-.048.286-.218.158-.37-.711-.07-1.467.162-2.156-.078-.238-.423.583-.583.522-.828.149-.795-.962-1.011-1-1.657.748-.467-.35-.421 6.677-1.175-.35-.401-.625-.09-3.258-.133.207-.167.287-.291.395-.31.719-.121 1.496-.131 2.156-.344 1.937-.627 4.434-.474 6.51-.428 2.486.055 1.869-.672 5.828-.866 1.88-.091 3.759-.3 5.637-.472.307-.028.576-.136.535-.431-1.604-.26-3.229.258-4.85.195-.93.298-1.87.03-2.802.138-.93.109-1.836.315-2.804.264-.598-.032-1.234.142-1.854.221-4.567.583-4.043.685-4.992-.025.16-.474.807-.361 1.219-.53.459-.19.905-.395 1.358-.594-.497-.566-1.446-.442-2.114-.726.044-.524.799-.604 1.174-.92 1.373-1.155-.053-.684 5.89-1.898 1.781.123 3.54-.265 5.31-.314 1.282-.036 2.503-.216 3.686-.58.868-.268 1.88-.252 2.627-.753l.058.117c-.147-.09-.138.04.04-.713 1.26-.545 2.668-.452 4.037-.722-.146-.212-.406-.146-.614-.132-9.37.622-6.092.767-10.595 1.12-22.477 1.758-21.538 2.655-21.571.69-1.931-.478-1.707-.345-1.87-.785-.055-.147.294-.18 3.566-.635 3.477-.485 2.683-.263 3.125-.71-.132-.046-.553-.335-1.42-.062-1.107.35-1.178.236-8.392.421.268.196-.608-.132 2.383-.616.816-.133 1.653-.18 2.796-.296-1.23-.39-2.296.118-3.22-.192-.36-.24-.747-.479-.55-1 2.021-.678 2.147-.463-.456-.649l.158-1.023c-.714-.212-1.438-.217-2.16-.129-2.485.305-5.008.337-7.455.945a9.605 9.605 0 01-3.188.26c.708-1.725.79-1.31-.196-1.938.832-.802-1.008-.327 10.802-1.544.813-.083 1.603-.35 2.492-.555-1.258-.952-6.733.163-18.437.25-3.925.029-1.415.189-5.588.208-.23-.465.422-.688.915-.68.762.01 22.662-1.88 15.971-1.81-4.6.048-2.022-.49-9.035.213-5.339.536-4.742.415-4.992.14-.042-.046.39-.255.824-.263 2.961-.05 2.912-.58 4.89-.78 1.617-.163 5.812-.34 8.853-1.353-.156-.167-.299-.276-.37-.407-.515-.95 2.424-.525 3.454-1.006-.36-1.187-.56-.821.702-1.636l3.098.133c.638.713 1.686.944 2.868.954.316.002 3.738-.234 4.654-.42-.104-.193-.132-.346-.249-.444-.299-.25-1.05-.343-.705-.814.778-1.065 5.447.132 9.959.05.644-.63.13-.477 2.484-.658.175-.307.02-.52-.332-.505-1.365.057-2.275-.507-3.46-.924 1.484-.64 2.856-.355 4.158-.511 5.143 1.763 11.76 2.245 10.797 1.371a.84.84 0 00-.522-.199c-1.193.053-2.202-.346-3.296-.53-.267-.045-.47-.26-.68-.411-.057-.041-.03-.14-.043-.212.298-.477 1.032-.44 1.646-.74 8.547 1.141 6.546 1.088 8.416 1.038.312-.008.713-.342.803-.642.215-.717-1.584-.595-2.186-.732.103-.202.135-.33.175-.334 5.765-.384 9.085-1.506 9.684-.531.066-.074.33-.15-1.815.583l-.09-.14c.709.418.062.291 3.224.562l1.96-.455c.379.643 1.43.318 1.348.217-.246-.296-.066-.248-1.416-.155zM56.67 76.757c.227-.141.203-.155.072.042-.177.164-.153.179-.072-.042zm183.944-54.93c.213.156.235.138-.066.053-.115-.198-.191-.224-.199-.08-.001.01.172.018.265.027zm-.877 29.841c-1.053.18-2.078.236-1.515.642.585-.113 1.195-.198 1.448-.684.282-.058.338-.108.162-.13-.013-.001-.063.112-.095.172zM38.952 75.455c.216.15.238.133-.065.053-.606-.38-1.296-.33-2.018-.116.446.87.997.48 2.083.063zM57.94 35.496c-.509.073-1.015.157-1.526.216-.473.055-1.018-.139-1.553.354 3.28-.376 2.51-.226 3.01-.614-.022.049.281-.152.069.044zm10.536 38.631c-1.238-.034-3.19-.272-3.796.507.54.285 2.605-.118 3.278-.261.173-.037.305-.189.456-.288 1.136-.193.766-.11 1.27-.3-.584.011-.952.084-1.208.343zm84.25-37.918c-2.446-.095-2.677-.137-2.975.015-.167.086-.391.464-.129.484a7.37 7.37 0 002.9-.345c.103-.035.276-.546.204-.154zM66.13 77.016c-.038-.224-.11-.28-.179-.161-.007.013.162.07.25.105l.05.652c.72.122 1.444.01 2.143-.152.244-.057.426-.274.638-.419-.5-.39-.993-.534-1.689-.28-.37.136-.806.174-1.213.255zm169.452-62.755c.147.188.228.209.21.066-.002-.013-.177-.008-.27-.011-.151-.087-.288-.242-.453-.252-2.348-.14-4.683.085-7.009.447-.047.007-.078.085-.168.19 2.604.113 5.148-.103 7.69-.44zm5.548 31.485c1.309.142 1.163.176 1.772.007.24-.067.456-.406.33-.547-.101-.113-.261-.27-.416-.275-5.615-.213-5.098 1.093-3.56.585.777-.257 1.391-.122 1.93.264-.192.04-.648-.013-.234.253.069.044.251-.145.178-.287zM73.562 75.04c-1.128.056-2.25-.092-3.386.212-.606.162-7.868.62-10.382 1.088 2.251.026 12.142-.174 13.699-1.345.396-.066.857.041 1.26-.249-.526-.043-.861.12-1.191.294zm70.953 10.945c2.12.194 2.12.194 3.179-.426l-1.082-1.006c-2.32-.134-1.768-.034-2.108-.44.173-.522 1.168-.62 1.278-1.174-1.133-.743-2.909-.346-3.214.371 1.878 1.588.88.678.916 1.573.013.337.633.28.825.544.342.787.394.56-.322.599-.323.017-.318.172-.339.215.576.063.374.159.867-.256zm42.662-52.888c-1.281.452.006.346-4.853.617-.008 0-.018-.074-.027-.114.641-.137 1.474-.417 1.696-.571-2.039-.24-3.833.51-5.735.875.053.092.065.176.112.186 3.092.638 9.494-.163 11.325-.455-.202-.265.221-.131-1.922-.58-.111-.109-.225-.313-.334-.307-.239.011-.326.178-.262.35zM46.133 29.313c1.94.41 3.69.154 9.67-.355.77-.066 1.406-.301 1.938-.853-.761-.03-1.493-.153-2.157.003-2.456.575-3.053-.363-8.977.94-.167.036-.283.208-.423.316-1.271-.636-2.611-.48-3.986-.084.096.781.775.628 3.467.298.167-.02.313-.173.468-.265zm81.545 59.285c.521.317.351.263.636.162-.163-.207-.456-.085-.69-.11l-.341-.584c-2.37-.302-4.237.569-4.931.48-1.052-.135-2.059.055-3.094.168-2.073.226-4.156.376-6.234.573-7.15.677-1.68.405-10.547 1.27-2.28.221-4.561.431-6.837.646.004.226.127.321.369.326.72.015 1.437.122 2.154-.125.827-.285 1.619.058 2.46-.013 7.908-.673 13.524-.737 18.006-1.897 1.274-.33 2.639-.397 4.092-.444l-.68.712c1.078.35 1.087.346 1.709.08.181-.077.354-.28.494-.269.529.041.995-.057 1.496-.183.361-.09.789-.026 1.156-.031l.782-.761zm9.165-15.24c-2.105 1.057-2.105 1.057-4.726 1.394-.889.415-1.821.105-2.719.19-4.26.404-17.627 2.776 5.345.707 7.631-.687 16.353-1.138 27.846-2.138 1.868-.162 1.816-.364 2.623-.79.263.064.645.262.995.225 2.379-.25 4.785-.444 7.02-1.38l-.346-.45c-8.262.242-11.849 1.074-13.475.897-4.328-.47-8.872.755-11.839.719-.777-.01-6.459.212-7.778.569-.97.262-1.857.09-2.946.058zm134.46-32.498c1.711-.553 1.439-.03 1.633-1.921-1.932-.56-13.047.501-15.069.724-9.208 1.016-3.927.097-9.632.768-.169.02-.321.14-.482.215.117.094.226.265.352.266 4.971.07 12.397-.96 12.926-.292-.38.45.379.22-3.036.943.803.294 1.824-.203 2.59.23-.052.26-.017.117-.128.546 1.546.066.952-1.605 3.453-.247 8.199-.312 5.512-.625 7.393-1.232zM75.259 85.833c-.36.282-.814.418-.515.922.15.254.624.421 1.023.352 2.991-.518 6.022-.718 9.052-.944 4.145-.31.623-.156 11.664-1.55l-1.85-.426c-2.047.294-1.094.379-4.289-.492-1.382.017-13.95 1.104-15.21 1.225-.267.026-.374.329-.194.559.096.122.212.236.319.354zM210.852 61.15c4.34.107 8.542-.608 12.77-.86.41-.023.826-.121 1.223-.221 2.437-.613 5.468-.628 7.668-1.184 2.084-.527 4.09-1.253 6.302-1.474.716-.071 1.387-.297 1.885-.721-.53-.063-13.815 1.98-14.136 2.003-2.392.174-1.69-.414-11.306.713l-4.406 1.744zM106.757 85.525c.433.594.406.629.682.686 2.218.462 4.86.625 9.84-.524 2.445-.564 6.514-.336 10.76-1.804-2.015.042-1.749.197-3.174.294-1.272.086-.65-.045-4.036.162-7.487.457-6.733.53-6.794-.256-.309-.004-.628-.065-.902-.005-2.102.46-4.278.744-6.376 1.447zm33.509-67.053c8.183-.568 7.678-.473 8.642-.795.14-.046.229-.554-.054-.521-.608.07-1.239.265-1.815.22-2.086-.165-4.11.392-6.17.423-2.287.912-4.491-.326-7.667.588-1.58.456-2.932-.126-2.728.425.202.544 1.594.29 9.792-.34zm77.402 11.367c-1.073-.075-1.429-.176-1.855.093-.408.257-.256.49.201.61.774.201 1.941-.605 4.257-.108 2.288.491 3.035-.907 5.772-.583.147.018.339-.107.511-.166.604-1.573-.575-1.426-3.864-.782-1.825-.158-3.475.296-5.022.937zm65.047 2.628c-1.039-.067-1.647-.168-2.252-.133-1.954.11-11.937.66-14.292 1.124 13.052-.717 12.311-.974 13.243-.477.093.05.033.237.046.412-1.165.353-2.448.314-3.968.653 2.011-.116 3.704-.042 5.357-.273.582-.781.064-.435 1.866-1.306zm-76.192 35.496c1.022-.045 2.05-.272 3.06-.465.237-.045.413-.289.637-.456-.809-.253-3.67.035-4.947.362-2.603-.111-5.222.08-7.633.895-1.481.501 3.817-.116 8.883-.336zM81.968 80.894c1.933.155 3.532-.116 5.054.173.37.07.855.006 1.24-.098 1.613-.434 2.942-.282 5.513-.965.107-.028.337-.488-.051-.502-2.969-.115-10.936 1.027-11.756 1.392zM21.29 36.62c.16.157.227.303.333.314.92.095 1.843-.123 2.79-.055 3.864.28 3.243-.453 5.542-.484.858-.011 5.37.086 5.076-.41-.242-.408.394-.378-4.939-.024-2.907.192-5.814.387-8.802.659zm120.884 49.67c-.805-.078.732-.198-8.397.7-.459.044-.759.228-.879.55 1.574.336 2.65.406 3.888.216 6.254-.963 5.391-1.115 5.388-1.466zm-55.14-52.73c-.457-.568-1.09-.167-5.701.178-4.964.37-9.626.474-11.762 1.072 1.552.125 2.87.11 4.233-.05 5.702-.674 5.445-.187 8.999-.78 1.147-.191 2.248-.283 3.39-.182.253.022.554-.153.84-.239zm69.193 48.183c4.116.128 7.512-.573 12.459-1.384.428-.671-1.059-.106-2.276-.02-2.824.2-4.057.441-10.183 1.404zm-22.339-2.301c1.227.322 1.59.38 2.37.264 1.434-.214 2.915-.34 4.281-.707 3.154-.844 4.324-.49 5.773-.955.315-.1.168-.514-.138-.395-2.098.816-4.977.596-6.426.921-2.374.533-3.684.41-5.86.872zM71.625 68.288c-5.975.17-5.893.775-5.416-.469a2.481 2.481 0 00-1.72.021c-1.057 1.04-.358.76-2.591 1.274 3.36.195 6.52-.53 9.727-.827zm4.457 15.66c.268-.456.402-.564-.278-.59-1.677-.065-3.33.263-4.994.38-.892.063-1.763.474-2.638.736-.059.017-.079.107-.164.233 1.4.096 2.767-.092 4.062-.348 1.345-.265 2.705-.2 4.012-.41zM62.538 28.323c.707-.01 6.182-.252 6.333-.74.021-.07-.005-.146-.011-.222-.181-.045-.372-.142-.558-.13-3.432.215-5.15.204-5.764 1.092zm-38.055 28.46c-1.86-.075-3.757.099-6.73.616 0 .13-.002.258-.004.452 1.758.193 3.48-.13 5.175-.483.531-.11 1.294-.038 1.56-.585zm52.584-12.837c2.061-.077 4.775.618 4.64-.432-.456-.268-.58-.77-1.443-.907-1.835.142-3.251.055-3.197 1.339zm88.439 37.938c-4.065.112-15.423 2.096-5.027 1.108 1.677-.16 3.267-.59 4.886-.931.063-.014.095-.116.141-.177zm41.912-50.701c-4.508.103-4.5.205-5.724.768-1.409.649 4.978.46 5.7-.366.077-.088.02-.23.024-.402zM129.063 19.07c-.786-.516-.128-.648-5.526-.017-.246.216-.286.388.052.516 2.38-.706 3.741.32 5.474-.5zm-71.38 62.86c-2.88-1.026-2.242-.868-2.882-.78-.372 1.219-2.936.495-2.556 1.275 1.613-.171 3.26.003 5.439-.495zm174.378-32.468c2.513.244-.137.197 7.23-.608-3.538-.107-4.799-.033-7.23.608zm-109.25 29.492c1.945.115 4.912-.095 7.295-.552-2.343.113-4.685.25-7.295.552zm94.91-23.667c1.89.358 3.489-.099 5.079-.115.443-.004.897-.19 1.896-.417-2.632-.067-4.653.183-6.975.532zM110.03 76.532c.07.112.108.31.218.329 1.266.204 2.526.108 4.028-.251-2.573-.383-3.408-.681-4.246-.078zm-21.618 6.054c-.858-.199.284-.297-6.26.305-.147.014-.282.132-.428.204.102.033.194.093.283.087 6.589-.422 5.355-.326 6.405-.596zm11.644-.958c-2.215-.183-4.053.16-5.897.332-.115.01-.22.127-.648.39 2.277-.311 4.238-.198 6.545-.722zM45.318 36.684c.934.094.132.23 4.367-.293.401-.05.144-.48-.094-.446-1.418.194-2.882.224-4.273.74zm118.33-3.299c-.008-.103.579-.117-5.264.333.008.103-.578.117 5.264-.333zm-25.977 1.919a35.576 35.576 0 00-5.282.474c1.613-.173 3.248-.023 5.282-.474zm134.388-7.126c1.487-.105 2.908-.007 4.42-.436-2.161-.064-2.161-.064-4.42.436zM108.233 80.996c3.896-.071 4.019-.088 4.578-.598l-4.578.598zm175.555-49.822c-.625-.12-3.058-.37-2.957-.042.034.11.11.297.199.302.82.048 1.647.09 2.758-.26zm-58.73-15.008c1.013.09 2.641.108 3.656-.278-1.087-.24-2.582.01-3.656.278zm12.132 43.39c2.279.021 2.279.021 3.485-.648-.374.003-.712-.07-.879.02-.786.42-1.7.482-2.606.628zM59.643 35.586c.792.11.343.257 3.679-.17.564-.072.122-.359-.046-.346-3.761.296-2.994.226-3.633.517zm14.055 4.247c-.179.073-.397.122-.529.224-.956.748 1.34 1.307 1.818.219-.279-.352-.821-.348-1.29-.443zm120.391 28.821c-2.431-.168-2.432-.168-3.872.359 1.169.027 2.307.022 3.872-.359zm24.122-53.767c.07.138-.248.12 2.723-.11-.013-.142.293-.122-2.723.11zm-78.073 69.187c-.913.16-1.817.181-2.888.52 3.227.018 2.786-.126 2.888-.52zm-48.456 5.81c.477-.626-.582-.266-2.608.2l2.608-.2zm20.427-32.617l3.197-.246c-1.488-.107-2.365-.012-3.197.246zm108.465-10.654c.738-.015 1.502.34 2.165-.167l-2.165.167zM95.733 89.09c-.477-.164-.959-.086-1.411.07-.13.046-.18.218-.266.332.166.05.336.155.496.142.498-.043.954-.171 1.18-.544zm-20.53-9.925c-.894-.183-1.689.02-2.553.161.878.228 1.674.045 2.553-.161zm151.755-61.7c2.569-.052 3.058.016 3.026-.368-.793-.152-1.553-.023-3.026.368zM68.011 34.92c-1.552-.101-1.552-.099-2.552.202 1.64.107 1.64.115 2.552-.202zm-10.88 35.025c-1.207-.168-1.906-.102-3.192.246l3.191-.246zm127.579-3.27c.005.08-.13.096.906.037 1.617-.092.728-.162-.906-.037zM28.844 35.323c-.006-.078.207-.075-1.75.076.006.078-.208.075 1.75-.076zm40.98-1.843c-.597-.28-1.163-.092-1.918.095.772.097 1.351.128 1.917-.095zm4.967-.37l1.825-.14c-.59-.046-1.19-.224-1.825.14zm68.689 48.755c1.962.32 1.682-.513.466-.448-.328.018-.57.168-.466.448zM30.677 54.664c-.958-.054-1.641-.155-2.27.196.674.263 1.316.026 2.27-.196zm95.567 30.643c-1.057.156-1.474.184-1.476.334-.001.153.162.191.411.095.333-.13.805-.049 1.065-.429zm38.326-1.834c.377-.041.736-.047.873-.18.203-.195-.017-.468-.445-.31-1.366.508-1.21.417-.428.49zm-81.42 7.04c-.691-.22-1.374-.227-2.056.099.694.255 1.372.084 2.055-.098zM68.177 61.496c-.697-.22-1.338-.216-1.959.183.701.215 1.353.287 1.959-.183zm167.301-9.33c-.432.072-.114.451-.056.477 1.012.441 1.545-.722.056-.476zm-20.096 3.706c-.477-.219-.968-.056-1.441-.009-.188.019-.496.013-.473.268.683.03 1.349.175 1.914-.26zM50.234 70.45c1.593-.016.955.048 2.322-.208-.8-.2-1.402-.177-2.322.208zm186.614-11.673c1.052-.178.482-.696.117-.394-.145.12-.572.112-.395.379.021.03.182.011.278.015zm-3.504-36.215c-.175.07-.399.114-.515.217-.166.146-.077.322.172.329.159.004.676-.188.562-.415-.028-.056-.142-.088-.219-.13zM90.677 38.905c-.661-.112-1.187-.196-1.854.17.653.117 1.18.133 1.854-.17zm-53.901-2.85c.621-.015 1.467.048 1.139-.35-.19-.23-.989-.25-1.139.35zm24.313 38.796c.003.092-.166.082 1.156-.02-.007-.091.16-.081-1.156.02zm150.495-9.772c-.422-.164-.814-.171-1.179.134.427.083.818.083 1.179-.134zM23.308 35.709c-.556-.047-1.017-.066-1.53.134a3.26 3.26 0 001.53-.134zm200.141 28.427c.503.231.91.176 1.3.073.115-.03.179-.172.266-.262-.541-.222-1.031-.094-1.566.189zM74.527 76.272c-.245-.066-.5-.145-.769-.197-.05-.01-.225.123-.215.137.31.394.317.383.904.304.031-.004.04-.116.08-.244zM63.3 77.862c-.668-.006-1.064-.114-1.513.17l1.513-.17zm131.252-7.926c-.503-.106-.961-.142-1.447.161.515.032.984.202 1.447-.16zm82.439-34.738c.129.148.248.113 1.805-.078l-1.805.078zM235.6 41.547c1.018.253 1.019.248 1.633-.16-.571-.173-1.118-.136-1.633.16zM88.321 37.366c.475.11.93.067 1.368-.136-.471-.068-.938-.134-1.368.136zM37.806 61.188c-.366-.205-.986-.157-1.42.108.116.072.222.2.351.207.409.024.802-.04 1.069-.316zm38.878 5.416c.47.22.82.098 1.23-.094l-1.23.094zm41.616-3.2c-.507-.101-.977-.09-1.433.11.489.188.957.151 1.433-.11zM63.019 33.97c-.103-.101-.013-.19-.685-.07-.042.007-.061.09-.091.139.723.067.504.07.776-.07zm166.259-5.418l-.393.243c.836.44 1.577-.361.393-.243zm20.111-.142c-.26-.204-.157-.154-.445-.137.007.06-.066.264.285.253.052-.002.106-.075.16-.116zM106.835 88.295c-.031-.09.078-.182-.606-.123-.067.007-.127.08-.19.122.276.111.057.13.796.001zM272.06 41.226c-.187.042-.36.117-.54.179.169.041.335.118.504.115.523-.012.334-.36.036-.294zM34.387 60.422c.078-.044.18-.078.228-.134.185-.213-.391-.25-.4.037 0 .034.111.065.172.097zm173.458-12.727c-.007-.084.095-.07-.661-.012.005.084-.096.07.661.012zm-43.738-11.701c.334.012.196.059.572-.133-.365-.015-.235-.04-.572.133zm50.089-20.761c-.67-.04-.498-.052-.649.061l.649-.061zM93.692 74.582c-.403.02-.202.01 0 0-.402.031-.201.016 0 0zm-40.59-38.49c-.024-.038-.034-.097-.074-.11-.566-.169-1.255.339.074.11zm143.977 33.736c-.008-.107.125-.09-.869-.014.008.107-.125.09.869.014zm18.299-41.794c-.686-.077-.474-.069-.776.009.261.102.382.2.776-.01zm13.076 25.145c-1.512-.121-1.134-.16-1.456.155.302.113-.062.152 1.456-.155zm11.337.406c-.234-.004-.379.07-.383.223-.001.054.089.106.137.159.496-.318.456-.234.246-.382zM74.873 66.87c.004-.13.144-.1-.785-.081-.005.132-.146.102.785.08zm20.449-1.78c-.614.069-.22.308.3.037l-.3-.036zm14.667-1.07c.014.071-.104.062.771-.005-.014-.116.116-.102-.771.005zm-37.06 9.575c-.598-.146-.343-.162-.978.052.55.134.307.17.979-.052zm214.506-38.258c.356.2.709.205 1.066-.038-.355-.232-.708-.154-1.066.038zm-179.482-14.94l.229-.105c-.072-.033-.139-.092-.215-.095-.247-.01-.35.062-.253.165.032.034.157.024.239.035zm5.676-.583c-.273.087-.287.058.008.103l-.008-.103zM25.063 35.632c.271-.074.259-.05-.01-.076l.01.076zm10.106-.877c-.009.151-.077.13.274.055l-.274-.055zm73.22 2.804c.291.069.223.08.259-.03l-.259.03zm-66.152 5.505c-.274.022-.34.084-.165.151.051.02.162-.033.245-.052l-.08-.099zm197.719-14.196c.013-.148.085-.13-.286-.05l.286.05zm27.174-.417l-.317.067c.317.029.226.038.317-.067zm14.56 6.489c-.241-.148-.28-.232-.721.017.59.134.434.143.721-.017zM34.602 54.37c-.231-.153-.055-.179-.643.047.24.128.069.161.643-.047zm204.621-13.093c-.299-.102-.166-.1-.508-.012.3.104.167.102.508.012zM29.931 59.1c.22.06.169.067.209-.011l-.21.01zm81.863-5.44c-.358.1-.38.07.012.11l-.012-.11zm-61.849 7.058c-.275-.072-.21-.084-.25.03l.25-.03zm59.101-3.223c-.017-.009-.228-.174-.417-.05-.158.105-.088.17.176.15.078-.007.152-.062.241-.1zm135.636-5.605c-.014.098-.065.083.234.034l-.234-.034zM56.164 66.903c-.022-.034-.032-.09-.068-.098-.29-.065-.623.122-.166.15.074.005.156-.034.234-.052zm34.076-1.32c.175.128.069.15.443-.057-.28-.045-.184-.06-.443.057zm16.131-1.088l.23-.126c-.073-.038-.142-.11-.218-.11-.268-.004-.377.08-.271.189.039.04.17.032.259.047zm1.513-.226c.349.031.249.044.343-.1-.353-.031-.252-.044-.343.1zm5.688-.432c-.203-.167-.033-.18-.632.012.209.157.037.177.632-.012zm9.645-.74c.332-.042.341-.095.02-.135-.074-.009-.168.041-.253.064l.233.071zm2.571-.23c.015-.083.056-.069-.213-.03l.213.03zM74.64 68.12c-.238-.094-.128-.088-.419-.027.24.096.13.089.419.027zm2.4-.248c-.312-.037-.185-.053-.487.059.163.069.19.136.471.046.022-.007.012-.068.016-.105zm153.741-7.353c.297.03.211.038.298-.073-.298-.032-.212-.04-.298.073zM59.043 77.31c.395.148.472-.168.071-.132-.027.003-.047.086-.07.132zm-9.337 1.296c-.223-.037-.17-.081-.257.118.241.039.179.06.257-.118zm1.26.112c.305.091.232.113.277-.062l-.277.062zm81.137-4.887c-.013.121-.074.104.256.04l-.256-.04zm-52.42 7.147c-.01.083-.05.068.21.031l-.21-.031zm54.088 2.063c-.29-.027-.207-.035-.294.06.292.031.209.04.294-.06zm34.987-1.322c.272-.08.285-.055-.004-.089l.004.089zm72.994-30.46c.236.077.183.096.201-.055l-.201.054zM52.675 78.108c-.118.16-.145.128.078.127l-.078-.127zm135.613 10.066c-1.762-.024-.549-.22-5.954 1.327-1.009.288.01.102-14.798 2.333-8.209 1.234-18.493 1.732-18.702 1.677-1.205-.314-2.471-.105-3.745-.11l-.583-1.014c1.476-.41 23.673-1.82 28.83-3.082 1.201-.294 2.518-.187 3.661-.673.089-.038.205-.093.289-.081 1.811.245 3.47-.48 5.228-.605 5.172-.368 5.914-1.368 6.884-.733.019.012-.063.149-.128.167-.515.142-.82.41-.982.794zm-38.514 1.541c.979.97.694.776-52.87 5.266-.31.026-.613.111-.914.168-.657.5-1.18 1.044-1.401 1.731-.46-.036-1.338.103-1.674-.764-.548-1.415-3.615-.063-7.715-.418 1.169-.637 13.28-1.933 14.328-1.95 6.177-.099 12.298-1.016 18.462-1.348 1.764-.095 3.523-.425 5.282-.66 2.356-.315 23.838-1.958 26.502-2.025zm143.724-45.287c-.011-.49.701-.485 1.022-.748-.328-.258-.328-.258-1.918-.302-.625-.4-.867-.63-1.412-.616-3.723.094-2.57.2-3.559-.201 1.128-1.032 1.128-1.032 1.5-2.1 1.15-.253 1.582.509 2.35.2.695-.28 1.16.1 1.716.249 7.258-.606 6.24-.557 7.469-.477.446.03.339.447.215.504-3.098 1.43-1.424 1.194-4.202 1.19l-.433 1.868c-2.199 1.065-3.056.216-2.748.433zm-.39-1.961c.475.205.912.052 1.396-.14-.531-.266-.971-.14-1.396.14z" fill="#EE4E4E"/><path d="M263.056 52.703c-.75-.203-.623-.703-.795-1.16l-.871-.164c-.316-.941-.427-.613.554-1.585.273-.118.358-.179.454-.193 3.961-.595 2.558-.553 7.152.062 1.09.897.553.68 2.511.944-.299.223-.456.42-.686.497-4.612 1.542-4.348 1.429-8.319 1.6zm-45.141 23.333c.135.384.048.794.556.945 6.943-.277 6.293-.449 6.602.694-.123.147-.188.324-.343.39-1.465.637-5.8 2.793-6.521 1.194-.074-.164-.45-.25-.689-.371.585-.727.56-.451.064-1.295-.713-.34-1.608-.373-2.125-.937 1.45-.83.908-.71 2.456-.62zM37.127 99.876c1.55-.684 4.774-.514 9.425-1.32 3.169-.549 9.716-.781 14.318-1.597.778-.138 7.707-.83 9.328-.666-.512.322-1.057.31-1.564.349-3.877.294-23.942 3.21-31.507 3.234zm131.329-13.261c11.043-2.268 13.062-2.106 14.042-2.35 2.735-.684 5.574-.69 8.371-.962.195-.02.399.044.622.072-.049.26-.375.232-.578.251-5.809.55-12.339 2.146-16.37 2.35-1.688.086-1.607.632-6.087.639zM36.174 25.066c-.073.005-.15-.056-.302-.117.178-.17.307-.42.53-.483 1.685-.472 2.84.158 4.61-.249.826-.19 6.625-.658 7.407-.63 7.888.278-4.4.952-12.245 1.48zm259.878 11.199c.832-.619 1.53-1.079 1.536-1.824l1.378-.426c.664.158.451.422.287.943.579.647 1.286.196 1.612.133.721-.14.864-.093 1.47.559-.213.141-.409.375-.659.42-1.747.318-3.505.512-5.624.195zm4.255-9.088c.295.562-.418.764-.857 1.155-.614.105-1.32.296-2.028.33-3.726.176-4.13 1.171-5.262.152.512-.387-.438-.08 3.673-.967 2.535-.547 3.2-.906 4.474-.67zM240.02 68.76l-.987-1.688c.111-.328.451-.516.847-.615 1.93-.485 1.997-.406 3.193.135l-.45 1.505c-.727.39-1.457.83-2.603.663zm5.566 1.288c-.094-.478-.123-.894-.538-1.243-.253-.213.022-.602.417-.695 1.273-.299 2.505-.5 3.082.6.167.319-.225.865-.865 1.002-.684.146-1.392.228-2.096.336zm-1.11-54.231c.758-.429 1.529-.637 2.386-.422.15.038.215.224.351.377-1.205.626-.964.362-1.163 1.137-.729.187.456.106-5.347.356 1.204-.53 2.46-.175 3.498-.634l.275-.814zM52.358 23.671c.623-.162.919-.297 1.212-.306 3.42-.108 6.83-.593 10.632-.55-2.856.396-.697.262-10.94.986-.196.014-.396-.054-.904-.13zm185.646 50.983c.122-.168.188-.41.389-.509 1.234-.605 2.598-1.004 4.034-1.253.12-.02.304.12.422.21.508.388-3.59 2.075-4.845 1.552zm13.18-60.472c-2.589.38-4.666.5-6.747.549-.249.006-.493-.173-.798-.287.248-.117.392-.234.546-.247 3.491-.318 2.702-.12 4.649.009.6.04 1.225-.138 2.35-.024zm-115.222.915c.114-.096.183-.206.263-.213 15.077-1.291 10.852-.277-.263.213zm149.225 23.597c-.228.612-.455 1.224-.685 1.838-.598.084-1.543.3-1.739-.088-.144-.285.292-.291.504-.414.296-.17.277-.403-.016-.519-.518-.205-.281.098-.912-.47-.422.343.952-.758 2.848-.347zm13.418-8.674c-.518.36-1.15.223-1.722.302a23.84 23.84 0 01-1.534.152c-1.759.128-1.612.087-1.96-.166-.169-.123.144-.444.457-.473 1.614-.152 3.243-.388 4.759.185zM66.808 22.775c-.095.008-.204-.15-.307-.23.082-.049.162-.135.246-.14 12.422-.835 12.572-.622.061.37zm201.212 2.76c2.518-1.047 2.271.147 3.874-.404 1.04-.358 1.979-.183 3.08.065-.837.387-.976.21-6.228.614-.766-.383-.642-.356-.726-.275zm-69.994-12.448c.371-.223-.226-.315 4.42-.587.186-.011.381.223.6.361-1.663.698-3.303.143-5.02.226zm-21.641-.629c-3.958.373-2.861.297-3.908.229-.924-.801 2.691-.796 3.507-.745.345.022.442.22.401.516zm109.726 35.18c2.204-.737 3.035-.848 4.791-.643l-.017.49c-1.332.44-2.731.693-4.211.576-.573-.045-.42-.574-.563-.423zM41.578 83.462c-.224.406-.792.489-1.105.739-.967.023-1.918.232-2.669-.312l.766-1.35.504.602c.708.455 1.784-.138 2.504.32zm125.024-5.14c-3.012.818-3.52.882-4.691.678 1.129-.646 1.129-.646 4.691-.678zM57.357 85.333c.127-.128.639-.991 1.708-.542.809.34 1.248 1.1 1.07 1.155-.584.18-.183.24-2.778-.613zm155.5-11.518c1.321-.215 3.772-.828 3.714.059-.053.82-2.821.239-3.714-.06zM46.125 64.19c.319-.318-.33-.253 5.376-.712 1.25.627-2.071.419-4.501.826-.262.044-.566-.07-.875-.115zm152.214 12.464c.713-.666 2.005-.21 2.199.43.173.577-1.446 1.104-1.925.313-.151-.25-.2-.533-.274-.743zm44.145-58.047c.47.091.905.215 1.162.524-.236.305-.236.305-2.476.405-.315-.522.975-.459 1.314-.93zm4.247-.579c.824 1.016-2.952.582-1.982.123.686-.323 1.362-.118 1.982-.123zm-37.794-5.336c-3.429.31-2.692.303-3.149.031.109-.08.202-.214.525-.218 3.291-.047 2.813-.091 2.624.187z" fill="#EE4E4E"/><path d="M147.631 14.23c.475-.158.66-.262.849-.274.823-.05 1.65-.216 2.654-.04-1.174.32-2.187.352-3.503.313zM46.333 97.018c.892.295 1.02.291.938.506-.023.06-.12.152-.187.156-.73.045-1.44.135-1.524-.27-.017-.083.184-.207.315-.293.067-.044.191-.045.458-.099zm28.087-1.48l3.004-.231c.74.186-1.056.248-1.653.295-.86.067-.306.117-1.35-.064zm182.43-48.657c1.234-.223 2.203-.412 3.254-.143-1.037.403-2.01.4-3.254.143zm48.754-10.845c-.156.36-.157.54-.27.592-.716.328-1.48.456-2.308.254.226-.393-.342-.2 2.578-.846zm-19.455 11.561c-2.837.323-2.91.372-2.966.18-.051-.173.054-.313.274-.34 2.889-.337 2.437.43 2.692.16zM130.093 15.204c1.389-.107 1.619-.165 1.652.025.076.443-2.251.534-1.652-.025zM283.827 24.6c-.582.222-1.177.324-1.801.17.725-.287.725-.287 1.801-.17zm12.716 2.07c1.114-.43 1.115-.438 1.973-.138-.64.355-1.303.28-1.973.139zm-96.619 48.222c-.756.223-1.477.514-2.242.13.738-.403 1.471-.346 2.242-.13zM57.046 90.605c.447-.58.63-.66 1.259-.525.186.04.184.247.05.325-.417.24-.424.233-1.309.2zm247.185-52.588c.67-.933 1.695-.62 1.853-.606-.449.627-1.108.686-1.853.606zm-61.54 23.822c-.285.217-.85.785-1.045.336-.065-.15.308-.7 1.045-.336zM60.045 43.873c-.074.043-.143.114-.221.123-.32.036-.553-.07-.703-.253-.149-.18.605-.438.924.13zm12.65-1.093c.365.218-.903.71-1.573.108-.281.32.889-.517 1.573-.108zm164.528 30.004c-.324.518-.492.617-.987.515-.892-.185.126-1.006.987-.515zM79.585 95.127l1.243-.095c-.455.3-.852.129-1.243.095zm204.447-51.921c-.024.07-.017.174-.076.2-.618.273-.578.102-.903-.148.598-.276.345-.265.979-.052zm-115.643 42.46c-.066.239-.373.109-.551.042l.551-.042zm72.419-22.356c-.335.26-.663.298-1.002.054.336-.255.663-.308 1.002-.054zM2.224 53.75c.598-.644 1.722-.044 1.073.105-.33.076-.332.07-1.073-.104zm265.62-7.36c-.567.159-.462.196-.391-.222.605.04.53-.016.391.221zM42.862 64.381c.324-.3.678-.307 1.06-.1-.324.313-.677.32-1.06.1zm10.803-.921c.98-.021.851-.042.848.053-.979.018-.85.04-.848-.053zm222.091-13.939c-.336.22-.688.237-1.063.099.337-.21.689-.234 1.063-.099zM36.991 84.062c.297.46-.872.495-.824.225.03-.169.526-.587.824-.225zm120.353-7.625c-.264.178-.455.375-.622.187-.175-.196.107-.256.48-.311.037-.006.094.08.142.124zm-132.834.846c-.353.089-.205.078-.568.041.152-.128.031-.114.568-.04zm277.932-43.086c-.015.004-1.033.319-.809-.204.183-.43.658.075.809.204zM134.115 15.098l.081.117c-.085.02-.204.074-.248.054-.179-.085-.113-.152.167-.17zm88.607-3.213c.288.053.305.027-.006.088l.006-.088zm4.086-.24c-.344.06-.28.08-.253-.056l.253.056zm20.127 1.561c-.327.078-.235.082-.329-.054.329-.078.236-.082.329.054zm3.899 2.301c.273.052.292.028-.007.08l.007-.08zm7.062 4.329c.365-.071.298-.094.262.067l-.262-.067zm-5.435 3.519c.685-.169.498.193.066.098-.034-.008-.045-.064-.066-.098zm15.619 2.122c-.263.014-.552.118-.758-.077.078-.032.187-.104.227-.09.554.2.402.292.531.167zm8.846-.393c-.342.054-.282.076-.238-.067l.238.067zM32.394 44.755c-.351.09-.25.094-.362-.065.351-.093.25-.098.362.065zm262.299-18.053l.073.1c-.077.018-.182.066-.224.048-.162-.074-.103-.133.151-.148zm3.638 4.72c-.319.066-.227.066-.321-.04.318-.068.227-.07.321.04zm-10.99 6.952l.088.103c-.088.02-.205.075-.257.054-.187-.077-.12-.14.169-.157zM22.515 59.318l-.22-.074c.082-.022.174-.072.245-.062.31.043.299.096-.025.136zm291.398-21.595c-.358.087-.292.111-.258-.07l.258.07zm-20.47 6.666c-.474.36-.318.287-.59.237.744-.229.665-.184.59-.237zm-32.878 4.089a.449.449 0 01.175-.005c.045.108.131.23.089.33-.082.198-.263.204-.343.01-.04-.096.039-.224.079-.335zM19.846 77.61c.308-.17.355-.205.679-.022-.268.15-.117.14-.679.022zm214.603-10.247c.028-.038.052-.107.085-.11.431-.043.305.227-.085.11zM32.884 84.55c-.03.044-.055.121-.09.125-.47.05-.34-.25.09-.124zm145.871-5.925l.077.093c-.079.018-.182.065-.232.047-.168-.062-.108-.12.155-.14zM52.871 91.154c-.09-.011-.22 0-.263-.039-.107-.092.004-.17.275-.171.08 0 .155.063.232.098l-.244.112zm-3.399 1.825c-.008.054.011.13-.03.156-.253.155-.391-.028-.454-.07.318-.165.2-.13.484-.086zm115.281-7.012c.004.098.05.079-.202.055l.202-.055zm-38.324-70.366c.286.038.267.056.063-.053l-.063.053zm168.666 18.7c-.256.177-.151.174-.403.013.245-.17.152-.174.403-.013zm-12.756 4.74c-.089-.02-.257-.053-.254-.061.046-.13.118-.09.189.114l.065-.053zM15.714 60.015c.09-.22.112-.209-.065-.037l.065.037zm-.065-.037c-.105.115-.117.1.065.037l-.065-.037zm9.566 1.884c-.046.142-.066.137.055.04l-.055-.04zm236.74-16.843c-.32-.056-.298-.074-.067.053l.067-.053z" fill="#EE4E4E"/><path d="M261.888 45.072c.251-.009.358.047.321.168-.062-.011-.154-.009-.179-.037-.132-.147.007-.25-.142-.13zm-31.002 22.78c-.088-.154-.026-.276.203-.331.045-.012.202.088.19.117-.141.35-.627.073-.393.214zM45.901 96.403c.072.152.102.123-.094.115l.094-.115zm223.215-55.221c-1.641.486-3.917.613-4.455.321 1.356-.73 2.734-.348 4.455-.32zm-2.639-.635c-.061.038-.147.117-.179.108-.231-.066-.224-.153.019-.216.033-.009.106.07.16.108zm-79.361-7.485l.716-.062c-.21.325-.46.229-.716.062z" fill="#EE4E4E"/><path fill-rule="evenodd" clip-rule="evenodd" d="M135.265 63.974c2.267.934 4.733 1.4 7.4 1.4 2.6 0 5.017-.466 7.25-1.4 2.267-.933 4.233-2.216 5.9-3.85a18.129 18.129 0 003.9-5.8c.933-2.233 1.4-4.633 1.4-7.2 0-2.6-.467-5-1.4-7.2a17.084 17.084 0 00-3.95-5.8c-1.667-1.666-3.633-2.95-5.9-3.85-2.233-.933-4.667-1.4-7.3-1.4-2.667 0-5.133.467-7.4 1.4a17.358 17.358 0 00-5.85 3.85 17.558 17.558 0 00-3.9 5.75c-.933 2.2-1.4 4.6-1.4 7.2 0 2.567.467 4.967 1.4 7.2a17.74 17.74 0 003.95 5.8 18.578 18.578 0 005.9 3.9zm12.8-7.15c-1.567.934-3.4 1.4-5.5 1.4-1.567 0-3-.266-4.3-.8a9.722 9.722 0 01-3.35-2.25c-.9-1-1.6-2.183-2.1-3.55-.5-1.366-.75-2.883-.75-4.55 0-2.233.433-4.166 1.3-5.8.867-1.666 2.083-2.95 3.65-3.85 1.6-.933 3.45-1.4 5.55-1.4 1.567 0 2.983.267 4.25.8 1.3.5 2.417 1.25 3.35 2.25.933.967 1.65 2.134 2.15 3.5.5 1.334.75 2.834.75 4.5 0 2.2-.433 4.15-1.3 5.85-.867 1.667-2.1 2.967-3.7 3.9z" fill="#fff"/><path d="M183.266 63.925c2.266.933 4.683 1.4 7.25 1.4 3.5 0 6.583-.734 9.25-2.2 2.7-1.467 4.8-3.634 6.3-6.5 1.533-2.9 2.3-6.467 2.3-10.7v-1.15h-18.55v6.65l10.141.16a9.444 9.444 0 01-.791 2.04 8.044 8.044 0 01-3.35 3.4c-1.434.766-3.184 1.15-5.25 1.15-2.034 0-3.834-.467-5.4-1.4-1.567-.934-2.8-2.234-3.7-3.9-.9-1.667-1.35-3.6-1.35-5.8 0-2.2.45-4.117 1.35-5.75.933-1.667 2.216-2.95 3.85-3.85 1.633-.934 3.483-1.4 5.55-1.4 1.933 0 3.666.366 5.2 1.1 1.533.733 2.866 1.833 4 3.3l5.35-5.35c-1.634-1.934-3.7-3.45-6.2-4.55-2.467-1.1-5.217-1.65-8.25-1.65-2.634 0-5.1.466-7.4 1.4-2.3.9-4.317 2.183-6.05 3.85a17.831 17.831 0 00-4 5.75c-.967 2.2-1.45 4.583-1.45 7.15 0 2.566.466 4.966 1.4 7.2a18.826 18.826 0 003.95 5.8c1.666 1.633 3.616 2.916 5.85 3.85zm26.608.049c.867.9 1.95 1.35 3.25 1.35 1.333 0 2.417-.45 3.25-1.35.867-.9 1.3-1.983 1.3-3.25 0-1.333-.433-2.433-1.3-3.3-.833-.9-1.917-1.35-3.25-1.35-1.3 0-2.383.45-3.25 1.35-.867.867-1.3 1.967-1.3 3.3 0 1.267.433 2.35 1.3 3.25zm-43.287 1.351c-1.3 0-2.383-.45-3.25-1.35-.867-.9-1.3-1.984-1.3-3.25 0-1.334.433-2.434 1.3-3.3.867-.9 1.95-1.35 3.25-1.35 1.333 0 2.417.45 3.25 1.35.867.866 1.3 1.966 1.3 3.3 0 1.266-.433 2.35-1.3 3.25-.833.9-1.917 1.35-3.25 1.35zm-47.051 0c-1.3 0-2.383-.45-3.25-1.35-.867-.9-1.3-1.984-1.3-3.25 0-1.334.433-2.434 1.3-3.3.867-.9 1.95-1.35 3.25-1.35 1.333 0 2.417.45 3.25 1.35.867.866 1.3 1.966 1.3 3.3 0 1.266-.433 2.35-1.3 3.25-.833.9-1.917 1.35-3.25 1.35z" fill="#fff"/><path fill-rule="evenodd" clip-rule="evenodd" d="M91.36 29.474l-14 35.3h8.15l2.349-6.4h13.836l2.315 6.4h8.3l-13.85-35.3h-7.1zm8.02 22.5l-4.555-12.588-4.618 12.588h9.173z" fill="#fff"/></svg>