<svg width="271" height="23" fill="none" xmlns="http://www.w3.org/2000/svg"><path d="M.619 18l5.04-12.708h2.556L13.2 18h-2.988L6.397 7.452h1.026L3.553 18H.619zm2.862-2.304v-2.304h6.93v2.304H3.48zm20.045 2.52c-.96 0-1.848-.168-2.664-.504a6.687 6.687 0 01-2.124-1.404 6.39 6.39 0 01-1.422-2.088 6.654 6.654 0 01-.504-2.592c0-.936.168-1.8.504-2.592a6.325 6.325 0 011.404-2.07c.6-.6 1.302-1.062 2.106-1.386a6.929 6.929 0 012.664-.504c.948 0 1.824.168 2.628.504a6.205 6.205 0 012.124 1.386 6.148 6.148 0 011.422 2.088c.336.792.504 1.656.504 2.592 0 .924-.168 1.788-.504 2.592a6.53 6.53 0 01-1.404 2.088 6.576 6.576 0 01-2.124 1.386 6.7 6.7 0 01-2.61.504zm-.036-2.574c.756 0 1.416-.168 1.98-.504a3.415 3.415 0 001.332-1.404c.312-.612.468-1.314.468-2.106 0-.6-.09-1.14-.27-1.62a3.537 3.537 0 00-.774-1.26 3.196 3.196 0 00-1.206-.81 3.907 3.907 0 00-1.53-.288c-.756 0-1.422.168-1.998.504a3.331 3.331 0 00-1.314 1.386c-.312.588-.468 1.284-.468 2.088 0 .6.09 1.146.27 1.638.18.492.432.918.756 1.278.336.348.738.618 1.206.81.468.192.984.288 1.548.288zm18.242 2.556a6.787 6.787 0 01-2.61-.504 6.627 6.627 0 01-2.106-1.386 6.783 6.783 0 01-1.422-2.088 6.654 6.654 0 01-.504-2.592c0-.924.174-1.782.522-2.574a6.423 6.423 0 011.44-2.07 6.553 6.553 0 012.178-1.386 7.017 7.017 0 012.664-.504c1.092 0 2.082.198 2.97.594.9.396 1.644.942 2.232 1.638L45.17 9.252a3.987 3.987 0 00-1.44-1.188c-.552-.264-1.176-.396-1.872-.396-.744 0-1.41.168-1.998.504a3.5 3.5 0 00-1.386 1.386c-.324.588-.486 1.278-.486 2.07 0 .792.162 1.488.486 2.088.324.6.768 1.068 1.332 1.404.564.336 1.212.504 1.944.504.744 0 1.374-.138 1.89-.414.528-.288.93-.696 1.206-1.224.288-.54.432-1.194.432-1.962l1.872 1.26-5.67-.09V10.8h6.678v.414c0 1.524-.276 2.808-.828 3.852-.54 1.032-1.296 1.812-2.268 2.34-.96.528-2.07.792-3.33.792zm14.114-4.788l-.143-3.456h.773c.3 0 .559-.054.775-.162a1.21 1.21 0 00.522-.45c.131-.204.197-.444.197-.72 0-.264-.06-.492-.18-.684a1.08 1.08 0 00-.504-.45 1.67 1.67 0 00-.755-.162 2.07 2.07 0 00-1.224.396c-.36.252-.654.6-.883 1.044L52.66 7.11a4.293 4.293 0 011.567-1.71c.684-.444 1.494-.666 2.43-.666.78 0 1.47.162 2.07.486.6.324 1.068.768 1.404 1.332.336.552.504 1.176.504 1.872 0 .708-.145 1.314-.432 1.818a3.62 3.62 0 01-1.17 1.242 5.046 5.046 0 01-1.675.666l.81-1.062-.161 2.322h-2.16zm1.08 4.788c-.48 0-.876-.162-1.188-.486-.3-.324-.45-.714-.45-1.17 0-.48.15-.876.45-1.188.313-.324.709-.486 1.188-.486.468 0 .852.162 1.152.486.313.312.468.708.468 1.188 0 .456-.155.846-.468 1.17-.3.324-.684.486-1.152.486zm22.185 0c-.948 0-1.83-.162-2.646-.486a6.687 6.687 0 01-2.124-1.404 6.53 6.53 0 01-1.404-2.088 6.654 6.654 0 01-.504-2.592c0-.924.168-1.782.504-2.574a6.277 6.277 0 013.51-3.456 6.881 6.881 0 012.646-.504c1.008 0 1.902.162 2.682.486a6.526 6.526 0 012.07 1.332l-1.89 1.908a3.55 3.55 0 00-1.224-.846c-.468-.204-1.014-.306-1.638-.306-.552 0-1.062.096-1.53.288-.456.18-.852.444-1.188.792a3.913 3.913 0 00-.774 1.26 4.683 4.683 0 00-.27 1.62c0 .6.09 1.146.27 1.638.192.492.45.912.774 1.26.336.348.732.618 1.188.81.468.192.978.288 1.53.288.648 0 1.212-.102 1.692-.306.48-.204.894-.486 1.242-.846l1.908 1.908a6.977 6.977 0 01-2.106 1.332c-.78.324-1.686.486-2.718.486zM89.09 18V5.292h2.826V18H89.09zm2.178 0v-2.484h6.282V18h-6.282zm16.875.216c-.96 0-1.848-.168-2.664-.504a6.687 6.687 0 01-2.124-1.404 6.39 6.39 0 01-1.422-2.088 6.654 6.654 0 01-.504-2.592c0-.936.168-1.8.504-2.592a6.325 6.325 0 011.404-2.07c.6-.6 1.302-1.062 2.106-1.386a6.929 6.929 0 012.664-.504c.948 0 1.824.168 2.628.504a6.205 6.205 0 012.124 1.386 6.148 6.148 0 011.422 2.088c.336.792.504 1.656.504 2.592 0 .924-.168 1.788-.504 2.592a6.53 6.53 0 01-1.404 2.088 6.576 6.576 0 01-2.124 1.386 6.7 6.7 0 01-2.61.504zm-.036-2.574c.756 0 1.416-.168 1.98-.504a3.415 3.415 0 001.332-1.404c.312-.612.468-1.314.468-2.106 0-.6-.09-1.14-.27-1.62a3.537 3.537 0 00-.774-1.26 3.196 3.196 0 00-1.206-.81 3.907 3.907 0 00-1.53-.288c-.756 0-1.422.168-1.998.504a3.331 3.331 0 00-1.314 1.386c-.312.588-.468 1.284-.468 2.088 0 .6.09 1.146.27 1.638.18.492.432.918.756 1.278.336.348.738.618 1.206.81.468.192.984.288 1.548.288zm15.589 2.556c-1.044 0-1.944-.168-2.7-.504-.744-.348-1.428-.87-2.052-1.566l1.836-1.818c.408.468.858.834 1.35 1.098.504.252 1.086.378 1.746.378.6 0 1.062-.108 1.386-.324.336-.216.504-.516.504-.9 0-.348-.108-.63-.324-.846a2.756 2.756 0 00-.864-.558 12.649 12.649 0 00-1.17-.45c-.42-.144-.84-.306-1.26-.486a6.05 6.05 0 01-1.17-.702 3.347 3.347 0 01-.846-1.062c-.216-.432-.324-.972-.324-1.62 0-.78.186-1.452.558-2.016.384-.564.912-.99 1.584-1.278.672-.3 1.446-.45 2.322-.45.888 0 1.698.156 2.43.468.744.312 1.356.738 1.836 1.278l-1.836 1.818c-.384-.396-.774-.69-1.17-.882a2.9 2.9 0 00-1.314-.288c-.492 0-.882.096-1.17.288a.876.876 0 00-.432.792c0 .324.108.588.324.792.216.192.498.36.846.504.36.144.75.288 1.17.432.432.144.858.312 1.278.504.42.192.804.438 1.152.738.36.288.648.66.864 1.116.216.444.324.996.324 1.656 0 1.212-.432 2.166-1.296 2.862-.864.684-2.058 1.026-3.582 1.026zM133.975 18V5.292h2.826V18h-2.826zm2.16 0v-2.448h6.966V18h-6.966zm0-5.31v-2.358h6.336v2.358h-6.336zm0-4.968v-2.43h6.876v2.43h-6.876zM155.677 18V5.292h2.826V18h-2.826zm11.987 0V5.472h2.826V18h-2.826zm-3.978-10.242V5.292h10.782v2.466h-10.782zM189.225 18V5.472h2.826V18h-2.826zm-3.978-10.242V5.292h10.782v2.466h-10.782zm21.359 10.458c-.96 0-1.848-.168-2.664-.504a6.687 6.687 0 01-2.124-1.404 6.39 6.39 0 01-1.422-2.088 6.654 6.654 0 01-.504-2.592c0-.936.168-1.8.504-2.592a6.325 6.325 0 011.404-2.07c.6-.6 1.302-1.062 2.106-1.386a6.929 6.929 0 012.664-.504c.948 0 1.824.168 2.628.504a6.205 6.205 0 012.124 1.386 6.148 6.148 0 011.422 2.088c.336.792.504 1.656.504 2.592 0 .924-.168 1.788-.504 2.592a6.53 6.53 0 01-1.404 2.088 6.576 6.576 0 01-2.124 1.386 6.7 6.7 0 01-2.61.504zm-.036-2.574c.756 0 1.416-.168 1.98-.504a3.415 3.415 0 001.332-1.404c.312-.612.468-1.314.468-2.106 0-.6-.09-1.14-.27-1.62a3.537 3.537 0 00-.774-1.26 3.196 3.196 0 00-1.206-.81 3.907 3.907 0 00-1.53-.288c-.756 0-1.422.168-1.998.504a3.331 3.331 0 00-1.314 1.386c-.312.588-.468 1.284-.468 2.088 0 .6.09 1.146.27 1.638.18.492.432.918.756 1.278.336.348.738.618 1.206.81.468.192.984.288 1.548.288zM220.55 18v-2.484h3.15c.768 0 1.44-.15 2.016-.45a3.212 3.212 0 001.332-1.35c.312-.588.468-1.284.468-2.088s-.162-1.494-.486-2.07a3.238 3.238 0 00-1.332-1.332c-.564-.312-1.23-.468-1.998-.468h-3.24V5.292h3.276c.96 0 1.842.156 2.646.468.816.3 1.524.738 2.124 1.314a5.66 5.66 0 011.404 2.016c.336.768.504 1.62.504 2.556 0 .924-.168 1.776-.504 2.556a5.769 5.769 0 01-1.386 2.016 6.4 6.4 0 01-2.124 1.314 7.203 7.203 0 01-2.628.468h-3.222zm-1.908 0V5.292h2.826V18h-2.826zm16.216 0l5.04-12.708h2.556L247.44 18h-2.988l-3.816-10.548h1.026L237.792 18h-2.934zm2.862-2.304v-2.304h6.93v2.304h-6.93zm16.953-2.43l-4.896-7.974h3.276l3.762 6.444h-2.106l3.762-6.444h3.204l-4.932 7.974h-2.07zM254.331 18v-6.03h2.826V18h-2.826zm12.682-4.644l-.45-8.424h2.97l-.45 8.424h-2.07zm1.026 4.842c-.468 0-.858-.162-1.17-.486a1.626 1.626 0 01-.468-1.17c0-.48.156-.876.468-1.188a1.557 1.557 0 011.17-.486c.48 0 .87.162 1.17.486.312.312.468.708.468 1.188 0 .456-.156.846-.468 1.17-.3.324-.69.486-1.17.486z" fill="#2F2F2F"/></svg>