<svg width="275" height="61" fill="none" xmlns="http://www.w3.org/2000/svg"><path d="M87.441 10.466l.052-.225c.807-.204 1.665-.114 2.498-.29-.234-.194.104-.047-.957-.115a8.246 8.246 0 00-1.352.014c-1.922.198-5.687.4-6.037.47-.56.114-2.179.235-2.793.103-.106-.022-.58-.104-.71-.052-.974.392-1.774.346-3.575.413-.135-.047-.152-.148-.207-.232.07.001.139.006.207.003.195-.007.082-.12-.017-.077-.06.026-.112.06-.168.09-.353.102-.683-.024-1.025-.011-.311.012-.613.128-.933.078-.271-.043-.313-.022-1.13.059-.035.06-.012.098.07.106.765.07.594-.006.665.161-.249.148-.495.067-1.53.146-.409.03-.164.041-1.487.14.278-.222.277-.223.768-.33.168.174.4.144.643.071.12-.036-.025-.147-.054-.151-.214-.027-.409.048-.607.1-.26-.163-.523-.02-2.4-.042.07-.034.097-.057.127-.06 1.105-.143 2.2-.343 3.316-.42.486-.034.985.012 1.458-.06.208-.032 11.356-1.025-1.706-.084l-.168-.203c-.367-.14-1.051.135-1.573-.136-.107-.28 1.18-.117-.038-.283.037-.045.057-.103.098-.113a5.4 5.4 0 011.861-.149c.23-.052.46-.13.698-.152.662-.06 1.328-.128 1.988-.133.807-.005 1.599-.146 2.401-.162.166-.004.334-.067.5-.102l.384-.555c-.25-.106-.052-.154-1.213-.078-4.18.273-7.11.65-7.389.451.242-.18.61-.107.873-.238.04-.02.037-.08.055-.123-.866-.058-1.74.132-2.678.064.58-.154 1.134-.125 1.65-.245-.353-.191-.472-.209-2.028-.061-1.318.125-1.027-.052-2.5.202-.098.017-.489.05-.478-.025.007-.042.018-.107.055-.12.126-.043.267-.096.395-.093 1.23.03 2.436-.183 3.673-.28-1.119-.199-.747-.172-3.439-.034.62-.227 1.156-.336 1.713-.333 1.227.008 2.439-.153 3.656-.266 1.014-.094 2.356-.144 2.99-.306-.147-.196-.462-.143-.617-.27.005-.015.006-.042.016-.044.338-.073.675-.168 1.029-.157.444.014.434-.058 1.857-.243 1.09-.142.762-.035 1.046-.287-1.398-.138-4.741.22-4.929.238-.521.05-1.044.042-1.567.078-2.135.146-2.424.317-3.372.268.246-.484.147-.406 8.22-1.037.068-.005.136-.023.213-.036-.139-.085-.303-.04-.452-.029-1.002.077-1.127-.222-1.93-.172-1.25.079-4.294.354-4.505.304.26-.264 6.377-.375 7.375-.723.299-.105.591.067.917.004.272-.054 15.056-1.104 15.062-1.104.242-.016.491-.024.706-.133-.36-.416-1.543.013-2.403-.154.93-.179.54-.064 1.338-.126 2.133-.167 2.123-.496 2.632-.52.496-.022 3.875-.914 6.463-1.06 1.554-.088 4.185-.305 5.13-.375.568-.042.613.167.606.076-.092.038-.18.097-.276.108-.615.071-6.95.166-9.731 1.154.357.255.326-.122 7.87-.71.284-.021.815-.111 1.033-.092.837.073 1.822-.112 6.705-.426 4.83-.311 1.043.01 5.974-.334.929-.064 7.435-.616 8.192-.277 1.205-.176 2.357-.183 3.504-.261.026-.002.055.025.083.039-.045.03-.086.08-.136.087-.552.074-12.774.8-12.577 1.078.422.592 20.569-1.214 24.07-.99.652-.13 1.317-.023 1.973-.128.418-.066.837-.043 1.261-.01-.237.189-.592.108-.863.226.125.105 1.213-.056 1.512.195-.31.247-1.149.121-1.461.4.556.11 1.119-.108 1.67-.037-.017.046-.022.112-.046.116-1.217.22-.879.063-1.27.412-2.311.586.327.033.552.416-.166.16-.463.08-.678.206.015.076.038.162.05.25.012.083-.152.17.03.275 2.035-.102 3.577-.81 4.276-.567-.041.06-.06.14-.127.176-1.056.573-1.983.25-2.033.467-.008.036.036.095.082.11.483.157.66-.045-.134.442.255.17.603.087 1.21.018l.705.277c.061.202-.271.209-.346.362.802.093 1.335-.393 1.948-.07l-.091.297c.196.131.74.027 1.015-.024-.022-.281-.075-.308.316-.34l.137.404c.671.013 1.325.049 1.988-.028.14-.016.107.131.027.155-.656.197.111-.12-1.938.16l-.345.303c.171.159.169.162.646.284.844.057 5.433-.45 6.26-.24.123-.05.245-.1.395-.163 1.142.14 1.367-.106 2.794-.076.012.113-.105.112-.171.118-4.462.4-.352.154.028.177.144.009.242.07.281.168-.24.213-.609.236-.929.333-.036.011-.042.078-.071.139 1.13.101 1.21.084 1.207.211-.004.14-.396.073-1.593.26.618.127 1.722-.049 1.817.204l-.838.175c.061.022.095.045.131.046 2.455.04 2.179-.107 1.69.626-.07.023-.136.065-.195.062a4.201 4.201 0 00-.973.066l.066.194c-.275.178-.121.27.07.459-.621.125-1.205.21-1.833.125-.598-.438.063-.404-4.151-.032a.668.668 0 00-.352.141c-.047.053-.027.132-.036.196.403.122.771-.067 1.149-.062.45.005 1.622-.042 2.249-.065-.395.233-.963.138-1.023.424-.007.037.18.078.254.098-.1.056-.276.046-.298.171.268.166.488.052.68.043.121-.006.25.133.193.208-.266.352-.184.212-.785.588-.079.05.038.165.079.169 1.243.11 1.471-.013-.041.224-.515.081-.258.188-.046.497-.16.068-1.819.62-3.044.523-.177-.148-.124-.28.005-.413-.172-.12-.464.007-.662-.134.553-.495 1.349-.45 1.731-.718-.572-.078-1.202.13-2.156.035a.917.917 0 00-.311.018c-.503.135-1.037.13-1.543.235-.204.043-.416-.034-.608.068-.14.075-.291.14-.431.205-.453-.032-.898-.013-1.34-.09-.393-.069-.826.027-1.253.083-.527.493-.229.31-.888.35-.056.004-.114.054-.162.089-.02.014-.017.044-.024.068.155.2.553.136.735.305.067.146-.171.203-.215.338.059.04.115.111.199.128.614.125.774.013 1.535.112.09.012.15.127.105.177-1.016 1.115-2.098.271-2.202 1.171.508.099 1.011.12 1.503-.1.081-.228-.176-.144-.499-.095-.087-.08-.15-.018.318-.29.236-.045.442-.065.659-.002l-.047.33c.357.142.274.061.361.381.132.15.376.066.581.107-.033.026-.055.058-.089.067-.099.027-.223.026-.3.068-.751.424-1.287.151-1.697.293-.59.204-1.23.204-1.827.286-.173.127-.017.203.228.42-.025.186-.401.14-.466.346.366.091.609-.349 1.105.132-.741.43-.793.13-.858.642-.134.01-.299-.011-.4.036-.69.32-1.379.205-2.554.419-1.536.28-1.522-.12-2.577.397-.035.085 0 .106.09.104.442-.01.281.026.34.288.081.03.166.085.261.09.556.027 1.11.022 1.649-.146.229-.072.373-.068.451.236.12.126.538.035.496.152-.021.06.015.033-.7.363-1.144.086-.934-.055-2.351.173-.726.117-1.017-.027-1.552-.111-.502.151-1.063.223-1.555.421-.017.16-.134.268-.305.354.042.039-.015.062.362.036 2.436-.17 1.768-.115 3.287-.48.466-.111.629.09 1.161.145.088.01.167.051.27.084-.094.038-.152.078-.216.085-1.275.144-1.735.373-2.165.309-.655-.098-.93.132-2.918.247-2.93.168-2.976.196-3.544.308-1.677.33-1.338.38-1.682.106.041.02.013-.007-.011-.004-.382.043-.751-.04-1.139.005-2.125.248-2.63.192-3.007.325-.284.1-.601-.062-1.024.073-.094.03-.223.074-.297.053-.325-.093-.622.086-.929.062-.408-.033-.488.1-2.182.252-1.94.174-2.339.436-3.101.355-3.331.27-3.696.28-4.168.417-.727.212-.998-.026-.478.301-.286.216-.582 0-.872.043l-.064.19c-.403.088-.774.246-1.204.28-.281.023-.526.13-.783.279.503.058.979-.047 1.496-.02.058.052.135.124.243.224.727.036 1.493-.176 2.273-.082-.801.25-.469.142-1.252.417.288-.022.514-.004.698-.06.754-.229 2.009-.155 3.3-.476.238-.059.312-.062 2.693-.353.131.174-.244.126-.185.265.074.02.162.046.253.072-.101.112-.388.018-.447.189.289.08.625-.054.912.06-.229.369-.943.229-.996.408l.804.02c-.041.138-.178.18-.313.194-.637.067-.557-.093-.465.14.028.072.005.064-.262.158-.138.11.138.15.033.249-4.705.91-2.686.407-4.332.867.446.02.856-.045 1.246-.162l.604.119c-.022.036-.025.056-.039.06-.098.032-3.637.608-4.774.693-.22-.293.034-.252-1.866-.088.415.095.47.007 1.364.04-.338.343-3.453.507-9.362.941-7.029.517-7.162.658-11.191.788-.485.016-.967-.017-1.456.037-.174.019-.312-.075-.345-.211.454-.248 4.938-.36 4.715-.58-.153-.151.132-.018-1.555.058-.743.21-1.52.18-2.284.245a2.908 2.908 0 01-.825-.05c-.058-.011-.103-.047-.166-.076l.164-.206-.584-.283c-.344.01-.693.01-1.04.032-2.057.138-.707-.057-2.4.113-.138.014-.275.055-.412.06-.28.011-.562-.012-.839.014-.434.04-.926.202-.896.108.026-.08.002-.14.363-.177 2.112-.218 2.407-.23 2.817-.3 2.282-.39 3.867-.278 6.672-.728 1.686-.27 4.36-.251 4.224-.617-.07-.192-.469-.228-.589-.203-.612.129-1.232.22-1.862.266-.793.243-2.715.307-3.307.435-1.499.324-2.442.212-3.003.38a1.37 1.37 0 01-.408.061c-1.124-.026-2.222.207-3.335.288-1.631.12-1.823.25-2.059.063.37-.202.832-.073 1.215-.212-.044-.123-.194-.061-.286-.055-3.821.27-3.777.333-4.05.18-.76-.427 8.453-.43 6.99-.983-.91-.345 1.63-.587-2.826-.253-.141-.223.64-.19.973-.406l-.361-.266a2.773 2.773 0 00-.93.015c-.813.144-2.576.114-3.55.27-.167.028-.348.013-.52.006-.046-.002-.085-.045-.13-.07.344-.263 1.931.007 2.768-.504-1.249-.048-3.013.505-8.677 1.053-.168.016-.344.04-.476-.06.396-.213 1.02-.105 2.242-.335.852-.16 1.812-.117 2.683-.388.61-.19 1.532-.261 1.696-.412l-.12-.257.68-.139c-.303-.054-.525.007-.797 0l-.67-.246c-.375-.025-1.662.078-2.492.257-.633.136-2.327.206-5.018.446-2.11.188-1.656.277-2.392.253-.063-.002-.114-.09-.17-.14.392-.226 1.1-.065 2.598-.37.376-.076.765 0 1.138-.1.061-.016.138.004.208.001.593-.023 1.156-.199 1.764-.191.563.006.842-.051 3.45-.301.282-.027.557-.063.781-.249-.056-.044-.108-.13-.173-.132-.846-.034-.799.202-2.77.412-3.316.355-2.547.167-3.236.276a4.607 4.607 0 01-1.142.024c.013-.023.02-.06.039-.065 1.33-.317.135-.054 2.549-.312 3.697-.395 2.199-.342 3.32-.424.452-.033.91-.026 1.328-.205.2-.085.094.098 1.154-.222-.131-.03-.21-.064-.29-.061-1.382.045-.929.096-1.31-.05l.257-.232c-1.547-.027-2.116-.056-3.417.079-1.18.122-.685.005-2.21.12.025-.063.026-.117.057-.128.093-.034.21-.083.296-.07.504.077.957-.088 1.424-.178.083-.016.095-.072.053-.122-.238-.023-.49.053-.72-.025-.08-.139.194-.191.174-.271.05-.26-.322-.331-.334-.543.25-.153-.117-.138 2.23-.385-.116-.13-.208-.029-1.088-.043.07-.055.096-.095.132-.101.24-.04.5-.043.72-.113.647-.206 1.481-.155 2.175-.14.83.018.624-.22 1.947-.284.628-.03 1.255-.098 1.882-.154.103-.01.193-.045.179-.142-.536-.085-1.078.085-1.62.064-.31.098-.624.01-.936.046-.31.035-.613.102-.937.086-.2-.01-.412.047-.619.072-1.525.191-1.35.225-1.667-.008.053-.155.27-.118.407-.174.153-.061.302-.129.453-.194-.166-.185-.483-.145-.706-.238.015-.171.267-.197.392-.3.46-.38-.017-.225 1.968-.622.595.04 1.183-.087 1.773-.103a4.66 4.66 0 001.232-.19c.29-.088.628-.083.877-.246l.02.038c-.05-.03-.046.013.013-.234.421-.178.891-.148 1.349-.236-.05-.07-.136-.048-.205-.043-3.13.203-2.035.25-3.54.366-7.508.576-7.194.87-7.205.226-.645-.156-.57-.113-.625-.257-.018-.048.099-.058 1.192-.208 1.161-.158.896-.086 1.043-.232-.044-.015-.184-.11-.474-.02-.37.114-.394.077-2.803.137.09.064-.203-.043.796-.201.272-.044.552-.06.934-.097-.411-.128-.767.039-1.076-.063-.12-.079-.25-.157-.184-.328.676-.221.718-.151-.152-.212.02-.12.036-.228.053-.335a1.785 1.785 0 00-.722-.042c-.83.1-1.672.11-2.49.31a3.27 3.27 0 01-1.065.084c.237-.565.264-.429-.065-.634.278-.263-.337-.107 3.608-.506.272-.027.535-.114.832-.181-.42-.312-2.249.053-6.158.081-1.311.01-.473.062-1.867.069-.077-.153.141-.226.306-.223.254.003 7.57-.615 5.335-.593-1.537.016-.675-.16-3.018.07-1.784.176-1.584.136-1.668.046-.014-.015.13-.084.276-.086.989-.017.972-.19 1.633-.255.54-.054 1.941-.112 2.957-.444-.052-.054-.1-.09-.123-.133-.172-.31.81-.172 1.153-.33-.12-.388-.186-.268.235-.535l1.035.043c.213.234.563.31.958.313.105 0 1.248-.077 1.554-.137-.035-.064-.044-.114-.083-.146-.1-.082-.35-.112-.235-.267.26-.348 1.82.044 3.326.017.216-.207.044-.156.83-.215.058-.101.006-.17-.111-.166-.456.019-.76-.166-1.156-.303.496-.21.954-.116 1.39-.167 1.717.577 3.928.735 3.606.45a.283.283 0 00-.174-.066c-.399.017-.736-.113-1.101-.174-.09-.014-.158-.084-.228-.134-.019-.014-.01-.046-.014-.07.1-.156.345-.143.55-.242 2.855.374 2.186.356 2.811.34.104-.003.238-.112.268-.21.072-.235-.529-.195-.73-.24.034-.066.045-.108.058-.11 1.926-.125 3.035-.492 3.236-.173.021-.024.11-.049-.607.19l-.03-.045c.237.137.02.095 1.077.184l.655-.149c.126.21.477.104.45.071-.082-.097-.022-.081-.473-.05zm-5.887 10.872c.077-.046.068-.05.025.014-.06.053-.052.058-.025-.014zm61.444-17.986c.072.051.079.046-.022.018-.038-.065-.063-.074-.066-.027 0 .004.057.006.088.01zm-.293 9.771c-.351.059-.694.077-.506.21.196-.037.4-.065.484-.224.094-.019.113-.035.054-.042-.004 0-.021.036-.032.056zm-67.069 7.789c.072.049.08.043-.021.017-.203-.125-.434-.108-.675-.038.15.285.333.157.696.02zm6.342-13.084c-.17.024-.339.051-.51.07-.157.019-.34-.045-.518.116 1.096-.123.838-.074 1.005-.2-.007.016.094-.05.023.014zm3.52 12.649c-.414-.012-1.066-.09-1.268.165.18.094.87-.038 1.095-.085.058-.012.102-.062.152-.094.38-.063.256-.036.424-.099-.195.004-.318.028-.403.113zM113.64 8.06c-.817-.03-.894-.045-.993.005-.056.028-.131.152-.044.159.333.024.658-.011.969-.113.035-.012.092-.18.068-.05zM84.715 21.423c-.013-.074-.038-.092-.06-.053-.003.004.054.023.083.034l.017.214c.24.04.482.003.716-.05.081-.019.142-.09.213-.137a.538.538 0 00-.564-.092c-.124.045-.27.057-.405.084zM141.317.875c.05.062.077.068.071.022-.001-.005-.059-.003-.091-.004-.05-.029-.096-.08-.151-.083-.784-.046-1.564.028-2.341.147-.016.002-.026.028-.056.062.87.037 1.719-.034 2.568-.144zm1.854 10.309c.437.046.388.058.592.002.08-.022.152-.133.11-.179-.034-.037-.087-.088-.139-.09-1.876-.07-1.703.358-1.189.192a.682.682 0 01.644.086c-.064.014-.216-.004-.078.083.023.014.084-.048.06-.094zm-55.974 9.592c-.377.018-.752-.03-1.131.07-.203.052-2.628.202-3.468.355.752.009 4.056-.056 4.576-.44.132-.021.286.014.42-.081a.673.673 0 00-.397.096zm23.701 3.584c.708.063.708.063 1.062-.14l-.362-.33c-.775-.043-.59-.01-.704-.143.058-.171.39-.204.427-.385-.378-.243-.972-.113-1.073.122.627.52.294.222.305.515.005.11.212.091.276.178.114.258.132.183-.107.196-.108.006-.107.056-.114.07.193.021.125.052.29-.084zm14.25-17.317c-.427.148.002.113-1.621.202-.002 0-.006-.025-.009-.038.215-.044.493-.136.567-.187-.681-.078-1.28.167-1.916.287.018.03.022.058.038.06 1.032.21 3.171-.052 3.783-.148-.068-.087.073-.043-.642-.19-.038-.036-.075-.102-.112-.1-.08.003-.109.058-.088.114zm-47.113-1.24c.648.135 1.232.05 3.23-.116.257-.022.47-.099.647-.28-.254-.01-.499-.05-.72.001-.82.189-1.02-.118-2.999.308-.055.012-.094.068-.141.104-.425-.209-.872-.158-1.332-.028.032.256.26.206 1.158.098.056-.007.105-.057.157-.087zm27.239 19.412c.174.103.117.085.212.052-.054-.067-.152-.027-.23-.036l-.114-.19c-.792-.1-1.415.186-1.647.156-.352-.044-.688.018-1.034.056-.692.074-1.388.123-2.082.187-2.389.222-.561.133-3.523.416-.762.072-1.524.141-2.284.211.001.074.042.106.123.107.24.005.48.04.72-.04.276-.094.54.018.821-.005 2.642-.22 4.518-.241 6.015-.621.426-.108.882-.13 1.367-.146l-.227.234c.36.114.363.113.571.026.06-.025.118-.092.165-.088a1.55 1.55 0 00.499-.06c.121-.03.264-.009.387-.01l.261-.25zm3.061-4.99c-.703.346-.703.346-1.578.456-.298.136-.609.034-.909.062-1.423.132-5.888.909 1.786.232 2.549-.225 5.462-.373 9.301-.7.624-.053.607-.12.876-.259.088.02.216.086.333.074.794-.082 1.598-.146 2.345-.452l-.116-.148c-2.76.08-3.958.352-4.501.294-1.446-.154-2.963.247-3.954.236-.26-.004-2.158.069-2.599.186-.324.086-.62.03-.984.019zM153.25 9.584c.571-.181.48-.01.545-.63-.645-.182-4.358.165-5.033.238-3.076.333-1.312.032-3.218.252-.056.006-.107.045-.161.07.039.03.075.086.118.087 1.66.023 4.141-.315 4.317-.096-.127.148.127.072-1.014.309.269.096.61-.066.865.076-.017.084-.005.038-.043.178.517.022.319-.525 1.154-.08 2.739-.103 1.841-.205 2.47-.404zM87.764 24.31c-.12.092-.272.137-.172.301.05.084.208.138.342.116.999-.17 2.011-.235 3.023-.31 1.385-.101.208-.05 3.897-.507l-.618-.14c-.684.097-.366.125-1.433-.16-.462.005-4.66.36-5.081.4-.089.01-.125.108-.064.183.032.04.07.078.106.116zm45.293-8.083c1.45.035 2.853-.199 4.265-.281.137-.008.276-.04.409-.073.814-.2 1.826-.205 2.561-.387.696-.173 1.366-.41 2.105-.483.24-.023.464-.097.63-.236-.177-.02-4.615.648-4.722.656-.799.057-.564-.136-3.776.233l-1.472.571zM98.286 24.21c.144.194.135.206.227.224.741.152 1.624.205 3.287-.171.817-.185 2.176-.11 3.594-.59-.673.013-.584.063-1.06.095-.425.029-.217-.014-1.348.053-2.501.15-2.249.174-2.269-.083-.104-.002-.21-.022-.302-.002-.702.15-1.429.244-2.13.474zm11.193-21.955c2.733-.186 2.564-.155 2.886-.26.047-.016.077-.182-.018-.171-.203.023-.414.087-.606.072-.697-.054-1.373.128-2.061.138-.764.299-1.5-.106-2.561.193-.528.15-.98-.041-.911.14.067.177.532.094 3.271-.112zm25.855 3.722c-.359-.025-.478-.058-.62.03-.136.084-.086.16.067.2.259.066.649-.198 1.422-.036.764.161 1.014-.297 1.928-.19.049.005.113-.035.171-.055.201-.515-.192-.467-1.291-.256-.609-.052-1.161.097-1.677.307zm21.728.86c-.347-.022-.551-.055-.753-.044-.652.037-3.987.217-4.774.369 4.36-.235 4.113-.32 4.424-.157.031.017.011.078.015.135-.389.116-.817.103-1.325.214.672-.038 1.237-.014 1.789-.09.194-.255.022-.142.624-.427zm-25.451 11.622c.341-.014.685-.089 1.022-.152.079-.015.138-.094.213-.149-.271-.083-1.226.011-1.653.118-.869-.036-1.744.026-2.549.293-.495.165 1.275-.037 2.967-.11zm-41.606 4.234c.646.051 1.18-.038 1.688.057.124.023.286.002.414-.032.54-.142.983-.092 1.842-.316.036-.01.113-.16-.017-.165-.992-.037-3.653.337-3.927.456zM69.736 8.196c.054.051.076.099.112.103.307.03.615-.04.932-.018 1.29.091 1.083-.149 1.85-.159.287-.003 1.795.028 1.696-.134-.08-.134.132-.124-1.65-.008-.97.063-1.941.127-2.94.216zm40.38 16.263c-.269-.025.244-.065-2.805.23-.153.014-.253.074-.294.18.526.11.886.132 1.299.07 2.089-.315 1.801-.365 1.8-.48zM91.697 7.194c-.152-.186-.364-.055-1.904.058-1.658.122-3.216.155-3.929.351.518.041.959.036 1.414-.016 1.905-.22 1.819-.061 3.006-.255.383-.063.75-.093 1.132-.06.085.007.186-.05.281-.078zM114.81 22.97c1.375.042 2.509-.187 4.162-.453.143-.22-.354-.035-.761-.006-.943.065-1.355.144-3.401.46zm-7.462-.753c.41.105.531.124.792.086.479-.07.973-.111 1.43-.231 1.053-.276 1.444-.16 1.928-.313.105-.033.056-.168-.046-.13-.701.268-1.662.196-2.146.303-.793.174-1.231.134-1.958.285zM86.55 18.565c-1.996.055-1.969.254-1.809-.154a.844.844 0 00-.575.007c-.353.34-.12.25-.865.417 1.122.064 2.178-.173 3.249-.27zm1.489 5.127c.09-.149.134-.184-.093-.193-.56-.021-1.112.086-1.668.125-.298.02-.589.155-.881.24-.02.006-.027.036-.055.077.467.031.924-.03 1.357-.114.45-.087.903-.066 1.34-.135zM83.515 5.48c.236-.004 2.065-.083 2.115-.242.007-.023-.002-.048-.004-.073-.06-.015-.124-.047-.186-.043-1.146.07-1.72.067-1.925.358zm-12.712 9.318c-.621-.024-1.255.033-2.248.202 0 .042 0 .085-.002.148.588.063 1.163-.042 1.73-.158.177-.036.431-.013.52-.192zm17.565-4.203c.688-.025 1.595.203 1.55-.141-.153-.088-.194-.252-.482-.297-.613.046-1.086.018-1.068.438zm29.542 12.422c-1.358.037-5.152.686-1.679.363.559-.052 1.091-.194 1.631-.305.021-.004.032-.038.048-.058zm14-16.6c-1.506.033-1.504.066-1.912.25-.471.213 1.663.152 1.904-.119.026-.029.006-.076.008-.132zM105.737 2.45c-.263-.168-.043-.212-1.847-.005-.082.07-.095.127.018.17.795-.232 1.25.104 1.829-.165zM81.893 23.032c-.962-.336-.749-.285-.963-.256-.124.4-.98.162-.854.418.54-.056 1.09 0 1.817-.162zM140.141 12.4c.84.08-.046.064 2.415-.2-1.181-.034-1.603-.01-2.415.2zm-36.493 9.656c.65.038 1.641-.031 2.437-.18-.783.036-1.565.081-2.437.18zm31.703-7.749c.632.117 1.166-.032 1.697-.038.148-.001.3-.062.633-.136-.879-.022-1.554.06-2.33.174zm-35.972 6.956c.023.037.036.102.072.108.423.067.844.035 1.346-.082-.86-.126-1.138-.223-1.418-.026zm-7.222 1.983c-.286-.066.095-.098-2.09.1-.05.004-.095.043-.143.066.033.01.064.03.094.029 2.2-.139 1.789-.107 2.14-.195zm3.89-.314c-.74-.06-1.354.052-1.97.108-.038.004-.073.042-.216.128.76-.102 1.415-.065 2.186-.236zM77.762 8.217c.313.03.045.075 1.46-.096.133-.016.047-.157-.032-.146-.474.063-.963.073-1.428.242zm39.527-1.08c-.003-.034.193-.039-1.758.109.002.033-.194.038 1.758-.11zm-8.677.628a12.12 12.12 0 00-1.765.155c.539-.057 1.085-.007 1.765-.155zm44.89-2.333c.497-.035.971-.002 1.476-.143-.721-.02-.721-.02-1.476.143zM98.778 22.726c1.302-.024 1.343-.03 1.529-.196l-1.529.196zM157.42 6.413c-.209-.04-1.021-.121-.988-.014.012.036.037.097.067.099.274.016.55.029.921-.085zm-19.618-4.914c.338.03.882.035 1.221-.091-.363-.079-.862.003-1.221.09zm4.053 14.207c.761.007.761.007 1.164-.212-.125 0-.238-.024-.294.006-.263.138-.568.158-.87.206zM82.548 7.858c.264.035.114.083 1.228-.056.189-.024.041-.118-.015-.114-1.256.097-1 .074-1.213.17zm4.694 1.39c-.06.024-.132.04-.176.073-.32.245.448.428.607.072-.093-.115-.274-.114-.43-.145zm40.215 9.437c-.812-.055-.812-.055-1.293.117.39.009.771.008 1.293-.117zm8.058-17.605c.023.045-.083.039.909-.036-.004-.047.098-.04-.909.036zm-26.079 22.654c-.305.052-.607.059-.965.17 1.078.006.931-.041.965-.17zM93.25 25.636c.16-.205-.194-.087-.871.066l.87-.066zm6.823-10.68l1.068-.08c-.497-.035-.79-.004-1.068.08zm36.231-3.488c.247-.005.502.111.723-.055l-.723.055zM94.603 25.376a.725.725 0 00-.471.023c-.044.015-.06.072-.09.109.056.017.113.05.166.046.167-.014.32-.056.395-.178zm-6.858-3.25c-.298-.06-.564.007-.853.053.294.075.56.015.853-.052zm50.692-20.202c.858-.017 1.021.006 1.01-.12-.264-.05-.518-.008-1.01.12zM85.343 7.64c-.518-.032-.519-.032-.853.067.548.035.548.037.853-.067zm-3.635 11.469c-.403-.055-.636-.034-1.066.08l1.066-.08zm42.616-1.07c.002.025-.043.03.303.011.54-.03.243-.053-.303-.012zM72.26 7.77c-.002-.025.069-.024-.585.025.002.026-.07.025.585-.025zm13.688-.603c-.199-.092-.388-.03-.64.03.258.033.451.043.64-.03zm1.66-.121l.61-.046c-.198-.015-.398-.073-.61.046zm22.944 15.963c.656.105.562-.168.156-.146-.11.005-.191.055-.156.146zm-37.68-8.906c-.32-.018-.548-.05-.758.064.225.086.44.009.758-.064zm31.923 10.033c-.353.051-.493.06-.493.11-.001.05.054.062.137.03.111-.042.269-.015.356-.14zm12.802-.6c.126-.014.246-.016.292-.059.067-.064-.006-.153-.149-.101-.456.166-.404.136-.143.16zM90.4 25.842a.912.912 0 00-.687.032c.232.084.458.028.687-.032zm-5.001-9.501c-.233-.073-.447-.071-.655.06.235.07.452.094.655-.06zm55.884-3.055c-.144.023-.038.148-.019.156.338.144.517-.237.019-.156zm-6.713 1.213c-.159-.071-.323-.018-.481-.003-.063.006-.166.005-.158.088.228.01.451.057.639-.085zm-55.165 4.774c.532-.005.319.016.775-.068-.267-.066-.468-.058-.775.068zm62.335-3.822c.352-.058.161-.228.039-.129-.048.04-.191.037-.131.124.006.01.06.004.092.005zm-1.17-11.858c-.059.023-.133.038-.172.071-.055.048-.026.106.057.108.053.001.226-.061.188-.136-.009-.018-.047-.029-.073-.043zM92.914 8.944c-.22-.037-.396-.064-.62.056.219.038.395.043.62-.056zm-18.005-.933c.208-.005.49.016.38-.115-.063-.075-.33-.082-.38.115zm8.121 12.703c.002.03-.055.027.387-.007-.003-.03.053-.026-.386.007zm50.271-3.2c-.141-.054-.271-.056-.394.044.143.027.274.027.394-.044zm-62.89-9.616c-.186-.016-.34-.022-.511.043.176.026.329.013.51-.043zm66.854 9.307a.605.605 0 00.434.024c.038-.01.06-.056.089-.086-.181-.072-.345-.03-.523.062zM87.52 21.18c-.082-.021-.168-.047-.257-.064-.017-.004-.076.04-.072.044.104.13.106.126.302.1.01-.001.013-.038.026-.08zm-3.75.52c-.224-.002-.356-.037-.506.056l.505-.055zm43.842-2.595c-.168-.034-.321-.046-.483.053.172.01.328.066.483-.052zM155.149 7.73c.043.049.083.037.604-.025l-.604.025zm-13.826 2.08c.341.083.341.081.546-.052a.678.678 0 00-.546.052zM92.127 8.44a.7.7 0 00.457-.044c-.157-.023-.313-.044-.457.044zm-16.874 7.8c-.122-.067-.329-.051-.474.035.039.024.074.066.117.068.137.008.268-.013.357-.103zm12.987 1.774c.157.072.274.032.41-.031l-.41.03zm13.901-1.048a.79.79 0 00-.479.036.55.55 0 00.479-.036zM83.675 7.328c-.034-.033-.004-.062-.228-.023-.014.003-.021.03-.03.046.24.022.167.023.258-.023zm55.537-1.774l-.132.08c.28.144.527-.118.132-.08zm6.717-.046c-.086-.067-.052-.05-.148-.045.002.02-.022.086.095.083.018 0 .035-.025.053-.038zM98.311 25.116c-.01-.03.026-.06-.202-.04-.022.002-.042.026-.063.04.092.036.018.042.265 0zm55.191-15.412c-.062.014-.12.038-.18.059.056.013.112.038.169.037.174-.004.111-.117.011-.096zm-79.39 6.285c.026-.014.06-.026.076-.044.061-.07-.131-.082-.134.012 0 .011.037.021.057.032zm57.94-4.167c-.002-.028.032-.023-.221-.004.002.027-.031.023.221.004zm-14.61-3.832c.112.005.066.02.191-.043-.122-.005-.078-.013-.191.043zm16.732-6.797c-.224-.013-.167-.017-.217.02l.217-.02zM93.921 20.626c-.067.003-.135.006 0 0-.067.005-.134.01 0 0zM80.363 8.023c-.008-.012-.011-.032-.025-.036-.19-.055-.42.11.025.036zm48.093 11.046c-.003-.035.042-.03-.29-.005.003.036-.042.03.29.005zm6.113-13.684c-.23-.026-.159-.023-.26.002.088.034.128.066.26-.002zm4.368 8.233c-.505-.04-.379-.053-.487.05.101.038-.021.05.487-.05zm3.786.133c-.078-.002-.126.023-.127.073-.001.018.029.034.045.052.166-.104.153-.077.082-.125zM87.635 18.1c.001-.043.048-.033-.262-.027-.002.043-.049.033.262.026zm6.83-.583c-.205.022-.073.1.1.012a27.558 27.558 0 00-.1-.012zm4.9-.35c.005.023-.035.02.258-.002-.005-.038.038-.034-.258.002zm-12.38 3.134c-.2-.047-.114-.052-.326.017.183.044.103.056.327-.017zm71.653-12.526a.319.319 0 00.356-.013c-.118-.076-.236-.05-.356.013zM98.685 2.884l.076-.034c-.023-.011-.046-.03-.071-.032-.083-.003-.117.02-.085.055.01.01.052.008.08.011zm1.896-.19c-.091.028-.096.018.003.033l-.003-.034zM70.997 7.872c.09-.025.086-.017-.003-.025l.003.025zm3.375-.288c-.002.05-.025.043.092.018l-.092-.018zm24.459.918c.097.023.074.027.086-.01l-.087.01zm-22.097 1.803c-.092.007-.114.027-.055.05.016.006.053-.011.081-.018l-.026-.032zm66.044-4.648c.005-.049.029-.043-.095-.016l.095.016zm9.078-.137l-.106.022c.105.01.075.012.106-.022zm4.863 2.125c-.08-.049-.093-.076-.241.005.197.044.145.047.241-.005zm-82.536 6.362c-.077-.05-.018-.059-.215.015.08.042.023.053.215-.015zm68.351-4.287c-.1-.034-.056-.033-.17-.004.1.034.056.033.17.004zm-69.911 5.835c.073.02.056.022.07-.003l-.07.003zm27.345-1.78c-.12.032-.127.022.004.035l-.004-.036zm-20.66 2.31c-.092-.024-.07-.028-.083.01l.083-.01zM99.05 15.03c-.006-.003-.076-.057-.14-.017-.052.035-.029.056.06.05.026-.003.05-.02.08-.033zm45.307-1.836c-.004.032-.022.027.078.012l-.078-.012zM81.386 18.11c-.008-.01-.011-.03-.023-.032-.097-.02-.208.04-.056.05.025.001.052-.012.079-.018zm11.382-.432c.059.042.023.049.148-.019-.094-.014-.061-.02-.148.02zm5.388-.356l.077-.041c-.024-.013-.047-.036-.073-.037-.089 0-.126.027-.09.062.013.013.057.011.087.016zm.506-.074c.116.01.083.014.114-.033-.117-.01-.084-.014-.114.033zm1.9-.141c-.068-.055-.011-.06-.211.003.069.052.012.058.211-.003zm3.221-.243c.111-.014.115-.031.007-.044-.024-.003-.056.013-.084.02l.077.024zm.859-.075c.005-.027.019-.023-.071-.01l.071.01zm-17.085 1.72c-.08-.03-.043-.029-.14-.009.08.032.044.03.14.009zm.802-.081c-.104-.012-.062-.017-.163.02.055.022.064.044.157.014.008-.002.004-.022.006-.034zm51.355-2.408c.099.01.07.013.099-.024-.099-.01-.07-.013-.099.024zm-57.367 5.5c.132.048.158-.055.024-.043-.01 0-.016.028-.024.043zm-3.119.424c-.074-.012-.056-.026-.085.039.08.013.06.02.085-.039zm.421.037c.102.03.078.037.093-.02l-.093.02zm27.103-1.6c-.005.04-.025.034.085.013l-.085-.013zm-17.51 2.34c-.004.027-.017.022.07.01l-.07-.01zm18.067.675c-.097-.008-.069-.011-.098.02.098.01.07.013.098-.02zm11.687-.433c.091-.026.095-.018-.001-.029l.001.03zm24.382-9.973c.079.025.062.031.067-.018l-.067.018zM80.22 21.78c-.04.053-.048.042.026.042l-.026-.042zm45.3 3.296c-.589-.008-.184-.072-1.989.434-.337.095.003.034-4.943.764-2.742.405-6.178.567-6.248.55-.402-.103-.825-.035-1.25-.036a81.752 81.752 0 01-.195-.333c.493-.134 7.907-.596 9.63-1.009.401-.096.841-.06 1.223-.22.03-.012.069-.03.097-.027.605.08 1.159-.157 1.746-.198 1.728-.12 1.975-.448 2.299-.24.007.004-.021.05-.042.055-.173.047-.274.134-.328.26zm-12.865.504c.326.318.231.255-17.661 1.725-.103.008-.205.036-.305.055-.22.163-.394.342-.468.567-.154-.012-.447.033-.56-.25-.182-.464-1.207-.021-2.576-.137.39-.209 4.435-.633 4.786-.639 2.063-.032 4.108-.333 6.167-.441.589-.031 1.176-.14 1.764-.216.787-.104 7.963-.641 8.853-.663zm48.008-14.828c-.003-.16.235-.159.342-.245-.11-.084-.11-.084-.641-.098-.209-.132-.289-.207-.472-.202-1.243.03-.858.065-1.188-.066.376-.338.376-.338.501-.687.384-.083.528.166.785.065.232-.092.387.033.573.081 2.424-.198 2.084-.182 2.495-.156.149.01.113.147.072.165-1.035.469-.476.391-1.404.39l-.145.612c-.734.348-1.02.07-.918.141zm-.13-.642c.159.067.305.017.466-.046-.177-.087-.324-.045-.466.046z" fill="#EE4E4E"/><path d="M150.495 13.462c-.251-.067-.208-.23-.266-.38l-.291-.054c-.105-.308-.142-.2.185-.519.091-.038.12-.058.152-.063 1.323-.194.854-.181 2.389.02.364.294.185.223.839.31-.1.072-.153.137-.229.162-1.541.505-1.453.468-2.779.524zm-15.079 7.64c.045.125.016.26.186.31 2.319-.091 2.102-.148 2.205.227-.041.047-.063.105-.114.127-.49.209-1.938.915-2.179.39-.024-.053-.15-.08-.23-.12.196-.238.187-.148.021-.424-.238-.112-.537-.123-.709-.307.484-.272.303-.233.82-.203zm-60.389 7.806c.517-.224 1.594-.169 3.148-.432 1.058-.18 3.245-.256 4.782-.524.26-.045 2.575-.272 3.117-.218-.172.106-.354.102-.523.115-1.295.096-7.997 1.05-10.524 1.059zm43.868-4.342c3.689-.743 4.363-.69 4.691-.77.913-.224 1.862-.226 2.796-.315.065-.006.133.015.207.024-.016.085-.125.076-.193.082-1.94.18-4.121.703-5.468.77-.564.027-.537.206-2.033.209zM74.708 4.413c-.024.001-.05-.018-.1-.039.059-.055.102-.137.176-.158.563-.154.95.052 1.54-.081.276-.062 2.213-.216 2.475-.207 2.634.092-1.47.312-4.09.485zm86.809 3.667c.278-.203.511-.354.513-.598l.46-.139c.222.052.151.138.096.309.193.212.429.064.538.043.241-.046.289-.03.491.183-.071.046-.136.123-.22.138-.583.104-1.171.167-1.878.064zm1.421-2.976c.099.184-.14.25-.286.378-.206.035-.441.097-.678.108-1.244.058-1.379.384-1.757.05.171-.127-.147-.026 1.226-.317.847-.179 1.069-.296 1.495-.219zM142.8 18.72l-.33-.553c.037-.108.151-.17.283-.202.645-.159.667-.133 1.067.045l-.151.492c-.242.128-.486.272-.869.217zm1.859.421c-.031-.156-.041-.293-.18-.407-.084-.07.008-.197.14-.228.425-.097.837-.163 1.029.197.056.104-.075.283-.289.328-.228.048-.465.075-.7.11zm-.37-17.757c.253-.14.51-.208.796-.138.05.013.072.074.118.124-.403.205-.322.118-.389.372-.243.061.152.035-1.786.117.402-.174.822-.058 1.169-.208l.092-.267zM80.114 3.956c.208-.053.307-.097.405-.1 1.142-.035 2.282-.194 3.551-.18-.953.13-.232.085-3.654.323-.065.004-.132-.018-.302-.043zm62.013 16.694c.04-.056.062-.135.13-.167a5.055 5.055 0 011.347-.41c.04-.008.102.038.141.068.17.127-1.199.68-1.618.508zm4.402-19.8c-.865.123-1.559.163-2.254.179-.083.002-.164-.057-.266-.094.083-.038.131-.077.182-.081 1.166-.104.903-.04 1.553.003.201.013.409-.045.785-.008zm-38.488.299c.038-.032.061-.068.088-.07 5.036-.423 3.625-.09-.088.07zm49.846 7.726l-.228.602c-.2.027-.516.098-.581-.029-.048-.093.097-.095.168-.136.099-.055.093-.132-.005-.17-.174-.066-.094.033-.305-.153-.141.112.318-.248.951-.114zm4.482-2.84c-.173.118-.384.073-.575.099a8.137 8.137 0 01-.512.05c-.588.041-.539.028-.655-.055-.056-.04.048-.145.153-.155.539-.05 1.083-.127 1.589.061zM84.941 3.663c-.032.002-.068-.05-.102-.076.027-.016.053-.044.082-.046 4.15-.273 4.2-.203.02.122zm67.212.903c.841-.342.759.049 1.294-.132.347-.117.661-.06 1.029.021-.28.127-.326.07-2.081.201-.256-.125-.214-.116-.242-.09zM128.773.49c.123-.072-.076-.103 1.476-.192.062-.003.127.073.2.119-.555.228-1.103.046-1.676.073zm-7.23-.205c-1.322.122-.955.097-1.305.075-.308-.263.899-.261 1.172-.244.115.007.147.072.133.169zm36.653 11.518c.736-.24 1.014-.277 1.6-.21l-.005.16a3.629 3.629 0 01-1.407.189c-.191-.015-.14-.188-.188-.139zm-81.683 11.73c-.075.133-.264.16-.369.242-.323.008-.64.076-.891-.102l.256-.442.168.197c.236.149.596-.045.836.105zm41.763-1.683c-1.006.268-1.176.29-1.567.222.377-.211.377-.211 1.567-.222zm-36.492 2.296c.042-.042.213-.325.57-.178.27.112.417.36.358.379-.195.059-.061.078-.928-.201zm51.943-3.771c.441-.07 1.26-.272 1.24.019-.018.268-.942.078-1.24-.02zm-55.695-3.152c.107-.104-.11-.083 1.796-.233.418.205-.692.137-1.504.27-.087.015-.188-.023-.292-.037zm50.845 4.081c.238-.218.67-.069.734.14.058.19-.482.362-.642.104-.051-.082-.067-.175-.092-.244zm14.746-19.006c.157.03.302.07.388.172-.079.1-.079.1-.827.132-.105-.17.326-.15.439-.304zm1.419-.19c.275.333-.986.19-.662.04.229-.105.455-.038.662-.04zM132.417.361c-1.145.102-.899.1-1.052.01.037-.026.068-.07.176-.071 1.099-.015.939-.03.876.061z" fill="#EE4E4E"/><path d="M111.939.865c.158-.052.22-.086.283-.09.275-.016.551-.07.887-.013-.392.105-.731.115-1.17.103zM78.102 27.972c.297.096.34.095.313.166-.008.02-.04.05-.063.05-.243.015-.48.045-.508-.088-.006-.027.061-.068.105-.096.022-.014.064-.014.153-.032zm9.382-.485l1.003-.076c.247.061-.353.082-.552.097-.288.022-.102.038-.451-.02zm60.938-15.931c.412-.073.736-.135 1.087-.047-.347.132-.672.13-1.087.047zm16.285-3.551c-.052.117-.052.177-.09.194a1.171 1.171 0 01-.771.083c.076-.13-.114-.066.861-.277zm-6.498 3.785c-.948.106-.972.122-.991.059-.017-.057.018-.103.091-.111.965-.11.815.14.9.052zM106.08 1.184c.465-.035.541-.054.552.008.026.145-.752.175-.552-.008zm51.353 3.076a1 1 0 01-.602.056c.243-.094.243-.094.602-.056zm4.247.678c.373-.14.373-.144.66-.045-.214.116-.436.091-.66.045zm-32.274 15.789c-.252.073-.493.168-.748.043.246-.132.491-.113.748-.043zM81.68 25.872c.15-.19.21-.216.42-.172.063.013.062.08.017.106-.139.079-.141.077-.437.066zm82.569-17.219c.223-.305.566-.202.618-.198-.149.205-.369.224-.618.198zm-20.557 7.8c-.095.071-.284.257-.349.11-.022-.048.103-.229.349-.11zm-61.01-5.883c-.025.015-.048.038-.074.041-.107.012-.185-.023-.235-.083-.05-.059.203-.143.309.043zm4.225-.357c.122.071-.301.232-.525.035-.094.105.297-.169.525-.035zm54.959 9.824c-.109.17-.165.202-.33.169-.298-.061.042-.33.33-.169zm-52.657 7.316l.415-.032c-.152.099-.284.043-.415.032zm68.292-17.001c-.007.023-.005.057-.025.066-.206.089-.193.033-.302-.049.2-.09.116-.086.327-.017zm-38.628 13.903c-.022.078-.125.035-.184.014l.184-.014zm24.19-7.32c-.112.085-.221.097-.335.017.113-.083.222-.1.335-.017zm-79.695-3.13c.2-.211.575-.015.358.034-.11.025-.11.023-.358-.034zm88.726-2.41c-.189.052-.154.064-.13-.073.202.013.177-.005.13.073zm-75.152 5.891c.109-.099.227-.101.354-.033-.108.102-.226.105-.354.033zm3.608-.302c.328-.007.285-.014.284.017-.327.006-.284.013-.283-.017zm74.187-4.564a.381.381 0 01-.355.032.395.395 0 01.355-.032zM74.981 23.73c.1.15-.291.162-.275.073.01-.055.176-.192.275-.073zm40.202-2.497c-.088.058-.152.123-.208.061-.058-.064.036-.084.161-.102.012-.001.031.026.047.04zm-44.371.277c-.118.03-.069.026-.19.014.05-.043.01-.038.19-.014zm92.839-14.107c-.005 0-.345.104-.27-.067.061-.14.22.024.27.067zM107.424 1.15l.027.037c-.028.007-.068.025-.083.018-.06-.028-.038-.05.056-.056zM137.022.097c.096.017.102.009-.002.029l.002-.029zm1.365-.079c-.115.02-.094.026-.085-.018l.085.018zm6.723.512c-.11.025-.079.026-.11-.018.11-.026.079-.027.11.018zm1.302.753c.091.017.098.01-.002.026l.002-.026zm2.359 1.417c.122-.023.1-.03.088.022l-.088-.022zm-1.815 1.153c.229-.056.166.063.022.032-.012-.003-.015-.021-.022-.032zm5.217.694c-.088.005-.185.039-.253-.025.026-.01.062-.034.076-.029.185.065.134.095.177.054zm2.955-.128c-.115.017-.094.025-.08-.022l.08.022zM73.446 10.86c-.118.029-.084.03-.121-.022.117-.03.083-.032.12.021zm87.616-5.912a.716.716 0 01.025.033c-.026.006-.061.022-.075.016-.054-.024-.034-.044.05-.049zm1.216 1.546c-.107.022-.076.022-.107-.013.106-.022.075-.023.107.013zm-3.671 2.276l.029.034c-.029.006-.068.024-.086.017-.062-.025-.04-.045.057-.05zm-88.461 6.858l-.074-.024c.027-.008.058-.024.082-.02.103.013.1.03-.008.044zm97.337-7.071c-.12.029-.098.036-.086-.023l.086.023zm-6.838 2.183c-.158.118-.106.094-.197.077.249-.075.222-.06.197-.078zm-10.982 1.338a.15.15 0 01.058-.001c.015.035.044.075.03.108-.028.065-.088.067-.115.003-.013-.031.013-.073.027-.11zm-80.409 9.539c.103-.056.119-.067.227-.007-.09.049-.04.046-.227.007zm71.685-3.355c.009-.013.018-.035.029-.036.143-.014.101.074-.029.036zM73.61 23.89c-.01.014-.02.04-.031.04-.157.016-.113-.082.03-.04zm48.725-1.94l.026.03c-.026.006-.061.021-.078.015-.056-.02-.036-.039.052-.046zm-42.049 4.102c-.03-.004-.074 0-.088-.013-.036-.03.001-.056.092-.056.026 0 .051.02.077.032l-.081.037zm-1.136.598c-.003.017.004.042-.01.05-.085.051-.13-.009-.151-.023.106-.054.066-.042.161-.028zm38.508-2.297c.001.033.017.026-.067.018l.067-.018zM104.856 1.314c.096.012.09.018.022-.018l-.022.018zm56.341 6.123c-.086.058-.051.057-.135.004.082-.056.051-.057.135-.004zm-4.261 1.552c-.03-.007-.086-.018-.085-.02.015-.043.04-.03.063.037l.022-.017zm-89.062 6.867c.03-.072.037-.068-.022-.012l.022.012z" fill="#EE4E4E"/><path d="M67.852 15.844c-.035.038-.04.033.022.012l-.022-.012zm3.195.616c-.015.047-.022.046.019.014l-.019-.013zm79.08-5.514c-.107-.018-.1-.024-.022.017l.022-.017z" fill="#EE4E4E"/><path d="M150.105 10.963c.083-.003.119.016.107.056-.021-.004-.052-.004-.06-.013-.044-.048.002-.082-.047-.043zm-10.356 7.459c-.03-.05-.009-.09.068-.108.015-.004.067.029.063.038-.047.115-.209.024-.131.07zM77.957 27.77c.024.05.035.04-.03.038l.03-.038zm74.562-18.08c-.548.159-1.308.2-1.488.105.453-.24.913-.114 1.488-.105zm-.881-.208c-.021.012-.05.038-.06.035-.078-.021-.075-.05.006-.07.011-.004.035.022.054.035zm-26.51-2.452l.239-.02c-.07.107-.153.076-.239.02z" fill="#EE4E4E"/><path fill-rule="evenodd" clip-rule="evenodd" d="M107.364 17.546c.781.314 1.632.47 2.551.47a6.56 6.56 0 002.5-.47 6.318 6.318 0 002.035-1.294 6.089 6.089 0 001.345-1.95 6.07 6.07 0 00.482-2.42c0-.874-.16-1.68-.482-2.42a5.742 5.742 0 00-1.362-1.95 5.962 5.962 0 00-2.035-1.294 6.608 6.608 0 00-2.517-.47c-.92 0-1.77.157-2.552.47a6.001 6.001 0 00-2.017 1.295 5.9 5.9 0 00-1.345 1.932 5.996 5.996 0 00-.483 2.42c0 .863.161 1.67.483 2.42.322.74.776 1.39 1.362 1.95.586.56 1.265.997 2.035 1.311zm4.413-2.403c-.54.313-1.172.47-1.896.47a3.96 3.96 0 01-1.483-.269 3.362 3.362 0 01-1.155-.756 3.603 3.603 0 01-.724-1.193 4.31 4.31 0 01-.259-1.53c0-.75.15-1.4.448-1.95a3.15 3.15 0 011.259-1.293c.552-.314 1.19-.47 1.914-.47.54 0 1.029.089 1.465.268.449.168.834.42 1.156.756.321.325.569.717.741 1.177.172.448.259.952.259 1.513 0 .739-.15 1.394-.449 1.966a3.22 3.22 0 01-1.276 1.31z" fill="#fff"/><path d="M123.916 17.53a6.66 6.66 0 002.5.47c1.207 0 2.27-.247 3.189-.74.931-.493 1.655-1.22 2.173-2.185.528-.974.793-2.173.793-3.596v-.387h-6.397v2.236l3.497.054a3.123 3.123 0 01-.273.685 2.733 2.733 0 01-1.155 1.143c-.494.258-1.097.386-1.81.386-.701 0-1.322-.156-1.862-.47a3.376 3.376 0 01-1.276-1.311c-.31-.56-.466-1.21-.466-1.95 0-.739.156-1.383.466-1.932.322-.56.764-.992 1.328-1.294.563-.314 1.201-.471 1.913-.471.667 0 1.265.123 1.793.37.529.246.989.616 1.38 1.109l1.845-1.798c-.564-.65-1.276-1.16-2.138-1.53-.851-.37-1.799-.554-2.845-.554a6.87 6.87 0 00-2.552.47 6.302 6.302 0 00-2.086 1.294 5.995 5.995 0 00-1.379 1.933 5.77 5.77 0 00-.5 2.403c0 .863.16 1.67.482 2.42.334.74.788 1.39 1.362 1.95.575.55 1.248.98 2.018 1.294zm9.175.016a1.51 1.51 0 001.121.454c.459 0 .833-.151 1.12-.454.299-.302.449-.666.449-1.092 0-.448-.15-.818-.449-1.11-.287-.302-.661-.453-1.12-.453a1.51 1.51 0 00-1.121.453c-.299.292-.448.662-.448 1.11 0 .425.149.79.448 1.092zM118.164 18c-.448 0-.822-.151-1.12-.454a1.498 1.498 0 01-.449-1.092c0-.448.15-.818.449-1.11a1.508 1.508 0 011.12-.453c.46 0 .834.15 1.121.453.299.292.448.662.448 1.11 0 .425-.149.79-.448 1.092-.287.303-.661.454-1.121.454zm-16.224 0a1.51 1.51 0 01-1.121-.454 1.497 1.497 0 01-.448-1.092c0-.448.149-.818.448-1.11a1.512 1.512 0 011.121-.453c.46 0 .833.15 1.121.453.298.292.448.662.448 1.11 0 .425-.15.79-.448 1.092-.288.303-.661.454-1.121.454z" fill="#fff"/><path fill-rule="evenodd" clip-rule="evenodd" d="M92.224 5.95l-4.828 11.865h2.81l.81-2.151h4.772l.798 2.151h2.862L94.672 5.949h-2.448zm2.765 7.562l-1.57-4.231-1.593 4.231h3.163z" fill="#fff"/><path d="M129.846 23.562c.104.267.158.525.405.452.854-.25 1.675-.218 1.802-.284.524-.272 1.222-.172 2.263-.48.352-.104.718-.13 1.076-.203.048-.01.083-.098.121-.146-.048-.164-.14-.149-.209-.168-.865-.242-.836.06-1.014.025-.171-.034-.31.104-.473.096-.06-.003-.121-.028-.19-.044-.168.154-.17.27-.6.255-.69-.026.07.11-1.074.066.047-.292-.049-.173.851-.364.158-.033.319-.072.432-.254-.084-.122-.084-.122-.423-.006-.063-.03-.251-.126-.348-.143-.055-.009-.116.045-.155-.067.016-.047.024-.128.048-.137.554-.2 1.178-.051 1.614-.342.513.121.295.084.835.144l.097-.23c.556-.116.454-.078.495-.172-.24-.168-3.111.256-3.292.267-.121.006-.339.32-.508.122-.149-.174-.324-.077-.473-.2.86-.467 1.213-.355 3.354-.649-.318-.223-1.273.137-2.546.06-.032-.002-.209-.18-.016-.287.205-.113.161-.065.172-.159-.625-.007-.664-.018-.728.027-.237.165-.49.198-.757.197-.354-.002-1.055.183-1.267.104.052-.535.76-.322 2.313-.544.128-.163-.144-.303-.223-.257-.658.387-.922-.04-1.252.107-.348.155-.725.067-1.078.178-.152.048-.32.022-.482.017-.017 0-.094-.142-.046-.201.086-.106.082-.088.318-.166.06-.349.003-.265.252-.4l.181.157c.522 0 1.055.071 1.569-.108l-.07-.243c.065-.19.211-.092.313-.154.109-.067.224-.113.336-.168.191.232.282.094.596-.13-.246-.112-.428.004-.604.153-.19-.173.006-.134-.704-.173-.036-.344 1.586-.095 3.62-.725.016-.005.027-.04.054-.082-.216-.053-.413-.025-.611.008-1.396.234-1.637-.036-.503-.148.701-.07.498.027.631-.128-.208-.236-1.28.208-1.749-.02.712-.598 1.536-.489 1.977-.79.384-.261 8.761-.542 9.329-.777.952-.394 2.038-.263 4.851-.654-.41-.053-3.361.077-3.477.089-.149.015-1.653.275-2.36.14.029-.068.04-.133.065-.147.7-.397 1.344-.324 2.396-.257.667.043 3.438-.362 3.442-.363.823-.102 1.065.11 1.596-.27.482-.342.885-.193 1.611-.177.307.006.59-.18.902-.098.178.046 1.456-.025 1.463-.025-.007.116-.067.097-.107.102-2.644.31-2.594.276-2.707.363-.044.033-.133.271.015.327.226.085 33.254-3.11 33.842-3.208-.827-.123-.635-.041-.758-.333.507-.216 1.792-.33 1.871-.256.174.163.355.096.536.124-.041.208.073.133-.519.318.102.093.187.048.268.049.855.002.665.319 1.273.262 3.175-.296 1.869-.292 3.134-.41 9.977-.934 9.858-1.143 10.141-.687.03.323-.156.174-.491.23-1.817.31-8.937.817-10.804 1.195-.016.004-1.739.107-3.571.255-.151.013-.137.186-.067.19 1.217.066.349-.072 1.635-.048.747.015.892-.091 1.155.005.039.014.088.029.119.006.23-.173.472-.037.714-.001 1.962.292 5.348-.58 5.944-.166.232.16.852.17 1.087.01l-.101-.403c.201-.373.495-.296.802-.28-.016.152-.068.411.027.466.109.063.123.227.173.34.584-.02 1.135-.162 1.673-.318.194.065.368.181.556.141.178-.038.366-.026.54-.085.404-.136.8-.047 1.194.157.057.216-.104.212-.133.399l.053.299c-.04.045-.083.139-.13.138-.426-.012-.842.094-1.273.038-.307-.04-.599.074-.872.255-.091.06-.101.23-.019.476.73.035 2.033-.256 2.602-.132-.075.347-.117.04-4.434.793.565.138.361.08.799.234.519.703 1.119.267 2.283.226 1.05-.037 1.044-.346 1.616-.025.073.33-.004.19.464.733-.113.22-.268.32-.447.34-3.739.421-1.807-.087-3.496.404.611.11 10.77-1 12.497-1.013.47-.004.852.375.646.429-.193.05-1.951.164-5.146.477-4.292.42-3.677.312-3.777.675-.077.28-.218.09.18.46-.046.17.044.103-.324.265l-.522-.21c-.541.484-.743.051-.877.461.029.03.059.086.084.084.003 0 8.086-.7 8.204-.859.056-.326-.192-.43-.259-.668.245-.157.486-.02.723.08.051.022.091.117.131.172-.018.179-.103.257-.176.35-.044-.066-.047-.059.012-.02.294.314 1.211-.157 1.895.152.115.052.239.041.357.075.031.01.058.079.087.12l.009-.02c-.7.494-1.043.08-.475.536-.181.343.246.071-2.082.473l-.082.41c.255.317 2.269-.383 2.796.14-.468.223-1.55.079-2.137.393-.142.076-.317.04-.419.05-.144.097-.109.235-.131.339-.023.113-.127.094-.537.113l.033-.29c-.035-.033-.091-.127-.129-.117-.461.11-.164-.094-2.6.144-.202.02-.55.207-.643.18-.307-.085-.553.075-.787.298-.304-.292-.626-.274-.933-.175-.679.217-.857.116-1.009.3.218.076 1.14.116 1.15.114.275-.044.556-.065.8-.26.194.26-.144.067 2.591.216 1.29.07 1.635-.196 2.044-.187.224.005.453.054.67.014.52-.096 1.052-.066 1.574-.135.674-.09.431.289.46.446.379.508-.169.226-3.429.698l-.21.304c-.377-.01-.447.305-.399.31.431.048.227-.014.531.142-.837.173-.78.116-.726.42.228.08 3.21-.275 3.461-.181-.032.047-.051.1-.074.103-.003 0-1.565.098-2.342.34-.108.034-.295-.045-.66.038-.038.009-.061.116-.095.186.292.161.54-.013.801-.012.237 0 .475.007.716.011-.014.225-.176.112-.217.246.074.088.203-.007.27.188-.458.327-.25.302-.931.048l-.177.407.345.549c1.429.16 2.558-.073 2.944.044-.327.19-1.117.076-1.59.247-.316.115-.53-.177-.886.18-.182.499-.072.757-1.322.705-.052-.003-.106-.086-.159-.132.269-.085.455-.375.439-.486-.004-.033-.062-.084-.089-.079-1.205.247-2.708-.072-2.701.569.274.147.501-.035.764-.165.424.207.721-.016 1.225-.149l.382.326c-.431.297.099.114-1.657.321-.238.028-.48-.06-.721.02-.527.176-1.126.027-1.622.153-.184.046-1.501.256-1.624.177-.457-.296-.881-.012-1.316-.039-.018.139.032.18.089.21.219.109.578-.26.89.07.108.115.61.061.784.047 3.037-.255 2.967-.238 3.196-.358.097-.05.198-.08.297-.022.203.119.35-.054.513-.13l.696.123c.409-.264.869-.309 1.342-.275.703.05.776-.006.804.17.013.08-.039.213-.125.25-.878.393-1.006.716-1.534.547-.055-.115-.051-.015-.019-.366-.148-.169-.306-.08-.475-.077-.423.444-.282.342-1.13.286-.813-.053.015.065-1.509.112-.06.002-.12.018-.179.03-.095.02-.135.235-.068.36.311.574.474.328.535.595-.769.42-1.062.643-1.717.682-.231.014-.242-.166-.258-.484-.17-.139.346-.164-5.493.318-.463.038-4.856.815-5.422.589l-.206.194c.124.173.271.073.397.164l-.251.186c.014.042.022.081.028.081.821.043.708.025.906.006.041.153-.039.116-.072.123-1.246.245-.365.155-1.466.404.037.05.063.107.096.124.267.137.52-.046.784.014.774-.177 1.567-.176 2.349-.284 4.912-.68 4.377-.637 4.577-.565.023.11-.007.137-.383.198-1.144.186-.117.124-1.98.314-.196.02-1.91.196-2.169.283-.531.178-.477-.065-.901.048-.098.026-.189.09-.295.058-.167-.05-.322-.014-.477.055-.379.17-3.481.393-3.593.492.014.017.064.086.099.08.852-.123 2.36-.182 2.486-.133-.135.227-.166.245-.747.415l-.187.3c-.827.304-1.639.315-2.502.47-1.131.205 5.455-.133 9.918-1.023.059.047.109.128.053.196-.102.126-.274.093-.35.291.048-.12-.111.235-.309.183-.516-.135-.556.25-1.409.333-1.147.111-4.565.722-10.358 1.252-.203-.382-.188-.326-.657.07-.124.037-.164-.15-.274-.26-1.113.074-1.437.13-1.856.03-.627-.148-.385.331-1.925.055-.065-.012-.135-.267-.065-.258.308.039.597-.07.887-.16.03-.009.051-.067.091-.124-4.019.309-23.231 1.698-33.858 2.921-.107.368.026.214-.618.608-.188.114-.41-.036-.637.128-.222.392.463.248-5.9.808-1.289.113-1.16.08-1.693.171-.433.075-.061.403-1.076.37-.675-.021-.423.073-.658-.188-1.392-.02-1.282.55-1.556.307l.009-.332c.811-.545.764-.167 1.695-.306l-.003-.203-.72-.261c.049-.214-.068-.052.425-.33.025-.014.033-.086.059-.162-.315.012-.619.012-.919.054-3.369.473-2.31.15-3.871.353-.261.035-.522-.073-.787-.03-.255.042-.526-.043-.791-.073-.016-.222.163-.105.203-.266-.792-.023-.658.193-.805.17-.268-.04-.512.116-.777.094-.683-.056-.672.128-2.002.09-.038 0-.08-.112-.124-.179.131-.1-.087-.1 1.33-.186.113-.006.313.118.358.08.283-.245.632-.115.934-.266-.176-.393.005-.355-8.041.465-1.301.133-1.388-.052-1.384.825l.01-.02c-.42-.02-.838.066-1.272-.104.024-.051.036-.11.058-.117.096-.026.53.044.463-.199-.026-.091-.185-.113-.219-.108-.146.02-.274-.072-.436-.172 2.881-.643 3.711-.5 5.339-.792.178-.032.352-.092.537-.043.169-.118.356-.063.538-.06.416.01.642-.144.958-.116.282.025.563-.04.85-.067-.161-.376.039-.156-1.824-.116-.885.02-1.274.208-2.231.231-1.147.028-1.069.184-1.444.168-.901-.04-1.217.286-1.626.088-.177-.086-.303.062-.911-.048-.272-.049-.201.03-1.577.038-.03 0-.148-.21-.034-.267.275-.137 3.277-.28 3.666-.492.327-.18.667-.173 1.014-.156.054.003.105-.056.16-.089-.133-.245-.163-.031-1.071-.136-.498-.056-.998.156-1.503.124-.835-.053-.609.103-1.132.184-1.358.208-.513.177-1.129.158-.015-.084-.04-.15-.029-.186.013-.045.058-.099.089-.094.836.134 1.833-.59 2.725-.514.512.044.469-.303.308-.402-.037-.023-.08-.022-.119-.04-.036-.017-.071-.046-.109-.07.626-.202.358-.136 1.071-.231-1.904-.13-1.045-.08-1.554-.022-.024.003-.055-.057-.083-.088.036-.058.049-.166.253-.166.367 0 .713-.152 1.071-.211.045-.008.076-.115.113-.176.126.121.257.102.321-.055.112-.278.301-.423.448-.637.289.026.293.023.374-.316-.359.162-.736-.043-1.07.181.031.094.272.403-.014.699-.027.028-.032.098-.047.149-.18-.002-.364-.123-.54-.002-.047.032-.119-.002-.18-.009-.074-.008-.148-.144-.138-.263.015-.166.039-.33.059-.493-.292-.115-.57.013-.853-.026-.259-.036-.519-.114-.772-.172-.047-.252.039-.182-.526-.299.101-.235.227-.282 1.125-.395 1.432-.18 1.696-.17 1.637-.235-.12-.133-.272.007-.391-.143.007-.057.037-.216-.005-.232-1.019-.373-.731-.272-2.117-.24-.04-.142.02-.2.072-.206.26-.034.492-.219.76-.21.077.003.152-.045.269-.082-.283-.188-1.488.096-1.876-.054.215-.198.486-.071.694-.248-.357-.48-.682-.088-2.659-.071.075-.176.208-.117.293-.193.1-.088.21-.15.312-.221-.052-.22-.082-.268-.151-.253-.41.09-.428.13-.459.038-.099-.304.798-.197 1.21-.506.234-.175.215-.043 1.809-.232-.026-.053-.036-.095-.051-.102-.733-.334-.781.104-1.18.075-1.812-.133-1.18.08-1.675-.107.232-.22.482-.164.707-.228.215-.062.417-.184.648-.167.023.002 1.188.032 1.428-.022-.064-.1-.103-.207-.14-.211-.183-.02-.369-.04-.546-.009-.755.133-1.878.05-1.993-.082.024-.065-.078-.033.643-.343 1.069-.46 2.195-.317 2.386-.523-.191-.128-.36-.025-.532-.025-.788 0-.558-.007-1.184.127-.35-.187-.22-.126-.541-.22.19-.292.416-.209.697-.21.628 0 .361-.562.814-.732 1.38-.518 5.014-.489 5.593-.708.106-.04.111-.127.001-.35l-.496-.056c.047-.05.065-.088.089-.094 1.16-.294.936-.26 1.31-.076l-.115.228c.126.117.273.209.458.303a29.77 29.77 0 002.189-.157c.041-.175.02-.284-.075-.334-.443-.233-.252.139-1.558.073-.056-.003-.115-.063-.17-.104-.015-.011-.022-.051-.034-.084.477-.26 1.305.029 1.722-.337l.007-.525c.439-.482 1.29-.325 1.496-.466.277-.19.59-.14.869-.238l.308.226c-.028.05-.042.102-.065.11-.096.036-.211.022-.291.09-.322.273-.682.269-1.049.237-.179-.128-.351-.127-.545-.024.21.107.382.043.557.003zm68.528 2.12l.142-.01c.09.135.181.211.28.043-.102-.062-.195-.031-.29-.02-.09-.169-.043-.07-.193.083.015.012.036.04.045.034.038-.026.042-.073.016-.13zm-70.517.27c.021.08.035.094.038.042.001-.003-.031-.014-.049-.022-.022-.09-.011-.067-.052-.076l.063.056zm21.364-10.319c-.134.052-.118.03-.094.09.124-.174.082-.09.122-.129.003-.002.04-.109-.028.04zm-25.054 17.604c-.848.035-.907.009-.972.174.441.08.628.057.932-.116.014-.008.018-.05.027-.076.062-.036.083-.08.013.018zm17.637-12.693c-.233-.286-.314.256-.257.43.146-.06.179-.359.359-.335.075.366.308.062.72.29.072.041.061.031 1.336-.158-.184-.038-.37-.064-.544-.022-.191.046-.357-.134-.538-.135l-.494-.004c-.147-.037-.215-.211-.32-.17-.211.275-.144.248-.262.104zm-6.721 12.974c-.179-.018-.355-.106-.538-.057-1.064.282-1.378.225-2.383.337.031.121-.057.071.464.226.753-.513 2.351.093 2.443-.523.05-.05.046-.055.014.017zm7.365-.884c.743-.169.891.298 1.714-.046-.216-.104-.418.007-.612-.128.063-.224.267-.073.347-.286-.209-.32-.466-.107-.675-.23-.045.056-.086.083-.101.13-.148.471-.451.36-.597.446-.029.017-.042.085-.062.13-.122.123-.288.18-.313.456-.004.05-.243.059-.276.062.115.297.295.23.441.285.099.037.197-.002.276-.19-.124-.16-.133-.395-.142-.63zm66.133-7.69c.043.033.046.026-.011.02-.001-.333-.031-.217.154-.501-.265-.39-.035-.11-.606-.135-.092-.004-.191-.092-.28-.163-.086-.07-.182.093-.262-.063.093-.178.143-.198.103-.274-.06-.112-.098-.094-.507.002-.012.002-.019.04-.028.06l.114.313c-.089.129-.191.226-.246.366-.068.175-.127.35-.249.456.28.138.489.307.677.05.069-.164.045-.419.225-.506.09.102.223-.063.326.116l.06.272c.268.051.133.065.53-.013zm-5.654-.546c-.939.387-1.132.425.915.219 2.001-.202 1.906-.126 1.428-.372l.082-.414c-.085-.181-.002-.345-.006-.571-.597.079-1.194.097-1.786.207.153.133.326-.024.472.142.073.231-.125.257-.13.43.152.227.152.23.309.173.053-.02.099-.1.156.006-.044.143.044.157-.398.212-.864.108-.959.157-1.061-.05.057-.102.176-.122.182-.305-.277-.063-.837-.008-.932.114.423.23.185.142.574.04.088-.023.153.047.195.169zm-60.88-7.023c-.458-.43-.614-.145-1.305-.153-.923-.012-1.362.231-1.616.227-1.018-.018-1.105-.084-1.639.234-.097-.023-.182-.071-.259-.058-.654.11-1.323.098-2.041.27.455.2.297-.048 1.132.212.397.124.409-.118.516-.057.265.15.701-.164.957-.055.206.088.393-.067.598.025.069.031.168-.005.229-.063.445-.422.78-.015 1.609-.071 1.733-.119 1.788-.272 1.805-.532.163-.008.345.111.479-.096-.185-.136-.344-.12-.465.117zm63.626 7.738c-.028-.044-.054-.12-.083-.127-.62-.142-5.379.4-5.525.468 1.634.32 1.417.194 2.512.092 2.339-.218 2.289-.124 3.096-.433zM123.94 35.21c.144.134-.042.176 1.12.114 1.785-.096 1.361.097 1.517.006.414-.244.604.048 1.374-.139.038-.01.059-.121.097-.206-.977-.538-.8-.446-1.147-.102-.155.003-.32.027-.474-.098-.185-.15-.361-.132-.529-.027-.403.249-.473.08-1.374.142-.097.007-.123.16-.16.288-.147-.008-.291-.173-.424.022zm8.63-2.486c.12-.066.245-.077.318-.247-.531-.004-1.061-.14-1.585-.063-.399.058-.8.13-1.203.114-.452-.017-.87.175-1.312.21-.051.004-.097.08-.141.132-.252.288 3.093-.296 3.923-.146zm5.778 1.858c-.687-.169-1.468.11-1.683.107-.54-.007-2.245.16-2.826.389-.03.012-.05.072-.109.162.396.019.76.141 1.119.06.416-.092.501-.414 1.145-.44.237-.01.695-.136 1.026-.1.453.05.886-.06 1.328-.178zm62.005-16.109c.799-.182.898-.097 1.01-.375.023-.057-.024-.162-.082-.217-.264-.248-.409-.251-1.669-.077-.115.016-.224.102-.332.167-.022.013-.028.075-.046.127.183.119.367.115.546.114.213 0 .383.235.573.261zM129.15 34.317c-.024.215-.024.216.022.245.541.339 1.174.06 2.576-.267-.073-.092-.119-.192-.159-.192-.774-.015-.956.2-1.439.038-.152-.051-.83.105-1 .176zm10.215-13.268c-.172-.038-.349-.122-.336.059.026.34.49.091.72.116.389.04.757-.082 1.136-.121.026-.003.046-.064.075-.108-.173-.416-.116-.293-.218-.444-.391-.052-.997-.003-1.126.089l-.251.41zm60.637 7.107c.544.143 1.905-.056 3.041-.119.096-.005.186-.081.273-.122-.005-.12-.012-.217-.083-.246-.558-.227-.929.302-1.42.24-.137-.018-1.808.247-1.811.247zm-64.61 7.579c-1.713-.1-.237-.216-2.592.14-.854.13-.698.084-.784.198 1.211.065 1.742-.037 3.267-.265.036-.005.068-.045.109-.073zm53.667-7.593c2.066-.155 1.96-.12 2.079-.235.062-.06-.016-.29-.224-.27-1.44.137-1.607.112-1.855.505zm-39.777-11.324c.888.053 3.196-.271 3.199-.271 1.979-.177-1.886-.014-3.199.27zm40.915 14.09c-.338-.035-.881.02-1.458.15.12.647.409.65.831.522.081-.024.129-.107.082-.267-.213-.099-.432.089-.66-.06.02-.056.029-.124.048-.128.954-.196 1.015.072 1.157-.216zm6.944-3.683c.71-.032 1.266-.075 1.529-.017.238.052.415-.181.64-.157.245.025.263-.02.27-.113-.915.004-.388-.062-2.342.194-.017.002-.032.03-.097.093zm10.154-4.626c.133.104.508.055.655.01.477-.145.037-.58-.421-.528-.079.009-.088.163-.181.19-.118.034-.112.067-.053.328zm-81.596 8.627c.436-.043.884-.005 1.382-.172-.187-.023-.306-.047-.424-.05-.141-.004-.192-.233-.319-.283-.196-.035-.398-.074-.6.017-.095.501-.085.38-.039.488zm13.245-.108c-.373.452-.791.172-1.378.413.046.032.066.057.084.056 1.996-.143 2.389-.128 2.131-.317-.245-.025-.55.127-.837-.152zm-3.428.582c-.582-.06-1.834.085-2.481.19-.016.003-.024.061-.038.1.446.013 1.979-.104 2.408-.188.032-.006.058-.052.111-.102zm47.888-17.642c-.036-.156-.116-.216-.195-.218a3.855 3.855 0 00-1.179.141c.061.3.095.224 1.374.077zm-56.393 18.055c-.211-.04-.425-.121-.621.054l.025.255c-.031.062-.154.025-.115.215.487.04.681.119.76-.157-.048-.23-.033-.132-.049-.367zm12.275 1.844c-.854-.209-1.154-.194-1.788-.025.761.144 1.097.273 1.788.025zm-16.665.59c.287.08.49.077.682.023.412-.114.537-.055 1.611-.203-.067-.034-.088-.054-.106-.053-1.176.108-1.143.135-1.255.097-.294-.097-.557.008-.932.137zm8.024.856c-.551.07-1.074.073-1.583.189-.011.14.065.177.115.174.922-.06 1.067-.115 1.368-.21.028-.008.047-.069.1-.153zm-.066-3.57c-.158.327-.201.334-.113.447.416.044.826-.08 1.244-.122.018-.001.031-.061.052-.105-.19-.088-.368-.01-.546-.047-.201-.043-.401-.108-.637-.173zm-3.403 1.226c.036.027.074.08.108.079.341-.003.681-.03.999-.191.018-.01.016-.093.027-.165-.183-.047-.232-.172-1.098.21-.016.007-.024.043-.036.067zm80.094-13.262c-.022.003-.038.058-.059.093 1.635.084 2.562-.408.059-.093zm-61.678.72c.326-.074.692-.012 1.066-.168-.528-.153-.705-.169-1.095-.062-.057.015-.062.122.029.23zm51.345 7.803c.059.084-.073.058.769.125.065.005.121-.076.137-.113.021-.046-.067-.165-.124-.17-.133-.012-.721-.055-.782.159zm.434-9.783c-.656-.174-.526-.169-.696-.058-.025.016-.058.172.025.21.25.115.474-.023.706-.08l-.035-.072zm-64.322 11.97c-.073-.07.045-.039-.538-.132-.441.25-.568.062-.539.276.36-.079.733.039 1.077-.144zm5.834 2.533c.068.3-.014.226.501.111.102-.022.203-.042.28-.163-.285-.136-.529-.015-.781.052zm-11.034-.975c.591.188 1.125.03 1.091-.052-.051-.119.056-.123-.892-.078a.216.216 0 00-.199.13zm70.665-17.478c-.14 0-.281-.005-.422.002-.138.007-.284-.13-.417-.012.094.16.555.241.839.01zm.138 10.108c-.036-.075.065-.049-.562-.199-.063-.015-.124.082-.097.155.017.047.052.105.081.113a.48.48 0 00.237.013c.113-.031.244.044.341-.082zm-8.464 5.16c-.336-.064-.647-.106-.969.048.192.068-.033.078.969-.048zm-47.317-12.667c.054.17.17.11.433.068.351-.055.392-.015.444-.131-.017-.017-.037-.05-.053-.048-.295.026-.701-.059-.824.111zm43.344 10.742c-.275.053-.188.035-.262.056-.063.017-.115.135-.078.177.089.1.075.1.485-.114.016-.008.023-.044.034-.067-.1-.065-.057-.063-.179-.052zm5.811-12.15c-.174.006-.678-.011-.913.121.372.002.642-.054.913-.12zm1.459-.135l-.82.075c.279.022.554.018.82-.075zm-3.713.406c.399-.036.195-.008.8-.101-.277-.024-.553-.053-.8.101zM125.873 33.15c-.484-.074-.484-.074-.747.053.027.032.052.083.079.088.236.049.461.024.668-.141zm23.485-13.28l-.833.076c.369.088.584-.039.833-.076zm-12.803 13.38c-.624.03-.403.003-.84.096.239.018.48.069.84-.095zm48.415-19.578c-.381.014-.508-.018-.461.122.268.187.387.162.461-.122zm.565 13.632c.388.116.402.115.781-.019-.232-.055-.018-.063-.781.02zm-45.706 9.184c-.537-.108-.536-.103-.694.047.229.059.417-.048.694-.047zm65.298-13.636c.812-.074.942-.194.118-.143-.016.001-.029.034-.118.143zm-70.252-4.924c-.441-.017-.441-.02-.553.105.619-.057.51-.033.553-.105zm55.772 12.97c.196.035.328.004.46-.025.027-.006.049-.045.084-.079-.179-.038-.345-.065-.544.104zm-54.898 1.35c-.265.01-.422-.047-.613.092.217.022.371-.016.613-.092zm-12.435-1.169c.122.316.125.313.301.268-.095-.176-.247-.541-.301-.268zm13.243.576c-.262-.05-.434-.089-.622.028.204.113.367.02.622-.028zm6.966 1.878c.139.131.266.089.389-.01-.137-.11-.266-.091-.389.01zm51.511-6.148c-.137-.108-.26-.07-.383.013.138.133.259.056.383-.013zm-58.962 4.837c.112.01.227.061.335-.014-.122-.105-.224.015-.335.014zm-6.629.098c.247.09.248.092.38-.086-.26-.098-.26-.099-.38.086zm-.069 2.734c-.11-.08-.181-.068-.254.023l.254-.023zm1.779-1.822c-.102-.11-.19-.06-.278.01.1.091.192.087.278-.01zm71.443-7.102c-.101-.046-.188-.032-.286.033.106.022.196.048.286-.033zm-63.509 5.842c-.097-.098-.181-.074-.258.023.096.095.181.084.258-.023zm-13.929.71c-.115-.185-.212-.076-.311.005.112.123.216.131.311-.006zm74.567-7.186c-.106-.039-.192-.049-.282.05.231.036.154.04.282-.05zm2.387-7.52c-.116-.112-.213-.076-.353.053.146-.007.249.105.353-.053zm-.517 6.779c.099.073.189.056.275-.021-.1-.076-.189-.043-.275.02zm-71.62 1.307c-.208-.158-.207-.16-.221-.156-.046.013-.049.17.034.172.055.001.109-.009.187-.016zm70.067-12.402c-.088-.119-.163-.086-.235-.078-.018.003-.031.053-.047.081.063.045-.011.048.282-.003zm-12.643 18.046c-.059-.047-.004-.056-.197.02.036.05-.001.066.19.027.004 0 .005-.03.007-.047zm5.432-4.137c-.128-.052-.087-.05-.155.032.062.025.02.04.155-.032zm10.828-1.524c-.024-.01-.064-.072-.095.008l.095-.008zm-3.652-1.123c-.023-.062.002-.061-.112 0 .073.031.044.031.112 0zm-65.608 5.456c.125.045.084.045.154-.033-.061-.022-.019-.037-.154.033zm-2.915.262c.036.052.001.053.138.005-.057-.077-.089-.043-.138-.005zm67.122-6.657c-.001-.04.022-.03-.153-.036.001.037-.022.027.153.036zm-72.546 2.224c-.075-.116-.086-.07-.151.035.063.033.024.05.151-.035zm10.545-4.758c-.002-.028.018-.023-.134-.009.002.028-.018.023.134.009zm57.374-5.832c-.124-.035-.084-.036-.153.033.061.018.019.032.153-.032zm8.403 2.43c-.008-.054-.006-.12-.027-.161-.031-.06-.074-.039-.074.04-.001.048.034.1.056.147.002.004.029-.016.045-.025zm-16.318-4.39c.071-.015.072-.04.001-.066-.017-.005-.036.018-.054.027l.053.04zm.326-.055l.056-.024c-.057-.015-.042-.02-.056.024zm1.649-.166c-.006-.014-.012-.04-.018-.04-.047.002-.056.026-.022.056.008.008.027-.01.04-.016zm-54.11 5.49c-.081-.05-.102.045-.014.04.006-.001.01-.027.014-.04zm3.953-.368c0 .04-.009.032.045.019l-.045-.02zm-6.581 1.167c-.063-.049-.038-.048-.097-.003.062.048.036.048.097.003zm69.503-6.203c-.044-.07-.011-.072-.122-.005.043.068.011.072.122.005zm-65.932 7.534c-.023-.05-.004-.048-.07-.022.024.045.004.043.07.022zm13.486-1.014c.013-.022.039-.053.036-.064-.024-.068-.063-.087-.105-.054-.017.012-.028.04-.041.06l.11.058zm-9.651 1.207c-.054-.05-.03-.046-.09-.014.057.05.033.047.09.014zm57.619-2.754c.001.048-.009.04.042.021l-.042-.021zm-67.259 7.508c-.013-.021-.024-.055-.038-.06-.058-.016-.056.17.021.13.011-.005.011-.046.017-.07zm1.319-.166c.077.046.093-.05.014-.039-.006 0-.009.025-.014.04zm.737.09c.048.028.037.032.042-.007l-.042.007zm67.5-.892c-.016-.014-.033-.04-.046-.038-.065.01-.066.037-.003.063.014.006.032-.016.049-.025zm3.213 1.186c.064-.034.067-.022-.005-.044l.005.044zm3.128-.284c-.003-.005-.041-.104-.086-.037-.029.043-.012.076.043.076.015 0 .029-.026.043-.04zm-64.782 6.277c.047.028.038.033.041-.008l-.041.008zm68.773-6.287c-.039-.133-.148-.001-.043.024.014.003.029-.015.043-.024zm-80.169 9.15l-.059.021c.06.016.043.018.059-.021zm58.116-3.293c-.046-.03-.035-.033-.041.005l.041-.005zm17.025-5.39c-.055-.044-.044-.053-.043.026l.043-.026zm-76.091 7.155c-.04-.035-.031-.041-.032.02l.032-.02zm20.029 2.683c.038.037.03.044.032-.017l-.032.017zm52.448-22.687c-.023.062-.03.048.02.053l-.02-.053zM129.252 25.89c-.023.073-.031.057.022.06l-.022-.06zm77.549-5.952c.022-.051.027-.04-.016-.046l.016.046zm-83.789 11.108c.044.036.034.042.035-.017l-.035.017zm5.053 1.397c.019-.048.024-.037-.016-.042l.016.042zm6.979 5.895c-.003.002-12.902 1.38-12.905 1.38-1.34-.37 12.859-1.406 12.905-1.38z" fill="#4CCD99"/><path d="M140.746 16.14c-.337.2-5.495.476-6.975.727-.091-.598.486-.214 6.768-.79.05-.005.104.03.207.064zm13.578-1.43c1.811-.658 26.598-2.579 26.845-2.67.3-.11.5-.046 1.448.072-1.37.216-26.957 2.623-28.293 2.598zm-27.557 7.734c.097-.025.215-.009.288-.082.145-.145.778-.051.467-.435.005-.029.003-.075.015-.083.22-.151.462-.14.704-.09.052.01.102.092.17.156l-.019.415c-.291.244-.742.026-1.1.39-.077.077-.184.091-.274.133l-.239-.143c-.004-.336.001-.288-.012-.26zm66.025-11.104c-1.082.289-3.278.351-2.624.21.003-.002.359-.018.528-.143.405-.3 1.63-.18 2.096-.066zm1.258-.075c-.007-.07-.027-.146-.014-.16.24-.249 1.497-.242 2.086-.245-.708.411-1.395.364-2.072.405zm-74.106 13.944c.056-.082.074-.138.101-.144.177-.035.354-.08.534-.085 1.711-.05 1.768-.231 1.894-.065-.088.096-2.493.293-2.529.294zm8.37-4.814c-.011.267-.195.24-.294.363-.578-.391-.953-.18-.973-.405-.018-.205.74-.067 1.227-.011.013.001.025.033.04.053zM120.302 39.8c.044-.05.082-.132.132-.142a6.18 6.18 0 011.251-.124c.065 0 .096.152.022.18-.329.121-.476-.09-.821.096-.197.106-.639-.098-.584-.01zm7.48-16.665c-.07.304-.076.395-.154.42-.521.173-.578-.13-.554-.209.056-.181.1-.205.459-.248.058-.007.119.016.249.037zm79.329-7.132c.128-.188-.072-.189.905-.213.025 0 .057.072.08.115.1.183-1.01.054-.985.098zm-77.43 3.339a2.267 2.267 0 01-1.155.114c.367-.18.482-.192 1.155-.114zm-5.909 4.763c.403-.285.616-.547.846-.23.02.027.013.098.02.177-.621.16-.478.15-.866.053zm75.222-11.852c.233-.15.233-.15.464.133-.016.07-.022.158-.054.215-.132.235-.381-.027-.41-.348zm-78.462 22.33c.174-.364.554-.4.518-.072-.154.125-.335.04-.518.072zm21.58-18.635c-.283.178-.582.173-.91.185.098-.14-.083-.094.91-.185zm-22.533 23.8c-.142.338-.442.266-.44.182.004-.178-.018-.14.44-.182z" fill="#4CCD99"/><path d="M207.098 15.98c-.141.175-.422.116-.609.083-.011-.002-.02-.044-.032-.072.08-.142.203-.09.31-.11.19-.036.366.161.331.1zm-83.676 8.835c.261-.128.496-.12.769-.097-.287.158-.287.158-.769.097zm-3.416 12.88c-.36.06-.404.087-.424.005-.048-.204.52-.348.424-.005zm-.295 1.221c.054.107.131.12.208.148.05.018.096.07.164.123-.264.239-.669.128-.556-.131.066-.153.252-.074.184-.14zm90.478-23.306c-.156.076-.325.144-.511.087.059-.126.059-.121.511-.088zm-11.202-5.003c.052-.071-.078-.046.657-.114-.383.202-.507.218-.657.114zm-.246 21.271c.188-.098.39.016.665-.068-.242.17-.389.21-.579.174-.041-.008-.067-.154-.086-.106zm-78.978 6.382c.139-.173.308-.031.459-.056-.288.133-.288.133-.459.056zm85.332-22.011c-.14.073-.28.126-.442.02a.496.496 0 01.427-.162c.005 0 .01.092.015.142zM120.29 39.78c-.073.125.015.125-.364.159-.09.008-.091-.174-.039-.172.456.024.428.054.403.013zm6.47-16.173c-.179.242-.476.02-.3-.023.097-.024.197-.037.3.023zm5.262-1.201c-.13.024-.251.167-.394.011.122-.146.258-.076.394-.01zm68.327-11.918c-.176.123-.305.16-.446.038.12-.137.255-.132.446-.038zm-81.926 19.898c-.142.117-.288.128-.451.029.146-.105.287-.165.451-.029zm17.706 7.864c-.223.02-.193.026-.196-.01.222-.02.193-.028.196.01z" fill="#4CCD99"/><path d="M119.729 38.934c-.005-.01-.133-.21-.086-.295.097-.174.344.13.182.246-.068.048-.143.004-.096.049zm7.013-19.164c.079-.147.17-.138.274-.023-.085.083-.174.105-.274.023zm86.043 3.062c.11-.04.055-.041.215-.016-.104.043-.048.044-.215.016zm-5.443-5.332c.189-.05.121-.051.259-.005-.118.068-.048.063-.259.005zm-79.367 19.308l-.189.035c.055-.095.11-.084.189-.035zm81.127-7.95c.004-.114.062-.04.096-.05.006.054.024.039-.096.05zm.715-1.46c.038-.164-.025-.134.213-.156-.089.232-.271.08-.213.156zm-88.478 6.876c.018.014.045.022.051.042.023.072-.057.124-.103.17-.059-.19-.075-.137.052-.212zm88.424-9.711c.044-.014.342-.149.269.027-.026.062-.039.043-.269-.027zm-3.895-8.487c-.17.188-.112.149-.228.092.081-.094.012-.084.243-.074l-.015-.018zm3.434-.376c-.104.101-.057.097-.18.017.103-.098.056-.094.18-.017zm-12.836-4.834c-.015.008-.036.028-.046.02-.035-.035-.024-.062.028-.064.005 0 .012.029.018.044zm-3.236.452c-.062.03-.037.033-.095-.012.061-.03.036-.033.095.012zm15.144 4.477c.004-.016.006-.045.011-.046.074-.011.063.103-.011.046zm-4.659.595l-.043-.03c.014-.007.03-.025.043-.02.059.018.058.038 0 .05zm.625-.134l.018.056c-.017.008-.041.031-.049.022-.039-.044-.026-.074.031-.078zm-72.666 6.889c-.06.038-.036.041-.093-.013.059-.038.035-.041.093.013zm80.642-4.905c.048 0 .099-.038.14.042-.013.011-.032.037-.04.03-.106-.084-.08-.117-.1-.072zM118.76 30.372l-.042-.03c.014-.007.029-.025.043-.021.057.019.057.039-.001.051zm92.108-8.307l.019.04c-.016.006-.036.025-.045.017-.036-.032-.025-.055.026-.057zm-.348 4.281c.005-.018.007-.05.013-.051.085-.013.071.112-.013.051zm-1.772 2.507c-.015.059.004.056-.064.033.015-.058-.004-.056.064-.033zm-89.817 11.122c-.015.006-.033.023-.043.015-.051-.042-.022-.2.043-.091.009.014.001.05 0 .076zm18.891-1.912c.067-.019.054-.029.05.031l-.05-.031zm.414-.039c-.004.013-.007.036-.013.037-.07.008-.056-.086.013-.037z" fill="#4CCD99"/><path d="M209.781 27.457c-.037-.033-.025-.053.036-.059-.017-.023-.008-.032-.036.06zm-88.122 10.204c.019.005.053.012.053.015 0 .064-.016.052-.044-.034l-.009.02zm6.428-16.241c.014.02.04.045.038.056-.016.079-.043.079-.068 0-.004-.01.02-.037.03-.056zm-1.311 1.005c-.028-.037-.026-.045-.009.02l.009-.02zm79.107-6.331c.017-.08.022-.075-.015-.018l.015.018zm-1.2 8.186c.073-.06.136-.117.202-.166.06-.044.14.005.132.078-.023.206-.219.223-.334.088zm-78.543 6.678c.027-.057-.008-.052.133-.029-.04.087-.085.054-.133.03z" fill="#4CCD99"/><path fill-rule="evenodd" clip-rule="evenodd" d="M153.458 31.126a6.79 6.79 0 01-2.552-.47 6.418 6.418 0 01-2.034-1.311 5.97 5.97 0 01-1.362-1.95 6.074 6.074 0 01-.483-2.42c0-.874.161-1.681.483-2.42.322-.74.77-1.384 1.344-1.933a6.006 6.006 0 012.018-1.294 6.784 6.784 0 012.551-.47 6.61 6.61 0 012.518.47 5.967 5.967 0 012.034 1.294 5.742 5.742 0 011.362 1.95c.322.739.483 1.546.483 2.42 0 .862-.161 1.669-.483 2.42a6.09 6.09 0 01-1.345 1.95 6.302 6.302 0 01-2.034 1.293 6.556 6.556 0 01-2.5.471zm-.035-2.403c.725 0 1.357-.157 1.897-.471.552-.314.977-.75 1.276-1.31.299-.572.448-1.228.448-1.967 0-.56-.086-1.065-.258-1.513a3.298 3.298 0 00-.742-1.176 3.07 3.07 0 00-1.155-.757 3.829 3.829 0 00-1.466-.269c-.724 0-1.362.157-1.913.471a3.14 3.14 0 00-1.259 1.294c-.299.55-.448 1.199-.448 1.95 0 .56.086 1.07.258 1.53.173.459.414.856.725 1.192.321.325.706.577 1.155.757a3.96 3.96 0 001.482.269zm12.995-9.664c.919 0 1.764.145 2.534.437.782.28 1.46.689 2.035 1.227a5.296 5.296 0 011.345 1.882c.321.717.482 1.513.482 2.386 0 .863-.161 1.659-.482 2.387a5.391 5.391 0 01-1.328 1.882 6.16 6.16 0 01-2.035 1.227 7.057 7.057 0 01-2.517.437h-4.914V19.06h4.88zm-.035 9.546h-2.138V21.36h2.138c.736 0 1.374.146 1.914.437.552.292.977.706 1.276 1.244.31.538.465 1.182.465 1.933 0 .75-.149 1.4-.448 1.95a3.046 3.046 0 01-1.276 1.26c-.551.28-1.195.42-1.931.42zm7.24 2.319l4.828-11.865h2.448l4.776 11.865h-2.862l-.799-2.151h-4.771l-.81 2.151h-2.81zm6.022-8.534l1.571 4.232h-3.163l1.592-4.232z" fill="#fff"/><path d="M191.534 30.924V25.88l4.328-6.82h-3.069l-2.595 4.332-2.595-4.332h-3.138l4.362 6.925v4.94h2.707zm-51.275-9.563v9.563h2.706v-9.563h3.811V19.06h-10.328v2.302h3.811z" fill="#fff"/><path d="M.48 60l4.336-11.392H8.08L12.368 60H9.04l-3.184-9.68h1.152L3.744 60H.48zm2.816-1.92v-2.496h6.368v2.496H3.296zm19.871 2.144a6.7 6.7 0 01-2.48-.448 6.184 6.184 0 01-1.968-1.248 5.681 5.681 0 01-1.296-1.888 5.933 5.933 0 01-.464-2.352c0-.853.15-1.637.448-2.352a5.727 5.727 0 013.248-3.104 6.703 6.703 0 012.48-.448c.896 0 1.717.15 2.464.448a5.753 5.753 0 011.968 1.232 5.485 5.485 0 011.28 1.888c.31.715.464 1.499.464 2.352 0 .843-.155 1.627-.464 2.352a5.693 5.693 0 01-1.28 1.888 5.994 5.994 0 01-1.952 1.248 6.746 6.746 0 01-2.448.432zm-.032-2.816c.597 0 1.114-.128 1.552-.384a2.55 2.55 0 001.008-1.088c.234-.47.352-1.019.352-1.648 0-.47-.07-.89-.208-1.264a2.551 2.551 0 00-.576-.976 2.42 2.42 0 00-.928-.624 3.048 3.048 0 00-1.2-.224c-.598 0-1.115.128-1.552.384a2.454 2.454 0 00-1.008 1.072c-.235.459-.352 1.003-.352 1.632 0 .48.064.912.192 1.296.138.384.336.715.592.992.256.267.56.475.912.624.362.139.768.208 1.216.208zm18.097 2.784a6.875 6.875 0 01-2.464-.432 6.182 6.182 0 01-1.968-1.248 5.722 5.722 0 01-1.296-1.872 5.816 5.816 0 01-.464-2.336c0-.853.16-1.637.48-2.352a5.726 5.726 0 011.36-1.856 6.252 6.252 0 012.032-1.232 6.74 6.74 0 012.464-.448c1.056 0 2 .181 2.832.544.843.363 1.525.853 2.048 1.472l-2.16 2.16c-.395-.459-.805-.8-1.232-1.024-.427-.224-.939-.336-1.536-.336a3.1 3.1 0 00-1.536.384 2.836 2.836 0 00-1.104 1.056c-.267.459-.4.997-.4 1.616 0 .619.123 1.163.368 1.632.256.459.608.816 1.056 1.072.448.256.97.384 1.568.384.576 0 1.061-.112 1.456-.336a2.17 2.17 0 00.896-.96c.213-.416.32-.907.32-1.472L46.144 56l-5.296-.16v-2.56h6.32v.48c0 1.365-.25 2.528-.752 3.488-.49.96-1.184 1.69-2.08 2.192-.885.501-1.92.752-3.104.752zm13.95-4.64l-.24-3.04h.928c.181 0 .341-.027.48-.08a.731.731 0 00.32-.272.759.759 0 00.112-.416.681.681 0 00-.112-.4.648.648 0 00-.304-.256.892.892 0 00-.432-.096c-.33 0-.645.107-.944.32a3.01 3.01 0 00-.72.752l-1.856-1.872c.32-.576.784-1.067 1.392-1.472.619-.416 1.376-.624 2.272-.624.715 0 1.344.16 1.888.48.555.31.987.725 1.296 1.248a3.21 3.21 0 01.464 1.696c0 .683-.133 1.248-.4 1.696a2.993 2.993 0 01-1.024 1.072 4.658 4.658 0 01-1.344.56l.688-1.104-.128 1.808h-2.336zm1.168 4.64c-.501 0-.917-.17-1.248-.512a1.726 1.726 0 01-.496-1.248c0-.501.165-.923.496-1.264.33-.341.747-.512 1.248-.512s.912.17 1.232.512c.33.341.496.763.496 1.264 0 .49-.165.907-.496 1.248-.32.341-.73.512-1.232.512zm22.798 0a6.83 6.83 0 01-2.448-.432 6.182 6.182 0 01-1.968-1.248 5.812 5.812 0 01-1.328-1.872 5.931 5.931 0 01-.464-2.352c0-.853.155-1.637.464-2.352a5.75 5.75 0 011.312-1.856 6.103 6.103 0 011.968-1.216 6.49 6.49 0 012.432-.448c.885 0 1.696.139 2.432.416a5.985 5.985 0 011.92 1.152l-2.128 2.144a2.728 2.728 0 00-.944-.656c-.363-.16-.79-.24-1.28-.24-.427 0-.821.07-1.184.208a2.538 2.538 0 00-.912.608 2.915 2.915 0 00-.608.976 3.61 3.61 0 00-.208 1.264c0 .48.07.912.208 1.296.15.373.352.693.608.96s.56.475.912.624c.363.139.757.208 1.184.208.48 0 .907-.075 1.28-.224a2.74 2.74 0 00.992-.656l2.144 2.144c-.565.49-1.2.875-1.904 1.152-.704.267-1.53.4-2.48.4zM89.441 60V48.608h3.2V60h-3.2zm2.608 0v-2.72h5.328V60h-5.328zm16.59.224a6.7 6.7 0 01-2.48-.448 6.175 6.175 0 01-1.968-1.248 5.67 5.67 0 01-1.296-1.888 5.92 5.92 0 01-.464-2.352c0-.853.149-1.637.448-2.352a5.715 5.715 0 011.296-1.872 5.778 5.778 0 011.952-1.232 6.701 6.701 0 012.48-.448c.896 0 1.717.15 2.464.448a5.76 5.76 0 011.968 1.232 5.5 5.5 0 011.28 1.888c.309.715.464 1.499.464 2.352 0 .843-.155 1.627-.464 2.352a5.71 5.71 0 01-1.28 1.888 6.006 6.006 0 01-1.952 1.248 6.75 6.75 0 01-2.448.432zm-.032-2.816c.597 0 1.114-.128 1.552-.384a2.556 2.556 0 001.008-1.088c.234-.47.352-1.019.352-1.648 0-.47-.07-.89-.208-1.264a2.551 2.551 0 00-.576-.976 2.426 2.426 0 00-.928-.624 3.048 3.048 0 00-1.2-.224c-.598 0-1.115.128-1.552.384a2.446 2.446 0 00-1.008 1.072c-.235.459-.352 1.003-.352 1.632 0 .48.064.912.192 1.296.138.384.336.715.592.992.256.267.56.475.912.624.362.139.768.208 1.216.208zm15.739 2.784c-.971 0-1.819-.139-2.544-.416-.715-.288-1.376-.741-1.984-1.36l2-2c.416.395.853.699 1.312.912a3.6 3.6 0 001.472.304c.437 0 .768-.064.992-.192.224-.139.336-.325.336-.56a.698.698 0 00-.288-.576 2.586 2.586 0 00-.768-.416 15.74 15.74 0 00-1.04-.384 9.938 9.938 0 01-1.12-.464c-.373-.181-.72-.4-1.04-.656a3.11 3.11 0 01-.752-.976c-.192-.395-.288-.875-.288-1.44 0-.736.176-1.37.528-1.904.352-.533.848-.939 1.488-1.216.64-.288 1.392-.432 2.256-.432.853 0 1.643.139 2.368.416.736.267 1.344.65 1.824 1.152l-2.016 2c-.352-.341-.704-.592-1.056-.752a2.606 2.606 0 00-1.152-.256c-.331 0-.597.053-.8.16a.517.517 0 00-.288.48c0 .224.096.41.288.56.192.139.443.267.752.384.32.117.667.24 1.04.368a9.44 9.44 0 011.136.464c.373.17.715.395 1.024.672.32.267.576.603.768 1.008.192.405.288.896.288 1.472 0 1.163-.416 2.064-1.248 2.704-.821.63-1.984.944-3.488.944zm10.87-.192V48.608h3.2V60h-3.2zm2.592 0v-2.656h6.112V60h-6.112zm0-4.512v-2.592h5.52v2.592h-5.52zm0-4.224v-2.656h6.016v2.656h-6.016zM157.91 60V48.608h3.2V60h-3.2zm12.613 0V48.608h3.2V60h-3.2zm-3.408-8.672v-2.72h10.032v2.72h-10.032zM193.045 60V48.608h3.2V60h-3.2zm-3.408-8.672v-2.72h10.032v2.72h-10.032zm21.214 8.896a6.7 6.7 0 01-2.48-.448 6.175 6.175 0 01-1.968-1.248 5.67 5.67 0 01-1.296-1.888 5.938 5.938 0 01-.464-2.352c0-.853.149-1.637.448-2.352a5.715 5.715 0 011.296-1.872 5.788 5.788 0 011.952-1.232 6.701 6.701 0 012.48-.448c.896 0 1.717.15 2.464.448a5.76 5.76 0 011.968 1.232 5.487 5.487 0 011.28 1.888c.309.715.464 1.499.464 2.352 0 .843-.155 1.627-.464 2.352a5.694 5.694 0 01-1.28 1.888 5.995 5.995 0 01-1.952 1.248 6.75 6.75 0 01-2.448.432zm-.032-2.816c.597 0 1.115-.128 1.552-.384a2.556 2.556 0 001.008-1.088c.235-.47.352-1.019.352-1.648 0-.47-.069-.89-.208-1.264a2.551 2.551 0 00-.576-.976 2.418 2.418 0 00-.928-.624 3.048 3.048 0 00-1.2-.224c-.597 0-1.115.128-1.552.384a2.458 2.458 0 00-1.008 1.072c-.235.459-.352 1.003-.352 1.632 0 .48.064.912.192 1.296.139.384.336.715.592.992.256.267.56.475.912.624.363.139.768.208 1.216.208zM225.257 60v-2.72h2.656c.597 0 1.115-.107 1.552-.32.437-.224.773-.56 1.008-1.008.235-.448.352-1.003.352-1.664s-.123-1.21-.368-1.648a2.234 2.234 0 00-1.008-.976c-.427-.224-.939-.336-1.536-.336h-2.816v-2.72h2.816c.896 0 1.717.133 2.464.4.757.267 1.413.65 1.968 1.152a5.079 5.079 0 011.28 1.808c.309.693.464 1.472.464 2.336 0 .864-.155 1.648-.464 2.352a5.112 5.112 0 01-1.28 1.792 5.767 5.767 0 01-1.952 1.152c-.747.267-1.563.4-2.448.4h-2.688zm-2.144 0V48.608h3.2V60h-3.2zm16.233 0l4.336-11.392h3.264L251.234 60h-3.328l-3.184-9.68h1.152L242.61 60h-3.264zm2.816-1.92v-2.496h6.368v2.496h-6.368zm16.897-2l-4.336-7.472h3.68l3.28 6.096h-2.752l3.28-6.096h3.6l-4.368 7.472h-2.384zm-.368 3.92v-5.088h3.2V60h-3.2zm13.299-4.528l-.56-7.184h3.44l-.56 7.184h-2.32zm1.168 4.72c-.501 0-.917-.17-1.248-.512a1.73 1.73 0 01-.496-1.248c0-.501.166-.923.496-1.264.331-.341.747-.512 1.248-.512.502 0 .912.17 1.232.512.331.341.496.763.496 1.264 0 .49-.165.907-.496 1.248-.32.341-.73.512-1.232.512z" fill="#D6D6D6"/></svg>