<svg width="52" height="52" fill="none" xmlns="http://www.w3.org/2000/svg"><rect width="52" height="52" rx="10" fill="#2F2F2F"/><g clip-path="url(#clip0_4302_1015)" fill="#fff"><path d="M36.39 12H15.616A3.646 3.646 0 0012 15.67v5.663h2.333V15.67a1.31 1.31 0 011.284-1.337h20.778a1.31 1.31 0 011.272 1.337v20.66a1.31 1.31 0 01-1.278 1.337H15.617a1.31 1.31 0 01-1.284-1.337v-5.663H12v5.663A3.646 3.646 0 0015.617 40h20.778A3.646 3.646 0 0040 36.33V15.67A3.646 3.646 0 0036.39 12z"/><path d="M15.5 27.167h16.434l-5.017 5.016 1.65 1.655 5.773-5.775a2.917 2.917 0 000-4.126l-5.773-5.775-1.654 1.655 5.017 5.016H15.5v2.334z"/></g><defs><clipPath id="clip0_4302_1015"><path fill="#fff" transform="translate(12 12)" d="M0 0h28v28H0z"/></clipPath></defs></svg>