<svg width="24" height="24" fill="none" xmlns="http://www.w3.org/2000/svg"><g clip-path="url(#clip0_515_1867)" fill="#D6D6D6"><path d="M20.485 3.515C15.8-1.172 8.2-1.172 3.515 3.515c-4.687 4.686-4.687 12.285 0 16.97 4.685 4.687 12.284 4.687 16.97 0 4.687-4.685 4.687-12.284 0-16.97zM19.071 19.07c-3.906 3.905-10.237 3.905-14.142 0-3.905-3.905-3.905-10.236 0-14.142 3.905-3.905 10.236-3.905 14.142 0 3.905 3.906 3.905 10.237 0 14.142z"/><path d="M16.95 7.05a1 1 0 00-1.414 0L12 10.586 8.464 7.05A1 1 0 007.05 8.465L10.586 12l-3.534 3.534a1 1 0 001.414 1.415L12 13.414l3.535 3.536a1 1 0 001.415-1.415L13.414 12l3.536-3.535a1 1 0 000-1.415z"/></g><defs><clipPath id="clip0_515_1867"><path fill="#fff" d="M0 0h24v24H0z"/></clipPath></defs></svg>