<svg width="896" height="338" fill="none" xmlns="http://www.w3.org/2000/svg"><path d="M339.047 134.096c-6.63 8.703-19.806 11.83-32.188 6.997a55.903 55.903 0 01-7.218 10.418c-20.043 22.835-56.998 26.446-84.403 18.199-6.912-2.081-17.093-6.082-28.102-14.309a69.333 69.333 0 01-15.319 5.722 69.573 69.573 0 01-23.647 1.581c-13.137 5.104-24.858 7.694-34.182 9.066-10.054 1.478-54.72 7.04-91.053-17.534-12.326-8.337-15.767-14.779-16.957-20.218-2.506-11.438 3.587-24.619 9.366-28.371 1.988-1.291 6.508-4.08 11.376-9.402.768-.84 1.494-1.85 2.263-3.24 7.121-12.847-6.472-22.989-3.083-38.883 3.993-18.728 30.217-37.699 49.988-34.125 9.938 1.797 12.92 8.338 22.206 7.021 11.784-1.672 12.756-13.03 23.621-14.841 12.863-2.145 29.002 10.856 31.337 23.672 1.234 6.772-1.244 14.301-.247 14.516.755.16 1.217-4.2 4.569-7.355 4.37-4.112 12.298-4.88 18.545-2.077 6.072 2.725 10.993 9.02 10.799 15.245-.227 7.28-7.38 12.307-6.76 12.93.643.647 6.86-6.1 15.558-10.54 12.378-6.317 25.722-2.565 27.602-2.008 15.159 4.494 24.095 18.019 25.093 19.573 3.236 5.04 3.569 7.85 6.896 9.124 5.6 2.143 9.546-3.959 21.909-6.82 5.201-1.203 11.068-2.562 17.459-.09 9.107 3.52 12.99 12.117 13.312 12.861 2.929 6.756.477 10.435 3.438 12.523 3.955 2.787 9.059-3.393 18.852-1.708 1.916.33 6.385.987 9.608 4.124 6.374 6.207 5.6 19.761-.638 27.949z" fill="#E9F4F6"/><path d="M291.339 114.195c-6.293-3.365-17.16-9.174-30.143-11.07-21.719-3.172-27.429 7.813-45.237 3.745-15.263-3.487-16.198-12.729-30.68-18.433-10.697-4.214-27.569-6.02-53.89 6.323-3.219-3.328-9.382-8.73-18.588-11.462-15.809-4.689-36.062-.156-44.196 12.174-8.412 12.754 1.34 25.969-8.78 35.537-6.345 5.997-15.847 6.164-17.66 6.195-13.271.233-20.809-8.976-24.475-6.195-3.086 2.341-1.51 11.728 2.53 18.843 14.987 26.397 66.441 26.011 93.768 21.921a160.622 160.622 0 0034.182-9.066c5.702.591 14.034.759 23.647-1.581a69.232 69.232 0 0015.319-5.722c11.009 8.228 21.19 12.229 28.102 14.309 27.405 8.247 64.36 4.636 84.403-18.199a55.903 55.903 0 007.218-10.418c3.965 1.501 10.003 3.012 16.998 1.808 3.317-.571 13.474-2.321 15.19-8.805.907-3.43-.608-7.948-3.497-9.284-3.277-1.517-6.343 1.975-10.843 3.408-9.699 3.083-18.167-5.903-33.368-14.028z" fill="#CEEAF0"/><path d="M344.899 107.441c-.864-1.183-4.416-5.786-10.884-7.794-5.781-1.796-10.687-.524-14.128.369a33.024 33.024 0 00-8.565 3.572c.441-3.248 1.274-12.736-4.708-20.598-10.286-13.514-30.738-9.098-32.742-8.634-9.561 2.217-15.838 7.802-18.705 10.74-.753-2.886-5.791-20.997-23.607-29.778-4.281-2.11-15.739-6.854-29.304-3.37-6.044 1.55-10.542 4.232-13.311 6.187.218-9.502-5.441-17.87-13.655-20.646-9.613-3.25-17.948 2.776-18.708 3.345.058-1.006.931-22.733-16.866-34.59-15.029-10.015-31.265-4.92-32.823-4.403C95.441 5.65 89.295 13.917 87.34 16.803c-2.282-.896-26.63-9.98-48.731 4.752C21.336 33.07 13.23 53.94 16.048 72.127c1.271 8.203 4.55 14.442 6.943 18.22a39.91 39.91 0 00-11.31 7.651c-2.113 2.04-7.006 6.851-9.618 14.732-1.051 3.171-4.362 13.08.576 23.193 4.872 9.979 15.087 14.665 15.68 14.015.266-.293-1.38-1.729-3.2-4.491-.997-1.509-5.63-8.853-5.14-18.463.598-11.695 8.395-19.181 10.552-21.103 6.344-5.657 13.273-7.235 16.34-7.744-.896-4.49-3.044-18.302 4.371-32.9.963-1.892 10.488-19.921 31.216-25.521 8.985-2.428 16.822-1.64 20.85-.962 12.981 2.184 17.566 9.203 33.13 13.198a71.933 71.933 0 0014.997 2.194 60.18 60.18 0 0010.406 13.829c3.329 3.3 5.719 5.703 9.379 7.034 9.441 3.433 17.921-1.591 19.149-2.345 3.679-2.476 14.301-8.919 29.115-8.421 6.694.224 19.051 2.025 29.896 11.548 9.391 8.244 12.849 18.06 14.069 22.276 1.721-1.8 12-12.216 27.016-11.335 3.022.176 11.031.766 17.921 7.027 8.986 8.167 9.021 19.574 8.994 21.502 1.475-1.849 5.098-5.846 11.035-7.447 7.25-1.953 17.297-.025 22.138 7.732 3.429 5.493 2.853 14.169-1.609 18.416a9.329 9.329 0 01-1.222.977 9.37 9.37 0 001.421-.699c2.063-1.196 8.008-4.642 9.661-11.552 1.786-7.457-2.698-13.594-3.905-15.247z" fill="#fff"/><path d="M98.189 146.572c12.31-.413 23.748-8.845 29.507-21.566 10.303 8.088 17.606 8.69 22.298 7.834 11.784-2.147 12.687-14.499 28.07-19.634 11.616-3.878 23.156-1.459 23.156-1.459 8.65 1.812 13.912 5.901 19.771 3.409 3.732-1.587 5.831-5.045 6.982-7.529-2.417-.312-4.179-.992-5.273-1.503-5.02-2.35-8.616-6.775-10.928-10.474-4.464-4.218-12.588-10.664-24.439-14.152-19.524-5.745-35.98.42-41.118 2.61a60.952 60.952 0 00-13.498 7.95 44.7 44.7 0 00-.53-8.176c-.324-2.047-1.954-12.346-8.195-19.708-8.385-9.896-24.089-13.304-36.946-9.249-14.48 4.57-20.848 17.05-22.94 21.15-8.233 16.137-6.534 36.194 3.382 50.795 3.656 5.384 13.768 20.269 30.7 19.702z" fill="#E9F4F6"/><path d="M79.329 140.253l.16-.162c-9.287-8.476-16.286-22.013-13.544-30.464.394-1.215 1.658-5.111 5.053-6.73 3.546-1.69 5.969.747 9.882.76 9.854.033 11.805-15.363 23.945-17.864 6.416-1.322 11.853 1.746 13.213 2.512 8.366 4.72 10.423 13.724 10.77 15.371 3.347-3.138 9.056-7.718 17.229-10.921 13.443-5.27 25.64-3.646 31.704-2.409 11.123 2.27 20.315 8.007 24.24 10.716 8.704 6.009 13.739 12.385 19.901 10.971 2.845-.652 4.837-2.719 6.094-4.408-2.416-.311-4.179-.992-5.272-1.503-5.021-2.349-8.617-6.774-10.929-10.473-7.8-12.163-25.634-16.58-27.603-17.068-13.652-3.38-25.568.862-32.597 3.363a71.894 71.894 0 00-18.855 10.112 44.7 44.7 0 00-.53-8.176c-.324-2.047-1.963-12.337-8.195-19.708-8.085-9.561-23.621-13.451-36.946-9.248-14.48 4.569-20.848 17.049-22.94 21.15-12.512 24.527 2.727 49.732 3.383 50.794 1.952 3.171 5.718 8.339 11.837 13.385zM238.556 139c-.061-.86-.158-3.721 1.786-6.224 2.399-3.089 6.116-3.327 7.43-3.411 4.226-.271 7.271 1.885 8.166 2.57-.038-1.122-.08-5.977 3.561-10.109 3.293-3.737 7.48-4.477 9.008-4.724 1.045-.169 8.903-1.317 13.173 3.812 2.432 2.922 2.775 6.771 2.85 7.614a15.02 15.02 0 01-.119 3.623c.297-.457 2.768-4.109 7.342-4.461 4.394-.34 7.267 2.635 7.958 3.35 4.112 4.256 3.049 10.184 2.923 10.821 3.066-.931 6.37.018 8.351 2.385 2.242 2.678 2.379 6.677.257 9.66a33.658 33.658 0 01-2.703 2.13c-.643.457-7.39 5.138-15.893 6.208-12.591 1.585-16.221-6.367-29.299-3.843-3.425.662-2.487 1.073-6.485 1.921-2.529.536-17.616 3.736-27.771-4.732-2.138-1.783-6.214-5.263-5.801-10.043.297-3.435 2.881-7.117 6.89-8.227 4.376-1.208 7.928 1.347 8.376 1.68z" fill="#fff"/><path d="M263.687 146.12c-6.829 1.642-11.314 5.743-13.428 8-.327-.598-3.556-6.283-9.609-6.744-3.896-.298-8.948 1.571-9.547 4.708-.612 3.204 3.68 6.398 4.592 7.077 6.543 4.869 12.383 2.137 28.459 2.931 9.584.474 11.92 1.665 19.736.845 11.295-1.183 13.999-4.461 14.98-6.349.176-.339 1.246-2.474.769-5.079-.899-4.908-6.453-6.866-7.052-7.068-.746-.25-6.135-2.058-9.537 1.217-1.655 1.592-2.075 3.652-2.204 4.641-1.019-1.129-2.752-2.745-5.305-3.853-4.721-2.042-9.111-.987-11.854-.326zm358.849 153.093c-5.83 6.576-27.817-14.82-54.139-11.216-3.118.428-17.997 2.465-20.802 11.722-1.566 5.17 1.133 11.665 5.186 15.106 2.795 2.373 7.063 2.4 15.145 3.052 3.312.267 6.471.31 8.305 2.591 1.183 1.471.521 2.576 1.565 4.205 2.168 3.378 7.112 4.805 12.019 5.336 9.257 1.003 24.483 2.649 37.151-4.242 1.98-1.076 5.818-3.407 10.465-2.689 2.796.433 2.773 1.488 7.022 2.904 4.897 1.632 9.192 1.619 12.178 1.64 10.243.076 12.741-3.165 19.696-3.215 8.04-.059 11.999 4.923 19.551 7.618 26.624 9.499 65.012 7.474 76.581-4.665 1.554-1.63 1.857-2.908 3.804-4.39 6.214-4.733 12.792-3.619 30.132-4.294 11.575-.45 14.437-1.28 17.021-3.357 5.094-4.095 5.98-10.522 6.105-11.531 1.423-11.544-9.136-20.946-13.228-24.588-7.837-6.976-16.567-10.663-31.656-14.446-13.205-3.312-47.989-11.678-81.122-4.318-9.004 2-16.043 3.641-23.35 9.096-7.539 5.628-8.054 9.855-14.579 12.12-9.227 3.202-12.235-4.021-22.852-1.304-7.792 1.993-15.73 8.299-19.097 16.125-.896 2.08-.537 2.106-1.101 2.74z" fill="#E9F4F6"/><path d="M888.066 309.031c-19.158 14.803-92.366 5.662-91.962 1.47.232-2.415 24.492 1.143 29.007-9.425 1.48-3.465.715-8.164-.951-11.486-2.231-4.45-6.061-6.405-8.884-7.844-1.359-.694-7.223-3.539-15.6-3.053-8.939.518-11.78 4.26-15.473 2.21-3.6-1.997-1.543-6.285-5.493-11.525-6.237-8.274-18.512-8.164-19.381-8.145-6.703.154-12.209 3.106-14.795 4.491-1.415.759-3.543 2.473-7.538 4.862-3.121 1.867-4.682 2.8-5.552 3.037-4.951 1.348-8.771-2.81-14.827-5.736 0 0-8.318-4.021-18.548-3.403-13.158.794-22.223 9.419-24.843 11.911-5.594 5.323-8.636 10.96-10.209 14.464-1.329-1.78-4.094-4.96-8.655-6.892-7.911-3.353-15.318-.441-17.236.289-9.592 3.643-13.09 12.168-14.134 11.505-1.142-.725 2.061-11.389 10.441-19.705 8.873-8.805 19.321-10.782 21.846-11.2 9.57-1.584 17.235.713 20.757 2.019.909-2.497 7.677-20.277 24.473-25.429 7.5-2.3 14.305-1.259 15.297-1.096 8.413 1.377 14.053 5.661 16.448 7.724.504-.467 4.625-4.162 10.484-3.235 5.247.83 7.975 4.745 8.421 5.41 1.783-3.331 4.9-8.211 10.075-12.793 3.528-3.125 11.744-10.19 24.262-11.016 13.61-.898 23.411 6.167 26.47 8.608 14.123 11.266 15.092 28.088 15.201 30.757 1.359-1.584 4.61-4.935 9.95-6.659 2.912-.941 8.753-2.127 14.925.573 7.653 3.348 10.652 10.842 10.899 11.49 2.252 5.883.018 8.935 2.471 10.83 3.277 2.531 7.871-2.561 16.177-.757 1.464.318 4.903 1.108 8.057 3.884.562.495 6.526 5.912 5.588 13.239-.711 5.63-5.329 9.205-7.168 10.626z" fill="#fff"/><path d="M820.257 299.728c-11.097-3.772-10.025-6.648-18.812-9.202-22.44-6.521-37.574 13.987-58.116 7.099-6.502-2.18-10.938-6.23-13.346-8.784-1.869 2.383-15.584 19.299-37.447 19.078-10.298-.104-18.164-3.966-22.315-6.45-6.741 9.749-18.611 14.063-29.014 10.861-12.46-3.835-16.45-16.493-16.76-17.537a23.573 23.573 0 00-.813 1.68c-.896 2.08-.536 2.105-1.099 2.739-5.83 6.576-27.818-14.821-54.139-11.216-3.119.427-17.999 2.464-20.803 11.721-1.566 5.17 1.133 11.665 5.186 15.107 2.796 2.372 7.064 2.4 15.145 3.052 3.313.266 6.471.31 8.305 2.591 1.183 1.47.521 2.576 1.566 4.204 2.167 3.379 7.112 4.806 12.018 5.337 9.257 1.002 24.483 2.648 37.151-4.242 1.98-1.077 5.819-3.408 10.466-2.689 2.795.432 2.773 1.488 7.021 2.903 4.897 1.632 9.193 1.619 12.179 1.64 10.243.076 12.74-3.165 19.695-3.215 8.04-.058 11.999 4.923 19.552 7.619 26.623 9.499 65.012 7.473 76.58-4.665 1.554-1.63 1.858-2.909 3.804-4.39 9.332-7.106 22.186-5.434 30.133-4.294 15.763 2.263 39.6 5.52 62.413.699 0 0 21.575-4.41 25.777-14.693 2.161-5.288 1.052-9.748 1.052-9.748a13.562 13.562 0 00-1.604-3.811c-.363.825-4.962 10.805-15.873 12.695-8.342 1.445-14.64-2.833-15.904-3.732-10.389 2.801-25.79 5.152-41.998-.357z" fill="#CEEAF0"/><path d="M791.523 296.8c7.229-2.075 14.338.231 16.386.896 8.555 2.776 13.764 8.794 15.817 7.141.838-.673.276-1.916.518-4.507 0 0 .538-5.754 4.912-10.493 4.765-5.162 13.373-6.645 20.259-4.137 7.747 2.822 10.948 9.833 11.947 12.025 6.152 13.477-2.495 26.709-3.044 27.516-.972 1.43-4.605 6.498-11.73 10.087-3.189 1.606-8.136 3.447-42.653.673-10.056-.809-15.082-1.212-18.817-1.743-6.251-.888-8.555-1.534-13.297-1.503-7.536.05-8.448 1.728-14.128 1.687-2.057-.015-15.851-.133-18.997-8.202-2.063-5.292 1.162-12.206 5.779-15.605 3.41-2.512 7.105-2.757 10.062-2.915 9.154-.489 10.832 3.903 16.846 3.357 8.873-.802 9.044-11.09 20.14-14.277zm-148.353 9.483c-.596 3.603-7.124 4.91-7.735 5.028-4.644.891-7.06-.863-13.635-2.481-11.702-2.879-14.346-2.597-16.357-1.791-2.615 1.047-2.499 2.064-5.569 3.081-1.28.423-5.972 1.897-10.989-.3-1.469-.643-5.953-2.607-6.968-7.041-.667-2.907.591-5.351.901-5.945 1.39-2.66 3.686-3.801 5.254-4.577.96-.476 3.11-1.513 6.075-1.451 2.063.043 3.685.6 4.659 1.02.395-1.385 1.157-3.337 2.726-5.17 4.64-5.425 14.459-7.624 21.213-2.799 5.765 4.117 6.28 11.199 6.343 12.293 2.064.136 6.153.718 9.848 3.678 1.54 1.234 4.681 3.752 4.234 6.455z" fill="#fff"/><path d="M639.849 300.519c-6.383 2.681-13.971 2.415-19.138-2.358-1.937.789-5.934 2.108-10.999 1.525a22.327 22.327 0 01-8.521-2.805 11.762 11.762 0 01-3.849 3.94c-.61.381-4.341 2.623-9.038 1.417-3.409-.875-5.414-3.075-6.114-3.925-.313.967-.683 2.6-.27 4.466.972 4.395 5.463 6.381 6.969 7.041 5.016 2.197 9.708.725 10.988.3 3.072-1.015 2.954-2.034 5.569-3.081 2.011-.806 4.657-1.088 16.358 1.791 6.572 1.618 8.99 3.372 13.634 2.481.612-.118 7.138-1.425 7.735-5.028.387-2.358-1.937-4.634-3.324-5.764z" fill="#E9F4F6"/><path d="M862.256 300.087c-.61 1.536-6.908 16.648-23.48 20.801-14.254 3.572-25.469-3.63-27.282-4.838-8.438 8.855-27.819 12.61-37.481 4.775-1.219.744-10.19 6.016-20.488 2.303-7.086-2.555-10.74-7.903-11.882-9.739-.902.634-2.561 1.996-3.493 4.29-1.641 4.035.209 7.895.544 8.564 3.915 7.779 16.576 8.152 18.183 8.19.354.008.63.012.814.012 5.68.04 6.592-1.637 14.128-1.687 4.743-.032 7.046.615 13.297 1.503 3.734.529 8.762.934 18.818 1.743 34.516 2.775 39.465.933 42.653-.673 6.924-3.487 10.845-8.799 11.729-10.087 1.05-1.528 6.52-9.818 5.043-20.441a26.636 26.636 0 00-1.103-4.716z" fill="#CEEAF0"/></svg>