<svg width="18" height="19" fill="none" xmlns="http://www.w3.org/2000/svg"><g clip-path="url(#clip0_4302_8)"><path d="M11.235 9.652l1.022-1.023c.074.279.118.57.118.871A3.379 3.379 0 019 12.875a3.37 3.37 0 01-.87-.118l1.022-1.022a2.24 2.24 0 002.083-2.083zm6.694-.425c-.07-.125-1.05-1.844-2.968-3.301l-.819.818a11.258 11.258 0 012.634 2.757C16.109 10.516 13.494 14 9 14a8.24 8.24 0 01-1.89-.224l-.924.925c.85.26 1.783.424 2.814.424 5.888 0 8.808-5.133 8.93-5.352a.562.562 0 000-.546zM15.585 3.71L3.21 16.085a.56.56 0 01-.795 0 .562.562 0 010-.795l1.574-1.575C1.444 12.18.151 9.917.071 9.773a.562.562 0 010-.546C.192 9.008 3.11 3.875 9 3.875c1.523 0 2.841.347 3.969.86l1.82-1.82a.562.562 0 11.796.795zM4.828 12.877l1.424-1.425A3.352 3.352 0 015.625 9.5 3.379 3.379 0 019 6.125c.728 0 1.4.234 1.952.627l1.152-1.151A8.282 8.282 0 009 5C4.506 5 1.891 8.484 1.224 9.5c.424.64 1.64 2.265 3.604 3.377zm2.24-2.241l3.068-3.067A2.225 2.225 0 009 7.25c-1.24 0-2.25 1.01-2.25 2.25 0 .416.121.801.319 1.136z" fill="#858585"/></g><defs><clipPath id="clip0_4302_8"><path fill="#fff" transform="translate(0 .5)" d="M0 0h18v18H0z"/></clipPath></defs></svg>