<svg width="151" height="40" fill="none" xmlns="http://www.w3.org/2000/svg"><path d="M146.747 21.358l.614 11.425h2.828l.614-11.425h-4.056zm.418 17.333c.426.44.959.66 1.598.66.655 0 1.188-.22 1.598-.66.426-.44.639-.968.639-1.587 0-.65-.213-1.188-.639-1.61-.41-.44-.943-.66-1.598-.66-.639 0-1.172.22-1.598.66-.426.422-.64.96-.64 1.61 0 .619.214 1.148.64 1.587zm-7.364-6.938v7.329h-3.86v-7.176l-6.22-10.06h4.474l3.7 6.294 3.7-6.294h4.377l-6.171 9.907z" fill="#4CCD99"/><path fill-rule="evenodd" clip-rule="evenodd" d="M115.243 39.082l6.884-17.236h3.491l6.811 17.236h-4.082l-1.138-3.125h-6.804l-1.154 3.125h-4.008zm8.588-12.397l2.239 6.147h-4.51l2.271-6.147zm-17.879-4.839c1.311 0 2.516.212 3.614.635a8.242 8.242 0 012.901 1.782 7.68 7.68 0 011.918 2.734c.459 1.042.688 2.198.688 3.467 0 1.253-.229 2.409-.688 3.467a7.836 7.836 0 01-1.893 2.734 8.762 8.762 0 01-2.901 1.782c-1.098.423-2.295.635-3.59.635h-7.007V21.846h6.958zm-.049 13.867h-3.049V25.19h3.049c1.049 0 1.959.211 2.729.635a4.403 4.403 0 011.819 1.806c.443.781.664 1.717.664 2.808 0 1.09-.213 2.034-.639 2.832a4.374 4.374 0 01-1.819 1.83c-.787.408-1.705.61-2.754.61zm-17.448 3.662c-1.31 0-2.524-.228-3.638-.684a9.14 9.14 0 01-2.901-1.904 8.665 8.665 0 01-1.943-2.832 8.969 8.969 0 01-.688-3.515c0-1.27.23-2.442.688-3.516a8.575 8.575 0 011.918-2.808 8.538 8.538 0 012.876-1.88c1.115-.455 2.328-.683 3.64-.683 1.294 0 2.49.228 3.589.684a8.48 8.48 0 012.9 1.88 8.338 8.338 0 011.943 2.831c.459 1.075.689 2.247.689 3.516a8.97 8.97 0 01-.689 3.516 8.854 8.854 0 01-1.918 2.832 8.989 8.989 0 01-2.9 1.88c-1.099.455-2.287.683-3.566.683zm-.049-3.491c1.033 0 1.934-.228 2.705-.684a4.646 4.646 0 001.819-1.904c.426-.83.64-1.782.64-2.856 0-.814-.124-1.547-.37-2.198a4.79 4.79 0 00-1.057-1.709 4.368 4.368 0 00-1.647-1.098c-.623-.26-1.32-.39-2.09-.39-1.032 0-1.942.227-2.729.683a4.533 4.533 0 00-1.795 1.88c-.426.797-.639 1.741-.639 2.832 0 .813.123 1.554.369 2.221s.59 1.245 1.033 1.734a4.785 4.785 0 001.647 1.098c.64.26 1.344.39 2.114.39z" fill="#4CCD99"/><path d="M70.617 25.19v13.892h3.86V25.191h5.433v-3.345H65.184v3.345h5.433z" fill="#4CCD99"/><path d="M14.926 39.116v-14.76h1.08v14.76h-1.08zm42.161 0v-8.83h-2.54v-.947h2.54v-4.142h1.08v4.142h2.541v.946h-2.54v8.831h-1.08zm-4.978 0v-9.777h1.058v9.777H52.11zm.529-12.048a.84.84 0 01-.614-.252.944.944 0 01-.233-.63c0-.24.078-.435.233-.59a.84.84 0 01.614-.252.84.84 0 01.614.252.76.76 0 01.254.59.9.9 0 01-.254.63.84.84 0 01-.614.252z" fill="#2F2F2F"/><path fill-rule="evenodd" clip-rule="evenodd" d="M39.517 38.653c.79.449 1.672.673 2.646.673.791 0 1.525-.147 2.203-.441a4.738 4.738 0 001.715-1.262l-.72-.694a3.507 3.507 0 01-1.377 1.052 4.513 4.513 0 01-1.757.336c-.833 0-1.56-.168-2.18-.505a3.81 3.81 0 01-1.462-1.45 4.378 4.378 0 01-.49-1.746h8.43c.029-.196.05-.357.064-.483.014-.14.021-.253.021-.337 0-.91-.198-1.717-.593-2.418a4.104 4.104 0 00-1.61-1.64c-.677-.406-1.467-.61-2.37-.61a5.07 5.07 0 00-2.584.674 4.883 4.883 0 00-1.8 1.829c-.437.757-.656 1.619-.656 2.586 0 .967.226 1.836.678 2.607a4.996 4.996 0 001.842 1.83zm-1.421-4.962h7.459c-.01-.649-.139-1.224-.385-1.724a3.135 3.135 0 00-1.228-1.366c-.536-.323-1.179-.484-1.927-.484-.776 0-1.46.175-2.054.526a3.635 3.635 0 00-1.397 1.408 4.157 4.157 0 00-.468 1.64z" fill="#2F2F2F"/><path d="M32.531 39.326c-.537 0-1.045-.07-1.525-.21a5.255 5.255 0 01-1.291-.63 5.303 5.303 0 01-1.017-.926l.72-.715c.396.519.854.904 1.377 1.157a4.28 4.28 0 001.757.357c.734 0 1.313-.147 1.736-.442.424-.294.636-.707.636-1.24 0-.477-.135-.848-.403-1.114-.268-.28-.62-.498-1.058-.652a21.918 21.918 0 00-1.355-.442c-.466-.14-.918-.308-1.356-.504a2.723 2.723 0 01-1.037-.82c-.268-.35-.402-.82-.402-1.41 0-.518.134-.973.402-1.366a2.57 2.57 0 011.122-.904c.494-.224 1.073-.336 1.736-.336.734 0 1.39.126 1.97.378a3.294 3.294 0 011.418 1.114l-.699.715a2.716 2.716 0 00-1.143-.904 3.755 3.755 0 00-1.61-.336c-.705 0-1.241.147-1.608.441a1.39 1.39 0 00-.551 1.136c0 .434.134.778.402 1.03s.614.449 1.038.589c.438.14.89.28 1.355.42.48.127.932.295 1.355.505.438.21.79.498 1.059.862.268.364.402.862.402 1.493 0 .84-.31 1.514-.931 2.018-.622.49-1.455.736-2.499.736z" fill="#2F2F2F"/><path fill-rule="evenodd" clip-rule="evenodd" d="M20.201 38.653c.777.449 1.645.673 2.605.673.946 0 1.8-.224 2.562-.673a5.16 5.16 0 001.842-1.85c.452-.77.678-1.64.678-2.607 0-.953-.226-1.808-.678-2.565a4.996 4.996 0 00-1.842-1.83c-.762-.448-1.616-.672-2.562-.672-.96 0-1.828.224-2.605.672a5.046 5.046 0 00-1.82 1.83c-.452.757-.678 1.612-.678 2.565 0 .953.226 1.822.678 2.607a5.215 5.215 0 001.82 1.85zm4.616-.883c-.592.365-1.263.547-2.011.547-.762 0-1.447-.182-2.054-.547a4.068 4.068 0 01-1.419-1.472c-.352-.616-.529-1.317-.529-2.102 0-.785.177-1.479.53-2.082a3.95 3.95 0 011.418-1.43c.607-.364 1.292-.546 2.054-.546.748 0 1.419.182 2.011.547a3.75 3.75 0 011.42 1.43c.352.602.529 1.289.529 2.06 0 .785-.177 1.493-.53 2.123a3.85 3.85 0 01-1.419 1.472z" fill="#2F2F2F"/><path d="M5.032 38.758c.89.379 1.85.568 2.88.568 1.087 0 2.075-.196 2.964-.589a7.118 7.118 0 002.33-1.66l-.784-.758a5.781 5.781 0 01-1.97 1.43c-.776.337-1.637.505-2.583.505a6.271 6.271 0 01-2.413-.463 5.727 5.727 0 01-1.906-1.345 6.466 6.466 0 01-1.27-2.019 6.913 6.913 0 01-.445-2.502c0-.897.148-1.724.445-2.48a5.932 5.932 0 011.249-1.998 5.696 5.696 0 011.927-1.325 5.884 5.884 0 012.392-.484c.918 0 1.758.169 2.52.505a5.597 5.597 0 011.948 1.409l.783-.778a7.306 7.306 0 00-2.329-1.62c-.875-.392-1.849-.588-2.922-.588-1.03 0-1.983.19-2.858.568a7.322 7.322 0 00-2.287 1.577A6.862 6.862 0 001.2 29.045c-.353.883-.53 1.843-.53 2.88s.177 2.005.53 2.902a7.376 7.376 0 001.524 2.355 7.252 7.252 0 002.308 1.576z" fill="#2F2F2F"/><path d="M58.23 7.705l.196 4.687h2.95l.14-1.999a6.54 6.54 0 001.262-.613 4.923 4.923 0 001.598-1.684c.393-.684.59-1.506.59-2.466 0-.944-.23-1.79-.688-2.54a4.869 4.869 0 00-1.918-1.806c-.82-.44-1.762-.659-2.827-.659-1.279 0-2.385.301-3.32.903a5.838 5.838 0 00-2.138 2.32l2.409 2.246c.311-.603.713-1.075 1.205-1.416a2.84 2.84 0 011.672-.537c.393 0 .737.073 1.032.22.295.13.525.333.688.61.164.26.246.57.246.927 0 .375-.09.7-.27.977-.164.26-.402.464-.713.61-.295.147-.648.22-1.057.22H58.23zm.049 10.522c.426.44.967.66 1.622.66.64 0 1.164-.22 1.574-.66a2.2 2.2 0 00.64-1.587c0-.65-.214-1.188-.64-1.611-.41-.44-.934-.66-1.574-.66-.655 0-1.196.22-1.622.66-.41.423-.615.96-.615 1.611 0 .619.205 1.148.615 1.587zm-16.796-.024a9.328 9.328 0 003.565.683c1.72 0 3.237-.358 4.548-1.074 1.328-.716 2.36-1.774 3.098-3.174.754-1.416 1.13-3.157 1.13-5.224v-.562h-9.12V12.1l4.986.079a4.6 4.6 0 01-.389.995 3.939 3.939 0 01-1.647 1.66c-.705.375-1.565.562-2.582.562-1 0-1.885-.228-2.655-.683a4.863 4.863 0 01-1.82-1.905c-.442-.813-.663-1.757-.663-2.832 0-1.074.221-2.01.664-2.807a4.764 4.764 0 011.893-1.88c.803-.456 1.713-.684 2.729-.684.95 0 1.803.18 2.557.537.754.359 1.41.896 1.967 1.612l2.63-2.612c-.803-.944-1.819-1.685-3.048-2.222-1.213-.537-2.565-.806-4.057-.806a9.643 9.643 0 00-3.639.684 8.958 8.958 0 00-2.974 1.88 8.713 8.713 0 00-1.967 2.807c-.476 1.074-.713 2.238-.713 3.491 0 1.254.23 2.425.688 3.516a9.198 9.198 0 001.942 2.832 9.057 9.057 0 002.877 1.88z" fill="#EE4E4E"/><path fill-rule="evenodd" clip-rule="evenodd" d="M26.082 18.91c-1.311 0-2.524-.227-3.639-.683a9.139 9.139 0 01-2.901-1.904A8.665 8.665 0 0117.6 13.49a8.968 8.968 0 01-.689-3.516c0-1.27.23-2.441.689-3.515a8.575 8.575 0 011.917-2.808 8.537 8.537 0 012.877-1.88c1.115-.455 2.327-.683 3.639-.683 1.294 0 2.49.228 3.59.683a8.48 8.48 0 012.9 1.88 8.338 8.338 0 011.942 2.832c.46 1.074.689 2.246.689 3.516a8.97 8.97 0 01-.689 3.515 8.855 8.855 0 01-1.917 2.832 8.988 8.988 0 01-2.901 1.88c-1.098.456-2.287.684-3.565.684zm-.05-3.49c1.033 0 1.935-.228 2.705-.684a4.646 4.646 0 001.82-1.904c.426-.83.639-1.782.639-2.857 0-.813-.123-1.546-.37-2.197A4.793 4.793 0 0029.77 6.07a4.367 4.367 0 00-1.648-1.098c-.622-.26-1.319-.391-2.09-.391-1.032 0-1.942.228-2.728.684a4.532 4.532 0 00-1.795 1.88c-.426.797-.64 1.74-.64 2.831 0 .814.124 1.555.37 2.222.245.667.59 1.245 1.032 1.733a4.784 4.784 0 001.647 1.099c.64.26 1.344.39 2.115.39zM7.554 1.382L.67 18.618h4.008l1.154-3.125h6.804l1.138 3.125h4.082l-6.81-17.236H7.553zm3.943 10.986L9.258 6.22l-2.271 6.147h4.51z" fill="#EE4E4E"/></svg>