<svg width="435" height="119" fill="none" xmlns="http://www.w3.org/2000/svg"><path d="M70.879 31.135l.15-.67c2.341-.605 4.828-.337 7.245-.863-.679-.574.303-.139-2.774-.34-1.29-.084-2.63-.095-3.924.042-5.572.588-16.491 1.19-17.506 1.4-1.622.337-6.319.697-8.1.305-.306-.067-1.682-.31-2.057-.155-2.827 1.167-5.147 1.029-10.37 1.228-.392-.14-.44-.44-.598-.69.2.004.4.017.6.01.565-.021.238-.357-.05-.23-.173.076-.326.176-.487.267-1.024.304-1.98-.071-2.974-.032-.901.036-1.776.381-2.704.231-.787-.127-.909-.064-3.278.176-.102.177-.034.292.202.315 2.222.21 1.725-.016 1.93.481-.722.439-1.434.197-4.438.432-1.185.093-.473.123-4.313.42.81-.661.806-.666 2.228-.983.488.515 1.162.426 1.867.21.347-.106-.074-.438-.158-.45-.622-.08-1.186.145-1.76.296-.753-.481-1.517-.057-6.962-.123.204-.101.282-.169.371-.18 3.205-.422 6.38-1.018 9.615-1.248 1.41-.1 2.857.037 4.228-.178.604-.095 32.932-3.05-4.947-.249l-.485-.605c-1.066-.413-3.05.402-4.564-.406-.31-.832 3.42-.345-.111-.839.11-.136.167-.307.284-.337 1.767-.442 3.56-.643 5.399-.444.666-.153 1.336-.387 2.024-.45 1.918-.179 3.85-.384 5.765-.397 2.34-.016 4.636-.435 6.964-.484.48-.01.966-.197 1.449-.303l1.112-1.651c-.722-.313-.15-.458-3.517-.232-12.119.813-20.619 1.933-21.427 1.344.702-.537 1.77-.32 2.53-.71.115-.058.11-.24.16-.365-2.512-.172-5.043.39-7.766.19 1.684-.459 3.288-.371 4.783-.73-1.021-.567-1.366-.62-5.877-.18-3.824.37-2.98-.155-7.25.6-.286.05-1.42.15-1.387-.073.018-.125.05-.32.16-.358.362-.127.773-.285 1.145-.275 3.564.09 7.064-.546 10.651-.837-3.244-.59-2.166-.51-9.973-.1 1.8-.672 3.352-.998 4.966-.988 3.56.023 7.074-.457 10.603-.792 2.943-.28 6.832-.428 8.67-.912-.426-.581-1.338-.424-1.787-.801.015-.046.017-.125.046-.131.98-.217 1.957-.5 2.983-.467 1.287.042 1.26-.173 5.386-.724 3.162-.422 2.209-.105 3.034-.854-4.054-.411-13.75.657-14.294.71-1.512.146-3.028.123-4.545.23-6.193.434-7.03.945-9.778.799.712-1.441.424-1.21 23.836-3.086.2-.016.396-.068.618-.108-.402-.253-.879-.12-1.31-.086-2.906.23-3.269-.66-5.598-.51-3.624.232-12.451 1.052-13.062.903.753-.786 18.492-1.115 21.385-2.152.868-.311 1.716.202 2.66.012.79-.159 43.664-3.283 43.679-3.284.703-.046 1.425-.072 2.05-.394-1.048-1.238-4.475.038-6.97-.459 2.696-.533 1.567-.19 3.88-.376C84.62 8.95 84.593 7.97 86.069 7.9c1.438-.068 11.237-2.72 18.743-3.156 4.506-.262 12.137-.906 14.877-1.115 1.648-.126 1.776.498 1.756.228-.266.11-.522.288-.801.321-1.781.211-20.152.492-28.218 3.433 1.035.758.946-.364 22.822-2.11.825-.066 2.365-.334 2.998-.277 2.426.216 5.283-.333 19.442-1.268 14.007-.925 3.025.03 17.326-.992 2.695-.193 21.56-1.834 23.755-.826 3.497-.521 6.836-.545 10.162-.776.077-.006.16.075.241.116-.131.09-.25.24-.395.26-1.599.22-37.045 2.38-36.472 3.205 1.223 1.762 59.65-3.611 69.802-2.942 1.892-.39 3.821-.071 5.723-.382 1.211-.198 2.426-.128 3.657-.03-.688.561-1.718.32-2.503.672.363.312 3.516-.167 4.386.58-.901.735-3.334.361-4.238 1.19 1.611.329 3.245-.32 4.844-.11-.05.136-.066.333-.135.345-3.529.654-2.55.186-3.682 1.225-6.702 1.743.948.098 1.599 1.24-.481.472-1.342.239-1.966.612.046.227.11.482.147.74.035.25-.441.51.086.822 5.902-.304 10.373-2.408 12.399-1.687-.119.178-.173.416-.368.524-3.062 1.704-5.751.743-5.895 1.387-.023.107.104.285.239.33 1.398.465 1.913-.135-.388 1.312.739.507 1.748.26 3.507.053.712.289 1.393.563 2.046.827.175.601-.787.62-1.006 1.077 2.327.276 3.874-1.172 5.651-.207l-.265.88c.569.392 2.147.081 2.945-.07-.064-.836-.219-.917.917-1.01l.396 1.202c1.945.037 3.842.144 5.764-.084.407-.048.312.39.078.461-1.902.584.324-.355-5.618.476l-1.001.9c.496.473.49.483 1.873.847 2.449.169 15.755-1.34 18.155-.714l1.145-.485c3.312.418 3.965-.318 8.101-.227.036.335-.304.333-.493.35-12.941 1.192-1.022.46.081.528.415.026.701.205.815.5-.699.633-1.768.702-2.694.99-.107.034-.122.231-.208.413 3.276.301 3.51.249 3.499.63-.011.412-1.146.214-4.617.771 1.791.378 4.992-.144 5.268.607l-2.429.521c.177.066.274.134.379.136 7.12.119 6.318-.319 4.902 1.862-.203.07-.396.195-.566.186a11.88 11.88 0 00-2.822.195l.192.579c-.798.529-.35.804.203 1.364-1.802.374-3.494.623-5.318.374-1.731-1.303.184-1.202-12.037-.098-.442.04-.905.288-1.02.42-.135.157-.078.392-.104.584 1.169.364 2.236-.198 3.332-.184 1.306.016 4.703-.126 6.522-.193-1.147.692-2.792.41-2.966 1.26-.022.11.522.233.735.293-.291.165-.801.136-.863.509.776.492 1.414.153 1.97.127.352-.017.727.395.562.619-.773 1.048-.534.631-2.278 1.75-.227.145.111.49.231.501 3.602.33 4.265-.038-.119.668-1.494.24-.748.56-.136 1.476-.464.204-5.273 1.848-8.826 1.559-.513-.441-.361-.834.015-1.23-.5-.355-1.347.02-1.92-.4 1.605-1.472 3.913-1.336 5.02-2.134-1.66-.233-3.485.384-6.252.103-.29-.03-.629-.02-.904.055-1.456.4-3.007.385-4.474.699-.591.126-1.206-.102-1.763.202-.406.222-.844.414-1.249.61-1.315-.095-2.606-.041-3.887-.27-1.138-.203-2.394.083-3.632.247-1.53 1.467-.664.921-2.576 1.043-.163.01-.331.16-.47.263-.059.044-.05.133-.071.202.451.594 1.606.405 2.131.909.196.433-.495.605-.622 1.004.17.118.333.333.577.383 1.782.371 2.243.038 4.453.334.259.034.435.377.303.526-2.945 3.317-6.083.806-6.386 3.483 1.474.293 2.931.355 4.359-.298.234-.679-.51-.428-1.447-.282-.254-.24-.434-.053.921-.863.685-.133 1.283-.193 1.912-.008l-.135.984c1.034.422.794.182 1.045 1.134.384.445 1.09.196 1.686.317-.096.077-.161.174-.259.201-.286.08-.647.075-.868.203-2.181 1.258-3.734.449-4.922.87-1.713.607-3.569.608-5.298.85-.503.377-.05.604.661 1.25-.073.554-1.162.419-1.353 1.03 1.063.27 1.767-1.038 3.205.39-2.148 1.282-2.299.388-2.489 1.912-.387.03-.865-.034-1.16.106-1.999.955-3.997.61-7.404 1.247-4.455.833-4.416-.355-7.475 1.18-.1.254-.001.317.262.311 1.281-.028.814.078.985.856.235.087.482.255.756.269 1.613.079 3.219.066 4.785-.436.662-.212 1.081-.202 1.305.702.35.376 1.56.105 1.439.455-.061.177.043.098-2.03 1.078-3.317.257-2.707-.163-6.817.516-2.105.349-2.95-.08-4.5-.331-1.457.45-3.083.663-4.511 1.253-.049.476-.389.796-.883 1.053.12.114-.043.184 1.048.106 7.064-.505 5.129-.342 9.532-1.425 1.352-.332 1.824.265 3.368.43.256.028.485.15.782.25-.271.112-.44.23-.625.252-3.697.43-5.033 1.11-6.28.918-1.899-.292-2.695.394-8.462.735-8.497.502-8.629.584-10.275.917-4.864.983-3.883 1.131-4.881.314.12.062.038-.018-.031-.01-1.108.128-2.176-.122-3.303.013-6.162.738-7.627.572-8.721.97-.822.298-1.742-.187-2.968.215-.273.09-.648.22-.863.158-.94-.277-1.802.258-2.692.184-1.184-.098-1.415.299-6.329.75-5.625.517-6.782 1.297-8.994 1.056-9.657.805-10.717.832-12.086 1.242-2.107.63-2.895-.08-1.386.896-.829.64-1.688-.002-2.529.127l-.184.566c-1.17.26-2.247.732-3.493.834-.816.068-1.526.386-2.27.828 1.459.173 2.838-.14 4.338-.062.167.157.392.37.705.668 2.108.108 4.33-.522 6.591-.242-2.324.744-1.36.42-3.63 1.24.836-.065 1.489-.013 2.022-.179 2.188-.68 5.829-.461 9.573-1.416.689-.175.904-.185 7.808-1.052.381.52-.708.376-.538.79l.736.214c-.294.335-1.127.053-1.298.562.84.238 1.815-.16 2.645.178-.663 1.098-2.734.68-2.888 1.215l2.333.057c-.118.414-.517.536-.908.579-1.847.2-1.617-.277-1.35.417.083.216.014.19-.759.47-.4.325.401.444.096.74-13.645 2.706-7.79 1.213-12.563 2.58 1.293.06 2.483-.135 3.612-.481l1.752.353c-.063.106-.073.168-.112.18-.283.095-10.547 1.807-13.844 2.062-.639-.873.098-.75-5.412-.265 1.203.284 1.364.024 3.956.122-.979 1.018-10.014 1.506-27.151 2.798-20.383 1.538-20.768 1.957-32.453 2.344-1.406.047-2.804-.05-4.22.11-.507.056-.908-.224-1.001-.628 1.314-.739 14.317-1.068 13.67-1.725-.442-.45.385-.052-4.509.173-2.153.624-4.408.537-6.623.73-.822.071-1.62.01-2.393-.15-.166-.034-.298-.139-.48-.228l.475-.612-1.694-.842c-.998.03-2.01.028-3.017.098-5.965.41-2.05-.172-6.958.336-.401.041-.798.16-1.197.177-.81.032-1.627-.035-2.43.04-1.26.118-2.688.601-2.6.323.076-.241.007-.416 1.054-.527 6.125-.65 6.98-.686 8.168-.894 6.618-1.156 11.216-.826 19.349-2.164 4.89-.805 12.644-.747 12.25-1.836-.206-.57-1.36-.678-1.708-.603a39.589 39.589 0 01-5.4.79c-2.301.724-7.873.915-9.592 1.296-4.345.964-7.08.63-8.707 1.127a3.882 3.882 0 01-1.182.185c-3.262-.079-6.444.614-9.671.856-4.732.355-5.29.743-5.973.189 1.072-.604 2.413-.22 3.523-.632-.128-.366-.562-.182-.828-.163-11.083.802-10.956.989-11.746.534-2.203-1.269 24.514-1.277 20.273-2.926-2.64-1.026 4.727-1.746-8.199-.752-.408-.661 1.86-.562 2.824-1.208l-1.048-.79c-.879-.151-1.809-.115-2.696.046-2.359.428-7.47.337-10.294.804-.486.08-1.01.035-1.512.015-.132-.005-.245-.135-.372-.21.996-.78 5.597.023 8.025-1.498-3.621-.142-8.738 1.504-25.162 3.134-.488.048-1 .12-1.381-.177 1.146-.636 2.957-.315 6.5-.998 2.47-.475 5.255-.35 7.78-1.155 1.771-.564 4.446-.777 4.92-1.225l-.347-.764 1.97-.415c-.878-.16-1.521.022-2.311 0-.56-.212-1.253-.472-1.944-.732-1.087-.073-4.817.233-7.226.764-1.836.406-6.748.615-14.552 1.327-6.12.559-4.803.824-6.936.754-.183-.005-.33-.27-.494-.418 1.137-.672 3.191-.192 7.535-1.098 1.091-.228 2.218-.002 3.3-.297.178-.049.4.01.603.002 1.718-.069 3.352-.593 5.117-.57 1.63.02 2.44-.152 10.004-.895.819-.08 1.614-.188 2.265-.74-.161-.133-.312-.386-.502-.393-2.453-.1-2.316.6-8.03 1.227-9.62 1.055-7.39.495-9.386.821-1.114.182-2.212.171-3.312.07.038-.069.055-.18.112-.193 3.855-.945.39-.16 7.392-.929 10.72-1.176 6.377-1.016 9.63-1.26 1.309-.1 2.636-.078 3.85-.61.58-.254.272.292 3.346-.66-.38-.088-.608-.192-.838-.184-4.01.134-2.697.288-3.805-.146l.747-.693c-4.485-.078-6.134-.165-9.907.236-3.425.364-1.988.014-6.412.356.076-.185.078-.347.168-.38.27-.102.61-.246.858-.207 1.46.228 2.774-.261 4.13-.531.24-.048.276-.213.152-.362-.688-.067-1.421.159-2.088-.075-.23-.412.565-.568.505-.806.145-.775-.932-.985-.968-1.615.724-.455-.338-.41 6.468-1.145-.339-.39-.606-.086-3.156-.129.2-.163.278-.283.383-.301.696-.119 1.449-.128 2.088-.336 1.876-.61 4.295-.46 6.306-.416 2.409.053 1.81-.655 5.646-.844 1.822-.09 3.641-.293 5.46-.46.298-.027.558-.132.518-.42-1.553-.254-3.127.251-4.698.19-.9.29-1.81.03-2.714.135-.901.105-1.779.306-2.716.256-.58-.03-1.196.14-1.796.216-4.424.568-3.916.667-4.836-.024.155-.462.782-.352 1.181-.517.444-.184.877-.384 1.315-.578-.481-.552-1.4-.43-2.048-.708.043-.51.775-.588 1.138-.895 1.33-1.126-.051-.667 5.706-1.849 1.725.12 3.43-.258 5.143-.306 1.243-.035 2.425-.21 3.572-.566.84-.26 1.82-.245 2.544-.732l.056.113c-.142-.087-.134.04.038-.694 1.221-.531 2.585-.44 3.911-.703-.142-.207-.393-.143-.594-.13-9.078.607-5.902.748-10.264 1.091-21.774 1.713-20.863 2.587-20.896.672-1.87-.464-1.653-.335-1.811-.764-.053-.143.285-.174 3.454-.618 3.369-.472 2.599-.256 3.028-.691-.129-.046-.537-.328-1.376-.061-1.072.34-1.142.23-8.13.41.26.19-.588-.13 2.309-.6.79-.13 1.602-.175 2.709-.289-1.192-.379-2.225.115-3.12-.186-.35-.235-.723-.467-.532-.975 1.957-.66 2.079-.45-.442-.632l.153-.996c-.692-.207-1.393-.212-2.093-.126-2.407.297-4.85.329-7.221.92a9.257 9.257 0 01-3.089.253c.686-1.68.766-1.276-.189-1.887.806-.78-.977-.318 10.463-1.504.788-.081 1.553-.342 2.415-.54-1.219-.928-6.523.158-17.86.243-3.802.028-1.371.184-5.413.202-.224-.452.408-.67.886-.663.738.012 21.952-1.83 15.471-1.762-4.457.047-1.958-.478-8.752.208-5.172.522-4.594.404-4.836.137-.04-.046.378-.25.798-.257 2.869-.048 2.821-.566 4.738-.76 1.566-.158 5.629-.331 8.575-1.318-.15-.163-.29-.269-.358-.396-.499-.925 2.348-.512 3.345-.98-.347-1.156-.541-.8.68-1.594l3.002.13c.618.694 1.633.919 2.778.928.306.003 3.62-.227 4.508-.407-.1-.19-.128-.338-.24-.434-.29-.244-1.017-.334-.684-.793.753-1.037 5.276.128 9.647.049.625-.615.127-.464 2.406-.64.17-.3.02-.507-.321-.493-1.322.056-2.204-.494-3.352-.9 1.438-.624 2.767-.346 4.029-.498 4.98 1.717 11.392 2.188 10.458 1.336a.81.81 0 00-.505-.194c-1.156.052-2.134-.337-3.193-.517-.259-.044-.456-.252-.66-.4-.054-.04-.029-.136-.04-.206.288-.465.999-.428 1.594-.72 8.279 1.11 6.341 1.059 8.152 1.01.303-.008.691-.333.778-.625.209-.7-1.534-.58-2.117-.714.1-.196.13-.322.17-.324 5.584-.375 8.8-1.468 9.38-.518.064-.072.32-.145-1.758.568l-.087-.137c.686.407.06.284 3.123.548l1.9-.443c.365.626 1.384.31 1.305.211-.24-.288-.065-.242-1.372-.15zM53.808 63.48c.22-.137.197-.15.07.041-.172.16-.149.174-.07-.04zM231.995 9.973c.207.152.228.135-.064.052-.111-.193-.185-.219-.193-.079-.001.01.167.018.257.027zm-.849 29.068c-1.021.175-2.014.23-1.468.626.566-.11 1.158-.193 1.402-.666.273-.057.328-.106.157-.127-.012-.002-.06.109-.091.167zm-194.5 23.17c.208.147.229.13-.064.053-.588-.372-1.256-.322-1.955-.113.432.848.966.467 2.018.06zm18.391-38.923c-.492.071-.983.153-1.477.21-.459.054-.987-.135-1.505.345 3.178-.366 2.431-.22 2.916-.598-.021.048.272-.148.066.043zm10.206 37.63c-1.199-.034-3.09-.265-3.677.493.524.279 2.524-.114 3.176-.254.168-.036.296-.183.442-.28 1.1-.188.742-.107 1.23-.293-.566.012-.922.083-1.17.334zm81.614-36.936c-2.37-.092-2.594-.133-2.882.015-.162.084-.379.452-.125.471a7.103 7.103 0 002.809-.336c.1-.034.268-.532.198-.15zm-83.885 39.75c-.037-.218-.107-.273-.173-.157-.007.012.157.068.241.103l.049.635c.697.119 1.399.01 2.076-.148.237-.056.413-.267.618-.408-.484-.38-.962-.521-1.636-.273-.358.132-.78.169-1.175.248zM227.12 2.604c.143.182.222.203.204.064-.002-.013-.171-.008-.262-.011-.146-.085-.278-.236-.438-.246-2.275-.137-4.537.083-6.79.435-.046.007-.076.083-.163.186 2.523.11 4.987-.1 7.449-.428zm5.375 30.668c1.268.138 1.127.172 1.716.007.233-.065.442-.396.32-.533-.098-.11-.253-.262-.403-.268-5.439-.207-4.938 1.065-3.449.57.754-.25 1.348-.119 1.87.257-.186.04-.628-.012-.226.247.067.043.242-.142.172-.28zM70.171 61.808c-1.092.055-2.18-.09-3.28.207-.587.158-7.621.604-10.056 1.06 2.18.025 11.761-.17 13.27-1.31.383-.065.83.04 1.22-.243-.51-.042-.834.117-1.154.286zm68.733 10.662c2.054.188 2.054.188 3.079-.415l-1.048-.98c-2.247-.13-1.713-.033-2.042-.428.168-.509 1.132-.605 1.238-1.145-1.097-.723-2.818-.336-3.113.362 1.819 1.547.852.66.887 1.533.013.327.613.271.799.53.332.766.382.545-.311.583-.313.017-.308.167-.329.21.557.06.362.154.84-.25zm41.326-51.517c-1.241.439.006.337-4.701.6-.007 0-.017-.072-.026-.11.622-.134 1.428-.408 1.643-.558-1.975-.233-3.712.497-5.556.853.052.09.063.172.109.181 2.995.622 9.197-.158 10.971-.443-.196-.258.214-.127-1.862-.564-.108-.107-.218-.305-.324-.3-.232.011-.315.173-.254.34zM43.601 17.264c1.88.4 3.574.15 9.367-.346.747-.063 1.363-.293 1.877-.83-.737-.03-1.446-.15-2.089.002-2.38.56-2.957-.353-8.696.916-.161.035-.274.202-.41.308-1.231-.62-2.53-.468-3.861-.082.093.76.751.612 3.358.29.163-.02.304-.169.454-.258zm78.993 57.75c.504.308.34.255.616.157-.158-.201-.442-.083-.669-.108l-.33-.568c-2.295-.294-4.104.554-4.776.467-1.02-.131-1.995.054-2.998.164-2.008.22-4.026.366-6.039.558-6.926.66-1.627.395-10.216 1.237-2.209.216-4.419.42-6.624.63.004.22.123.313.358.318.697.014 1.392.118 2.087-.123.8-.278 1.567.057 2.382-.012 7.661-.656 13.101-.718 17.443-1.849 1.234-.321 2.556-.386 3.964-.432l-.659.694c1.044.341 1.053.337 1.656.078.175-.075.343-.273.478-.262.512.04.964-.056 1.449-.178.35-.088.765-.026 1.121-.03.274-.27.516-.506.757-.742zm8.878-14.845c-2.039 1.029-2.039 1.029-4.578 1.357-.862.404-1.764.102-2.634.185-4.127.393-17.075 2.704 5.178.689 7.392-.67 15.84-1.109 26.974-2.082 1.81-.158 1.759-.356 2.541-.77.254.062.624.255.964.22 2.304-.245 4.635-.434 6.8-1.346l-.335-.438c-8.004.236-11.478 1.046-13.053.874-4.193-.458-8.594.735-11.468.7-.753-.01-6.258.206-7.535.554-.94.256-1.799.088-2.854.057zm130.251-31.657c1.657-.539 1.394-.03 1.582-1.872-1.872-.544-12.638.49-14.597.706-8.92.99-3.804.094-9.331.748-.163.02-.311.137-.467.21.114.09.219.257.342.259 4.815.069 12.008-.936 12.521-.285-.368.439.367.215-2.941.919.778.286 1.767-.198 2.509.225-.05.252-.017.112-.124.531 1.497.064.922-1.564 3.345-.241 7.942-.304 5.339-.608 7.161-1.2zM71.815 72.32c-.347.274-.788.407-.499.898.146.247.605.41.991.343 2.898-.505 5.834-.7 8.769-.92 4.016-.302.604-.152 11.299-1.51l-1.792-.415c-1.983.287-1.06.37-4.154-.479-1.34.017-13.514 1.075-14.735 1.194-.258.025-.362.32-.187.544.093.12.205.23.308.345zm131.349-24.045c4.205.104 8.275-.592 12.37-.837.398-.023.801-.118 1.185-.216 2.361-.597 5.297-.611 7.429-1.153 2.018-.514 3.961-1.22 6.104-1.435.694-.07 1.344-.29 1.827-.703-.514-.062-13.383 1.928-13.694 1.95-2.317.17-1.637-.402-10.952.696l-4.269 1.698zM102.328 72.02c.418.58.393.613.66.669 2.149.45 4.708.608 9.532-.51 2.369-.55 6.31-.328 10.423-1.757-1.951.04-1.693.191-3.075.286-1.231.084-.629-.044-3.909.158-7.253.445-6.522.515-6.581-.25-.3-.004-.608-.063-.874-.005-2.037.45-4.144.725-6.176 1.41zm32.46-65.315c7.927-.553 7.437-.46 8.371-.774.136-.046.223-.54-.052-.508-.589.068-1.2.258-1.758.214-2.021-.16-3.981.382-5.978.412-2.215.889-4.35-.318-7.426.574-1.531.443-2.841-.123-2.643.413.196.53 1.544.283 9.486-.33zm74.979 11.073c-1.039-.074-1.384-.172-1.796.09-.396.25-.249.478.194.594.75.196 1.881-.59 4.124-.105 2.216.479 2.939-.883 5.591-.567.143.017.328-.104.495-.162.585-1.533-.557-1.39-3.743-.762-1.767-.154-3.367.288-4.865.912zm63.012 2.56c-1.007-.066-1.597-.164-2.182-.13-1.893.107-11.563.643-13.845 1.095 12.643-.699 11.926-.95 12.829-.465.09.048.031.231.044.402-1.129.344-2.371.305-3.844.636 1.949-.114 3.588-.041 5.19-.266.563-.761.061-.424 1.808-1.273zm-73.808 34.575c.99-.043 1.986-.265 2.964-.452.23-.044.4-.281.617-.444-.784-.247-3.555.033-4.792.352-2.522-.108-5.059.077-7.394.872-1.434.488 3.698-.113 8.605-.328zM78.315 67.51c1.872.15 3.42-.113 4.895.169.358.068.829.005 1.2-.096 1.564-.423 2.851-.275 5.342-.94.103-.028.327-.475-.05-.49-2.876-.111-10.594 1.001-11.387 1.357zm-58.78-43.127c.156.153.22.294.323.305.89.093 1.785-.12 2.703-.053 3.742.273 3.141-.441 5.368-.471.831-.011 5.203.084 4.917-.4-.234-.398.382-.368-4.783-.023-2.817.187-5.633.377-8.528.642zm117.101 48.383c-.779-.076.709-.193-8.135.681-.443.044-.734.223-.851.537 1.525.327 2.568.395 3.767.21 6.058-.938 5.222-1.086 5.219-1.428zM83.222 21.4c-.443-.552-1.056-.161-5.523.174-4.808.362-9.325.462-11.393 1.045 1.502.121 2.78.107 4.1-.05 5.524-.656 5.275-.18 8.717-.759 1.111-.186 2.177-.275 3.284-.178.245.022.537-.148.815-.232zm67.027 46.935c3.988.125 7.277-.558 12.069-1.347.414-.654-1.026-.104-2.205-.02-2.735.194-3.93.43-9.864 1.367zm-21.64-2.24c1.189.313 1.54.37 2.296.256 1.39-.208 2.824-.332 4.147-.688 3.055-.822 4.189-.477 5.593-.93.305-.099.162-.501-.134-.385-2.032.795-4.821.58-6.225.897-2.3.52-3.569.4-5.677.85zM68.295 55.23c-5.788.165-5.709.756-5.246-.456a2.391 2.391 0 00-1.667.02c-1.023 1.013-.346.74-2.51 1.241 3.255.19 6.316-.517 9.423-.805zm4.318 15.255c.26-.444.39-.55-.27-.575-1.624-.064-3.225.257-4.838.37-.863.062-1.707.461-2.555.717-.057.017-.076.105-.159.227 1.356.094 2.681-.09 3.935-.339 1.303-.258 2.62-.196 3.887-.4zM59.493 16.3c.684-.01 5.988-.246 6.134-.72.02-.07-.005-.143-.01-.217-.176-.044-.36-.139-.54-.127-3.326.209-4.99.2-5.584 1.064zM22.629 44.022c-1.803-.072-3.64.097-6.519.6l-.005.44c1.703.19 3.372-.126 5.014-.47.514-.108 1.252-.037 1.51-.57zm50.937-12.504c1.997-.075 4.626.602 4.495-.421-.441-.26-.56-.75-1.397-.883-1.778.138-3.15.053-3.098 1.304zm85.672 36.955c-3.938.109-14.941 2.041-4.87 1.079 1.624-.156 3.165-.575 4.733-.907.061-.013.092-.112.137-.172zm40.6-49.388c-4.367.1-4.36.2-5.544.749-1.366.632 4.822.448 5.521-.357.075-.085.019-.224.023-.392zM123.936 7.287c-.762-.502-.125-.63-5.354-.016-.238.21-.277.378.051.503 2.306-.689 3.624.312 5.303-.487zM54.79 68.52c-2.79-1-2.172-.845-2.792-.76-.36 1.187-2.844.482-2.476 1.242 1.562-.167 3.157.003 5.268-.482zm168.92-31.627c2.434.238-.134.192 7.003-.592-3.427-.104-4.649-.032-7.003.592zM117.879 65.62c1.884.111 4.758-.093 7.067-.538-2.27.11-4.538.244-7.067.538zm91.939-23.054c1.831.35 3.38-.096 4.92-.111.43-.005.87-.185 1.837-.407-2.549-.065-4.508.178-6.757.518zM105.498 63.26c.068.11.105.303.211.32 1.226.2 2.447.106 3.902-.244-2.492-.373-3.301-.663-4.113-.076zm-20.942 5.898c-.83-.194.276-.29-6.063.297-.143.013-.274.129-.415.199.098.032.188.09.274.085 6.383-.412 5.187-.318 6.204-.58zm11.28-.933c-2.145-.179-3.926.156-5.712.323-.112.01-.213.124-.628.38 2.206-.303 4.105-.193 6.34-.703zm-53.025-43.78c.905.092.129.224 4.231-.285.388-.048.14-.467-.092-.435-1.373.19-2.791.218-4.139.72zm114.627-3.213c-.007-.1.561-.114-5.099.324.007.1-.561.114 5.099-.324zm-25.164 1.869a34.21 34.21 0 00-5.117.461c1.563-.168 3.146-.022 5.117-.462zm130.182-6.941c1.44-.103 2.816-.007 4.281-.425-2.093-.062-2.093-.062-4.281.425zM103.758 67.609c3.774-.07 3.892-.086 4.434-.582l-4.434.582zm170.06-48.531c-.606-.116-2.963-.36-2.865-.041.033.108.107.289.193.294.794.047 1.595.087 2.672-.253zM216.926 4.459c.981.088 2.558.105 3.541-.271-1.053-.234-2.501.01-3.541.271zm11.752 42.265c2.208.022 2.208.021 3.376-.63-.362.002-.69-.07-.852.018-.761.41-1.646.47-2.524.612zM56.688 23.376c.768.107.333.25 3.564-.166.546-.07.118-.35-.045-.337-3.643.288-2.9.22-3.52.503zm13.615 4.137c-.173.071-.385.118-.512.218-.927.729 1.299 1.273 1.76.213-.27-.342-.794-.339-1.248-.431zm116.623 28.074c-2.355-.164-2.355-.164-3.75.35 1.132.026 2.235.021 3.75-.35zm23.367-52.375c.068.135-.24.117 2.638-.106-.012-.139.283-.12-2.638.106zm-75.63 67.395c-.883.157-1.76.177-2.797.508 3.126.017 2.699-.124 2.797-.508zm-46.938 5.66c.462-.61-.564-.26-2.526.195l2.526-.195zm19.787-31.772l3.097-.24c-1.442-.104-2.291-.011-3.097.24zm105.07-10.378c.715-.014 1.455.33 2.097-.162l-2.097.162zM91.648 75.494c-.462-.159-.928-.084-1.367.07-.126.043-.173.211-.257.322.16.05.326.151.48.138.483-.042.925-.166 1.144-.53zm-19.887-9.668c-.865-.178-1.636.02-2.473.158.85.222 1.621.043 2.473-.157zM218.766 5.725c2.489-.05 2.963.015 2.931-.358-.768-.148-1.503-.023-2.931.358zM64.794 22.727c-1.503-.098-1.503-.095-2.472.198 1.589.103 1.59.112 2.472-.198zm-10.54 34.118c-1.169-.163-1.845-.099-3.092.24l3.092-.24zM177.84 53.66c.005.078-.125.094.879.036 1.566-.09.705-.158-.879-.036zM26.853 23.12c-.006-.076.201-.073-1.695.073.005.076-.201.073 1.695-.073zm39.697-1.796c-.578-.273-1.126-.09-1.857.092.747.095 1.308.125 1.857-.092zm4.812-.36l1.768-.137c-.572-.044-1.154-.217-1.768.137zM137.9 68.455c1.901.312 1.629-.5.451-.436-.317.018-.552.163-.451.436zM28.628 41.96c-.927-.052-1.589-.15-2.198.192.653.256 1.275.024 2.198-.192zm92.576 29.85c-1.023.151-1.427.178-1.429.325-.002.149.157.186.397.092.323-.126.781-.047 1.032-.417zm37.127-1.787c.366-.04.713-.046.846-.175.196-.19-.017-.456-.431-.302-1.323.495-1.173.406-.415.477zM79.459 76.88c-.67-.215-1.33-.222-1.991.096.671.248 1.329.082 1.99-.096zM64.956 48.613c-.675-.215-1.296-.21-1.898.179.68.21 1.31.28 1.898-.179zm162.065-9.087c-.419.07-.111.439-.054.463.979.43 1.496-.703.054-.463zm-19.467 3.608c-.463-.212-.938-.054-1.396-.008-.182.019-.481.013-.459.261.663.03 1.307.17 1.855-.252zM47.574 57.338c1.543-.015.925.047 2.249-.202-.776-.196-1.358-.173-2.249.203zm180.772-11.37c1.02-.174.467-.678.114-.384-.14.117-.554.109-.382.369.019.03.176.011.268.015zm-3.393-35.277c-.17.069-.387.111-.5.212-.16.142-.074.313.167.32.154.004.655-.183.545-.405-.027-.054-.138-.085-.212-.127zM86.751 26.61c-.64-.11-1.15-.191-1.796.165.632.115 1.143.13 1.796-.165zm-52.214-2.776c.602-.015 1.42.046 1.103-.342-.184-.224-.957-.243-1.103.342zm23.552 37.79c.003.09-.16.08 1.12-.019-.007-.09.154-.08-1.12.02zm145.785-9.519c-.409-.16-.789-.166-1.143.13.414.082.793.082 1.143-.13zM21.49 23.495c-.538-.045-.985-.064-1.48.13.51.076.953.038 1.48-.13zm193.878 27.69c.486.226.881.172 1.259.072.111-.03.172-.167.257-.255-.524-.217-.999-.092-1.516.184zM71.106 63.009c-.237-.064-.485-.142-.744-.192-.049-.01-.219.12-.209.133.301.384.307.373.876.296.03-.003.039-.113.077-.237zm-10.875 1.548c-.647-.006-1.031-.111-1.466.166l1.466-.166zm127.144-7.72c-.488-.104-.931-.138-1.402.157.499.03.953.196 1.402-.157zm79.858-33.838c.125.143.24.11 1.749-.076l-1.749.076zm-40.095 6.184c.986.246.987.241 1.582-.156-.554-.169-1.083-.132-1.582.156zM84.468 25.11c.461.107.901.065 1.325-.132-.456-.067-.908-.13-1.324.132zM35.535 48.314c-.354-.2-.954-.153-1.376.105.113.07.216.195.341.202.396.024.777-.039 1.035-.307zm37.662 5.276c.455.215.794.095 1.19-.092l-1.19.093zm40.313-3.117c-.491-.099-.946-.088-1.388.108.474.182.928.146 1.388-.108zM59.959 21.8c-.1-.098-.013-.185-.664-.068-.04.007-.06.088-.088.136.7.065.488.067.751-.068zm161.054-5.277l-.38.236c.81.43 1.528-.351.38-.236zm19.482-.138c-.251-.199-.152-.15-.43-.134.006.06-.064.258.275.246.051-.001.103-.073.155-.112zM102.403 74.719c-.03-.088.075-.177-.587-.12-.065.007-.123.078-.184.12.268.107.055.126.771 0zM262.456 28.87c-.18.04-.348.114-.522.174.163.04.324.115.488.112.507-.012.323-.35.034-.286zM32.222 47.567c.077-.042.175-.076.222-.13.18-.208-.38-.243-.388.035 0 .033.108.063.166.095zM200.251 35.17c-.006-.082.093-.069-.64-.012.005.082-.092.069.64.012zm-42.369-11.398c.324.012.19.057.554-.13-.353-.014-.227-.04-.554.13zm48.522-20.223c-.649-.04-.483-.051-.629.06l.629-.06zM89.672 61.36c-.391.02-.196.01 0 0-.39.03-.195.016 0 0zm-39.32-37.49c-.023-.037-.033-.095-.072-.107-.549-.165-1.215.33.072.107zm139.471 32.86c-.008-.105.121-.089-.843-.014.008.104-.12.088.843.014zm17.726-40.712c-.665-.075-.459-.067-.752.009.253.1.37.194.752-.01zm12.667 24.493c-1.465-.117-1.099-.155-1.411.152.293.11-.06.148 1.411-.152zm10.981.397c-.226-.005-.367.068-.37.217-.001.052.086.103.133.154.48-.309.442-.228.237-.371zM71.442 53.849c.004-.126.14-.098-.761-.079-.004.129-.141.1.76.079zm19.808-1.733c-.595.066-.213.3.29.036l-.29-.036zm14.208-1.043c.014.07-.101.06.747-.005-.014-.113.112-.1-.747.005zm-35.9 9.327c-.579-.142-.332-.158-.947.05.532.131.297.166.948-.05zm207.793-37.266c.345.194.686.2 1.033-.038-.345-.226-.687-.15-1.033.038zM103.486 8.58l.222-.102c-.069-.033-.134-.09-.208-.093-.24-.01-.339.06-.246.16.032.034.152.025.232.035zm5.498-.568c-.264.085-.278.057.008.1l-.008-.1zM23.19 23.421c.263-.073.251-.05-.009-.075l.01.075zm9.79-.855c-.008.148-.074.128.266.054l-.266-.054zm70.928 2.732c.282.066.217.078.252-.03l-.252.03zm-64.08 5.362c-.267.021-.33.082-.16.147.049.02.156-.032.236-.051l-.077-.096zm191.528-13.83c.013-.144.082-.126-.277-.047l.277.047zm26.324-.405l-.307.065c.307.027.219.037.307-.065zm14.104 6.32c-.233-.144-.271-.226-.698.017.571.13.42.14.698-.017zM32.431 41.673c-.224-.149-.053-.174-.623.046.232.124.067.157.623-.046zM230.647 28.92c-.289-.1-.161-.097-.492-.012.291.102.163.1.492.012zM27.906 46.28c.214.059.164.066.202-.01l-.202.01zm79.301-5.298c-.347.097-.368.067.011.106l-.011-.106zm-59.913 6.875c-.266-.07-.204-.083-.243.029l.243-.03zm57.251-3.14c-.016-.009-.221-.17-.404-.048-.154.102-.085.166.171.145.075-.006.147-.06.233-.097zm131.39-5.46c-.013.096-.062.08.227.034l-.227-.033zM53.318 53.882c-.021-.033-.031-.087-.066-.095-.281-.063-.604.119-.16.146.07.005.15-.033.226-.051zm33.01-1.286c.17.125.066.146.429-.055-.272-.044-.179-.058-.43.055zm15.626-1.06c.074-.04.148-.08.222-.122-.07-.037-.137-.107-.211-.108-.259-.003-.365.078-.262.184.037.04.165.032.251.046zm1.465-.22c.338.031.241.044.333-.097-.342-.03-.245-.043-.333.098zm5.51-.42c-.197-.163-.032-.177-.612.012.202.152.036.172.612-.012zm9.343-.721c.321-.041.331-.093.02-.131-.072-.01-.163.04-.245.062l.225.069zm2.491-.225c.014-.08.054-.066-.206-.029l.206.03zm-49.547 5.118c-.23-.09-.124-.085-.406-.026.233.093.126.087.406.026zm2.325-.24c-.303-.037-.18-.053-.472.056.158.067.184.133.456.045.021-.007.011-.066.016-.102zm148.929-7.164c.287.03.204.038.289-.07-.289-.032-.206-.04-.289.07zM56.107 64.02c.382.144.457-.164.07-.129-.028.003-.047.084-.07.129zm-9.045 1.262c-.215-.036-.164-.079-.248.115.233.038.172.06.248-.115zm1.22.11c.296.088.225.11.269-.061l-.268.06zm78.598-4.76c-.013.117-.071.1.248.038l-.248-.039zm-50.778 6.96c-.01.081-.05.067.201.03l-.201-.03zm52.394 2.01c-.281-.026-.2-.034-.285.059.284.03.203.038.285-.059zm33.892-1.288c.264-.078.276-.053-.004-.086l.004.086zm70.709-29.671c.229.075.178.094.195-.053l-.195.053zM49.938 64.796c-.114.157-.14.125.075.123l-.075-.123zm131.369 9.806c-1.708-.024-.532-.216-5.768 1.292-.977.28.009.099-14.335 2.272-7.952 1.203-17.914 1.687-18.117 1.634-1.167-.306-2.394-.103-3.627-.106l-.565-.99c1.43-.398 22.932-1.773 27.928-3.001 1.163-.287 2.439-.182 3.546-.656.086-.037.199-.09.28-.079 1.754.24 3.361-.467 5.065-.59 5.01-.357 5.728-1.331 6.668-.713.018.012-.061.145-.124.163-.499.138-.794.4-.951.774zm-37.309 1.5c.948.946.672.757-51.216 5.13-.299.025-.593.108-.885.163-.636.487-1.143 1.017-1.357 1.687-.446-.036-1.296.1-1.62-.745-.532-1.378-3.503-.06-7.474-.407 1.132-.62 12.863-1.883 13.88-1.9 5.983-.096 11.912-.99 17.883-1.312 1.709-.092 3.413-.414 5.116-.643 2.283-.307 23.092-1.907 25.673-1.973zm139.226-44.114c-.011-.476.679-.472.99-.728-.318-.251-.318-.251-1.858-.295-.606-.39-.84-.613-1.368-.6-3.606.092-2.489.195-3.447-.195 1.092-1.006 1.092-1.006 1.452-2.045 1.114-.248 1.533.495 2.277.194.673-.273 1.123.098 1.662.242 7.031-.59 6.045-.542 7.235-.464.432.029.328.435.208.491-3.001 1.393-1.378 1.163-4.069 1.159l-.42 1.82c-2.13 1.037-2.96.21-2.662.421zm-.378-1.91c.46.2.884.051 1.352-.137-.514-.258-.94-.135-1.352.137z" fill="#EE4E4E"/><path d="M253.734 40.05c-.726-.199-.603-.685-.77-1.13l-.843-.16c-.306-.917-.414-.597.537-1.545.264-.115.346-.174.439-.188 3.837-.579 2.478-.539 6.928.06 1.056.874.536.664 2.433.92-.29.217-.442.41-.665.484-4.468 1.502-4.212 1.392-8.059 1.559zm-43.727 22.728c.13.374.046.773.538.92 6.726-.27 6.096-.437 6.396.677-.12.142-.183.314-.332.38-1.42.62-5.619 2.72-6.318 1.162-.071-.16-.436-.244-.668-.362.568-.707.543-.439.063-1.26-.691-.333-1.558-.364-2.058-.913 1.404-.809.879-.692 2.379-.604zM34.877 86c1.502-.666 4.624-.5 9.13-1.285 3.07-.535 9.412-.762 13.87-1.557.754-.134 7.466-.809 9.036-.649-.497.315-1.024.303-1.515.34-3.756.287-23.193 3.127-30.52 3.151zm127.219-12.918c10.696-2.209 12.653-2.051 13.602-2.29 2.65-.665 5.4-.67 8.109-.936.189-.018.387.043.602.07-.047.254-.362.226-.56.245-5.626.535-11.952 2.09-15.857 2.29-1.635.083-1.557.615-5.896.621zM33.954 13.128c-.07.005-.145-.054-.293-.114.172-.165.298-.41.514-.47 1.632-.46 2.75.153 4.465-.243.8-.185 6.418-.641 7.176-.614 7.64.271-4.263.928-11.862 1.441zm251.744 10.909c.806-.602 1.482-1.05 1.487-1.777l1.335-.415c.644.154.437.412.278.919.561.63 1.246.191 1.562.13.699-.137.838-.09 1.424.544-.206.137-.396.365-.638.41-1.692.309-3.396.498-5.448.189zm4.122-8.853c.286.548-.405.745-.83 1.126-.595.102-1.279.288-1.965.32-3.61.172-4.001 1.142-5.097.149.496-.377-.425-.078 3.558-.942 2.455-.532 3.1-.882 4.334-.652zm-58.4 40.506l-.956-1.644c.107-.32.436-.503.82-.6 1.869-.472 1.935-.395 3.093.133l-.436 1.465c-.704.38-1.412.81-2.521.646zm5.391 1.255c-.09-.466-.119-.871-.521-1.212-.244-.206.021-.586.404-.676 1.233-.291 2.427-.488 2.986.584.162.31-.218.843-.838.976-.663.143-1.348.222-2.031.328zm-1.074-52.826c.733-.418 1.48-.62 2.31-.411.145.037.209.218.34.367-1.167.61-.934.353-1.126 1.107-.706.183.442.104-5.179.348 1.165-.517 2.382-.171 3.388-.619.092-.277.185-.55.267-.792zM49.631 11.77c.604-.159.89-.29 1.174-.3 3.313-.104 6.617-.577 10.3-.535-2.767.386-.675.255-10.599.96-.189.014-.383-.052-.875-.126zm179.836 49.661c.118-.163.181-.4.377-.495 1.195-.59 2.516-.979 3.907-1.221.116-.02.295.116.409.204.492.378-3.478 2.022-4.693 1.512zm12.767-58.905c-2.507.37-4.52.486-6.536.535-.241.005-.478-.168-.773-.28.241-.113.38-.227.529-.24 3.382-.31 2.618-.117 4.503.008.582.039 1.187-.134 2.277-.023zm-111.616.891c.111-.093.178-.2.255-.207 14.605-1.258 10.513-.27-.255.207zm144.555 22.986l-.663 1.79c-.58.083-1.496.293-1.685-.085-.14-.278.282-.284.488-.403.286-.167.269-.393-.015-.506-.503-.2-.273.096-.884-.458-.408.334.922-.738 2.759-.338zm12.998-8.449c-.502.35-1.115.217-1.668.294-.492.068-.99.112-1.487.148-1.703.124-1.561.085-1.898-.162-.164-.12.139-.432.442-.46 1.564-.149 3.142-.378 4.611.18zM63.63 10.897c-.093.007-.199-.146-.298-.225.08-.047.156-.13.238-.136 12.033-.814 12.178-.606.06.36zm194.913 2.688c2.439-1.02 2.2.143 3.752-.393 1.008-.349 1.918-.178 2.985.063-.811.377-.946.204-6.034.598-.742-.374-.622-.347-.703-.268zM190.74 1.46c.359-.218-.219-.307 4.281-.572.18-.011.37.217.582.352-1.611.68-3.199.139-4.863.22zM169.776.847c-3.834.363-2.772.289-3.785.223-.895-.78 2.606-.776 3.397-.726.334.022.428.214.388.503zm106.292 34.268c2.135-.717 2.94-.826 4.641-.626l-.016.478c-1.291.427-2.646.674-4.08.56-.554-.044-.407-.559-.545-.412zM39.189 70.011c-.217.395-.768.477-1.07.72-.938.022-1.86.226-2.586-.304l.742-1.315.488.586c.686.444 1.728-.134 2.426.313zm121.11-5.006c-2.917.796-3.41.859-4.543.66 1.093-.63 1.093-.63 4.543-.66zM54.474 71.834c.122-.125.618-.966 1.655-.528.783.33 1.208 1.071 1.035 1.125-.565.176-.177.233-2.69-.597zm150.633-11.22c1.279-.21 3.654-.806 3.598.057-.052.8-2.733.233-3.598-.057zM43.593 51.238c.309-.309-.32-.246 5.208-.693 1.21.61-2.007.408-4.36.804-.254.043-.548-.068-.848-.111zm147.45 12.142c.691-.649 1.943-.206 2.13.418.168.563-1.4 1.076-1.864.306-.146-.244-.194-.52-.266-.724zm42.764-56.544c.455.09.876.21 1.125.51-.229.297-.229.297-2.398.396-.306-.51.944-.447 1.273-.906zm4.113-.564c.799.99-2.859.567-1.919.12.664-.315 1.319-.114 1.919-.12zm-36.611-5.197c-3.321.302-2.608.295-3.05.03.105-.078.196-.208.509-.213 3.187-.045 2.724-.088 2.541.183z" fill="#EE4E4E"/><path d="M141.922 2.572c.46-.152.64-.254.823-.266.797-.048 1.598-.21 2.571-.038-1.138.31-2.119.342-3.394.304zM43.794 83.216c.865.287.99.284.91.493-.023.06-.116.148-.182.152-.707.044-1.396.132-1.476-.264-.016-.08.179-.201.305-.285.065-.043.185-.043.443-.096zm27.209-1.442l2.91-.225c.716.182-1.024.242-1.601.288-.834.065-.297.113-1.31-.063zm176.719-47.396c1.196-.217 2.135-.401 3.153-.14-1.004.393-1.947.39-3.153.14zm47.229-10.564c-.152.35-.152.526-.262.577-.694.32-1.433.444-2.236.247.219-.383-.33-.195 2.498-.825zm-18.846 11.261c-2.748.315-2.819.363-2.874.176-.049-.168.053-.306.266-.33 2.798-.33 2.361.417 2.608.154zM124.933 3.521c1.346-.104 1.569-.16 1.601.025.073.432-2.181.52-1.601-.025zm148.922 9.152c-.563.218-1.14.317-1.744.166.702-.278.702-.278 1.744-.166zm12.318 2.018c1.08-.418 1.08-.428 1.912-.135-.62.346-1.263.273-1.912.135zm-93.595 46.972c-.732.217-1.431.501-2.171.127.714-.393 1.425-.337 2.171-.127zM54.173 76.97c.433-.566.61-.643 1.219-.512.18.038.178.24.048.316-.404.234-.41.227-1.267.195zm239.448-51.226c.649-.909 1.642-.604 1.794-.59-.434.61-1.072.667-1.794.59zm-59.614 23.204c-.276.212-.823.765-1.012.328-.064-.146.298-.682 1.012-.328zm-176.93-17.5c-.07.042-.138.111-.214.12-.31.035-.535-.068-.68-.247-.144-.176.586-.426.894.127zm12.254-1.065c.354.212-.874.692-1.523.105-.273.312.86-.503 1.523-.105zM228.71 59.61c-.314.504-.477.601-.956.501-.864-.18.122-.979.956-.5zM76.006 81.374l1.204-.093c-.441.292-.825.126-1.204.093zm198.048-50.575c-.023.067-.017.169-.074.194-.599.265-.56.1-.874-.144.578-.269.334-.258.948-.05zM162.031 72.158c-.064.233-.361.106-.534.041l.534-.04zm70.152-21.776c-.325.253-.642.29-.971.052.325-.248.642-.3.971-.052zM1.066 41.07c.58-.628 1.669-.044 1.04.102-.32.073-.322.067-1.04-.102zm257.307-7.17c-.55.154-.448.19-.379-.216.586.038.514-.017.379.215zM40.432 51.425c.314-.293.657-.3 1.027-.098-.313.305-.656.312-1.027.098zm10.465-.898c.949-.02.825-.04.822.052-.949.018-.824.038-.822-.052zm215.14-13.577c-.325.214-.667.23-1.03.096.327-.204.667-.228 1.03-.096zM34.745 70.596c.288.448-.845.482-.798.22.03-.166.51-.573.798-.22zm116.586-7.428c-.256.174-.44.365-.603.182-.168-.19.105-.25.466-.303.036-.005.091.078.137.12zm-128.676.825c-.343.086-.2.076-.55.04.146-.125.03-.111.55-.04zm269.233-41.97c-.015.003-1 .31-.784-.2.177-.418.638.074.784.2zM128.829 3.419l.078.113c-.082.02-.197.073-.24.053-.173-.083-.109-.148.162-.166zm85.834-3.13c.279.052.296.026-.006.085l.006-.085zm3.958-.234c-.333.058-.271.077-.245-.055l.245.055zm19.497 1.521c-.317.075-.227.08-.319-.053.319-.076.229-.08.319.053zm3.777 2.24c.265.051.283.028-.007.078l.007-.078zm6.841 4.218c.353-.07.289-.092.254.065l-.254-.065zm-5.265 3.427c.664-.164.483.189.064.096-.033-.008-.043-.062-.064-.096zm15.131 2.067c-.256.014-.536.115-.735-.074.076-.032.181-.102.22-.087.537.194.389.283.515.161zm8.569-.382c-.332.052-.274.073-.231-.065l.231.065zM30.292 32.307c-.34.088-.243.092-.35-.063.34-.09.242-.096.35.063zm254.089-17.585l.071.098c-.074.017-.176.064-.217.046-.157-.072-.099-.13.146-.144zm3.525 4.598c-.31.064-.221.064-.312-.039.308-.067.22-.068.312.039zm-10.646 6.771l.084.1c-.084.02-.198.073-.248.053-.181-.074-.117-.137.164-.153zM20.723 46.493l-.215-.072c.08-.022.17-.07.239-.06.3.04.289.093-.024.132zM303 25.457c-.347.085-.284.108-.25-.068l.25.069zm-19.83 6.493c-.459.352-.308.28-.571.232.721-.224.645-.18.571-.232zm-31.848 3.983a.431.431 0 01.169-.005c.043.106.127.225.086.322-.08.193-.255.199-.332.01-.039-.094.038-.218.077-.327zM18.137 64.31c.298-.165.344-.2.657-.021-.259.147-.113.136-.657.021zm207.885-9.98c.028-.038.052-.105.084-.108.417-.042.294.22-.084.108zM30.767 71.072c-.03.042-.054.117-.088.12-.455.049-.329-.243.088-.12zM172.072 65.3l.075.09c-.077.017-.177.064-.225.046-.163-.06-.105-.116.15-.136zM50.128 77.504c-.087-.011-.212 0-.255-.038-.103-.09.004-.166.267-.167.077 0 .15.062.225.095l-.237.11zm-3.293 1.777c-.008.053.012.128-.03.153-.244.151-.378-.027-.438-.068.308-.162.194-.127.468-.085zm111.673-6.83c.004.096.048.077-.196.054l.196-.054zM121.384 3.909c.277.036.259.054.061-.052l-.061.052zm163.387 18.215c-.248.173-.147.17-.39.012.237-.165.147-.17.39-.012zm-12.357 4.617c-.086-.02-.249-.052-.246-.06.044-.126.114-.088.183.112l.063-.052zM14.134 47.172c.087-.215.108-.204-.063-.036l.063.035z" fill="#EE4E4E"/><path d="M14.071 47.136c-.102.112-.114.097.063.035l-.063-.035zm9.266 1.834c-.043.139-.064.134.053.04l-.053-.04zm229.331-16.406c-.31-.055-.289-.072-.065.052l.065-.052z" fill="#EE4E4E"/><path d="M252.603 32.616c.243-.009.347.046.311.164-.06-.011-.149-.009-.174-.037-.127-.143.007-.242-.137-.127zm-30.031 22.19c-.086-.15-.026-.269.196-.323.044-.011.195.086.184.115-.137.34-.607.07-.38.208zM43.377 82.617c.069.148.098.12-.091.112l.09-.112zm216.228-53.79c-1.59.473-3.794.597-4.316.313 1.314-.712 2.649-.34 4.316-.313zm-2.556-.619c-.06.037-.143.114-.174.105-.224-.064-.217-.149.018-.21.032-.009.103.068.156.105zm-76.878-7.291l.694-.06c-.203.317-.445.223-.694.06z" fill="#EE4E4E"/><path fill-rule="evenodd" clip-rule="evenodd" d="M128.655 52.2c2.266.933 4.733 1.4 7.4 1.4 2.6 0 5.016-.467 7.25-1.4 2.266-.933 4.233-2.217 5.9-3.85a18.162 18.162 0 003.9-5.8c.933-2.233 1.4-4.633 1.4-7.2 0-2.6-.467-5-1.4-7.2-.934-2.233-2.25-4.167-3.95-5.8-1.667-1.667-3.634-2.95-5.9-3.85-2.234-.933-4.667-1.4-7.3-1.4-2.667 0-5.134.467-7.4 1.4a17.338 17.338 0 00-5.85 3.85 17.558 17.558 0 00-3.9 5.75c-.934 2.2-1.4 4.6-1.4 7.2 0 2.567.466 4.967 1.4 7.2a17.75 17.75 0 003.95 5.8 18.567 18.567 0 005.9 3.9zm12.8-7.15c-1.567.933-3.4 1.4-5.5 1.4-1.567 0-3-.267-4.3-.8a9.722 9.722 0 01-3.35-2.25c-.9-1-1.6-2.183-2.1-3.55s-.75-2.883-.75-4.55c0-2.233.433-4.167 1.3-5.8.866-1.667 2.083-2.95 3.65-3.85 1.6-.933 3.45-1.4 5.55-1.4 1.566 0 2.983.267 4.25.8 1.3.5 2.416 1.25 3.35 2.25.933.967 1.65 2.133 2.15 3.5.5 1.333.75 2.833.75 4.5 0 2.2-.434 4.15-1.3 5.85-.867 1.667-2.1 2.967-3.7 3.9z" fill="#fff"/><path d="M176.655 52.15c2.267.933 4.684 1.4 7.25 1.4 3.5 0 6.584-.733 9.25-2.2 2.7-1.467 4.8-3.633 6.3-6.5 1.534-2.9 2.3-6.467 2.3-10.7V33h-18.55v6.65l10.142.161a9.448 9.448 0 01-.792 2.04 8.032 8.032 0 01-3.35 3.4c-1.433.766-3.183 1.15-5.25 1.15-2.033 0-3.833-.468-5.4-1.4-1.566-.934-2.8-2.234-3.7-3.9-.9-1.668-1.35-3.6-1.35-5.8 0-2.2.45-4.118 1.35-5.75.934-1.668 2.217-2.95 3.85-3.85 1.634-.934 3.484-1.4 5.55-1.4 1.934 0 3.667.366 5.2 1.1 1.534.732 2.867 1.832 4 3.3l5.35-5.35c-1.633-1.934-3.7-3.45-6.2-4.55-2.466-1.1-5.216-1.65-8.25-1.65-2.633 0-5.1.466-7.4 1.4-2.3.9-4.316 2.182-6.05 3.85a17.847 17.847 0 00-4 5.75c-.966 2.2-1.45 4.582-1.45 7.15 0 2.566.467 4.966 1.4 7.2a18.86 18.86 0 003.95 5.8c1.667 1.632 3.617 2.916 5.85 3.85zm26.609.05c.866.9 1.95 1.35 3.25 1.35 1.333 0 2.416-.45 3.25-1.35.866-.9 1.3-1.983 1.3-3.25 0-1.333-.434-2.433-1.3-3.3-.834-.9-1.917-1.35-3.25-1.35-1.3 0-2.384.45-3.25 1.35-.867.867-1.3 1.967-1.3 3.3 0 1.267.433 2.35 1.3 3.25zm-43.287 1.35c-1.3 0-2.384-.45-3.25-1.35-.867-.9-1.3-1.983-1.3-3.25 0-1.333.433-2.433 1.3-3.3.866-.9 1.95-1.35 3.25-1.35 1.333 0 2.416.45 3.25 1.35.866.867 1.3 1.967 1.3 3.3 0 1.267-.434 2.35-1.3 3.25-.834.9-1.917 1.35-3.25 1.35zm-47.051 0c-1.3 0-2.384-.45-3.25-1.35-.867-.9-1.3-1.983-1.3-3.25 0-1.333.433-2.433 1.3-3.3.866-.9 1.95-1.35 3.25-1.35 1.333 0 2.416.45 3.25 1.35.866.867 1.3 1.967 1.3 3.3 0 1.267-.434 2.35-1.3 3.25-.834.9-1.917 1.35-3.25 1.35z" fill="#fff"/><path fill-rule="evenodd" clip-rule="evenodd" d="M84.75 17.7l-14 35.3h8.15l2.348-6.4h13.837L97.4 53h8.3L91.85 17.7h-7.1zm8.02 22.5l-4.555-12.589-4.619 12.59h9.173z" fill="#fff"/><path d="M193.854 70.097c.302.795.46 1.561 1.176 1.346 2.474-.743 4.856-.648 5.225-.845 1.52-.81 3.544-.514 6.563-1.428 1.02-.31 2.082-.387 3.119-.605.138-.03.242-.293.352-.434-.141-.488-.408-.443-.608-.5-2.506-.719-2.423.179-2.939.075-.495-.1-.9.307-1.371.284-.175-.008-.353-.082-.552-.131-.487.46-.493.806-1.74.758-2-.076.203.328-3.116.199.138-.869-.141-.516 2.468-1.083.46-.1.925-.215 1.255-.755-.245-.365-.245-.365-1.228-.018-.182-.09-.726-.376-1.01-.425-.158-.028-.334.132-.447-.203.044-.14.068-.38.137-.405 1.607-.596 3.416-.153 4.682-1.019 1.487.362.855.25 2.421.43l.281-.684c1.614-.346 1.318-.232 1.436-.513-.696-.5-9.022.762-9.548.793-.349.021-.982.956-1.473.365-.43-.517-.94-.23-1.371-.597 2.495-1.387 3.519-1.054 9.726-1.929-.92-.663-3.69.408-7.382.18-.092-.006-.606-.538-.049-.854.595-.339.469-.196.5-.473-1.81-.022-1.924-.054-2.109.079-.688.492-1.423.589-2.196.585-1.028-.005-3.06.546-3.674.31.15-1.591 2.204-.956 6.706-1.617.371-.485-.418-.902-.645-.765-1.909 1.15-2.674-.118-3.633.319-1.008.459-2.101.198-3.124.528-.443.142-.93.066-1.398.05-.052-.001-.273-.421-.134-.597.249-.316.239-.263.921-.496.174-1.036.008-.787.731-1.189l.527.467c1.512.001 3.057.213 4.548-.32a224.52 224.52 0 01-.202-.723c.188-.567.612-.275.908-.46.315-.196.648-.335.974-.499.554.692.818.28 1.729-.387-.716-.331-1.243.013-1.753.458-.551-.516.019-.4-2.04-.517-.105-1.023 4.598-.283 10.496-2.156.048-.015.079-.118.158-.244-.627-.158-1.199-.075-1.773.024-4.048.695-4.748-.107-1.457-.44 2.031-.207 1.442.08 1.83-.38-.605-.704-3.714.617-5.073-.061 2.064-1.78 4.453-1.455 5.733-2.35 1.112-.777 25.408-1.611 27.054-2.31 2.762-1.173 5.911-.784 14.067-1.949-1.188-.155-9.745.23-10.081.265-.434.046-4.796.818-6.845.418.084-.203.115-.395.189-.438 2.029-1.18 3.897-.964 6.946-.764 1.936.126 9.971-1.077 9.983-1.08 2.386-.303 3.089.325 4.63-.801 1.397-1.021 2.566-.577 4.671-.53.889.02 1.71-.535 2.616-.291.516.138 4.222-.073 4.243-.074-.022.344-.194.289-.31.303-7.67.925-7.524.82-7.852 1.08-.127.1-.385.807.044.973.657.254 96.438-9.252 98.14-9.544-2.395-.365-1.84-.121-2.197-.989 1.47-.642 5.199-.982 5.426-.764.506.485 1.03.286 1.554.37-.117.618.212.396-1.505.947.297.275.543.143.777.144 2.48.008 1.931.95 3.692.78 9.209-.881 5.421-.868 9.09-1.22 28.932-2.78 28.587-3.4 29.408-2.043.088.96-.453.517-1.424.686-5.269.923-25.916 2.43-31.332 3.555-.047.01-5.041.318-10.355.758-.438.036-.399.552-.193.563 3.529.196 1.009-.214 4.739-.14 2.168.043 2.588-.272 3.351.014.112.042.256.084.344.017.667-.513 1.37-.11 2.071-.003 5.691.87 15.509-1.724 17.238-.493.671.478 2.471.504 3.151.027l-.293-1.198c.584-1.11 1.436-.88 2.326-.833-.045.455-.196 1.225.078 1.387.317.188.357.675.502 1.01 1.693-.055 3.294-.481 4.852-.945.563.193 1.069.54 1.612.42.518-.113 1.063-.076 1.567-.251 1.172-.407 2.321-.14 3.464.465.165.643-.304.632-.386 1.187l.152.889c-.116.134-.24.415-.376.41-1.235-.034-2.442.281-3.691.115-.891-.118-1.74.22-2.531.757-.263.178-.292.684-.053 1.419 2.116.101 5.896-.763 7.545-.393-.216 1.031-.339.118-12.86 2.358 1.64.41 1.047.24 2.317.695 1.506 2.094 3.247.795 6.622.672 3.045-.11 3.027-1.029 4.686-.074.211.985-.012.569 1.345 2.183-.328.656-.775.948-1.296 1.008-10.842 1.256-5.24-.256-10.137 1.206 1.772.327 31.233-2.975 36.241-3.015 1.361-.011 2.471 1.116 1.872 1.275-.557.149-5.656.489-14.924 1.418-12.444 1.249-10.662.93-10.952 2.01-.223.834-.632.269.521 1.37-.131.502.128.304-.938.787l-1.515-.624c-1.568 1.438-2.155.15-2.543 1.372.084.089.171.255.244.25.009 0 23.449-2.082 23.793-2.556.16-.971-.559-1.282-.751-1.99.71-.467 1.408-.057 2.097.242.145.063.261.345.379.51-.052.532-.3.764-.511 1.042-.127-.198-.138-.177.035-.063.853.935 3.511-.466 5.496.455.332.154.691.122 1.034.224.091.026.168.233.252.357l.027-.062c-2.031 1.47-3.025.236-1.378 1.595-.524 1.02.714.213-6.038 1.406l-.238 1.223c.741.942 6.581-1.14 8.109.417-1.356.662-4.493.233-6.196 1.168-.412.227-.92.119-1.217.147-.416.29-.317.699-.379 1.009-.067.336-.368.28-1.557.337l.094-.86c-.102-.102-.262-.38-.373-.353-1.335.33-.476-.277-7.538.431-.589.059-1.597.614-1.867.537-.891-.256-1.603.22-2.281.885-.882-.869-1.815-.815-2.706-.522-1.971.646-2.486.347-2.927.892.632.227 3.308.346 3.337.341.797-.131 1.61-.195 2.32-.774.562.776-.42.199 7.512.643 3.741.21 4.742-.585 5.928-.557.648.015 1.313.16 1.942.042 1.51-.286 3.051-.195 4.566-.403 1.954-.269 1.25.86 1.333 1.327 1.1 1.512-.489.674-9.944 2.079l-.608.904c-1.094-.03-1.298.907-1.157.922 1.25.143.658-.041 1.541.422-2.428.515-2.263.343-2.108 1.249.662.235 9.311-.819 10.038-.538-.094.139-.147.3-.216.307-.008.001-4.536.29-6.791 1.01-.314.101-.854-.133-1.913.113-.112.026-.179.346-.277.554.847.48 1.568-.038 2.324-.037.688.001 1.378.022 2.075.035-.039.667-.509.331-.628.73.215.264.588-.02.782.56-1.327.972-.725.899-2.7.144l-.514 1.21 1.001 1.633c4.146.476 7.42-.219 8.539.132-.95.565-3.24.224-4.611.734-.917.34-1.537-.528-2.571.536-.526 1.483-.206 2.25-3.834 2.095-.148-.006-.305-.255-.459-.391.779-.252 1.319-1.116 1.274-1.447-.014-.096-.182-.249-.26-.233-3.493.733-7.854-.215-7.833 1.692.795.438 1.454-.105 2.216-.49 1.231.616 2.09-.049 3.551-.443l1.11.968c-1.25.884.286.339-4.805.956-.692.084-1.394-.181-2.09.058-1.53.524-3.267.08-4.706.455-.532.139-4.353.763-4.709.526-1.324-.88-2.555-.035-3.817-.114-.052.412.093.538.259.623.635.326 1.677-.77 2.58.212.314.34 1.769.18 2.274.136 8.808-.759 8.603-.706 9.27-1.063.279-.15.572-.241.86-.067.587.354 1.014-.16 1.489-.388l2.017.368c1.185-.786 2.521-.918 3.891-.818 2.038.15 2.251-.016 2.334.504.037.239-.115.634-.364.748-2.545 1.167-2.917 2.128-4.448 1.626-.161-.343-.15-.046-.055-1.091-.431-.501-.89-.24-1.379-.227-1.225 1.318-.817 1.015-3.276.85-2.358-.158.043.194-4.376.334-.175.005-.347.052-.519.09-.275.059-.391.699-.197 1.068.9 1.71 1.375.975 1.552 1.77-2.23 1.253-3.08 1.915-4.982 2.03-.668.04-.7-.492-.747-1.44-.494-.412 1.003-.487-15.931.947-1.34.113-14.081 2.424-15.722 1.75l-.596.578c.359.517.784.219 1.149.49l-.727.552c.041.124.064.241.082.242 2.379.128 2.053.072 2.627.018.118.455-.113.344-.208.364-3.615.73-1.059.461-4.252 1.201.107.148.181.321.278.371.774.407 1.506-.137 2.273.04 2.244-.525 4.545-.523 6.811-.844 14.245-2.02 12.693-1.894 13.275-1.68.065.325-.021.406-1.111.588-3.318.553-.34.37-5.743.936-.568.06-5.537.582-6.29.84-1.539.529-1.383-.191-2.612.144-.283.077-.548.268-.856.172-.483-.15-.933-.042-1.383.164-1.1.504-10.096 1.168-10.421 1.463.043.052.187.256.287.24 2.472-.368 6.846-.543 7.21-.398-.39.677-.481.73-2.165 1.235l-.542.893c-2.399.904-4.752.936-7.256 1.4-3.28.608 15.819-.398 28.763-3.046.169.14.314.382.154.584-.297.375-.798.276-1.017.866.141-.355-.322.697-.894.544-1.497-.402-1.613.746-4.088.992-3.328.33-13.239 2.145-30.039 3.724-.589-1.138-.543-.97-1.906.208-.357.108-.474-.446-.793-.773-3.229.22-4.168.386-5.383.09-1.817-.44-1.117.984-5.581.161-.19-.035-.392-.795-.19-.768.895.116 1.731-.206 2.573-.474.088-.027.148-.2.264-.368-11.655.917-67.371 5.05-98.188 8.689-.312 1.094.076.637-1.794 1.807-.545.341-1.187-.106-1.846.382-.645 1.167 1.343.738-17.109 2.403-3.74.337-3.365.239-4.909.51-1.256.221-.179 1.199-3.123 1.102-1.955-.064-1.226.215-1.907-.561-4.036-.061-3.717 1.635-4.512.913l.025-.989c2.354-1.62 2.216-.496 4.917-.908l-.01-.603-2.087-.779c.143-.637-.199-.153 1.232-.982.073-.042.095-.256.172-.481-.915.036-1.795.036-2.667.162-9.768 1.405-6.698.444-11.226 1.05-.755.102-1.513-.218-2.28-.089-.74.124-1.528-.13-2.295-.218-.047-.662.474-.313.589-.792-2.298-.068-1.908.574-2.336.507-.775-.12-1.483.344-2.253.278-1.981-.167-1.947.381-5.805.27-.109-.003-.233-.336-.36-.533.381-.299-.253-.296 3.858-.553.327-.021.908.35 1.038.235.819-.726 1.834-.34 2.709-.789-.511-1.171.013-1.058-23.321 1.384-3.773.395-4.024-.157-4.012 2.453l.028-.057c-1.217-.062-2.429.193-3.688-.312.071-.152.106-.33.169-.348.277-.078 1.535.13 1.341-.591-.074-.272-.535-.337-.635-.323-.424.062-.795-.215-1.262-.51 8.353-1.914 10.76-1.491 15.481-2.358.515-.094 1.022-.272 1.558-.127.49-.351 1.033-.188 1.561-.176 1.205.027 1.862-.43 2.776-.348.819.073 1.633-.121 2.467-.199-.468-1.118.112-.463-5.29-.345-2.568.057-3.695.619-6.47.688-3.326.082-3.1.548-4.188.499-2.614-.118-3.529.85-4.715.262-.515-.255-.88.184-2.643-.143-.788-.146-.583.087-4.574.114-.087.001-.427-.626-.096-.795.796-.407 9.501-.831 10.632-1.466.948-.532 1.933-.513 2.939-.462.156.008.305-.168.465-.265-.387-.729-.474-.093-3.108-.403-1.443-.17-2.894.462-4.357.367-2.422-.157-1.768.307-3.284.546-3.937.62-1.486.529-3.273.472-.043-.251-.118-.444-.086-.555.04-.134.171-.292.259-.277 2.425.396 5.317-1.759 7.903-1.531 1.486.131 1.36-.901.894-1.196-.109-.068-.232-.065-.345-.119-.106-.051-.207-.136-.317-.209 1.816-.6 1.037-.403 3.106-.687-5.523-.388-3.03-.235-4.507-.064-.07.008-.16-.17-.24-.263.104-.172.141-.494.732-.494 1.066-.001 2.068-.453 3.108-.628.129-.021.219-.34.327-.521.366.358.745.303.929-.164.328-.828.876-1.26 1.301-1.897.837.079.849.07 1.085-.94-1.043.483-2.136-.128-3.103.54.088.28.788 1.2-.041 2.079-.078.082-.093.291-.137.442-.52-.003-1.054-.365-1.565-.005-.138.097-.347-.004-.523-.026-.213-.025-.43-.428-.399-.784.043-.494.112-.978.171-1.466-.848-.343-1.652.039-2.473-.078-.753-.107-1.505-.338-2.241-.51-.136-.75.115-.542-1.525-.89.292-.698.658-.839 3.264-1.175 4.152-.537 4.918-.507 4.748-.7-.35-.395-.79.02-1.136-.426.022-.169.108-.643-.014-.69-2.955-1.11-2.12-.808-6.14-.716-.115-.42.057-.591.209-.611.754-.1 1.426-.65 2.204-.623.224.008.441-.133.78-.246-.82-.559-4.315.286-5.44-.16.624-.588 1.41-.21 2.012-.738-1.036-1.425-1.978-.262-7.709-.211.217-.523.601-.347.85-.573.288-.262.608-.448.904-.66-.152-.651-.238-.797-.437-.751-1.19.27-1.244.387-1.332.112-.288-.902 2.313-.585 3.508-1.503.68-.523.624-.129 5.247-.69-.076-.16-.104-.284-.149-.305-2.126-.994-2.264.31-3.422.223-5.254-.396-3.422.237-4.856-.316.672-.66 1.397-.49 2.048-.682.623-.184 1.21-.546 1.88-.495.066.005 3.445.095 4.142-.066-.187-.299-.298-.616-.407-.628-.529-.058-1.068-.119-1.584-.026-2.188.395-5.446.146-5.778-.242.069-.195-.225-.099 1.865-1.023 3.1-1.37 6.364-.943 6.918-1.556-.553-.38-1.044-.073-1.541-.073-2.287-.003-1.619-.02-3.435.376-1.013-.554-.639-.374-1.569-.651.55-.871 1.208-.624 2.023-.624 1.821-.002 1.045-1.674 2.358-2.18 4.004-1.543 14.541-1.455 16.221-2.107.308-.119.323-.379.003-1.042l-1.44-.166c.137-.15.191-.26.261-.279 3.363-.876 2.713-.776 3.797-.225l-.334.677c.367.349.794.621 1.328.902a84.155 84.155 0 006.35-.468c.117-.52.057-.846-.219-.995-1.283-.69-.729.415-4.518.217-.162-.008-.332-.184-.491-.307-.045-.034-.064-.154-.101-.25 1.385-.773 3.787.085 4.994-1.002l.022-1.564c1.272-1.434 3.74-.965 4.338-1.385.803-.563 1.711-.417 2.52-.707l.892.67c-.081.15-.12.305-.187.33-.28.104-.612.064-.846.268-.933.81-1.976.798-3.04.703-.519-.38-1.02-.377-1.581-.072.608.32 1.109.129 1.615.01zm198.732 6.31l.411-.03c.262.398.525.626.811.127-.294-.187-.566-.094-.839-.062-.262-.5-.125-.21-.56.247.044.037.104.12.129.102.11-.076.121-.217.048-.385zm-204.5.802c.061.236.103.278.111.122.001-.009-.092-.041-.142-.063-.065-.27-.032-.2-.152-.227l.183.168zm61.954-30.7c-.388.154-.341.088-.27.268.359-.52.235-.267.354-.384.008-.008.114-.324-.084.116zM177.385 98.88c-2.458.105-2.63.026-2.818.517 1.279.237 1.82.172 2.702-.345.041-.024.052-.147.078-.224.179-.11.242-.24.038.052zm51.148-37.762c-.677-.851-.911.763-.746 1.279.424-.18.518-1.066 1.04-.997.219 1.09.894.185 2.088.866.211.12.177.091 3.875-.473-.534-.11-1.072-.19-1.576-.065-.555.137-1.036-.398-1.561-.4-.525-.004-1.05-.01-1.432-.014-.428-.108-.623-.628-.93-.505-.612.819-.416.74-.758.309zm-19.491 38.6c-.519-.056-1.031-.317-1.56-.173-3.087.84-3.996.672-6.912 1.006.09.359-.166.211 1.347.67 2.181-1.527 6.818.277 7.085-1.556.145-.147.131-.164.04.052zm21.357-2.632c2.156-.502 2.585.888 4.971-.136-.627-.31-1.212.02-1.774-.382.182-.666.773-.216 1.006-.849-.607-.953-1.352-.32-1.957-.687-.132.169-.251.248-.294.388-.43 1.403-1.307 1.07-1.73 1.328-.084.051-.122.25-.181.384-.354.37-.835.54-.906 1.36-.013.145-.705.174-.803.183.334.885.855.685 1.281.848.286.109.572-.006.8-.566-.36-.475-.385-1.174-.413-1.871zm191.786-22.879c.124.099.134.078-.031.063-.003-.992-.092-.647.445-1.492-.769-1.163-.101-.33-1.756-.402-.266-.012-.555-.272-.812-.486-.251-.208-.529.278-.759-.185.269-.532.412-.59.297-.815-.174-.335-.284-.282-1.471.004-.035.008-.054.117-.081.18l.333.93c-.26.384-.554.672-.714 1.09-.198.52-.37 1.041-.722 1.356.812.41 1.417.914 1.961.146.202-.486.133-1.243.654-1.502.26.304.646-.187.946.343l.172.812c.778.15.388.192 1.538-.041zm-16.395-1.623c-2.723 1.151-3.285 1.264 2.653.65 5.801-.598 5.526-.374 4.141-1.105l.236-1.232c-.244-.538-.004-1.026-.017-1.7-1.73.237-3.462.29-5.178.617.443.397.945-.072 1.368.424.212.688-.362.764-.375 1.276.438.678.44.689.894.518.154-.058.288-.298.453.017-.128.426.128.466-1.155.63-2.504.32-2.779.468-3.077-.147.166-.305.51-.366.528-.91-.803-.187-2.428-.022-2.701.34 1.225.684.535.422 1.664.12.254-.068.444.14.566.502zM229.236 51.69c-1.326-1.28-1.779-.43-3.785-.455-2.674-.033-3.947.688-4.684.675-2.953-.052-3.205-.248-4.755.697-.281-.07-.527-.212-.749-.174-1.898.33-3.838.293-5.92.803 1.32.6.86-.141 3.281.632 1.154.369 1.188-.35 1.499-.168.769.447 2.033-.49 2.773-.165.598.262 1.142-.2 1.736.075.201.093.487-.014.663-.186 1.292-1.258 2.263-.045 4.667-.214 5.025-.352 5.186-.81 5.233-1.581.474-.024 1.001.33 1.39-.285-.536-.406-.997-.358-1.349.346zm184.515 23.02c-.079-.131-.154-.359-.239-.378-1.799-.421-15.6 1.191-16.024 1.392 4.739.95 4.111.58 7.287.275 6.781-.65 6.637-.37 8.976-1.289zm-237.024 30.04c.418.4-.122.525 3.248.34 5.177-.286 3.947.288 4.4.016 1.2-.724 1.751.143 3.983-.412.111-.027.172-.361.281-.613-2.831-1.6-2.32-1.327-3.326-.305-.448.01-.927.081-1.373-.29-.537-.447-1.048-.392-1.536-.082-1.167.741-1.371.238-3.983.424-.281.021-.356.477-.465.855-.427-.022-.845-.512-1.229.067zm25.027-7.396c.346-.195.709-.228.923-.735-1.542-.012-3.078-.418-4.597-.188-1.157.175-2.32.386-3.489.34-1.31-.05-2.524.522-3.804.625-.149.012-.281.24-.409.391-.731.86 8.969-.879 11.376-.433zm16.756 5.527c-1.992-.5-4.257.329-4.881.32-1.566-.023-6.51.475-8.195 1.156-.089.035-.145.214-.315.483 1.148.055 2.201.419 3.243.181 1.207-.276 1.455-1.235 3.321-1.311.688-.028 2.016-.406 2.975-.298 1.313.147 2.57-.181 3.852-.531zm179.814-47.923c2.318-.543 2.605-.289 2.93-1.117.066-.17-.072-.482-.239-.644-.765-.739-1.184-.748-4.839-.23-.336.048-.649.304-.963.497-.063.038-.082.222-.133.377.53.354 1.064.342 1.583.34.618-.003 1.111.698 1.661.777zm-206.489 47.136c-.068.64-.069.643.065.729 1.569 1.008 3.403.178 7.471-.794-.213-.273-.345-.571-.463-.573-2.245-.044-2.771.595-4.171.114-.442-.152-2.408.313-2.902.524zm29.623-39.472c-.496-.115-1.012-.364-.972.174.075 1.013 1.419.273 2.087.345 1.127.122 2.196-.243 3.294-.36.075-.007.133-.19.218-.321-.502-1.238-.338-.873-.633-1.322-1.134-.152-2.892-.009-3.264.266l-.73 1.218zm175.847 21.143c1.578.426 5.524-.167 8.82-.354.279-.016.54-.242.792-.363-.015-.357-.036-.648-.241-.733-1.617-.676-2.693.9-4.118.713-.398-.053-5.242.736-5.253.737zm-187.369 22.546c-4.965-.294-.685-.642-7.517.419-2.474.385-2.022.25-2.273.588 3.513.192 5.054-.109 9.475-.788.106-.016.199-.135.315-.219zm155.635-22.589c5.992-.461 5.685-.356 6.031-.699.177-.176-.048-.864-.651-.805-4.177.41-4.66.335-5.38 1.504zM250.219 50.033c2.574.159 9.268-.806 9.277-.806 5.737-.526-5.469-.04-9.277.806zm118.653 41.92c-.979-.107-2.556.057-4.228.446.346 1.924 1.185 1.933 2.408 1.553.236-.073.374-.32.24-.796-.618-.294-1.252.264-1.913-.177.057-.168.083-.37.136-.382 2.768-.584 2.945.215 3.357-.644zm20.138-10.958c2.058-.097 3.671-.223 4.433-.05.69.155 1.204-.54 1.856-.47.71.077.764-.06.784-.335-2.655.011-1.126-.183-6.791.578-.052.006-.095.089-.282.277zm29.447-13.763c.383.309 1.473.164 1.9.031 1.382-.432.105-1.724-1.221-1.573-.231.027-.257.488-.527.568-.342.101-.323.198-.152.975zM181.829 92.898c1.263-.129 2.561-.014 4.008-.512-.545-.07-.889-.14-1.231-.15-.408-.011-.557-.69-.926-.84-.568-.106-1.154-.22-1.738.05-.277 1.491-.248 1.128-.113 1.453zm38.408-.32c-1.082 1.341-2.292.51-3.994 1.227.134.094.192.169.243.165 5.787-.423 6.927-.38 6.179-.941-.709-.074-1.593.376-2.428-.452zm-9.941 1.73c-1.685-.181-5.318.252-7.193.566-.046.008-.071.182-.112.298 1.295.038 5.74-.31 6.984-.56.093-.019.169-.156.321-.304zm138.877-52.484c-.106-.465-.337-.644-.566-.65-1.155-.025-2.299.083-3.418.42.175.893.274.665 3.984.23zm-163.54 53.714c-.613-.123-1.234-.361-1.803.16l.073.758c-.088.185-.445.075-.334.638 1.413.119 1.977.355 2.207-.465-.14-.683-.098-.393-.143-1.091zm35.598 5.484c-2.478-.621-3.347-.577-5.186-.073 2.206.429 3.183.813 5.186.073zM172.9 102.78c.835.234 1.423.225 1.98.067 1.194-.34 1.556-.164 4.671-.604-.195-.103-.254-.162-.306-.157-3.411.321-3.315.399-3.642.288-.85-.289-1.615.023-2.703.406zm23.27 2.545c-1.596.209-3.113.217-4.591.56-.031.417.19.529.335.519 2.673-.176 3.094-.342 3.966-.622.084-.027.137-.207.29-.457zm-.189-10.62c-.46.97-.585.993-.329 1.33 1.205.128 2.395-.241 3.606-.363.054-.006.091-.183.152-.316-.551-.26-1.067-.027-1.584-.14-.582-.126-1.161-.319-1.845-.512zm-9.869 3.644c.104.083.213.238.312.237.99-.008 1.974-.09 2.897-.57.054-.028.047-.276.078-.488-.53-.14-.671-.512-3.185.622-.045.021-.068.13-.102.2zm232.271-39.453c-.063.008-.11.173-.171.276 4.742.252 7.43-1.213.171-.276zM239.517 61.04c.945-.22 2.008-.038 3.093-.5-1.531-.456-2.045-.503-3.177-.185-.165.046-.18.363.084.685zm148.902 23.215c.17.247-.214.171 2.23.37.189.016.349-.227.396-.335.06-.138-.194-.493-.36-.507-.386-.034-2.089-.165-2.266.472zm1.256-29.107c-1.9-.517-1.524-.501-2.018-.173-.072.048-.168.514.072.627.727.34 1.375-.07 2.049-.239l-.103-.215zm-186.532 35.61c-.211-.204.129-.114-1.561-.39-1.278.744-1.648.182-1.563.821 1.043-.235 2.127.114 3.124-.43zm16.919 7.537c.196.893-.041.672 1.452.332.295-.067.589-.125.811-.488-.826-.401-1.533-.043-2.263.156zm-31.998-2.901c1.713.56 3.262.088 3.162-.154-.146-.353.162-.367-2.587-.233a.624.624 0 00-.575.387zm204.927-51.997c-.407 0-.816-.015-1.222.007-.403.021-.824-.387-1.212-.037.274.478 1.612.718 2.434.03zm.399 30.072c-.102-.223.191-.146-1.629-.591-.182-.045-.36.242-.28.46.049.138.15.314.235.335.227.058.47.102.687.04.328-.092.708.132.987-.244zm-24.543 15.35c-.977-.189-1.877-.315-2.81.143.554.204-.096.231 2.81-.143zm-137.22-37.683c.156.506.494.325 1.256.203 1.016-.163 1.135-.046 1.288-.391-.052-.05-.108-.148-.154-.144-.857.08-2.035-.173-2.39.332zM357.324 83.09c-.798.16-.544.106-.759.168-.183.052-.335.402-.227.527.257.298.217.296 1.407-.34.045-.023.065-.13.097-.199-.288-.194-.165-.19-.518-.156zm16.851-36.142c-.504.016-1.965-.037-2.647.357 1.078.007 1.863-.162 2.647-.357zm4.231-.404l-2.376.224c.807.065 1.605.053 2.376-.224zm-10.767 1.208c1.157-.108.564-.024 2.319-.302-.801-.07-1.602-.157-2.319.302zM182.332 98.618c-1.403-.219-1.403-.219-2.167.159.08.094.153.245.231.261.682.144 1.336.07 1.936-.42zm68.108-39.507l-2.416.227c1.069.26 1.694-.117 2.416-.227zm-37.131 39.807c-1.809.086-1.166.007-2.434.283.692.053 1.391.204 2.434-.283zm140.406-58.246c-1.105.042-1.475-.053-1.339.362.779.558 1.122.482 1.339-.362zm1.637 40.556c1.125.343 1.166.341 2.265-.056-.674-.165-.052-.188-2.265.056zM222.804 108.55c-1.555-.323-1.555-.308-2.012.139.665.174 1.209-.143 2.012-.139zm189.363-40.567c2.356-.221 2.735-.58.345-.426-.046.003-.085.1-.345.426zm-203.729-14.65c-1.279-.05-1.28-.058-1.603.313 1.795-.169 1.48-.1 1.603-.314zm161.738 38.584c.569.105.952.014 1.334-.073.079-.019.144-.134.244-.233-.52-.113-.999-.194-1.578.306zm-159.205 4.018c-.767.028-1.221-.138-1.775.275.629.064 1.074-.048 1.775-.275zm-36.059-3.477c.354.94.361.932.871.796-.276-.522-.714-1.61-.871-.796zm38.404 1.713c-.759-.15-1.26-.265-1.805.084.592.334 1.066.06 1.805-.084zm20.202 5.589c.404.388.772.263 1.129-.033-.399-.323-.772-.27-1.129.033zm149.38-18.291c-.396-.321-.754-.211-1.111.038.401.396.751.166 1.111-.038zM211.909 95.857c.325.03.66.183.971-.04-.354-.313-.648.044-.971.04zm-19.223.29c.716.267.717.277 1.1-.255-.752-.289-.753-.293-1.1.256zm-.202 8.135c-.318-.235-.523-.202-.734.069l.734-.069zm5.159-5.42c-.294-.326-.551-.178-.805.033.289.269.557.257.805-.033zm207.186-21.129c-.294-.136-.546-.094-.829.099.306.066.568.143.829-.099zM220.652 95.115c-.279-.292-.523-.221-.748.066.279.285.526.252.748-.066zm-40.392 2.11c-.336-.549-.617-.225-.904.015.325.368.628.392.904-.015zm216.243-21.377c-.307-.115-.557-.145-.818.147.67.108.447.12.818-.148zm6.921-22.37c-.336-.336-.615-.227-1.024.155.425-.021.725.313 1.024-.156zm-1.499 20.165c.288.217.549.166.797-.062-.288-.228-.546-.127-.797.062zm-207.698 3.89c-.603-.472-.6-.479-.641-.466-.133.04-.14.507.099.512.16.003.318-.025.542-.046zm203.196-36.896c-.255-.355-.475-.258-.683-.232-.053.006-.09.156-.135.24.181.135-.032.142.818-.008zm-36.664 53.687c-.171-.141-.013-.168-.574.058.106.15 0 .195.551.082.014-.003.015-.092.023-.14zm15.75-12.308c-.37-.155-.251-.151-.447.096.179.073.056.117.447-.096zm31.402-4.535c-.069-.027-.186-.215-.274.025.104-.01.207-.02.274-.025zm-10.591-3.34c-.065-.185.006-.182-.324.001.211.091.127.091.324 0zM207.057 90.372c.363.134.245.134.446-.099-.176-.066-.055-.109-.446.1zm-8.453.779c.106.155.002.159.401.014-.165-.227-.258-.127-.401-.014zm194.655-19.805c-.005-.12.063-.088-.445-.106.004.11-.064.079.445.106zm-210.386 6.617c-.216-.346-.249-.207-.435.103.181.1.067.151.435-.103zm30.583-14.156c-.008-.083.052-.067-.39-.026.008.083-.051.068.39.026zM379.841 46.46c-.362-.105-.244-.109-.445.096.176.053.054.095.445-.096zm24.366 7.23c-.023-.163-.015-.36-.077-.481-.089-.176-.215-.114-.216.121 0 .14.099.297.163.436.006.012.085-.049.13-.076zm-47.321-13.062c.207-.045.209-.122.003-.195-.048-.017-.104.05-.156.08l.153.115zm.947-.165l.162-.071c-.167-.045-.121-.056-.162.071zm4.782-.493c-.018-.04-.038-.117-.052-.117-.139.003-.164.076-.067.166.026.023.079-.03.119-.049zM205.696 56.3c-.236-.145-.298.138-.043.12.018-.002.029-.078.043-.12zm11.463-1.092c.001.118-.028.096.13.056l-.13-.056zm-19.086 3.47c-.182-.142-.109-.14-.281-.007.179.144.106.143.281.008zm201.558-18.45c-.128-.208-.031-.217-.354-.018.127.204.032.217.354.018zM208.43 62.638c-.068-.146-.012-.141-.202-.064.068.132.011.128.202.064zm39.11-3.016c.036-.065.113-.158.102-.191-.067-.201-.181-.257-.303-.16-.048.037-.08.117-.119.178l.32.173zm-27.988 3.592c-.157-.147-.089-.138-.261-.04.163.149.095.139.261.04zm167.093-8.194c.005.142-.027.12.124.063l-.124-.063zM191.594 77.355c-.036-.062-.069-.163-.109-.175-.169-.05-.163.506.06.385.032-.016.033-.137.049-.21zm3.826-.492c.222.137.271-.152.041-.117-.018.003-.028.076-.041.117zm2.138.266c.139.086.108.096.122-.02l-.122.02zm195.748-2.653c-.044-.04-.094-.118-.133-.112-.188.027-.191.11-.009.187.042.018.095-.048.142-.075zm9.318 3.528c.186-.101.196-.064-.013-.13l.013.13zm9.072-.845c-.007-.013-.117-.31-.25-.109-.084.128-.034.226.125.226.044 0 .084-.076.125-.117zM223.829 95.833c.137.085.109.098.12-.022l-.12.022zM423.27 77.131c-.114-.397-.429-.004-.125.07.04.01.083-.045.125-.07zm-232.491 27.22l-.17.063c.175.047.126.054.17-.063zm168.537-9.795c-.134-.091-.102-.098-.12.014l.12-.014zm49.372-16.037c-.159-.13-.127-.158-.125.078l.125-.078zM188.025 99.805c-.115-.102-.091-.123-.092.058l.092-.058zm58.086 7.983c.109.11.085.129.091-.05l-.091.05zm152.096-67.495c-.066.186-.086.145.059.157l-.059-.158zM192.132 77.025c-.068.215-.09.168.064.179l-.064-.18zm224.891-17.71c.063-.151.079-.116-.046-.135l.046.135zM174.034 92.363c.128.106.101.125.103-.053l-.103.053zm14.654 4.157c.056-.145.071-.112-.046-.125l.046.125zm20.24 17.536c-.008.007-37.416 4.107-37.425 4.104-3.886-1.098 37.292-4.181 37.425-4.104z" fill="#4CCD99"/><path d="M225.464 48.02c-.978.592-15.935 1.411-20.228 2.16-.263-1.78 1.409-.638 19.627-2.35.146-.014.303.09.601.19zm39.376-4.256c5.251-1.96 77.134-7.673 77.851-7.943.871-.326 1.449-.14 4.2.211-3.975.644-78.175 7.806-82.051 7.732zm-79.916 23.007c.283-.073.623-.025.837-.244.42-.432 2.255-.152 1.354-1.294.013-.085.008-.223.043-.247.639-.45 1.338-.415 2.041-.269.152.032.296.274.492.467l-.052 1.234c-.846.726-2.154.076-3.192 1.157-.221.231-.533.274-.793.398l-.694-.425c-.01-1.001.003-.859-.036-.777zM376.398 33.74c-3.139.857-9.508 1.041-7.61.62.009-.003 1.04-.051 1.531-.423 1.175-.891 4.727-.537 6.079-.197zm3.647-.225c-.021-.21-.076-.437-.04-.476.695-.742 4.342-.722 6.049-.731-2.052 1.224-4.044 1.082-6.009 1.207zM165.139 74.997c.16-.243.215-.412.292-.427.513-.107 1.027-.238 1.549-.254 4.96-.147 5.128-.689 5.494-.192-.257.282-7.231.869-7.335.873zm24.273-14.32c-.033.793-.566.715-.852 1.078-1.677-1.163-2.766-.537-2.823-1.203-.052-.61 2.146-.202 3.558-.034.037.004.074.098.117.159zm-23.235 57.727c.126-.146.238-.393.381-.422a17.712 17.712 0 013.631-.369c.186.001.277.454.061.535-.953.362-1.379-.264-2.379.287-.571.315-1.855-.293-1.694-.031zm21.691-49.578c-.203.905-.221 1.176-.446 1.252-1.511.514-1.676-.387-1.606-.622.162-.54.288-.611 1.331-.74.167-.021.343.048.721.11zm230.053-21.218c.373-.557-.209-.561 2.627-.63.072-.003.164.21.232.34.287.544-2.929.16-2.859.29zm-224.545 9.934a6.424 6.424 0 01-3.351.34c1.065-.534 1.4-.57 3.351-.34zM176.24 71.714c1.167-.85 1.785-1.63 2.454-.685.057.08.035.29.058.526-1.801.475-1.386.447-2.512.16zm218.142-35.262c.677-.445.677-.445 1.348.396-.048.206-.066.471-.158.64-.381.7-1.104-.08-1.19-1.036zm-227.539 66.431c.504-1.081 1.606-1.188 1.503-.213-.447.372-.972.119-1.503.213zm62.583-55.436c-.822.527-1.687.513-2.639.549.282-.419-.242-.279 2.639-.55zm-65.346 70.802c-.412 1.006-1.281.793-1.276.543.012-.53-.051-.418 1.276-.543z" fill="#4CCD99"/><path d="M417.886 47.543c-.41.52-1.226.342-1.768.244-.03-.005-.058-.13-.092-.212.233-.423.59-.27.899-.33.551-.107 1.061.48.961.298zM175.224 73.824c.758-.379 1.44-.357 2.232-.287-.834.47-.834.47-2.232.287zm-9.905 38.318c-1.046.179-1.174.261-1.231.014-.139-.604 1.508-1.033 1.231-.014zm-.857 3.634c.156.318.38.359.605.441.144.052.278.209.475.366-.766.709-1.94.38-1.614-.392.193-.455.733-.219.534-.415zM426.85 46.438c-.454.23-.945.431-1.483.262.17-.375.171-.362 1.483-.262zm-32.487-14.882c.151-.212-.226-.137 1.905-.337-1.111.6-1.472.647-1.905.337zm-.714 63.282c.546-.293 1.132.046 1.93-.203-.702.504-1.128.625-1.681.517-.119-.023-.192-.458-.249-.314zm-229.035 18.987c.403-.516.891-.093 1.332-.168-.838.395-.838.395-1.332.168zM412.076 48.34c-.407.218-.813.375-1.283.062.384-.4.795-.53 1.241-.483.012.002.027.274.042.422zM166.14 118.345c-.209.373.044.373-1.053.473-.261.024-.265-.517-.114-.509 1.324.07 1.242.158 1.167.036zm18.765-48.115c-.518.722-1.38.062-.87-.068.281-.071.57-.11.87.069zm15.26-3.571c-.378.071-.729.497-1.143.032.354-.435.747-.227 1.143-.032zm198.147-35.456c-.509.367-.884.478-1.292.113.346-.408.74-.393 1.292-.113zM160.728 90.4c-.413.348-.835.379-1.308.085.423-.311.833-.49 1.308-.086zm51.347 23.391c-.647.061-.559.08-.569-.028.645-.061.56-.08.569.028z" fill="#4CCD99"/><path d="M164.515 115.828c-.015-.03-.387-.626-.25-.878.282-.517.997.39.527.732-.196.144-.412.013-.277.146zm20.339-57.013c.226-.436.493-.41.794-.067-.249.245-.507.313-.794.067zm249.523 9.11c.32-.116.16-.121.623-.046-.301.128-.14.131-.623.046zm-15.785-15.862c.547-.15.35-.152.752-.014-.343.202-.141.188-.752.014zm-230.163 57.441l-.549.106c.16-.285.318-.253.549-.106zm235.268-23.651c.011-.34.18-.12.279-.15.015.163.067.117-.279.15zm2.072-4.343c.11-.49-.073-.398.619-.463-.259.689-.787.234-.619.463zm-256.585 20.455c.051.041.129.065.148.125.066.214-.164.371-.299.504-.171-.56-.217-.406.151-.629zm256.43-28.891c.126-.04.991-.44.78.08-.076.187-.114.13-.78-.08zm-11.297-25.248c-.492.559-.323.443-.662.273.238-.279.037-.25.706-.218l-.044-.055zm9.96-1.117c-.303.3-.167.287-.523.05.299-.292.163-.28.523-.05zm-37.225-14.381c-.045.021-.106.082-.132.056-.104-.102-.072-.183.08-.189.014 0 .035.087.052.133zm-9.386 1.342c-.177.093-.106.1-.274-.035.177-.09.105-.099.274.035zm43.92 13.322c.01-.048.015-.135.031-.137.214-.034.184.305-.031.137zm-13.513 1.769l-.124-.089c.041-.022.086-.076.125-.063.17.058.168.117-.001.152zm1.812-.399l.054.168c-.049.023-.119.09-.143.063-.111-.131-.076-.22.089-.23zM199.154 68.856c-.174.114-.104.123-.268-.037.171-.115.101-.124.268.037zm233.862-14.593c.139.002.288-.11.408.127-.04.032-.094.109-.117.09-.306-.252-.233-.35-.291-.217zm-271.31 36.095l-.123-.088c.041-.023.085-.077.123-.065.168.056.166.116 0 .153zm267.113-24.714l.052.117c-.044.02-.101.077-.129.052-.103-.094-.073-.163.077-.169zm-1.009 12.737c.011-.054.018-.151.036-.154.246-.037.207.334-.036.154zm-5.141 7.457c-.043.175.012.167-.184.099.043-.175-.011-.166.184-.099zm-260.467 33.089c-.044.017-.098.068-.127.043-.146-.125-.062-.592.125-.271.025.043.003.15.002.228zm54.782-5.689c.195-.055.158-.086.146.093l-.146-.093zm1.2-.117c-.012.039-.02.108-.036.11-.204.026-.162-.254.036-.11z" fill="#4CCD99"/><path d="M425.664 81.685c-.106-.1-.071-.158.105-.175-.049-.068-.023-.096-.105.175zm-255.553 30.358c.054.014.156.035.156.042-.001.191-.048.157-.128-.099l-.028.057zm18.643-48.317c.038.056.115.134.109.166-.045.234-.125.235-.198.001-.01-.031.058-.11.089-.167zm-3.803 2.988c-.081-.108-.077-.132-.027.057l.027-.057zm229.41-18.833c.049-.241.063-.223-.044-.055l.044.055zm-3.48 24.353c.212-.181.394-.35.585-.495.174-.132.407.015.384.234-.066.61-.636.662-.969.26zM183.106 92.101c.08-.17-.024-.155.387-.086-.116.258-.248.158-.387.086z" fill="#4CCD99"/><path fill-rule="evenodd" clip-rule="evenodd" d="M262.328 92.6c-2.667 0-5.133-.467-7.4-1.4a18.582 18.582 0 01-5.9-3.9 17.747 17.747 0 01-3.95-5.8c-.933-2.233-1.4-4.633-1.4-7.2 0-2.6.467-5 1.4-7.2a17.558 17.558 0 013.9-5.75 17.358 17.358 0 015.85-3.85c2.267-.933 4.733-1.4 7.4-1.4 2.633 0 5.067.467 7.3 1.4 2.267.9 4.233 2.183 5.9 3.85 1.7 1.633 3.017 3.567 3.95 5.8.933 2.2 1.4 4.6 1.4 7.2 0 2.567-.467 4.967-1.4 7.2a18.129 18.129 0 01-3.9 5.8c-1.667 1.633-3.633 2.917-5.9 3.85-2.233.933-4.65 1.4-7.25 1.4zm-.1-7.15c2.1 0 3.933-.467 5.5-1.4 1.6-.933 2.833-2.233 3.7-3.9.867-1.7 1.3-3.65 1.3-5.85 0-1.667-.25-3.167-.75-4.5-.5-1.367-1.217-2.533-2.15-3.5-.933-1-2.05-1.75-3.35-2.25-1.267-.533-2.683-.8-4.25-.8-2.1 0-3.95.467-5.55 1.4-1.567.9-2.783 2.183-3.65 3.85-.867 1.633-1.3 3.567-1.3 5.8 0 1.667.25 3.183.75 4.55s1.2 2.55 2.1 3.55a9.725 9.725 0 003.35 2.25c1.3.533 2.733.8 4.3.8zm37.683-28.75c2.667 0 5.117.433 7.35 1.3 2.267.833 4.234 2.05 5.9 3.65 1.7 1.567 3 3.433 3.9 5.6.934 2.133 1.4 4.5 1.4 7.1 0 2.567-.466 4.933-1.4 7.1-.9 2.167-2.183 4.033-3.85 5.6-1.666 1.567-3.633 2.783-5.9 3.65-2.233.867-4.666 1.3-7.3 1.3h-14.25V56.7h14.15zm-.1 28.4h-6.2V63.55h6.2c2.134 0 3.984.433 5.55 1.3a8.99 8.99 0 013.7 3.7c.9 1.6 1.35 3.517 1.35 5.75s-.433 4.167-1.3 5.8c-.866 1.633-2.1 2.883-3.7 3.75-1.6.833-3.466 1.25-5.6 1.25zm20.996 6.9l14-35.3h7.1l13.85 35.3h-8.3l-2.316-6.4h-13.836l-2.348 6.4h-8.15zm17.465-25.389l4.554 12.589h-9.173l4.619-12.589z" fill="#fff"/><path d="M372.75 92V76.99L385.3 56.7h-8.9l-7.525 12.89-7.525-12.89h-9.1l12.65 20.603V92h7.85zm-148.7-28.45V92h7.85V63.55h11.05V56.7H213v6.85h11.05z" fill="#fff"/></svg>