<svg width="52" height="52" fill="none" xmlns="http://www.w3.org/2000/svg"><path d="M30.667 46a2 2 0 002-2v-7H17a2 2 0 01-2-2V19.333H8a2 2 0 00-2 2V44a2 2 0 002 2h22.667z" fill="#EE4E4E"/><path d="M19.333 15V9a3 3 0 013-3H43a3 3 0 013 3v20.667a3 3 0 01-3 3h-6V17a2 2 0 00-2-2H19.333z" fill="#4CCD99"/><path d="M32.87 21.771c.764-.79 1.662-2.415.737-3.373a1.345 1.345 0 00-1.17-.381 3.96 3.96 0 00-2.204 1.119l-1.86 1.86-1.114-.243c.48-.736-.513-1.558-1.146-.934l-.563.562-1.32-.288c.822-.686-.157-1.84-.96-1.142l-.767.767-2.732-.595a.643.643 0 00-.592.174l-.55.55c-.303.285-.226.829.144 1.02l6.416 3.542-3.248 3.553-3.299.175-.51.51c-.233.22-.143.644.16.748l3.122 1.192 1.193 3.122c.105.301.527.393.748.159l.51-.51.175-3.298 3.554-3.246 3.542 6.41c.19.37.734.448 1.02.145.308-.355.842-.642.724-1.142l-.594-2.728.768-.768a.739.739 0 00.218-.525c-.003-.728-.925-1.003-1.362-.434l-.287-1.32.563-.562c.623-.636-.19-1.613-.935-1.144l-.242-1.115 1.86-1.86z" fill="#2F2F2F"/></svg>