<svg width="20" height="20" fill="none" xmlns="http://www.w3.org/2000/svg"><g clip-path="url(#clip0_4302_999)"><path fill-rule="evenodd" clip-rule="evenodd" d="M8.269 19.957c.251.025.496.021.706.015.54-.015 1.078-.014 1.63-.012a188.352 188.352 0 00.577.003c.143.003.377.01.562-.01a1.57 1.57 0 00.972-.432c.269-.264.379-.576.434-.813.034-.143.062-.346.079-.468l.013-.09.03-.184c.056-.344.087-.54.187-.725.23-.424.704-.676 1.188-.622.173.02.325.078.571.173a20.663 20.663 0 00.314.121c.124.05.327.133.492.178.26.072.614.12.999-.024.4-.15.644-.44.794-.666.076-.115.139-.23.188-.322l.043-.08.084-.155 1.322-2.29a1.531 1.531 0 00-.352-1.948l-.832-.685a1.203 1.203 0 010-1.858l.832-.685a1.53 1.53 0 00.352-1.948l-1.642-2.845a1.531 1.531 0 00-1.864-.669l-1.009.378a1.203 1.203 0 01-1.609-.928l-.177-1.063a1.531 1.531 0 00-1.51-1.28H8.357c-.748 0-1.387.541-1.51 1.28l-.178 1.063A1.205 1.205 0 015.451 3.37c-.209-.005-.395-.076-.721-.2l-.174-.066a4.27 4.27 0 01-.088-.035 4.932 4.932 0 00-.492-.178 1.592 1.592 0 00-.999.024c-.393.148-.634.43-.784.653-.608.906-1.102 1.915-1.648 2.861a1.531 1.531 0 00.353 1.948l.832.685a1.203 1.203 0 010 1.858l-.832.685a1.531 1.531 0 00-.353 1.947L2.188 16.4c.374.648 1.162.93 1.863.668l.505-.189.174-.066c.326-.123.512-.194.72-.2a1.21 1.21 0 011.091.63c.076.14.122.314.163.57l.03.208c.028.207.063.466.116.691.077.323.237.626.5.857.262.232.584.355.919.389zm.663-1.484a3.99 3.99 0 01-.513-.009.238.238 0 01-.075-.018.013.013 0 01-.002-.002l-.002-.002a.252.252 0 01-.03-.075 4.52 4.52 0 01-.077-.459 14.233 14.233 0 00-.047-.329c-.049-.306-.127-.684-.326-1.051a2.71 2.71 0 00-2.451-1.415c-.487.013-.94.19-1.25.31a2.57 2.57 0 01-.13.05l-.504.19a.031.031 0 01-.038-.014l-1.643-2.846a.031.031 0 01.008-.04l.832-.684a2.703 2.703 0 000-4.174l-.832-.685a.031.031 0 01-.008-.04c.488-.845.933-2.19 1.66-2.856.224.015.45.156.656.236.309.12.762.297 1.249.31a2.705 2.705 0 002.74-2.258l.177-1.063a.031.031 0 01.031-.026h3.286a.03.03 0 01.03.026l.178 1.063A2.703 2.703 0 0015.465 4.7l1.01-.378c.014-.005.03 0 .038.014l1.642 2.845a.031.031 0 01-.007.04l-.832.685a2.703 2.703 0 000 4.174l.832.685c.012.01.015.026.008.04l-1.323 2.29c-.043.074-.086.157-.122.224a2.415 2.415 0 01-.143.252.481.481 0 01-.071.09.389.389 0 01-.075-.015 1.842 1.842 0 01-.253-.093 8.237 8.237 0 00-.199-.079 2.938 2.938 0 01-.134-.052c-.258-.101-.635-.25-1.023-.293a2.709 2.709 0 00-2.674 1.4c-.231.428-.305.91-.355 1.237l-.022.138c-.012.07-.022.15-.031.214l-.008.059c-.011.08-.021.14-.033.189a.461.461 0 01-.026.084.39.39 0 01-.072.013 1.77 1.77 0 01-.205.005l-.084-.002a8.658 8.658 0 00-.22-.005h-.461a53.147 53.147 0 00-1.69.013zm2.728-.016l-.001.002v-.002zM10 12.315a2.323 2.323 0 110-4.646 2.323 2.323 0 010 4.646zM6.177 9.992a3.823 3.823 0 107.646 0 3.823 3.823 0 00-7.646 0z" fill="#858585"/></g><defs><clipPath id="clip0_4302_999"><path fill="#fff" d="M0 0h20v20H0z"/></clipPath></defs></svg>