<svg width="20" height="20" fill="none" xmlns="http://www.w3.org/2000/svg"><path fill-rule="evenodd" clip-rule="evenodd" d="M3.26 18.872a1.85 1.85 0 002.454.926c.308-.143.534-.373.658-.5l.035-.035 2.348-2.348h8.12a3.094 3.094 0 003.094-3.093V3.125A3.094 3.094 0 0016.875.031H3.125A3.094 3.094 0 00.031 3.125v10.697a3.094 3.094 0 003.073 3.093v1.01c0 .206-.002.589.155.947zm1.823-.435a.35.35 0 01-.45-.17c-.018-.04-.029-.112-.029-.381v-.991a1.48 1.48 0 00-1.479-1.48c-.88 0-1.594-.713-1.594-1.593V3.125c0-.88.714-1.594 1.594-1.594h13.75c.88 0 1.594.714 1.594 1.594v10.697c0 .88-.714 1.593-1.594 1.593H8.746a1.48 1.48 0 00-1.046.434l-2.353 2.353-.041.04c-.061.062-.1.1-.142.137a.366.366 0 01-.08.058zm-.442-7.656c0 .414.335.75.75.75h5.338a.75.75 0 000-1.5H5.391a.75.75 0 00-.75.75zm8.06 0c0 .414.335.75.75.75h.755a.75.75 0 000-1.5h-.755a.75.75 0 00-.75.75zm-8.06-4.61c0 .415.335.75.75.75h9.218a.75.75 0 000-1.5H5.391a.75.75 0 00-.75.75z" fill="#858585"/></svg>