<svg width="20" height="20" fill="none" xmlns="http://www.w3.org/2000/svg"><path d="M5.557 14.806a.723.723 0 110-1.446H10a.723.723 0 010 1.446H5.557zm0-4.443a.723.723 0 010-1.446h8.886a.723.723 0 110 1.446H5.557zm0-4.443a.723.723 0 010-1.446h8.886a.723.723 0 110 1.446H5.557z" fill="#858585"/><path fill-rule="evenodd" clip-rule="evenodd" d="M4.885 19.248c-2.453 0-4.494-2.04-4.494-4.493V4.525C.391 2.072 2.432.03 4.885.03h10.23c2.453 0 4.493 2.04 4.494 4.494v8.302c0 .736-.282 1.5-.677 2.196-.4.706-.95 1.4-1.563 2.01a9.62 9.62 0 01-2.012 1.548c-.691.39-1.447.668-2.17.668H4.885zm-3.048-4.493c0 1.654 1.393 3.048 3.048 3.048h6.332c.292-3.624 3.3-6.575 6.946-6.774V4.525c0-1.655-1.393-3.048-3.048-3.048H4.885c-1.655 0-3.048 1.393-3.048 3.048v10.23zm16.326-2.277c-2.85.196-5.208 2.498-5.494 5.325h.518c.374 0 .879-.154 1.461-.482a8.181 8.181 0 001.701-1.314c.537-.534 1-1.125 1.326-1.698.33-.583.488-1.094.488-1.482v-.35z" fill="#858585"/></svg>