<svg width="20" height="20" fill="none" xmlns="http://www.w3.org/2000/svg"><g clip-path="url(#clip0_4302_970)" fill="#858585"><path d="M10 0a10 10 0 1010 10A10.011 10.011 0 0010 0zm0 18.333A8.333 8.333 0 1118.333 10 8.342 8.342 0 0110 18.333z"/><path d="M10 9.4c-.993 0-1.8-.809-1.8-1.801 0-.993.807-1.801 1.8-1.801s1.8.808 1.8 1.8a.72.72 0 101.441 0c0-1.54-1.08-2.83-2.52-3.159v-.802a.72.72 0 10-1.441 0v.802a3.246 3.246 0 00-2.521 3.16A3.245 3.245 0 0010 10.839a1.802 1.802 0 010 3.602c-.993 0-1.8-.808-1.8-1.8a.72.72 0 10-1.441 0c0 1.54 1.08 2.83 2.52 3.16v.801a.72.72 0 101.441 0V15.8a3.246 3.246 0 002.521-3.16 3.245 3.245 0 00-3.24-3.24z"/></g><defs><clipPath id="clip0_4302_970"><path fill="#fff" d="M0 0h20v20H0z"/></clipPath></defs></svg>