<svg width="20" height="20" fill="none" xmlns="http://www.w3.org/2000/svg"><path fill-rule="evenodd" clip-rule="evenodd" d="M.031 10c0 5.506 4.463 9.969 9.969 9.969 5.505 0 9.969-4.463 9.969-9.969 0-5.506-4.464-9.969-9.969-9.969C4.494.031.031 4.494.031 10zM10 18.469A8.469 8.469 0 1110 1.53a8.469 8.469 0 010 16.938z" fill="#858585"/><path fill-rule="evenodd" clip-rule="evenodd" d="M7.35 11.978a.75.75 0 00-1.264.808l.633-.403-.633.403.002.002.002.003.005.008.016.024.053.077a5.695 5.695 0 00.93.995c.642.537 1.627 1.113 2.906 1.113 1.28 0 2.264-.575 2.905-1.113a5.7 5.7 0 00.93-.995l.054-.077.016-.024.006-.008.002-.003v-.002l-.632-.403.633.403a.75.75 0 00-1.264-.808l-.005.007a3.297 3.297 0 01-.162.215 4.207 4.207 0 01-.541.546c-.478.4-1.133.762-1.942.762-.809 0-1.464-.362-1.942-.762a4.203 4.203 0 01-.703-.761l-.005-.007z" fill="#858585"/><path d="M12.422 7.422a.977.977 0 101.953 0 .977.977 0 00-1.953 0zm-5.86-.977a.977.977 0 110 1.953.977.977 0 010-1.953z" fill="#858585"/></svg>