<svg width="20" height="20" fill="none" xmlns="http://www.w3.org/2000/svg"><g clip-path="url(#clip0_4302_1078)"><path d="M13.662 8.435l-4.326-2.37a1.773 1.773 0 00-1.782.015 1.773 1.773 0 00-.886 1.546v4.749c0 .643.33 1.22.886 1.546a1.765 1.765 0 001.773.02l4.344-2.38c.572-.321.913-.904.913-1.56s-.34-1.24-.92-1.565l-.002-.001zm-.8 1.67l-4.344 2.378a.115.115 0 01-.122 0c-.062-.036-.062-.09-.062-.107v-4.75c0-.017 0-.07.062-.106a.119.119 0 01.061-.017c.03 0 .055.013.07.021l4.326 2.37c.016.01.064.036.064.108 0 .073-.049.1-.055.105v-.003zM10 0C4.486 0 0 4.486 0 10s4.486 10 10 10 10-4.486 10-10S15.514 0 10 0zm0 18.333c-4.595 0-8.333-3.738-8.333-8.333 0-4.595 3.738-8.333 8.333-8.333 4.595 0 8.333 3.738 8.333 8.333 0 4.595-3.738 8.333-8.333 8.333z" fill="#858585"/></g><defs><clipPath id="clip0_4302_1078"><path fill="#fff" d="M0 0h20v20H0z"/></clipPath></defs></svg>