<svg width="20" height="20" fill="none" xmlns="http://www.w3.org/2000/svg"><g clip-path="url(#clip0_4302_1347)"><circle cx="16.234" cy="3.766" r="3.734" fill="#54B4DA"/><path d="M5.714 19.797a1.85 1.85 0 01-2.455-.925c-.157-.358-.156-.74-.155-.948v-1.008a3.094 3.094 0 01-3.073-3.094V3.125A3.094 3.094 0 013.125.031h9.093c-.409.44-.746.945-.994 1.5H3.125c-.88 0-1.594.714-1.594 1.594v10.697c0 .88.714 1.593 1.594 1.593.817 0 1.48.663 1.48 1.48v.99c0 .27.01.343.027.382a.35.35 0 00.451.17.368.368 0 00.081-.058c.042-.036.08-.075.142-.136l.04-.041L7.7 15.849a1.48 1.48 0 011.046-.434h8.129c.88 0 1.594-.713 1.594-1.593V8.776a5.493 5.493 0 001.5-.994v6.04a3.094 3.094 0 01-3.094 3.093h-8.12l-2.348 2.348-.035.035c-.124.127-.35.357-.658.5z" fill="#858585"/><path d="M11.749 6.922H5.39a.75.75 0 010-1.5h5.614c.17.541.424 1.046.744 1.5zM4.64 10.781c0 .414.336.75.75.75h5.34a.75.75 0 000-1.5H5.39a.75.75 0 00-.75.75zm8.06 0c0 .414.336.75.75.75h.756a.75.75 0 000-1.5h-.755a.75.75 0 00-.75.75z" fill="#858585"/></g><defs><clipPath id="clip0_4302_1347"><path fill="#fff" d="M0 0h20v20H0z"/></clipPath></defs></svg>