<svg width="748" height="300" fill="none" xmlns="http://www.w3.org/2000/svg"><path fill-rule="evenodd" clip-rule="evenodd" d="M353.001 232.106c-34.117 10.98-84.502 24.993-115.439 42.214-3.04 1.693-3.299 6.163-4.861 9.289-2.716 5.434-5.315 10.927-7.973 16.391 25.057-4.623 50.057-9.573 75.171-13.87 21.114-3.612 42.333-6.572 63.499-9.858l-10.397-44.166z" fill="url(#paint0_linear_315_2735)"/><path fill-rule="evenodd" clip-rule="evenodd" d="M346.02 234.327l-1.295.408-.295.093-1.423.447-.183.057-1.554.487-.069.021-1.639.512-.048.015-1.606.5-.165.052-1.503.468-.286.089-1.396.434-.407.127-1.289.401-.531.166-1.176.366-.657.204-1.063.331-.784.244-.946.295-.913.285-.828.258-1.041.326-.71.221-1.172.368-.587.184-1.303.408-.465.148-1.435.45-.341.107-1.568.496-.214.067-1.701.54-.09.027-1.794.571-.038.012-1.763.563-.166.053-1.64.526-.294.094-1.515.489-.423.136-1.388.449-.553.18-.149.049-3.532 1.155-.207.068-1.007.332-.94.312-.877.291-1.07.356-.748.25-1.198.403-.071.023-1.579.534-.295.099-.489.167-1.452.495-1.503.516-.436.149-.231.08-1.704.591-.104.036-1.801.631-.026.009-1.772.625-.152.053-.577.206c-1.076.384-2.15.767-3.218 1.155l-.138.05-1.716.626-.083.029-1.242.457-.651.241-1.112.414-.773.289-.383.144-1.21.457-.532.202-1.324.505-.473.182-1.626.63-.058.024-1.597.625-.331.131-1.383.55-.422.17c-1.156.464-2.302.929-3.438 1.399l-.073.029-.106.044-1.66.69-.011.006-1.632.69-.127.054-1.732.744-.078.035-1.585.692-.268.119-1.368.609-.605.273-.89.403-.807.369-.865.399-.756.353-.759.357-.91.434-.709.34-.687.333-.93.456-.691.342-.847.425-.629.316-.931.476-.561.288-.764.401-.804.424-.027.014-1.292.694-.004.004c-.493.267-.978.533-1.461.801l-.082.048-.058.035-.104.064-.031.02-.049.031-.077.053-.007.005-.069.049-.06.044-.015.012-.074.057-.035.028-.038.03-.072.059-.013.012-.057.05-.062.054-.007.007-.108.101-.026.025-.066.066-.019.018-.046.048-.061.066-.001.001-.063.068-.042.047-.019.022-.06.07-.023.027-.037.045-.058.072-.005.006-.051.067-.045.059-.012.016-.055.077-.026.037-.028.04-.052.077-.01.014-.043.064-.045.07-.006.01-.051.08-.029.046-.02.034-.049.081-.014.023-.034.06-.047.081-.001.003-.046.083-.031.057-.014.027-.045.086-.017.031-.028.054-.043.087-.004.006-.039.081-.033.068-.009.02-.042.089-.02.042-.022.047-.04.09-.007.016-.034.075-.034.08-.004.01-.039.092-.022.053-.017.039-.038.093-.01.025-.028.069-.036.09-.001.003-.036.093-.025.064-.013.03-.035.095-.013.035-.023.061-.035.095-.002.006-.032.09-.026.073-.007.023-.035.096-.015.044-.019.052-.032.097-.006.015-.028.082-.029.083-.004.013-.034.098c26.342-15.126 63.807-32.23 90.779-21.578 8.163-2.726 16.339-5.417 24.492-8.176l-.231-.95a650.62 650.62 0 01-3.27-14.332z" fill="url(#paint1_linear_315_2735)"/><path fill-rule="evenodd" clip-rule="evenodd" d="M278.388 274.599c25.592-10.379 52.061-18.398 78.167-27.397l6.844 29.071c-21.166 3.287-42.386 6.247-63.499 9.859-9.868 1.688-19.717 3.477-29.56 5.307 2.284-7.073 5.451-15.788 8.048-16.84z" fill="url(#paint2_linear_315_2735)"/><path fill-rule="evenodd" clip-rule="evenodd" d="M325.03 257.778l.383-.127.383-.127.075-.025.308-.103.383-.128.383-.127.154-.051.229-.075.383-.128.382-.127.236-.078.147-.05.382-.127.383-.128.315-.103.068-.023.384-.128.383-.127.383-.127.011-.004.372-.124.383-.128.383-.126.092-.031.291-.096.383-.128.383-.127.172-.057.209-.07.383-.128.383-.126.253-.084.131-.044.383-.127.383-.128.333-.109.05-.017.383-.128.383-.127.383-.127.029-.009.354-.118.383-.127.382-.127.11-.037.273-.092.383-.128.383-.127.19-.064.192-.063.383-.128.383-.127.27-.09.113-.037.382-.128.383-.129.35-.115.033-.012.383-.127.383-.127.382-.128.048-.017.335-.111.383-.129.382-.127.127-.043.255-.085.384-.128.381-.129.207-.069.176-.059.382-.128.383-.129.287-.096.095-.032.383-.129.382-.128.367-.124.015-.005.382-.13.382-.128.383-.129.064-.022.318-.107c1.932 7.954 4.039 15.861 6.384 23.7a23.78 23.78 0 001.553 3.885l-.014.002-.179.028-.194.029-.194.031-.194.029-.194.029-.037.006-.157.024-.195.03-.193.029-.194.03-.194.03-.059.007-.135.021-.194.03-.194.029-.193.03-.195.029-.081.012-.113.017-.193.03-.194.029-.195.03-.194.029-.104.015-.089.014-.194.029-.194.029-.195.03-.193.03-.126.019-.068.01-.194.029-.193.029-.195.03-.194.028-.148.023-.046.007-.193.029-.194.029-.195.03-.194.03-.17.025-.217.034-.195.028-.193.03-.194.03-.194.028-.195.03-.193.029-.194.029-.194.03-.194.03-.022.002-.172.027-.194.028-.195.029-.193.029-.195.029-.046.008-.149.022-.193.029-.194.03-.194.028-.195.03-.067.01-.126.018-.194.03-.194.03-.194.028-.194.029-.09.014-.104.015-.194.03-.194.029c-3.412-7.595-7.884-14.62-13.743-18.179a41.12 41.12 0 00-6.276-3.114z" fill="url(#paint3_linear_315_2735)"/><path fill-rule="evenodd" clip-rule="evenodd" d="M142.144 212.581c9.154 0 16.622-7.524 16.622-16.749 0-9.225-7.467-16.75-16.622-16.75-9.155 0-16.621 7.524-16.621 16.75.001 9.224 7.466 16.749 16.621 16.749z" fill="url(#paint4_linear_315_2735)"/><path d="M229.483 201.921c10.348 0 18.736-8.453 18.736-18.881 0-10.427-8.388-18.881-18.736-18.881s-18.737 8.454-18.737 18.881c0 10.428 8.389 18.881 18.737 18.881z" fill="url(#paint5_linear_315_2735)"/><path fill-rule="evenodd" clip-rule="evenodd" d="M509.933 192.482c10.82 0 19.645-8.892 19.645-19.795 0-10.904-8.824-19.796-19.645-19.796-10.819 0-19.643 8.892-19.643 19.796 0 10.903 8.824 19.795 19.643 19.795z" fill="url(#paint6_linear_315_2735)"/><path fill-rule="evenodd" clip-rule="evenodd" d="M589.111 197.353c8.489 0 15.412-6.977 15.412-15.531 0-8.555-6.923-15.531-15.412-15.531-8.488 0-15.412 6.976-15.412 15.531.001 8.554 6.924 15.531 15.412 15.531z" fill="url(#paint7_linear_315_2735)"/><path fill-rule="evenodd" clip-rule="evenodd" d="M589.111 172.382c5.175 0 9.37 4.227 9.37 9.442 0 5.214-4.195 9.441-9.37 9.441-5.174 0-9.369-4.227-9.369-9.441 0-5.215 4.195-9.442 9.369-9.442zm-446.966 12.792c5.84 0 10.576 4.771 10.576 10.658s-4.735 10.658-10.576 10.658c-5.842 0-10.577-4.771-10.577-10.658 0-5.886 4.735-10.658 10.577-10.658zm87.338-14.924c7.01 0 12.692 5.726 12.692 12.79 0 7.065-5.682 12.792-12.692 12.792s-12.693-5.727-12.693-12.792c0-7.063 5.683-12.79 12.693-12.79zm280.45-10.049c6.844 0 12.391 5.589 12.391 12.486 0 6.896-5.547 12.486-12.391 12.486-6.843 0-12.39-5.59-12.39-12.486 0-6.896 5.547-12.486 12.39-12.486z" fill="#525252"/><path fill-rule="evenodd" clip-rule="evenodd" d="M597.569 177.758c-.677 4.542-4.567 8.024-9.263 8.024-3.73 0-6.951-2.196-8.458-5.376.678-4.542 4.567-8.024 9.264-8.024 3.73 0 6.95 2.196 8.457 5.376zm-455.424 7.416c4.341 0 8.07 2.635 9.7 6.404-.605 5.308-5.077 9.43-10.507 9.43-4.341 0-8.07-2.636-9.7-6.405.606-5.307 5.077-9.429 10.507-9.429zm87.338-14.924c5.41 0 10.027 3.409 11.855 8.212-.46 6.643-5.952 11.888-12.661 11.888-5.41 0-10.027-3.409-11.855-8.212.46-6.643 5.952-11.888 12.661-11.888zm280.45-10.049c5.257 0 9.749 3.299 11.55 7.955-.483 6.451-5.831 11.534-12.355 11.534-5.257 0-9.749-3.3-11.549-7.956.482-6.451 5.83-11.533 12.354-11.533z" fill="#646565"/><path fill-rule="evenodd" clip-rule="evenodd" d="M421.82 146.532l227.39 40.93c31.061 4.476 63.749 8.801 95.543 13.243 1.41.196 3.687-1.556 3.173-2.893-3.525-9.149-8.23-17.982-14.205-25.735-2.336-3.033-6.287-4.658-9.972-5.635-100.699-26.668-201.875-51.466-302.814-77.2l.885 57.29z" fill="url(#paint8_linear_315_2735)"/><path fill-rule="evenodd" clip-rule="evenodd" d="M421.82 146.532l12.482 2.247c4.188-19.423 11.898-39.318 23.039-38.838 27.983 1.205 182.549 38.703 280.423 67.832a90.246 90.246 0 00-4.043-5.696c-2.336-3.033-6.287-4.658-9.972-5.635-100.699-26.668-201.875-51.466-302.814-77.2l.885 57.29z" fill="url(#paint9_linear_315_2735)"/><path fill-rule="evenodd" clip-rule="evenodd" d="M404.249 230.544c34.713 8.881 85.847 19.799 117.76 35.104 3.136 1.503 3.663 5.951 5.41 8.975 3.037 5.259 5.961 10.584 8.942 15.875-25.289-3.088-50.541-6.505-75.866-9.265-21.291-2.319-42.649-3.981-63.974-5.971l7.728-44.718z" fill="url(#paint10_linear_315_2735)"/><path fill-rule="evenodd" clip-rule="evenodd" d="M411.352 232.335l1.317.328.298.074 1.448.359.187.046 1.58.391.07.017 1.668.411.047.012 1.634.402.167.042 1.529.375.29.072 1.42.35.415.101 1.31.321.541.133 1.195.294.668.164 1.081.266.797.195.963.237.928.228.843.208 1.058.262.722.178 1.192.294.597.149 1.326.328.472.119 1.46.362.347.087 1.595.399.218.054 1.73.435.091.022 1.826.46.038.01 1.793.455.168.043 1.668.424.299.077 1.542.395.43.11 1.413.365.563.146.151.04 3.595.937.211.055 1.023.271.958.254.893.237 1.089.291.761.204 1.221.329.072.018 1.608.436.299.082.499.136 1.478.406 1.532.423.444.123.235.066 1.735.486.104.029 1.837.52.026.007 1.807.516.155.044.589.17c1.097.318 2.191.636 3.281.958l.141.041 1.751.52.083.025 1.268.381.664.2 1.135.346.789.241.39.121 1.236.382.542.168 1.352.424.484.153 1.661.529.059.019 1.631.528.34.111 1.413.464.431.143c1.182.393 2.354.787 3.517 1.187l.073.025.108.037 1.698.588.013.005 1.67.589.131.047 1.772.637.08.029 1.624.595.275.103 1.402.524.621.236.913.347.827.321.887.345.775.306.779.31.935.377.727.297.706.29.955.399.711.299.87.372.647.278.959.419.575.253.787.354.829.374.027.012 1.333.615.004.002c.508.237 1.008.473 1.505.712l.087.042.058.03.109.059.033.018.048.028.082.048.008.004.072.045.061.04.016.01.077.052.038.026.038.027.075.055.015.01.06.047.064.05.007.007.114.094.027.023.071.062.019.018.05.044.065.062.001.001.067.064.045.045.019.02.064.068.025.025.038.042.064.069.004.006.056.064.048.055.013.016.06.072.028.036.03.038.058.073.01.014.047.061.049.067.007.008.055.077.032.046.023.032.054.079.014.021.038.058.052.079v.002l.051.08.035.056.016.025.05.083.018.031.031.052.049.083.004.006.044.079.038.065.01.02.047.086.022.04.025.046.045.087.008.016.039.072.038.077.006.011.044.089.025.05.018.039.044.09.012.025.03.066.042.088.001.003.042.092.027.061.014.029.04.093.016.035.027.058.04.093.003.006.038.087.03.071.009.023.04.094.018.044.022.051.038.095.007.015.032.079.034.082.005.013.039.095c-27.201-13.493-65.624-28.282-91.907-16.007-8.312-2.223-16.634-4.412-24.937-6.668l.173-.964a610.943 610.943 0 002.411-14.499z" fill="url(#paint11_linear_315_2735)"/><path fill-rule="evenodd" clip-rule="evenodd" d="M481.276 268.413c-26.168-8.801-53.071-15.193-79.668-22.585l-5.086 29.434c21.324 1.99 42.682 3.652 63.974 5.971 9.95 1.084 19.889 2.27 29.825 3.497-2.707-6.919-6.389-15.425-9.045-16.317z" fill="url(#paint12_linear_315_2735)"/><path fill-rule="evenodd" clip-rule="evenodd" d="M433.71 254.464l-.39-.104-.39-.105-.076-.019-.313-.084-.39-.105-.39-.104-.157-.041-.232-.062-.39-.105-.389-.103-.239-.064-.151-.04-.389-.103-.389-.104-.321-.085-.07-.018-.389-.104-.39-.102-.389-.106-.012-.003-.378-.101-.389-.103-.39-.104-.095-.025-.296-.079-.389-.104-.39-.103-.175-.047-.215-.057-.39-.105-.389-.103-.258-.069-.133-.036-.389-.102-.39-.105-.338-.09-.051-.014-.39-.104-.389-.103-.39-.103-.03-.009-.36-.095-.39-.105-.389-.103-.112-.03-.278-.074-.389-.103-.39-.105-.193-.051-.197-.052-.389-.104-.39-.104-.275-.073-.116-.031-.388-.104-.39-.104-.356-.095-.033-.009-.39-.104-.39-.104-.388-.105-.049-.013-.341-.091-.39-.105-.389-.104-.129-.035-.26-.071-.39-.104-.389-.104-.211-.056-.179-.049-.389-.105-.389-.104-.293-.08-.096-.027-.39-.104-.388-.104-.375-.102-.016-.004-.388-.106-.389-.105-.39-.105-.065-.018-.323-.088c-1.452 8.057-3.08 16.078-4.95 24.045a23.654 23.654 0 01-1.318 3.973l.016.001.18.017.196.017.195.017.196.018.195.018.038.003.157.015.196.017.195.018.195.018.195.017.06.005.136.013.196.018.195.017.196.018.196.017.082.007.113.01.195.018.195.016.196.018.195.018.106.009.09.008.195.017.196.017.195.018.195.017.127.012.07.006.195.017.195.017.195.017.196.017.149.014.047.005.195.016.195.018.196.017.195.018.173.014.218.02.197.017.195.017.195.018.196.017.196.017.195.017.195.018.196.016.195.018.022.002.173.014.196.018.195.017.195.018.196.017.046.004.15.013.196.017.195.017.195.017.196.017.068.006.127.011.195.018.196.017.195.016.196.018.091.008.105.009.196.017.195.017c2.95-7.788 6.993-15.073 12.627-18.983a41.327 41.327 0 016.061-3.477z" fill="url(#paint13_linear_315_2735)"/><path fill-rule="evenodd" clip-rule="evenodd" d="M351.123 3.513c7.577-3.336 17.57-5.297 24.781-1.218 38.348 21.693 50.836 63.543 51.979 109.634.679 27.367-4.969 54.555-9.066 81.618-4.018 26.53-8.351 53.112-15.263 79.029-1.307 4.901-4.462 10.124-9.065 12.181-7.029 3.14-15.628 4.436-22.969 2.132-6.189-1.942-10.643-8.058-13.901-13.705-17.553-30.416-39.397-82.975-43.216-117.552-3.332-30.166-7.595-59.982.302-91.059 3.627-14.275 6.971-29.092 14.505-41.722 5.002-8.385 13.016-15.422 21.913-19.338z" fill="url(#paint14_linear_315_2735)"/><path fill-rule="evenodd" clip-rule="evenodd" d="M354.5 12.696c5.811-2.559 13.477-4.063 19.008-.934 29.416 16.64 38.994 48.741 39.87 84.095.52 20.991-3.811 41.846-6.954 62.604-3.082 20.349-6.405 40.739-11.707 60.62-1.003 3.759-3.423 7.765-6.955 9.344-5.391 2.407-11.987 3.402-17.617 1.634-4.746-1.489-8.164-6.181-10.664-10.511-13.463-23.331-30.217-63.646-33.148-90.169-2.556-23.138-5.825-46.008.232-69.845 2.782-10.95 5.349-22.315 11.126-32.002 3.837-6.434 9.984-11.831 16.809-14.836z" fill="url(#paint15_linear_315_2735)"/><path fill-rule="evenodd" clip-rule="evenodd" d="M359.757 20.196c3.942-1.957 9.141-3.108 12.892-.714 19.953 12.73 26.45 37.287 27.044 64.332.353 16.058-2.585 32.011-4.716 47.892-2.091 15.567-4.345 31.166-7.942 46.373-.682 2.877-2.322 5.942-4.717 7.149-3.657 1.842-8.132 2.603-11.95 1.25-3.22-1.139-5.538-4.727-7.233-8.041-9.132-17.848-20.497-48.688-22.484-68.978-1.734-17.7-3.951-35.197.157-53.431 1.888-8.378 3.627-17.072 7.546-24.483 2.603-4.92 6.773-9.05 11.403-11.349z" fill="url(#paint16_linear_315_2735)"/><path fill-rule="evenodd" clip-rule="evenodd" d="M409.426 247.735l-.078.369-.005.022-.082.39-.081.39-.084.39-.007.038-.075.352-.083.389-.083.391-.022.099-.148.681-.083.39-.035.158-.051.232-.085.39-.084.389-.049.217-.037.174-.173.779-.061.276-.026.114-.087.389-.086.389-.076.336-.012.053-.088.389-.177.778-.001.007-.087.382-.09.389-.089.388-.015.065-.076.324-.089.388-.091.388-.029.125-.063.264-.091.388-.092.388-.043.185-.048.204-.093.388-.092.388-.057.243-.036.145-.092.389-.094.387-.073.302-.02.085-.093.387-.094.388-.09.361-.005.026-.096.388-.094.388-.097.387-.008.033-.087.353-.096.388-.097.387-.023.091-.074.296-.098.387-.098.386-.038.151-.06.235-.197.773-.054.21-.045.176-.201.773-.069.269-.03.117-.101.386-.1.386-.086.327-.015.059-.102.386-.102.385-.103.386-.003.01-.003.011-.003.01-.003.01-.003.011-.003.01-.003.01-.004.011-.003.01-.002.011-.004.01-.003.011-.002.01-.004.01-.003.01-.002.011-.003.01-.004.01-.003.011-.003.011-.003.009-.003.012-.001.001-.002.009-.003.009-.004.011-.003.011-.003.009-.002.011-.008.021-.002.01-.003.011-.004.01-.006.021-.003.01-.003.01-.003.011-.004.01-.003.011-.003.01-.003.01-.004.011-.002.01-.002.003-.002.008-.004.01-.002.01-.003.011-.004.01-.004.01-.002.011-.007.021-.003.01-.006.021-.003.011-.004.01-.003.01-.003.011-.003.01-.004.01-.004.011-.003.01c-5.319-11.564-12.574-21.84-23.236-21.224-10.717.62-16.733 13.774-19.604 25.743l-.047-.065-.004-.004-.049-.07-.05-.07-.048-.071-.033-.046-.017-.026-.048-.07-.05-.071-.047-.071-.017-.025-.031-.045-.048-.071-.048-.072-.049-.07-.004-.005-.045-.066-.047-.07-.047-.072-.038-.054-.011-.016-.047-.072-.047-.071-.048-.071-.023-.036-.025-.036-.046-.071-.047-.072-.047-.071-.009-.016-.038-.057-.046-.073-.047-.071-.041-.065-.004-.006-.045-.071-.094-.145-.027-.045-.019-.027-.044-.071-.046-.073-.045-.072-.014-.023-.032-.048-.045-.073-.044-.07-.045-.073-.001-.003-.043-.071-.045-.071-.044-.071-.033-.053-.012-.018-.044-.072-.043-.072-.043-.072-.02-.033-.024-.04-.044-.071-.043-.072-.043-.071-.007-.012-.036-.06-.043-.071-.043-.072-.037-.063-.006-.009-.041-.071-.043-.072-.042-.072-.025-.042-.017-.029-.043-.072-.041-.072-.042-.071-.012-.02-.029-.051-.042-.071-.041-.071-.04-.071-.497-.865-.125-.217-.124-.219-.08-.141-.045-.078-.126-.22-.5-.887-.125-.224-.037-.065-.089-.159-.125-.225-.127-.225-.252-.453-.127-.228-.117-.212-.008-.015-.126-.23-.005-.008-.503-.915-.126-.231-.073-.135-.054-.099-.127-.234-.509-.941-.127-.237-.028-.051-.099-.186-.639-1.197-.111-.208-.018-.032-.129-.243-.512-.973-.129-.244-.066-.126-.063-.12-.128-.246-.129-.246-.128-.247-.128-.248-.129-.248-.129-.249-.02-.036-.109-.212-.128-.25-.62-1.207-.027-.052-.128-.253-.259-.508-.129-.255c4.16-16.148 13.867-37.12 29.745-39.564 13.78-2.125 23.591 14.851 30.213 29.211z" fill="url(#paint17_linear_315_2735)"/><path fill-rule="evenodd" clip-rule="evenodd" d="M364.884 226.796c4.053-4.342 8.824-7.429 14.339-8.278 5.179-.798 9.796 1.107 13.894 4.556-1.27 2.313-3.082 4.334-5.354 5.35-5.392 2.407-11.988 3.402-17.618 1.634-1.972-.618-3.717-1.792-5.261-3.262z" fill="url(#paint18_linear_315_2735)"/><path fill-rule="evenodd" clip-rule="evenodd" d="M320.101 158.753l-6.602-67.682c-98.722 30.454-197.701 60.075-296.165 91.361-6.739 2.142-15.303 19.769-17.225 25.582-.574 1.735 1.224 4.823 3.021 4.568 25.06-3.573 50.095-7.33 75.111-11.203l241.86-42.626z" fill="url(#paint19_linear_315_2735)"/><path fill-rule="evenodd" clip-rule="evenodd" d="M320.101 158.753l-6.602-67.682c-84.621 26.103-169.433 51.597-253.946 78.051 56.732-16.876 114.225-33.206 165.692-42.555 34.978-6.352 75.069-5.261 81.965 34.458l12.891-2.272z" fill="url(#paint20_linear_315_2735)"/><path fill-rule="evenodd" clip-rule="evenodd" d="M316.54 122.236c-73.56 18.169-147.289 35.67-220.631 54.716-2.01.521-3.633 2.252-4.836 3.958-4.672 6.629-8.87 13.583-13.105 20.511 80.902-12.524 161.622-26.283 242.482-39.088l-3.91-40.097z" fill="url(#paint21_linear_315_2735)"/><path fill-rule="evenodd" clip-rule="evenodd" d="M316.54 122.236a16605.365 16605.365 0 01-31.12 7.65c11.694 5.894 20.119 16.574 22.282 34.474l12.749-2.026-3.911-40.098z" fill="url(#paint22_linear_315_2735)"/><path fill-rule="evenodd" clip-rule="evenodd" d="M421.442 122.058l.498 32.26c75.777 10.896 151.483 22.318 227.27 33.143-3.848-9.016-6.677-17.944-16.729-20.258-70.106-16.139-140.669-30.2-211.039-45.145z" fill="url(#paint23_linear_315_2735)"/><path fill-rule="evenodd" clip-rule="evenodd" d="M421.442 122.058l.498 32.26 10.971 1.583c1.76-10.074 4.517-21.002 8.253-29.677a9740.626 9740.626 0 01-19.722-4.166z" fill="url(#paint24_linear_315_2735)"/><path fill-rule="evenodd" clip-rule="evenodd" d="M427.884 111.928c-1.143-46.09-13.631-87.94-51.979-109.634-7.211-4.079-17.204-2.118-24.781 1.218-8.898 3.916-16.911 10.953-21.914 19.338-7.533 12.63-10.878 27.448-14.505 41.723-7.897 31.076-3.634 60.892-.302 91.058 1.608 14.559 6.412 32.307 12.745 50.246.842-35.275 27.306-85.183 46.635-87.249 10.56-1.127 36.619 29.903 47.602 58.745 3.527-21.717 7.043-43.523 6.499-65.445z" fill="url(#paint25_linear_315_2735)"/><path fill-rule="evenodd" clip-rule="evenodd" d="M335.752 166.895c9.571-24.926 25.339-46.91 38.031-48.266 7.266-.776 21.866 13.669 33.847 32.152 2.933-18.221 6.205-36.52 5.748-54.924-.876-35.354-10.455-67.456-39.87-84.095-5.53-3.129-13.196-1.625-19.007.934-6.825 3.005-12.972 8.402-16.809 14.835-5.777 9.687-8.343 21.051-11.126 32.002-6.057 23.838-2.788 46.707-.232 69.845 1.203 10.891 4.737 24.106 9.418 37.517z" fill="url(#paint26_linear_315_2735)"/><path fill-rule="evenodd" clip-rule="evenodd" d="M348.183 141.758c8.183-13.031 17.517-22.265 25.6-23.129 4.764-.51 12.679 5.524 20.941 14.948l.253-1.871c2.131-15.881 5.069-31.833 4.716-47.892-.594-27.045-7.091-51.602-27.043-64.332-3.752-2.394-8.951-1.243-12.892.714-4.63 2.3-8.8 6.428-11.402 11.349-3.919 7.41-5.658 16.105-7.546 24.483-4.108 18.233-1.891 35.73-.157 53.431.91 9.304 3.793 20.827 7.53 32.299z" fill="#EBEFF1"/><path fill-rule="evenodd" clip-rule="evenodd" d="M375.97 257.955c.572 3.934 9.384 4.272 9.444-.455.377-30.008-3.709-91.508-8.235-121.817-.869-5.82-6.099-5.039-6.346 1.524-.993 26.25 1.573 96.281 5.137 120.748z" fill="url(#paint27_linear_315_2735)"/><path fill-rule="evenodd" clip-rule="evenodd" d="M382.346 185.669c-.387-5.081-.798-10.101-1.231-14.972-6.278-.592-4.85-.095-10.261.633.109 5.11.255 10.433.432 15.836 2.87-.501 7.301-1.354 11.06-1.497z" fill="#3B80B0"/><path fill-rule="evenodd" clip-rule="evenodd" d="M318.397 82.118a2.47 2.47 0 012.46 2.478 2.47 2.47 0 01-2.46 2.48 2.47 2.47 0 01-2.46-2.48 2.47 2.47 0 012.46-2.478zm97.614-10.658a2.469 2.469 0 012.459 2.479 2.469 2.469 0 01-2.459 2.478 2.47 2.47 0 01-2.461-2.478 2.47 2.47 0 012.461-2.48zm1.843 10.854a2.469 2.469 0 012.459 2.478 2.47 2.47 0 01-2.459 2.48 2.47 2.47 0 01-2.461-2.48 2.47 2.47 0 012.461-2.478zm1.043 10.966a2.468 2.468 0 012.459 2.479c0 1.369-1.1 2.478-2.459 2.478a2.469 2.469 0 01-2.46-2.478 2.469 2.469 0 012.46-2.479zm.49 11.007a2.468 2.468 0 012.459 2.478 2.469 2.469 0 01-2.459 2.479 2.469 2.469 0 01-2.46-2.479 2.469 2.469 0 012.46-2.478zm.017 11.016a2.469 2.469 0 012.459 2.478 2.47 2.47 0 01-2.459 2.48 2.47 2.47 0 01-2.46-2.48c0-1.368 1.1-2.478 2.46-2.478zm-.389 11.009a2.47 2.47 0 012.46 2.479 2.47 2.47 0 01-2.46 2.479 2.47 2.47 0 01-2.459-2.479 2.468 2.468 0 012.459-2.479zm-.761 10.991a2.47 2.47 0 012.459 2.479 2.47 2.47 0 01-2.459 2.479 2.47 2.47 0 01-2.46-2.479 2.47 2.47 0 012.46-2.479zm-1.102 10.961a2.47 2.47 0 012.459 2.479 2.47 2.47 0 01-2.459 2.479 2.47 2.47 0 01-2.461-2.479 2.47 2.47 0 012.461-2.479zm-1.406 10.926a2.468 2.468 0 012.459 2.478c0 1.369-1.1 2.478-2.459 2.478a2.469 2.469 0 01-2.46-2.478c0-1.369 1.1-2.478 2.46-2.478zm-1.732 10.878a2.47 2.47 0 012.46 2.478 2.47 2.47 0 01-2.46 2.48 2.469 2.469 0 01-2.459-2.48c0-1.368 1.1-2.478 2.459-2.478zm-1.979 10.836a2.469 2.469 0 012.46 2.478 2.469 2.469 0 01-2.46 2.479 2.469 2.469 0 01-2.459-2.479 2.468 2.468 0 012.459-2.478zm-2.273 10.776a2.469 2.469 0 012.46 2.479 2.469 2.469 0 01-2.46 2.478 2.47 2.47 0 01-2.46-2.478 2.47 2.47 0 012.46-2.479zm-2.506 10.724a2.47 2.47 0 012.46 2.479 2.469 2.469 0 01-2.46 2.478 2.468 2.468 0 01-2.459-2.478 2.47 2.47 0 012.459-2.479zm-2.73 10.666a2.47 2.47 0 012.46 2.478 2.47 2.47 0 01-2.46 2.48 2.469 2.469 0 01-2.459-2.48c0-1.368 1.1-2.478 2.459-2.478zm-59.232 1.218a2.469 2.469 0 012.459 2.479 2.468 2.468 0 01-2.459 2.478 2.47 2.47 0 01-2.461-2.478 2.47 2.47 0 012.461-2.479zm-3.49-9.775a2.47 2.47 0 012.461 2.479 2.47 2.47 0 01-2.461 2.478 2.469 2.469 0 01-2.459-2.478 2.469 2.469 0 012.459-2.479zm-2.787-10.006a2.468 2.468 0 012.459 2.478 2.47 2.47 0 01-2.459 2.479 2.47 2.47 0 01-2.46-2.479 2.469 2.469 0 012.46-2.478zm-2.457-10.096a2.47 2.47 0 012.461 2.478 2.47 2.47 0 01-2.461 2.479 2.469 2.469 0 01-2.459-2.479 2.469 2.469 0 012.459-2.478zm-2.244-10.145a2.469 2.469 0 012.46 2.478 2.469 2.469 0 01-2.46 2.479 2.468 2.468 0 01-2.459-2.479c0-1.369 1.1-2.478 2.459-2.478zm-2.093-10.177a2.468 2.468 0 012.459 2.478 2.47 2.47 0 01-2.459 2.479 2.47 2.47 0 01-2.46-2.479 2.469 2.469 0 012.46-2.478zm-1.979-10.201a2.468 2.468 0 012.459 2.479c0 1.369-1.1 2.478-2.459 2.478a2.47 2.47 0 01-2.46-2.478 2.47 2.47 0 012.46-2.479zm-1.887-10.22a2.469 2.469 0 012.459 2.478 2.469 2.469 0 01-2.459 2.479 2.469 2.469 0 01-2.46-2.479 2.47 2.47 0 012.46-2.478zm-1.809-10.233a2.47 2.47 0 012.46 2.479 2.47 2.47 0 01-2.46 2.479 2.47 2.47 0 01-2.46-2.479 2.47 2.47 0 012.46-2.479zm-1.743-10.245a2.469 2.469 0 012.459 2.478 2.47 2.47 0 01-2.459 2.479 2.47 2.47 0 01-2.46-2.479 2.47 2.47 0 012.46-2.478zm-1.685-10.254a2.469 2.469 0 012.46 2.479 2.47 2.47 0 01-2.46 2.478 2.47 2.47 0 01-2.46-2.478 2.47 2.47 0 012.46-2.479zm-1.631-10.265a2.47 2.47 0 012.46 2.479 2.47 2.47 0 01-2.46 2.479 2.47 2.47 0 01-2.46-2.479 2.47 2.47 0 012.46-2.479zM319.912 92.4a2.47 2.47 0 012.46 2.478 2.469 2.469 0 01-2.46 2.478 2.47 2.47 0 01-2.46-2.478 2.47 2.47 0 012.46-2.478z" fill="#666565"/><defs><linearGradient id="paint0_linear_315_2735" x1="354.991" y1="257.349" x2="221.624" y2="274.637" gradientUnits="userSpaceOnUse"><stop stop-color="#959FA4"/><stop offset=".27" stop-color="#fff"/><stop offset=".73" stop-color="#fff"/><stop offset="1" stop-color="#E1E7E9"/></linearGradient><linearGradient id="paint1_linear_315_2735" x1="357.155" y1="248.019" x2="220.677" y2="265.711" gradientUnits="userSpaceOnUse"><stop stop-color="#8A8F95"/><stop offset=".27" stop-color="#EBEBEC"/><stop offset=".73" stop-color="#EBEBEC"/><stop offset="1" stop-color="#C8CBCE"/></linearGradient><linearGradient id="paint2_linear_315_2735" x1="357.074" y1="262.314" x2="228.289" y2="287.519" gradientUnits="userSpaceOnUse"><stop stop-color="#2C6285"/><stop offset=".43" stop-color="#3D83B1"/><stop offset=".65" stop-color="#70B6E5"/><stop offset="1" stop-color="#3E87B8"/></linearGradient><linearGradient id="paint3_linear_315_2735" x1="356.591" y1="262.779" x2="254.341" y2="282.791" gradientUnits="userSpaceOnUse"><stop stop-color="#3B5E73"/><stop offset=".43" stop-color="#3E7494"/><stop offset=".65" stop-color="#639ABF"/><stop offset="1" stop-color="#407999"/></linearGradient><linearGradient id="paint4_linear_315_2735" x1="149.101" y1="209.336" x2="138.609" y2="189.278" gradientUnits="userSpaceOnUse"><stop stop-color="#D6D9DB"/><stop offset="1" stop-color="#999CA0"/></linearGradient><linearGradient id="paint5_linear_315_2735" x1="237.323" y1="198.261" x2="225.496" y2="175.65" gradientUnits="userSpaceOnUse"><stop stop-color="#D6D9DB"/><stop offset="1" stop-color="#999CA0"/></linearGradient><linearGradient id="paint6_linear_315_2735" x1="518.154" y1="188.644" x2="505.753" y2="164.938" gradientUnits="userSpaceOnUse"><stop stop-color="#D6D9DB"/><stop offset="1" stop-color="#999CA0"/></linearGradient><linearGradient id="paint7_linear_315_2735" x1="595.563" y1="194.345" x2="585.834" y2="175.746" gradientUnits="userSpaceOnUse"><stop stop-color="#D6D9DB"/><stop offset="1" stop-color="#999CA0"/></linearGradient><linearGradient id="paint8_linear_315_2735" x1="427.745" y1="123.929" x2="751.709" y2="167.216" gradientUnits="userSpaceOnUse"><stop stop-color="#959FA4"/><stop offset=".27" stop-color="#E9E9E9"/><stop offset=".73" stop-color="#fff"/><stop offset="1" stop-color="#E1E7E9"/></linearGradient><linearGradient id="paint9_linear_315_2735" x1="428.381" y1="119.114" x2="752.63" y2="162.439" gradientUnits="userSpaceOnUse"><stop stop-color="#8A8F93"/><stop offset=".27" stop-color="#E1E1E0"/><stop offset=".73" stop-color="#E1E1E0"/><stop offset="1" stop-color="#BEC2C4"/></linearGradient><linearGradient id="paint10_linear_315_2735" x1="401.338" y1="255.69" x2="537.915" y2="265.111" gradientUnits="userSpaceOnUse"><stop stop-color="#959FA4"/><stop offset=".27" stop-color="#fff"/><stop offset=".73" stop-color="#fff"/><stop offset="1" stop-color="#E1E7E9"/></linearGradient><linearGradient id="paint11_linear_315_2735" x1="400.104" y1="246.614" x2="538.421" y2="256.154" gradientUnits="userSpaceOnUse"><stop stop-color="#8A8F95"/><stop offset=".27" stop-color="#EBEBEC"/><stop offset=".73" stop-color="#EBEBEC"/><stop offset="1" stop-color="#C8CBCE"/></linearGradient><linearGradient id="paint12_linear_315_2735" x1="400.465" y1="260.736" x2="532.724" y2="278.459" gradientUnits="userSpaceOnUse"><stop stop-color="#2C6285"/><stop offset=".43" stop-color="#3D83B1"/><stop offset=".65" stop-color="#70B6E5"/><stop offset="1" stop-color="#3E87B8"/></linearGradient><linearGradient id="paint13_linear_315_2735" x1="401.1" y1="261.187" x2="512.307" y2="276.089" gradientUnits="userSpaceOnUse"><stop stop-color="#3B5E73"/><stop offset=".43" stop-color="#3E7494"/><stop offset=".65" stop-color="#639ABF"/><stop offset="1" stop-color="#407999"/></linearGradient><linearGradient id="paint14_linear_315_2735" x1="315.62" y1="145.923" x2="424.123" y2="142.396" gradientUnits="userSpaceOnUse"><stop stop-color="#3E87B8"/><stop offset=".23" stop-color="#35739A"/><stop offset=".54" stop-color="#71B4E4"/><stop offset="1" stop-color="#3F85B8"/></linearGradient><linearGradient id="paint15_linear_315_2735" x1="314.591" y1="122.35" x2="423.099" y2="118.823" gradientUnits="userSpaceOnUse"><stop stop-color="#6391B4"/><stop offset=".23" stop-color="#5283A5"/><stop offset=".54" stop-color="#7FBDE8"/><stop offset="1" stop-color="#6391B4"/></linearGradient><linearGradient id="paint16_linear_315_2735" x1="314.437" y1="104.521" x2="421.941" y2="101.027" gradientUnits="userSpaceOnUse"><stop stop-color="#88ACC5"/><stop offset=".23" stop-color="#809DAF"/><stop offset=".54" stop-color="#9BCCEF"/><stop offset="1" stop-color="#88AAC4"/></linearGradient><linearGradient id="paint17_linear_315_2735" x1="314.982" y1="249.896" x2="429.317" y2="246.18" gradientUnits="userSpaceOnUse"><stop stop-color="#37739D"/><stop offset=".23" stop-color="#346E90"/><stop offset=".54" stop-color="#3E87B8"/><stop offset="1" stop-color="#37739D"/></linearGradient><linearGradient id="paint18_linear_315_2735" x1="313.345" y1="226.815" x2="429.521" y2="223.039" gradientUnits="userSpaceOnUse"><stop stop-color="#6D91AB"/><stop offset=".23" stop-color="#688AA1"/><stop offset=".54" stop-color="#789FBE"/><stop offset="1" stop-color="#6D91AB"/></linearGradient><linearGradient id="paint19_linear_315_2735" x1="308.73" y1="126.384" x2="-3.339" y2="182.426" gradientUnits="userSpaceOnUse"><stop stop-color="#959FA4"/><stop offset=".27" stop-color="#fff"/><stop offset=".73" stop-color="#F1F2F1"/><stop offset="1" stop-color="#E1E7E9"/></linearGradient><linearGradient id="paint20_linear_315_2735" x1="308.773" y1="126.376" x2="-2.372" y2="182.252" gradientUnits="userSpaceOnUse"><stop stop-color="#8D9499"/><stop offset=".27" stop-color="#EDEEEE"/><stop offset=".73" stop-color="#EDEEEE"/><stop offset="1" stop-color="#CACDD0"/></linearGradient><linearGradient id="paint21_linear_315_2735" x1="306.625" y1="132.919" x2="42.099" y2="230.052" gradientUnits="userSpaceOnUse"><stop stop-color="#2C6285"/><stop offset=".43" stop-color="#3D83B1"/><stop offset=".65" stop-color="#70B6E5"/><stop offset="1" stop-color="#3E87B8"/></linearGradient><linearGradient id="paint22_linear_315_2735" x1="314.316" y1="141.866" x2="133.988" y2="208.082" gradientUnits="userSpaceOnUse"><stop stop-color="#435F71"/><stop offset=".43" stop-color="#477089"/><stop offset=".65" stop-color="#5C8EB2"/><stop offset="1" stop-color="#47738C"/></linearGradient><linearGradient id="paint23_linear_315_2735" x1="425.686" y1="133.139" x2="732.161" y2="215.228" gradientUnits="userSpaceOnUse"><stop stop-color="#2C6285"/><stop offset=".43" stop-color="#3D83B1"/><stop offset=".65" stop-color="#70B6E5"/><stop offset="1" stop-color="#3E87B8"/></linearGradient><linearGradient id="paint24_linear_315_2735" x1="422.455" y1="137.797" x2="644.314" y2="197.221" gradientUnits="userSpaceOnUse"><stop stop-color="#3B5E73"/><stop offset=".43" stop-color="#3E7494"/><stop offset=".65" stop-color="#639ABF"/><stop offset="1" stop-color="#407999"/></linearGradient><linearGradient id="paint25_linear_315_2735" x1="314.175" y1="104.427" x2="422.615" y2="99.495" gradientUnits="userSpaceOnUse"><stop stop-color="#959FA4"/><stop offset=".23" stop-color="#F6F7F7"/><stop offset=".54" stop-color="#fff"/><stop offset="1" stop-color="#E1E7E9"/></linearGradient><linearGradient id="paint26_linear_315_2735" x1="313.538" y1="90.165" x2="422.038" y2="85.231" gradientUnits="userSpaceOnUse"><stop stop-color="#CDD2D8"/><stop offset=".23" stop-color="#fff"/><stop offset=".54" stop-color="#fff"/><stop offset="1" stop-color="#F6F7F8"/></linearGradient><linearGradient id="paint27_linear_315_2735" x1="374.219" y1="196.534" x2="386.97" y2="195.912" gradientUnits="userSpaceOnUse"><stop stop-color="#959FA4"/><stop offset=".23" stop-color="#F6F7F7"/><stop offset=".54" stop-color="#fff"/><stop offset="1" stop-color="#E1E7E9"/></linearGradient></defs></svg>