<svg width="1470" height="867" fill="none" xmlns="http://www.w3.org/2000/svg"><g filter="url(#filter0_f_341_569)"><ellipse cx="735" cy="437" rx="535" ry="237" fill="#53B4DA"/></g><path d="M599.047 364.096c-6.63 8.703-19.806 11.83-32.188 6.997a55.903 55.903 0 01-7.218 10.418c-20.043 22.835-56.998 26.446-84.403 18.199-6.912-2.081-17.093-6.082-28.103-14.309a69.303 69.303 0 01-15.318 5.722 69.575 69.575 0 01-23.647 1.581c-13.137 5.104-24.858 7.694-34.182 9.066-10.054 1.478-54.721 7.04-91.053-17.534-12.326-8.337-15.767-14.779-16.957-20.218-2.506-11.438 3.586-24.619 9.366-28.371 1.988-1.291 6.508-4.08 11.376-9.402.768-.84 1.493-1.851 2.263-3.24 7.121-12.847-6.472-22.989-3.083-38.883 3.993-18.728 30.217-37.699 49.988-34.125 9.938 1.797 12.921 8.338 22.205 7.022 11.784-1.673 12.757-13.031 23.622-14.842 12.863-2.145 29.002 10.856 31.337 23.673 1.234 6.771-1.244 14.3-.247 14.515.755.161 1.217-4.2 4.568-7.355 4.371-4.112 12.299-4.88 18.546-2.077 6.072 2.725 10.993 9.02 10.799 15.245-.227 7.28-7.38 12.307-6.76 12.929.643.648 6.86-6.1 15.558-10.539 12.378-6.317 25.722-2.565 27.602-2.008 15.159 4.494 24.095 18.019 25.093 19.573 3.236 5.04 3.569 7.851 6.896 9.124 5.6 2.143 9.546-3.959 21.909-6.82 5.201-1.203 11.068-2.562 17.458-.09 9.108 3.52 12.99 12.117 13.313 12.861 2.929 6.756.477 10.435 3.438 12.523 3.955 2.787 9.059-3.393 18.852-1.708 1.916.33 6.385.987 9.608 4.124 6.374 6.207 5.6 19.761-.638 27.949z" fill="#E9F4F6"/><path d="M551.338 344.195c-6.292-3.365-17.159-9.174-30.142-11.07-21.719-3.172-27.43 7.813-45.237 3.745-15.263-3.487-16.198-12.729-30.68-18.433-10.697-4.214-27.569-6.021-53.89 6.323-3.219-3.328-9.382-8.731-18.588-11.462-15.809-4.689-36.062-.156-44.196 12.174-8.412 12.754 1.341 25.969-8.781 35.537-6.344 5.997-15.846 6.164-17.659 6.195-13.271.233-20.809-8.976-24.475-6.195-3.086 2.341-1.509 11.728 2.529 18.843 14.988 26.397 66.442 26.011 93.769 21.921a160.622 160.622 0 0034.182-9.066c5.701.591 14.033.759 23.647-1.581a69.232 69.232 0 0015.319-5.722c11.009 8.228 21.19 12.229 28.102 14.309 27.405 8.247 64.36 4.636 84.403-18.199a55.903 55.903 0 007.218-10.418c3.965 1.501 10.003 3.012 16.997 1.808 3.318-.571 13.475-2.321 15.191-8.805.907-3.43-.608-7.948-3.497-9.284-3.277-1.517-6.343 1.975-10.843 3.408-9.699 3.083-18.167-5.903-33.369-14.028z" fill="#CEEAF0"/><path d="M604.899 337.441c-.864-1.183-4.416-5.786-10.884-7.794-5.781-1.796-10.687-.524-14.128.369a33.059 33.059 0 00-8.565 3.572c.441-3.248 1.274-12.736-4.708-20.598-10.286-13.514-30.738-9.098-32.742-8.633-9.561 2.216-15.838 7.801-18.705 10.739-.753-2.886-5.791-20.997-23.607-29.778-4.281-2.11-15.739-6.854-29.304-3.371-6.044 1.552-10.542 4.233-13.311 6.188.218-9.502-5.441-17.87-13.655-20.646-9.613-3.249-17.948 2.776-18.708 3.345.058-1.005.931-22.733-16.866-34.59-15.029-10.015-31.265-4.921-32.823-4.403-11.452 3.81-17.598 12.076-19.553 14.962-2.282-.896-26.63-9.98-48.731 4.752-17.273 11.515-25.378 32.387-22.561 50.573 1.271 8.202 4.55 14.441 6.943 18.218a39.929 39.929 0 00-11.31 7.652c-2.113 2.04-7.006 6.851-9.618 14.733-1.051 3.17-4.362 13.079.576 23.192 4.872 9.979 15.087 14.665 15.68 14.015.266-.293-1.38-1.729-3.2-4.491-.997-1.509-5.63-8.853-5.14-18.463.597-11.695 8.395-19.18 10.552-21.103 6.344-5.657 13.273-7.235 16.34-7.744-.896-4.49-3.044-18.301 4.372-32.899.961-1.893 10.487-19.922 31.215-25.522 8.985-2.427 16.822-1.639 20.849-.962 12.982 2.184 17.567 9.203 33.131 13.198a71.908 71.908 0 0014.997 2.195 60.202 60.202 0 0010.406 13.828c3.329 3.3 5.719 5.703 9.379 7.034 9.441 3.433 17.921-1.591 19.149-2.345 3.679-2.476 14.301-8.918 29.115-8.421 6.694.224 19.051 2.025 29.896 11.548 9.391 8.244 12.849 18.061 14.069 22.276 1.721-1.8 12-12.216 27.016-11.335 3.022.177 11.031.766 17.921 7.027 8.986 8.167 9.021 19.574 8.994 21.502 1.475-1.849 5.098-5.846 11.035-7.446 7.25-1.954 17.297-.025 22.138 7.731 3.429 5.493 2.853 14.169-1.609 18.416a9.329 9.329 0 01-1.222.977 9.37 9.37 0 001.421-.699c2.063-1.196 8.008-4.642 9.661-11.552 1.786-7.456-2.698-13.594-3.905-15.247z" fill="#fff"/><path d="M358.189 376.572c12.31-.413 23.748-8.845 29.507-21.566 10.303 8.088 17.606 8.69 22.298 7.834 11.784-2.147 12.687-14.499 28.07-19.634 11.616-3.877 23.156-1.459 23.156-1.459 8.65 1.813 13.912 5.901 19.771 3.41 3.732-1.588 5.831-5.046 6.982-7.53-2.417-.311-4.179-.992-5.273-1.503-5.02-2.35-8.616-6.774-10.928-10.474-4.464-4.218-12.588-10.664-24.439-14.152-19.524-5.745-35.98.419-41.118 2.609a60.935 60.935 0 00-13.498 7.951 44.7 44.7 0 00-.53-8.176c-.324-2.047-1.954-12.346-8.195-19.708-8.385-9.896-24.089-13.304-36.946-9.248-14.48 4.568-20.848 17.048-22.939 21.15-8.234 16.137-6.535 36.193 3.381 50.794 3.656 5.384 13.768 20.27 30.701 19.702z" fill="#E9F4F6"/><path d="M339.329 370.253l.159-.161c-9.286-8.476-16.285-22.014-13.543-30.465.394-1.215 1.658-5.111 5.053-6.73 3.546-1.689 5.969.748 9.882.76 9.854.033 11.805-15.363 23.945-17.864 6.416-1.321 11.853 1.746 13.213 2.512 8.366 4.721 10.423 13.724 10.77 15.371 3.347-3.138 9.056-7.717 17.229-10.921 13.443-5.269 25.64-3.646 31.704-2.408 11.123 2.269 20.315 8.006 24.24 10.715 8.704 6.01 13.739 12.385 19.901 10.971 2.845-.652 4.837-2.718 6.094-4.408-2.416-.311-4.179-.991-5.272-1.503-5.021-2.349-8.617-6.774-10.929-10.473-7.8-12.163-25.634-16.58-27.603-17.068-13.652-3.38-25.568.862-32.597 3.363a71.88 71.88 0 00-18.855 10.112 44.705 44.705 0 00-.53-8.176c-.324-2.047-1.963-12.337-8.195-19.707-8.085-9.562-23.621-13.452-36.946-9.249-14.48 4.569-20.848 17.049-22.939 21.15-12.513 24.527 2.726 49.733 3.382 50.795 1.952 3.17 5.718 8.338 11.837 13.384zM498.556 369c-.061-.86-.158-3.721 1.786-6.224 2.399-3.089 6.116-3.327 7.43-3.411 4.226-.271 7.271 1.885 8.166 2.57-.038-1.122-.08-5.977 3.561-10.109 3.293-3.737 7.48-4.477 9.008-4.724 1.045-.169 8.903-1.317 13.173 3.812 2.432 2.922 2.775 6.771 2.85 7.614a15.02 15.02 0 01-.119 3.623c.297-.457 2.768-4.109 7.342-4.461 4.394-.34 7.267 2.635 7.958 3.35 4.112 4.256 3.049 10.184 2.923 10.821 3.066-.931 6.37.018 8.351 2.385 2.242 2.678 2.379 6.677.257 9.66a33.658 33.658 0 01-2.703 2.13c-.643.457-7.39 5.138-15.893 6.208-12.591 1.585-16.221-6.367-29.299-3.843-3.425.662-2.487 1.073-6.485 1.921-2.529.536-17.616 3.737-27.771-4.732-2.138-1.783-6.214-5.263-5.801-10.043.297-3.434 2.881-7.116 6.89-8.227 4.376-1.207 7.928 1.347 8.376 1.68z" fill="#fff"/><path d="M523.687 376.12c-6.829 1.642-11.314 5.743-13.428 8-.327-.597-3.556-6.283-9.609-6.744-3.896-.297-8.948 1.572-9.547 4.708-.612 3.205 3.68 6.399 4.592 7.077 6.543 4.869 12.383 2.137 28.459 2.932 9.584.473 11.92 1.664 19.736.844 11.295-1.182 13.999-4.461 14.98-6.349.176-.339 1.246-2.474.769-5.078-.899-4.908-6.453-6.867-7.052-7.069-.746-.25-6.135-2.058-9.537 1.217-1.655 1.593-2.075 3.653-2.204 4.641-1.019-1.129-2.752-2.745-5.305-3.852-4.721-2.043-9.111-.987-11.854-.327z" fill="#E9F4F6"/><path fill-rule="evenodd" clip-rule="evenodd" d="M714.001 484.106c-34.117 10.979-84.502 24.992-115.439 42.214-3.04 1.693-3.3 6.163-4.861 9.289-2.716 5.434-5.315 10.927-7.974 16.391 25.058-4.623 50.058-9.574 75.172-13.87 21.113-3.612 42.333-6.572 63.499-9.858l-10.397-44.166z" fill="url(#paint0_linear_341_569)"/><path fill-rule="evenodd" clip-rule="evenodd" d="M707.019 486.327l-1.294.408-.295.092-1.423.448-.183.057-1.554.487-.069.021-1.639.512-.048.015-1.606.5-.165.052-1.503.468-.286.089-1.396.434-.408.127-1.288.401-.531.166-1.176.366-.658.204-1.062.331-.784.243-.946.296-.913.285-.828.258-1.042.326-.709.221-1.172.367-.587.185-1.303.408-.465.148-1.435.45-.341.107-1.568.496-.214.067-1.701.54-.09.027-1.795.571-.038.012-1.763.563-.166.053-1.639.526-.294.094-1.515.488-.423.137-1.389.449-.553.18-.149.049-3.531 1.155-.208.068-1.006.332-.941.312-.877.291-1.069.356-.748.25-1.198.403-.071.023-1.579.534-.295.099-.489.167-1.452.495-1.503.516-.436.149-.231.08-1.704.591-.104.036-1.801.631-.026.009-1.772.625-.152.053-.578.206c-1.075.384-2.149.767-3.217 1.155l-.139.05-1.716.626-.082.029-1.243.457-.651.241-1.112.414-.772.289-.383.144-1.21.457-.532.202-1.324.505-.473.182-1.626.63-.059.023-1.596.626-.331.131-1.383.55-.422.17c-1.156.464-2.303.928-3.439 1.399l-.072.029-.106.044-1.66.69-.011.006-1.632.69-.127.054-1.732.744-.078.035-1.585.692-.268.119-1.368.609-.605.272-.89.404-.808.369-.864.399-.756.353-.759.357-.91.434-.709.34-.687.333-.93.456-.692.342-.847.424-.628.317-.931.476-.561.288-.764.401-.804.424-.027.014-1.293.694-.004.004c-.492.267-.977.533-1.46.801l-.083.048-.057.034-.104.065-.031.02-.049.031-.078.053-.006.005-.07.049-.059.044-.015.012-.074.057-.036.028-.037.03-.072.059-.014.012-.056.05-.062.053-.007.008-.108.101-.027.025-.065.066-.019.018-.046.048-.061.066-.001.001-.064.068-.042.047-.018.022-.06.07-.024.027-.036.045-.058.072-.005.006-.051.067-.046.059-.011.016-.055.077-.026.036-.028.04-.052.078-.01.014-.043.064-.045.07-.006.009-.051.08-.029.047-.02.034-.05.081-.013.023-.034.06-.047.081-.001.002-.046.084-.031.057-.015.027-.044.086-.017.031-.029.054-.042.087-.005.006-.038.081-.034.068-.008.02-.043.089-.019.042-.022.047-.04.09-.007.016-.034.074-.034.08-.005.011-.039.092-.022.052-.016.04-.039.093-.009.025-.028.068-.036.091-.001.003-.037.093-.025.064-.012.03-.035.095-.013.035-.023.061-.035.095-.002.006-.033.09-.025.073-.007.023-.035.096-.015.044-.019.052-.032.097-.006.015-.028.082-.029.083-.005.013-.033.098c26.342-15.126 63.807-32.23 90.778-21.578 8.164-2.726 16.34-5.417 24.492-8.176l-.23-.951a655.007 655.007 0 01-3.271-14.331z" fill="url(#paint1_linear_341_569)"/><path fill-rule="evenodd" clip-rule="evenodd" d="M639.388 526.599c25.592-10.379 52.061-18.398 78.167-27.397l6.844 29.071c-21.166 3.287-42.386 6.247-63.499 9.859-9.868 1.688-19.717 3.477-29.56 5.307 2.284-7.073 5.451-15.788 8.048-16.84z" fill="url(#paint2_linear_341_569)"/><path fill-rule="evenodd" clip-rule="evenodd" d="M686.03 509.778l.383-.127.383-.127.075-.025.307-.103.383-.128.383-.127.155-.051.228-.076.384-.127.382-.127.236-.079.147-.049.382-.127.383-.128.315-.104.068-.022.383-.129.383-.126.383-.127.012-.004.371-.124.383-.128.384-.126.092-.031.291-.097.383-.127.383-.127.171-.057.21-.07.383-.128.383-.126.253-.084.13-.044.383-.127.383-.128.333-.109.05-.018.383-.127.384-.127.383-.127.029-.009.354-.118.383-.127.382-.128.11-.036.273-.092.382-.128.383-.127.191-.064.192-.063.383-.128.383-.127.269-.09.114-.037.382-.129.383-.128.35-.116.033-.011.383-.127.383-.128.382-.127.048-.017.335-.111.383-.129.382-.127.127-.043.255-.085.383-.129.382-.128.207-.069.176-.059.382-.128.383-.129.287-.096.095-.032.383-.129.382-.128.367-.124.015-.005.381-.13.383-.128.383-.129.064-.022.318-.107c1.931 7.954 4.039 15.861 6.384 23.699a23.652 23.652 0 001.553 3.886l-.014.002-.179.028-.194.029-.194.031-.194.029-.194.028-.037.007-.158.024-.194.03-.193.029-.194.03-.194.03-.059.007-.136.021-.193.03-.194.029-.193.029-.196.03-.08.012-.113.017-.194.03-.193.029-.195.03-.194.029-.104.015-.089.014-.194.029-.194.029-.195.03-.193.03-.127.018-.068.011-.193.029-.194.029-.194.029-.194.029-.149.023-.045.007-.194.029-.193.029-.195.03-.194.03-.171.025-.216.033-.195.029-.194.03-.193.03-.194.028-.195.029-.193.03-.194.029-.194.03-.194.03-.022.002-.172.026-.195.029-.194.028-.194.03-.194.028-.046.009-.149.022-.194.029-.193.029-.194.029-.195.029-.067.011-.126.018-.194.03-.194.029-.195.029-.193.029-.09.013-.104.016-.194.029-.194.03c-3.412-7.596-7.884-14.62-13.744-18.179a41.064 41.064 0 00-6.275-3.114z" fill="url(#paint3_linear_341_569)"/><path fill-rule="evenodd" clip-rule="evenodd" d="M503.144 464.581c9.154 0 16.622-7.524 16.622-16.749 0-9.225-7.467-16.75-16.622-16.75-9.155 0-16.621 7.524-16.621 16.75.001 9.224 7.466 16.749 16.621 16.749z" fill="url(#paint4_linear_341_569)"/><path d="M590.483 453.921c10.348 0 18.736-8.453 18.736-18.881 0-10.427-8.388-18.881-18.736-18.881s-18.737 8.454-18.737 18.881c0 10.428 8.389 18.881 18.737 18.881z" fill="url(#paint5_linear_341_569)"/><path fill-rule="evenodd" clip-rule="evenodd" d="M870.933 444.483c10.82 0 19.645-8.893 19.645-19.796 0-10.904-8.824-19.796-19.645-19.796-10.819 0-19.643 8.892-19.643 19.796 0 10.903 8.824 19.796 19.643 19.796z" fill="url(#paint6_linear_341_569)"/><path fill-rule="evenodd" clip-rule="evenodd" d="M950.111 449.353c8.489 0 15.412-6.977 15.412-15.531 0-8.555-6.923-15.531-15.412-15.531-8.488 0-15.412 6.976-15.412 15.531.001 8.554 6.924 15.531 15.412 15.531z" fill="url(#paint7_linear_341_569)"/><path fill-rule="evenodd" clip-rule="evenodd" d="M950.111 424.382c5.175 0 9.37 4.227 9.37 9.442 0 5.214-4.195 9.441-9.37 9.441-5.174 0-9.369-4.227-9.369-9.441 0-5.215 4.195-9.442 9.369-9.442zm-446.966 12.792c5.84 0 10.576 4.771 10.576 10.658s-4.735 10.658-10.576 10.658c-5.842 0-10.577-4.771-10.577-10.658 0-5.886 4.735-10.658 10.577-10.658zm87.338-14.924c7.01 0 12.692 5.726 12.692 12.79 0 7.065-5.682 12.792-12.692 12.792s-12.693-5.727-12.693-12.792c0-7.063 5.683-12.79 12.693-12.79zm280.45-10.049c6.844 0 12.391 5.589 12.391 12.486 0 6.896-5.547 12.486-12.391 12.486-6.843 0-12.39-5.59-12.39-12.486 0-6.896 5.547-12.486 12.39-12.486z" fill="#525252"/><path fill-rule="evenodd" clip-rule="evenodd" d="M958.569 429.758c-.677 4.542-4.567 8.024-9.263 8.024-3.73 0-6.951-2.196-8.458-5.376.678-4.542 4.567-8.024 9.264-8.024 3.73 0 6.95 2.196 8.457 5.376zm-455.424 7.416c4.341 0 8.07 2.635 9.7 6.404-.605 5.308-5.077 9.43-10.507 9.43-4.341 0-8.07-2.636-9.7-6.405.606-5.307 5.077-9.429 10.507-9.429zm87.338-14.924c5.41 0 10.027 3.409 11.855 8.212-.46 6.643-5.952 11.888-12.661 11.888-5.41 0-10.027-3.409-11.855-8.212.46-6.643 5.952-11.888 12.661-11.888zm280.45-10.049c5.257 0 9.749 3.299 11.55 7.955-.483 6.451-5.831 11.534-12.355 11.534-5.257 0-9.749-3.3-11.549-7.956.482-6.451 5.83-11.533 12.354-11.533z" fill="#646565"/><path fill-rule="evenodd" clip-rule="evenodd" d="M782.82 398.532l227.39 40.93c31.06 4.475 63.75 8.801 95.54 13.243 1.41.195 3.69-1.556 3.18-2.893-3.53-9.15-8.23-17.982-14.21-25.735-2.34-3.033-6.29-4.658-9.97-5.635-100.7-26.668-201.876-51.466-302.815-77.2l.885 57.29z" fill="url(#paint8_linear_341_569)"/><path fill-rule="evenodd" clip-rule="evenodd" d="M782.82 398.532l12.482 2.247c4.188-19.423 11.898-39.318 23.039-38.839 27.983 1.206 182.549 38.704 280.419 67.833a87.164 87.164 0 00-4.04-5.696c-2.34-3.033-6.29-4.658-9.97-5.635-100.7-26.668-201.876-51.466-302.815-77.2l.885 57.29z" fill="url(#paint9_linear_341_569)"/><path fill-rule="evenodd" clip-rule="evenodd" d="M765.249 482.544c34.713 8.881 85.847 19.799 117.76 35.104 3.136 1.503 3.663 5.951 5.41 8.975 3.037 5.259 5.961 10.584 8.942 15.875-25.289-3.088-50.541-6.505-75.866-9.265-21.291-2.319-42.649-3.981-63.974-5.971l7.728-44.718z" fill="url(#paint10_linear_341_569)"/><path fill-rule="evenodd" clip-rule="evenodd" d="M772.352 484.335l1.316.328.299.074 1.448.359.186.046 1.58.391.071.017 1.667.411.047.012 1.635.402.166.042 1.529.375.29.072 1.421.35.414.101 1.311.321.541.133 1.195.294.668.164 1.08.266.798.195.962.237.928.228.843.208 1.059.262.721.178 1.192.294.598.149 1.326.328.472.119 1.46.362.347.087 1.594.399.219.054 1.73.435.09.022 1.827.46.038.01 1.793.455.168.043 1.668.424.299.077 1.541.395.431.11 1.413.365.562.146.152.04 3.595.937.21.055 1.024.271.958.254.892.237 1.09.291.761.204 1.22.329.072.018 1.609.436.299.082.498.136 1.479.406 1.532.423.443.123.235.066 1.736.486.104.029 1.837.52.026.007 1.807.516.154.044.59.17c1.096.318 2.191.636 3.28.958l.141.041 1.751.52.084.025 1.268.381.664.2 1.135.346.788.241.391.121 1.235.382.543.168 1.352.424.484.153 1.661.529.059.019 1.631.528.339.111 1.414.464.431.143c1.182.393 2.354.787 3.517 1.187l.072.025.109.037 1.698.588.012.005 1.671.589.13.047 1.772.637.081.029 1.624.595.275.103 1.402.524.621.236.912.347.828.321.887.345.775.306.779.31.934.377.728.297.706.29.955.399.711.299.87.372.646.278.959.419.576.253.787.354.829.374.027.012 1.332.615.004.002c.508.237 1.009.473 1.506.712l.087.042.058.03.109.059.033.018.048.028.082.048.007.004.072.045.062.04.015.01.078.052.038.026.038.027.075.055.015.01.059.047.065.05.007.007.114.094.027.023.071.062.019.018.049.044.066.062.001.001.066.064.046.045.019.02.064.068.025.025.038.042.063.069.004.006.056.064.049.055.013.016.06.072.028.036.03.038.058.073.01.014.046.061.05.067.007.008.055.077.032.046.023.032.054.079.014.021.038.058.051.079.001.002.051.08.035.056.015.025.051.083.018.031.031.052.048.083.005.006.044.079.037.065.011.02.047.086.022.04.025.046.045.087.008.016.038.072.039.077.006.011.044.089.025.05.017.039.044.09.012.025.031.066.041.088.001.003.042.092.028.061.014.029.04.093.016.035.026.058.041.093.003.006.038.087.03.071.009.023.04.094.017.044.022.051.038.095.008.015.032.079.034.082.005.013.039.095c-27.201-13.493-65.624-28.282-91.907-16.007-8.312-2.223-16.634-4.412-24.938-6.668l.174-.964a616.098 616.098 0 002.411-14.499z" fill="url(#paint11_linear_341_569)"/><path fill-rule="evenodd" clip-rule="evenodd" d="M842.275 520.413c-26.167-8.801-53.07-15.193-79.667-22.585l-5.086 29.434c21.324 1.99 42.682 3.652 63.974 5.971 9.95 1.084 19.889 2.27 29.825 3.497-2.707-6.919-6.389-15.425-9.046-16.317z" fill="url(#paint12_linear_341_569)"/><path fill-rule="evenodd" clip-rule="evenodd" d="M794.71 506.464l-.39-.104-.39-.105-.076-.019-.313-.084-.39-.105-.39-.104-.157-.041-.232-.062-.39-.105-.389-.103-.239-.064-.151-.04-.389-.103-.389-.104-.321-.085-.07-.018-.389-.104-.39-.102-.389-.106-.012-.003-.378-.101-.389-.103-.39-.104-.095-.025-.296-.079-.389-.104-.39-.103-.175-.047-.215-.057-.39-.105-.389-.103-.258-.069-.133-.036-.389-.102-.39-.105-.338-.09-.051-.014-.39-.104-.389-.103-.39-.103-.03-.009-.36-.095-.39-.105-.389-.103-.112-.03-.278-.074-.389-.103-.39-.105-.193-.051-.197-.052-.389-.104-.39-.104-.275-.073-.116-.031-.388-.104-.39-.104-.356-.095-.033-.009-.39-.104-.39-.104-.388-.105-.049-.013-.341-.091-.39-.105-.389-.104-.129-.035-.26-.071-.39-.104-.389-.104-.211-.056-.179-.049-.389-.105-.389-.104-.293-.08-.096-.027-.39-.104-.388-.104-.375-.102-.016-.004-.388-.106-.389-.105-.39-.105-.065-.018-.323-.088c-1.452 8.057-3.08 16.078-4.95 24.045a23.654 23.654 0 01-1.318 3.973l.016.001.18.017.196.017.195.017.196.018.195.018.038.003.157.015.196.017.195.018.195.018.195.017.06.005.136.013.196.018.195.017.196.018.196.017.082.007.113.01.195.018.195.016.196.018.195.018.106.009.09.008.195.017.196.017.195.018.195.017.127.012.07.006.195.017.195.017.195.017.196.017.149.014.047.005.195.016.195.018.196.017.195.018.173.014.218.02.197.017.195.017.195.018.196.017.196.017.195.017.195.018.196.016.195.018.022.002.173.014.196.018.195.017.195.018.196.017.046.004.15.013.196.017.195.017.195.017.196.017.068.006.127.011.195.018.196.017.195.016.196.018.091.008.105.009.196.017.195.017c2.95-7.788 6.993-15.073 12.627-18.983a41.327 41.327 0 016.061-3.477z" fill="url(#paint13_linear_341_569)"/><path fill-rule="evenodd" clip-rule="evenodd" d="M712.123 255.513c7.577-3.336 17.57-5.297 24.781-1.218 38.348 21.693 50.836 63.543 51.979 109.634.679 27.367-4.969 54.555-9.066 81.618-4.018 26.53-8.351 53.112-15.263 79.029-1.307 4.901-4.462 10.124-9.065 12.181-7.029 3.14-15.628 4.436-22.969 2.132-6.189-1.942-10.643-8.058-13.901-13.705-17.553-30.416-39.397-82.975-43.216-117.552-3.332-30.166-7.595-59.982.302-91.059 3.627-14.275 6.971-29.092 14.505-41.722 5.002-8.385 13.016-15.422 21.913-19.338z" fill="url(#paint14_linear_341_569)"/><path fill-rule="evenodd" clip-rule="evenodd" d="M715.5 264.696c5.811-2.559 13.477-4.063 19.008-.934 29.416 16.639 38.994 48.741 39.87 84.094.52 20.992-3.811 41.847-6.954 62.605-3.082 20.349-6.405 40.739-11.707 60.619-1.003 3.76-3.423 7.765-6.955 9.345-5.391 2.407-11.987 3.402-17.617 1.634-4.746-1.489-8.164-6.181-10.664-10.511-13.463-23.331-30.217-63.647-33.148-90.169-2.556-23.138-5.825-46.008.232-69.846 2.782-10.95 5.349-22.314 11.126-32.002 3.837-6.434 9.984-11.83 16.809-14.835z" fill="url(#paint15_linear_341_569)"/><path fill-rule="evenodd" clip-rule="evenodd" d="M720.757 272.196c3.942-1.957 9.141-3.108 12.892-.714 19.953 12.73 26.45 37.286 27.044 64.332.353 16.058-2.585 32.011-4.716 47.892-2.091 15.567-4.345 31.166-7.942 46.373-.682 2.877-2.322 5.942-4.717 7.149-3.657 1.842-8.132 2.603-11.95 1.25-3.22-1.139-5.538-4.727-7.233-8.041-9.132-17.848-20.497-48.688-22.484-68.978-1.734-17.701-3.951-35.197.157-53.432 1.888-8.377 3.627-17.071 7.546-24.482 2.603-4.92 6.773-9.05 11.403-11.349z" fill="url(#paint16_linear_341_569)"/><path fill-rule="evenodd" clip-rule="evenodd" d="M770.426 499.735l-.078.369-.005.022-.082.39-.081.39-.084.39-.007.038-.075.352-.083.389-.083.391-.022.099-.148.681-.083.39-.035.158-.051.232-.085.39-.084.389-.049.217-.037.174-.173.779-.061.276-.026.114-.087.389-.086.389-.076.336-.012.053-.088.389-.177.778-.001.007-.087.382-.09.389-.089.388-.015.065-.076.324-.089.388-.091.388-.029.125-.063.264-.091.388-.092.388-.043.185-.048.204-.093.388-.092.388-.057.243-.036.145-.092.389-.094.387-.073.302-.02.085-.093.387-.094.388-.09.361-.005.026-.096.388-.094.388-.097.387-.008.033-.087.353-.096.388-.097.387-.023.091-.074.296-.098.387-.098.386-.038.151-.06.235-.197.773-.054.21-.045.176-.201.773-.069.269-.03.117-.101.386-.1.386-.086.327-.015.059-.102.386-.102.385-.103.386-.003.01-.003.011-.003.01-.003.01-.003.011-.003.01-.003.01-.004.011-.003.01-.002.011-.004.01-.003.011-.002.01-.004.01-.003.01-.002.011-.003.01-.004.01-.003.011-.003.011-.003.009-.003.012-.001.001-.002.009-.003.009-.004.011-.003.011-.003.009-.002.011-.008.021-.002.01-.003.011-.004.01-.006.021-.003.01-.003.01-.003.011-.004.01-.003.011-.003.01-.003.01-.004.011-.002.01-.002.003-.002.008-.004.01-.002.01-.003.011-.004.01-.004.01-.002.011-.007.021-.003.01-.006.021-.003.011-.004.01-.003.01-.003.011-.003.01-.004.01-.004.011-.003.01c-5.319-11.564-12.574-21.84-23.236-21.224-10.717.62-16.733 13.774-19.604 25.743l-.047-.065-.004-.004-.049-.07-.05-.07-.048-.071-.033-.046-.017-.026-.048-.07-.05-.071-.047-.071-.017-.025-.031-.045-.048-.071-.048-.072-.049-.07-.004-.005-.045-.066-.047-.07-.047-.072-.038-.054-.011-.016-.047-.072-.047-.071-.048-.071-.023-.036-.025-.036-.046-.071-.047-.072-.047-.071-.009-.016-.038-.057-.046-.073-.047-.071-.041-.065-.004-.006-.045-.071-.094-.145-.027-.045-.019-.027-.044-.071-.046-.073-.045-.072-.014-.023-.032-.048-.045-.073-.044-.07-.045-.073-.001-.003-.043-.071-.045-.071-.044-.071-.033-.053-.012-.018-.044-.072-.043-.072-.043-.072-.02-.033-.024-.04-.044-.071-.043-.072-.043-.071-.007-.012-.036-.06-.043-.071-.043-.072-.037-.063-.006-.009-.041-.071-.043-.072-.042-.072-.025-.042-.017-.029-.043-.072-.041-.072-.042-.071-.012-.02-.029-.051-.042-.071-.041-.071-.04-.071-.497-.865-.125-.217-.124-.219-.08-.141-.045-.078-.126-.22-.5-.887-.125-.224-.037-.065-.089-.159-.125-.225-.127-.225-.252-.453-.127-.228-.117-.212-.008-.015-.126-.23-.005-.008-.503-.915-.126-.231-.073-.135-.054-.099-.127-.234-.509-.941-.127-.237-.028-.051-.099-.186-.639-1.197-.111-.208-.018-.032-.129-.243-.512-.973-.129-.244-.066-.126-.063-.12-.128-.246-.129-.246-.128-.247-.128-.248-.129-.248-.129-.249-.02-.036-.109-.212-.128-.25-.62-1.207-.027-.052-.128-.253-.259-.508-.129-.255c4.16-16.148 13.867-37.12 29.745-39.564 13.78-2.125 23.591 14.851 30.213 29.211z" fill="url(#paint17_linear_341_569)"/><path fill-rule="evenodd" clip-rule="evenodd" d="M725.884 478.796c4.053-4.342 8.824-7.429 14.339-8.278 5.179-.798 9.796 1.107 13.894 4.556-1.27 2.313-3.082 4.334-5.354 5.35-5.392 2.407-11.988 3.402-17.618 1.634-1.972-.618-3.717-1.792-5.261-3.262z" fill="url(#paint18_linear_341_569)"/><path fill-rule="evenodd" clip-rule="evenodd" d="M681.101 410.753l-6.602-67.682c-98.722 30.454-197.701 60.075-296.165 91.361-6.739 2.142-15.303 19.769-17.225 25.581-.574 1.735 1.224 4.824 3.021 4.569 25.061-3.573 50.095-7.33 75.111-11.203l241.86-42.626z" fill="url(#paint19_linear_341_569)"/><path fill-rule="evenodd" clip-rule="evenodd" d="M681.101 410.753l-6.602-67.682c-84.621 26.103-169.433 51.597-253.946 78.051 56.732-16.876 114.225-33.206 165.692-42.555 34.978-6.352 75.069-5.261 81.965 34.458l12.891-2.272z" fill="url(#paint20_linear_341_569)"/><path fill-rule="evenodd" clip-rule="evenodd" d="M677.54 374.236c-73.56 18.169-147.289 35.67-220.631 54.716-2.01.521-3.633 2.252-4.836 3.958-4.672 6.629-8.87 13.583-13.105 20.511 80.902-12.524 161.622-26.283 242.482-39.088l-3.91-40.097z" fill="url(#paint21_linear_341_569)"/><path fill-rule="evenodd" clip-rule="evenodd" d="M677.54 374.236a16605.365 16605.365 0 01-31.12 7.65c11.694 5.894 20.119 16.574 22.282 34.474l12.749-2.026-3.911-40.098z" fill="url(#paint22_linear_341_569)"/><path fill-rule="evenodd" clip-rule="evenodd" d="M782.442 374.058l.498 32.26c75.777 10.896 151.482 22.318 227.27 33.143-3.85-9.016-6.68-17.944-16.729-20.258-70.106-16.139-140.669-30.2-211.039-45.145z" fill="url(#paint23_linear_341_569)"/><path fill-rule="evenodd" clip-rule="evenodd" d="M782.442 374.058l.498 32.26 10.971 1.583c1.76-10.074 4.517-21.002 8.252-29.677a9886.657 9886.657 0 01-19.721-4.166z" fill="url(#paint24_linear_341_569)"/><path fill-rule="evenodd" clip-rule="evenodd" d="M788.884 363.928c-1.143-46.09-13.631-87.94-51.979-109.634-7.211-4.079-17.204-2.118-24.781 1.218-8.898 3.916-16.911 10.953-21.914 19.338-7.533 12.63-10.878 27.448-14.505 41.723-7.897 31.076-3.634 60.892-.302 91.058 1.608 14.559 6.412 32.307 12.745 50.246.842-35.275 27.306-85.183 46.635-87.249 10.56-1.127 36.619 29.903 47.602 58.745 3.527-21.717 7.043-43.523 6.499-65.445z" fill="url(#paint25_linear_341_569)"/><path fill-rule="evenodd" clip-rule="evenodd" d="M696.752 418.895c9.571-24.926 25.339-46.91 38.031-48.266 7.266-.776 21.867 13.669 33.847 32.152 2.933-18.221 6.205-36.52 5.749-54.925-.877-35.353-10.455-67.455-39.87-84.094-5.531-3.129-13.197-1.625-19.008.934-6.825 3.005-12.972 8.401-16.808 14.835-5.778 9.687-8.344 21.051-11.127 32.002-6.057 23.837-2.787 46.707-.231 69.845 1.202 10.891 4.736 24.106 9.417 37.517z" fill="url(#paint26_linear_341_569)"/><path fill-rule="evenodd" clip-rule="evenodd" d="M709.183 393.758c8.183-13.031 17.516-22.265 25.6-23.129 4.764-.51 12.679 5.524 20.941 14.948l.253-1.871c2.131-15.881 5.068-31.834 4.716-47.892-.594-27.046-7.092-51.602-27.044-64.332-3.751-2.394-8.95-1.243-12.891.714-4.63 2.299-8.8 6.428-11.402 11.349-3.919 7.411-5.658 16.105-7.546 24.482-4.109 18.234-1.891 35.731-.157 53.432.91 9.304 3.793 20.827 7.53 32.299z" fill="#EBEFF1"/><path fill-rule="evenodd" clip-rule="evenodd" d="M736.97 509.955c.572 3.934 9.384 4.272 9.444-.455.377-30.008-3.709-91.508-8.235-121.817-.869-5.82-6.099-5.039-6.346 1.524-.993 26.25 1.573 96.281 5.137 120.748z" fill="url(#paint27_linear_341_569)"/><path fill-rule="evenodd" clip-rule="evenodd" d="M743.346 437.669c-.387-5.081-.798-10.101-1.231-14.972-6.278-.592-4.85-.095-10.261.633.109 5.11.255 10.433.432 15.836 2.87-.501 7.301-1.354 11.06-1.497z" fill="#3B80B0"/><path fill-rule="evenodd" clip-rule="evenodd" d="M679.397 334.118a2.47 2.47 0 012.46 2.478 2.47 2.47 0 01-2.46 2.479 2.47 2.47 0 01-2.46-2.479 2.47 2.47 0 012.46-2.478zm97.614-10.658a2.468 2.468 0 012.459 2.479 2.469 2.469 0 01-2.459 2.478 2.47 2.47 0 01-2.461-2.478 2.47 2.47 0 012.461-2.479zm1.843 10.854a2.468 2.468 0 012.459 2.478 2.47 2.47 0 01-2.459 2.479 2.47 2.47 0 01-2.461-2.479 2.47 2.47 0 012.461-2.478zm1.043 10.966a2.468 2.468 0 012.459 2.478c0 1.37-1.1 2.479-2.459 2.479a2.469 2.469 0 01-2.46-2.479 2.469 2.469 0 012.46-2.478zm.49 11.007a2.468 2.468 0 012.459 2.478 2.468 2.468 0 01-2.459 2.478 2.469 2.469 0 01-2.46-2.478 2.469 2.469 0 012.46-2.478zm.017 11.016a2.469 2.469 0 012.459 2.478 2.47 2.47 0 01-2.459 2.48 2.47 2.47 0 01-2.46-2.48c0-1.368 1.1-2.478 2.46-2.478zm-.389 11.009a2.47 2.47 0 012.46 2.479 2.47 2.47 0 01-2.46 2.479 2.47 2.47 0 01-2.459-2.479 2.468 2.468 0 012.459-2.479zm-.761 10.991a2.469 2.469 0 012.459 2.478 2.47 2.47 0 01-2.459 2.48 2.47 2.47 0 01-2.46-2.48 2.47 2.47 0 012.46-2.478zm-1.102 10.961a2.47 2.47 0 012.459 2.479 2.468 2.468 0 01-2.459 2.478 2.47 2.47 0 01-2.461-2.478 2.47 2.47 0 012.461-2.479zm-1.406 10.925a2.469 2.469 0 012.459 2.479c0 1.369-1.1 2.478-2.459 2.478a2.469 2.469 0 01-2.46-2.478c0-1.369 1.1-2.479 2.46-2.479zm-1.732 10.879a2.47 2.47 0 012.46 2.478 2.47 2.47 0 01-2.46 2.48 2.469 2.469 0 01-2.459-2.48c0-1.368 1.1-2.478 2.459-2.478zm-1.979 10.836a2.469 2.469 0 012.46 2.478 2.469 2.469 0 01-2.46 2.479 2.469 2.469 0 01-2.459-2.479 2.468 2.468 0 012.459-2.478zm-2.273 10.776a2.469 2.469 0 012.46 2.479 2.469 2.469 0 01-2.46 2.478 2.47 2.47 0 01-2.46-2.478 2.47 2.47 0 012.46-2.479zm-2.506 10.724a2.469 2.469 0 012.46 2.479 2.47 2.47 0 01-2.46 2.478 2.469 2.469 0 01-2.459-2.478 2.469 2.469 0 012.459-2.479zm-2.73 10.666a2.47 2.47 0 012.46 2.478 2.47 2.47 0 01-2.46 2.48 2.469 2.469 0 01-2.459-2.48c0-1.368 1.1-2.478 2.459-2.478zm-59.232 1.218a2.469 2.469 0 012.459 2.479 2.468 2.468 0 01-2.459 2.478 2.47 2.47 0 01-2.461-2.478 2.47 2.47 0 012.461-2.479zm-3.49-9.776a2.47 2.47 0 012.461 2.48 2.47 2.47 0 01-2.461 2.478 2.469 2.469 0 01-2.459-2.478 2.47 2.47 0 012.459-2.48zm-2.787-10.006a2.47 2.47 0 012.459 2.479 2.47 2.47 0 01-2.459 2.479 2.47 2.47 0 01-2.46-2.479 2.47 2.47 0 012.46-2.479zm-2.457-10.095a2.47 2.47 0 012.461 2.478 2.47 2.47 0 01-2.461 2.479 2.47 2.47 0 01-2.459-2.479 2.468 2.468 0 012.459-2.478zm-2.244-10.145a2.469 2.469 0 012.46 2.478 2.469 2.469 0 01-2.46 2.479 2.468 2.468 0 01-2.459-2.479c0-1.369 1.1-2.478 2.459-2.478zm-2.093-10.177a2.468 2.468 0 012.459 2.478 2.468 2.468 0 01-2.459 2.478 2.469 2.469 0 01-2.46-2.478 2.469 2.469 0 012.46-2.478zm-1.979-10.201a2.468 2.468 0 012.459 2.479c0 1.369-1.1 2.478-2.459 2.478a2.47 2.47 0 01-2.46-2.478 2.47 2.47 0 012.46-2.479zm-1.887-10.22a2.468 2.468 0 012.459 2.478 2.47 2.47 0 01-2.459 2.479 2.47 2.47 0 01-2.46-2.479 2.469 2.469 0 012.46-2.478zm-1.809-10.233a2.47 2.47 0 012.46 2.479 2.469 2.469 0 01-2.46 2.478 2.47 2.47 0 01-2.46-2.478 2.47 2.47 0 012.46-2.479zm-1.743-10.245a2.468 2.468 0 012.459 2.478 2.47 2.47 0 01-2.459 2.479 2.47 2.47 0 01-2.46-2.479 2.469 2.469 0 012.46-2.478zm-1.685-10.255a2.47 2.47 0 012.46 2.48 2.47 2.47 0 01-2.46 2.478 2.47 2.47 0 01-2.46-2.478 2.47 2.47 0 012.46-2.48zm-1.631-10.264a2.47 2.47 0 012.46 2.479 2.47 2.47 0 01-2.46 2.478 2.469 2.469 0 01-2.46-2.478 2.47 2.47 0 012.46-2.479zm-1.577-10.271a2.469 2.469 0 012.46 2.478 2.469 2.469 0 01-2.46 2.478 2.47 2.47 0 01-2.46-2.478 2.47 2.47 0 012.46-2.478z" fill="#666565"/><g filter="url(#filter1_f_341_569)"><circle cx="365.009" cy="447.897" r="7.702" fill="#EE4E4E"/></g><circle cx="365.009" cy="448.009" r="3.856" fill="#EE4E4E"/><circle cx="365.009" cy="448.009" r="5.464" stroke="#EE4E4E" stroke-width=".5"/><circle cx="365.009" cy="448.009" r="7.502" stroke="#EE4E4E" stroke-width=".4"/><circle cx="365.009" cy="448.009" r="9.859" stroke="#EE4E4E" stroke-width=".3"/><g filter="url(#filter2_f_341_569)"><circle cx="1104" cy="437" r="4.286" fill="#4CCD99"/></g><circle opacity=".2" cx="1104.01" cy="437.009" r="3.856" fill="#4CCD99"/><path d="M882.536 529.213c-5.83 6.576-27.817-14.82-54.139-11.216-3.118.428-17.997 2.465-20.802 11.722-1.566 5.17 1.133 11.665 5.186 15.106 2.795 2.373 7.063 2.4 15.145 3.052 3.312.267 6.471.31 8.305 2.591 1.183 1.47.521 2.576 1.565 4.205 2.168 3.378 7.112 4.805 12.019 5.336 9.257 1.002 24.483 2.649 37.15-4.242 1.981-1.076 5.819-3.407 10.466-2.689 2.796.433 2.773 1.488 7.022 2.904 4.897 1.632 9.192 1.619 12.178 1.64 10.243.076 12.74-3.166 19.696-3.216 8.04-.058 11.999 4.923 19.551 7.619 26.624 9.499 65.012 7.473 76.582-4.665 1.55-1.63 1.86-2.908 3.8-4.39 6.22-4.733 12.79-3.619 30.14-4.294 11.57-.45 14.43-1.28 17.02-3.357 5.09-4.095 5.98-10.522 6.1-11.531 1.42-11.544-9.14-20.947-13.23-24.588-7.83-6.976-16.56-10.663-31.65-14.446-13.21-3.313-47.992-11.678-81.125-4.318-9.004 2-16.043 3.641-23.35 9.095-7.539 5.629-8.054 9.856-14.579 12.121-9.228 3.202-12.235-4.021-22.852-1.304-7.792 1.993-15.73 8.299-19.097 16.125-.896 2.08-.537 2.106-1.101 2.74z" fill="#E9F4F6"/><path d="M1148.07 539.03c-19.16 14.804-92.37 5.663-91.97 1.471.24-2.415 24.5 1.143 29.01-9.425 1.48-3.465.72-8.164-.95-11.486-2.23-4.45-6.06-6.405-8.88-7.845-1.36-.694-7.23-3.538-15.6-3.052-8.94.518-11.78 4.26-15.48 2.21-3.6-1.997-1.54-6.285-5.49-11.525-6.24-8.274-18.51-8.164-19.38-8.145-6.7.154-12.21 3.106-14.8 4.491-1.41.758-3.54 2.473-7.534 4.861-3.121 1.868-4.682 2.801-5.552 3.038-4.951 1.348-8.771-2.81-14.827-5.736 0 0-8.318-4.021-18.548-3.403-13.158.794-22.223 9.418-24.843 11.911-5.594 5.323-8.636 10.96-10.209 14.464-1.329-1.781-4.094-4.96-8.655-6.892-7.911-3.353-15.318-.441-17.236.288-9.592 3.643-13.09 12.169-14.134 11.506-1.142-.725 2.061-11.389 10.441-19.705 8.873-8.805 19.321-10.783 21.846-11.201 9.57-1.583 17.235.714 20.757 2.02.909-2.497 7.677-20.277 24.473-25.429 7.5-2.3 14.305-1.259 15.297-1.096 8.413 1.377 14.053 5.661 16.448 7.723.504-.466 4.625-4.161 10.486-3.234 5.25.829 7.97 4.745 8.42 5.41 1.78-3.331 4.9-8.211 10.07-12.793 3.53-3.125 11.75-10.19 24.27-11.017 13.61-.897 23.41 6.168 26.47 8.609 14.12 11.266 15.09 28.088 15.2 30.757 1.36-1.584 4.61-4.935 9.95-6.659 2.91-.941 8.75-2.127 14.92.573 7.65 3.348 10.65 10.842 10.9 11.49 2.25 5.883.02 8.935 2.47 10.83 3.28 2.531 7.87-2.561 16.18-.757 1.46.318 4.9 1.108 8.06 3.884.56.495 6.52 5.912 5.58 13.239-.71 5.63-5.33 9.205-7.16 10.625z" fill="#fff"/><path d="M1080.26 529.728c-11.1-3.772-10.03-6.648-18.82-9.202-22.43-6.521-37.57 13.987-58.11 7.099-6.503-2.18-10.939-6.23-13.347-8.784-1.869 2.383-15.584 19.299-37.447 19.077-10.298-.103-18.164-3.965-22.315-6.45-6.741 9.75-18.611 14.064-29.014 10.862-12.46-3.835-16.45-16.493-16.76-17.538a23.595 23.595 0 00-.813 1.681c-.896 2.08-.536 2.105-1.099 2.739-5.83 6.576-27.818-14.821-54.139-11.217-3.119.428-17.999 2.465-20.803 11.722-1.566 5.17 1.133 11.665 5.186 15.107 2.796 2.372 7.064 2.4 15.145 3.052 3.313.266 6.471.31 8.305 2.59 1.183 1.471.521 2.577 1.566 4.205 2.167 3.379 7.112 4.806 12.018 5.337 9.257 1.002 24.483 2.648 37.151-4.242 1.98-1.077 5.819-3.408 10.466-2.689 2.795.432 2.773 1.488 7.021 2.903 4.897 1.632 9.193 1.619 12.179 1.64 10.243.076 12.74-3.165 19.695-3.215 8.04-.058 11.999 4.923 19.552 7.619 26.623 9.499 65.013 7.473 76.583-4.665 1.55-1.63 1.85-2.909 3.8-4.391 9.33-7.105 22.19-5.433 30.13-4.293 15.77 2.263 39.6 5.52 62.42.699 0 0 21.57-4.41 25.77-14.694 2.17-5.287 1.06-9.747 1.06-9.747a13.473 13.473 0 00-1.61-3.811c-.36.825-4.96 10.805-15.87 12.695-8.34 1.445-14.64-2.833-15.91-3.732-10.38 2.801-25.79 5.152-41.99-.357z" fill="#CEEAF0"/><path d="M1051.52 526.8c7.23-2.075 14.34.231 16.39.896 8.55 2.776 13.76 8.794 15.82 7.141.83-.673.27-1.916.51-4.507 0 0 .54-5.754 4.92-10.493 4.76-5.162 13.37-6.645 20.25-4.137 7.75 2.822 10.95 9.833 11.95 12.025 6.15 13.477-2.49 26.709-3.04 27.516-.97 1.43-4.61 6.498-11.73 10.087-3.19 1.606-8.14 3.447-42.65.673-10.06-.809-15.09-1.212-18.82-1.743-6.25-.888-8.56-1.534-13.3-1.503-7.54.05-8.45 1.728-14.13 1.687-2.05-.015-15.85-.133-18.994-8.202-2.063-5.292 1.162-12.206 5.774-15.605 3.42-2.512 7.11-2.757 10.07-2.915 9.15-.489 10.83 3.903 16.84 3.357 8.88-.802 9.05-11.09 20.14-14.277zm-148.35 9.483c-.596 3.603-7.124 4.91-7.735 5.028-4.644.891-7.06-.863-13.635-2.481-11.702-2.879-14.346-2.597-16.357-1.791-2.615 1.047-2.499 2.064-5.569 3.081-1.28.423-5.972 1.897-10.989-.3-1.469-.643-5.953-2.607-6.968-7.041-.667-2.907.591-5.351.901-5.945 1.39-2.66 3.686-3.801 5.254-4.577.96-.477 3.11-1.513 6.075-1.452 2.063.044 3.685.601 4.659 1.021.395-1.385 1.157-3.337 2.726-5.17 4.64-5.425 14.459-7.624 21.213-2.799 5.765 4.117 6.28 11.198 6.343 12.293 2.064.135 6.153.718 9.848 3.678 1.54 1.234 4.681 3.752 4.234 6.455z" fill="#fff"/><path d="M899.849 530.519c-6.383 2.681-13.971 2.415-19.138-2.358-1.937.789-5.934 2.108-10.999 1.525a22.327 22.327 0 01-8.521-2.805 11.762 11.762 0 01-3.849 3.94c-.61.381-4.341 2.623-9.038 1.417-3.409-.875-5.414-3.075-6.114-3.925-.313.967-.683 2.6-.27 4.466.972 4.395 5.463 6.381 6.969 7.041 5.016 2.197 9.708.724 10.988.3 3.072-1.015 2.954-2.034 5.569-3.081 2.011-.806 4.657-1.088 16.358 1.791 6.572 1.618 8.99 3.372 13.634 2.481.612-.118 7.138-1.425 7.735-5.028.387-2.358-1.937-4.634-3.324-5.764z" fill="#E9F4F6"/><path d="M1122.26 530.087c-.61 1.536-6.91 16.648-23.48 20.801-14.26 3.572-25.47-3.63-27.29-4.838-8.43 8.855-27.82 12.61-37.48 4.775-1.22.744-10.19 6.016-20.49 2.303-7.08-2.555-10.74-7.903-11.88-9.739-.9.634-2.558 1.996-3.49 4.29-1.641 4.035.209 7.895.544 8.564 3.916 7.779 16.576 8.152 18.186 8.19.35.008.63.012.81.012 5.68.04 6.59-1.637 14.13-1.687 4.74-.032 7.04.615 13.3 1.503 3.73.529 8.76.934 18.81 1.743 34.52 2.775 39.47.933 42.66-.673 6.92-3.487 10.84-8.799 11.73-10.087 1.05-1.528 6.52-9.818 5.04-20.441a27.6 27.6 0 00-1.1-4.716z" fill="#CEEAF0"/><defs><linearGradient id="paint0_linear_341_569" x1="715.991" y1="509.348" x2="582.624" y2="526.637" gradientUnits="userSpaceOnUse"><stop stop-color="#959FA4"/><stop offset=".27" stop-color="#fff"/><stop offset=".73" stop-color="#fff"/><stop offset="1" stop-color="#E1E7E9"/></linearGradient><linearGradient id="paint1_linear_341_569" x1="718.155" y1="500.019" x2="581.677" y2="517.711" gradientUnits="userSpaceOnUse"><stop stop-color="#8A8F95"/><stop offset=".27" stop-color="#EBEBEC"/><stop offset=".73" stop-color="#EBEBEC"/><stop offset="1" stop-color="#C8CBCE"/></linearGradient><linearGradient id="paint2_linear_341_569" x1="718.074" y1="514.314" x2="589.289" y2="539.519" gradientUnits="userSpaceOnUse"><stop stop-color="#2C6285"/><stop offset=".43" stop-color="#3D83B1"/><stop offset=".65" stop-color="#70B6E5"/><stop offset="1" stop-color="#3E87B8"/></linearGradient><linearGradient id="paint3_linear_341_569" x1="717.591" y1="514.778" x2="615.34" y2="534.79" gradientUnits="userSpaceOnUse"><stop stop-color="#3B5E73"/><stop offset=".43" stop-color="#3E7494"/><stop offset=".65" stop-color="#639ABF"/><stop offset="1" stop-color="#407999"/></linearGradient><linearGradient id="paint4_linear_341_569" x1="510.101" y1="461.337" x2="499.609" y2="441.278" gradientUnits="userSpaceOnUse"><stop stop-color="#D6D9DB"/><stop offset="1" stop-color="#999CA0"/></linearGradient><linearGradient id="paint5_linear_341_569" x1="598.323" y1="450.261" x2="586.496" y2="427.65" gradientUnits="userSpaceOnUse"><stop stop-color="#D6D9DB"/><stop offset="1" stop-color="#999CA0"/></linearGradient><linearGradient id="paint6_linear_341_569" x1="879.154" y1="440.645" x2="866.753" y2="416.938" gradientUnits="userSpaceOnUse"><stop stop-color="#D6D9DB"/><stop offset="1" stop-color="#999CA0"/></linearGradient><linearGradient id="paint7_linear_341_569" x1="956.563" y1="446.345" x2="946.834" y2="427.746" gradientUnits="userSpaceOnUse"><stop stop-color="#D6D9DB"/><stop offset="1" stop-color="#999CA0"/></linearGradient><linearGradient id="paint8_linear_341_569" x1="788.745" y1="375.929" x2="1112.71" y2="419.216" gradientUnits="userSpaceOnUse"><stop stop-color="#959FA4"/><stop offset=".27" stop-color="#E9E9E9"/><stop offset=".73" stop-color="#fff"/><stop offset="1" stop-color="#E1E7E9"/></linearGradient><linearGradient id="paint9_linear_341_569" x1="789.381" y1="371.114" x2="1113.63" y2="414.439" gradientUnits="userSpaceOnUse"><stop stop-color="#8A8F93"/><stop offset=".27" stop-color="#E1E1E0"/><stop offset=".73" stop-color="#E1E1E0"/><stop offset="1" stop-color="#BEC2C4"/></linearGradient><linearGradient id="paint10_linear_341_569" x1="762.338" y1="507.69" x2="898.915" y2="517.111" gradientUnits="userSpaceOnUse"><stop stop-color="#959FA4"/><stop offset=".27" stop-color="#fff"/><stop offset=".73" stop-color="#fff"/><stop offset="1" stop-color="#E1E7E9"/></linearGradient><linearGradient id="paint11_linear_341_569" x1="761.103" y1="498.614" x2="899.421" y2="508.154" gradientUnits="userSpaceOnUse"><stop stop-color="#8A8F95"/><stop offset=".27" stop-color="#EBEBEC"/><stop offset=".73" stop-color="#EBEBEC"/><stop offset="1" stop-color="#C8CBCE"/></linearGradient><linearGradient id="paint12_linear_341_569" x1="761.465" y1="512.736" x2="893.724" y2="530.459" gradientUnits="userSpaceOnUse"><stop stop-color="#2C6285"/><stop offset=".43" stop-color="#3D83B1"/><stop offset=".65" stop-color="#70B6E5"/><stop offset="1" stop-color="#3E87B8"/></linearGradient><linearGradient id="paint13_linear_341_569" x1="762.1" y1="513.187" x2="873.307" y2="528.089" gradientUnits="userSpaceOnUse"><stop stop-color="#3B5E73"/><stop offset=".43" stop-color="#3E7494"/><stop offset=".65" stop-color="#639ABF"/><stop offset="1" stop-color="#407999"/></linearGradient><linearGradient id="paint14_linear_341_569" x1="676.62" y1="397.923" x2="785.123" y2="394.396" gradientUnits="userSpaceOnUse"><stop stop-color="#3E87B8"/><stop offset=".23" stop-color="#35739A"/><stop offset=".54" stop-color="#71B4E4"/><stop offset="1" stop-color="#3F85B8"/></linearGradient><linearGradient id="paint15_linear_341_569" x1="675.591" y1="374.35" x2="784.099" y2="370.823" gradientUnits="userSpaceOnUse"><stop stop-color="#6391B4"/><stop offset=".23" stop-color="#5283A5"/><stop offset=".54" stop-color="#7FBDE8"/><stop offset="1" stop-color="#6391B4"/></linearGradient><linearGradient id="paint16_linear_341_569" x1="675.437" y1="356.521" x2="782.941" y2="353.027" gradientUnits="userSpaceOnUse"><stop stop-color="#88ACC5"/><stop offset=".23" stop-color="#809DAF"/><stop offset=".54" stop-color="#9BCCEF"/><stop offset="1" stop-color="#88AAC4"/></linearGradient><linearGradient id="paint17_linear_341_569" x1="675.982" y1="501.896" x2="790.317" y2="498.18" gradientUnits="userSpaceOnUse"><stop stop-color="#37739D"/><stop offset=".23" stop-color="#346E90"/><stop offset=".54" stop-color="#3E87B8"/><stop offset="1" stop-color="#37739D"/></linearGradient><linearGradient id="paint18_linear_341_569" x1="674.345" y1="478.815" x2="790.521" y2="475.039" gradientUnits="userSpaceOnUse"><stop stop-color="#6D91AB"/><stop offset=".23" stop-color="#688AA1"/><stop offset=".54" stop-color="#789FBE"/><stop offset="1" stop-color="#6D91AB"/></linearGradient><linearGradient id="paint19_linear_341_569" x1="669.73" y1="378.384" x2="357.661" y2="434.426" gradientUnits="userSpaceOnUse"><stop stop-color="#959FA4"/><stop offset=".27" stop-color="#fff"/><stop offset=".73" stop-color="#F1F2F1"/><stop offset="1" stop-color="#E1E7E9"/></linearGradient><linearGradient id="paint20_linear_341_569" x1="669.773" y1="378.376" x2="358.628" y2="434.252" gradientUnits="userSpaceOnUse"><stop stop-color="#8D9499"/><stop offset=".27" stop-color="#EDEEEE"/><stop offset=".73" stop-color="#EDEEEE"/><stop offset="1" stop-color="#CACDD0"/></linearGradient><linearGradient id="paint21_linear_341_569" x1="667.625" y1="384.919" x2="403.099" y2="482.052" gradientUnits="userSpaceOnUse"><stop stop-color="#2C6285"/><stop offset=".43" stop-color="#3D83B1"/><stop offset=".65" stop-color="#70B6E5"/><stop offset="1" stop-color="#3E87B8"/></linearGradient><linearGradient id="paint22_linear_341_569" x1="675.316" y1="393.866" x2="494.988" y2="460.082" gradientUnits="userSpaceOnUse"><stop stop-color="#435F71"/><stop offset=".43" stop-color="#477089"/><stop offset=".65" stop-color="#5C8EB2"/><stop offset="1" stop-color="#47738C"/></linearGradient><linearGradient id="paint23_linear_341_569" x1="786.686" y1="385.139" x2="1093.16" y2="467.228" gradientUnits="userSpaceOnUse"><stop stop-color="#2C6285"/><stop offset=".43" stop-color="#3D83B1"/><stop offset=".65" stop-color="#70B6E5"/><stop offset="1" stop-color="#3E87B8"/></linearGradient><linearGradient id="paint24_linear_341_569" x1="783.455" y1="389.797" x2="1005.31" y2="449.221" gradientUnits="userSpaceOnUse"><stop stop-color="#3B5E73"/><stop offset=".43" stop-color="#3E7494"/><stop offset=".65" stop-color="#639ABF"/><stop offset="1" stop-color="#407999"/></linearGradient><linearGradient id="paint25_linear_341_569" x1="675.175" y1="356.427" x2="783.615" y2="351.495" gradientUnits="userSpaceOnUse"><stop stop-color="#959FA4"/><stop offset=".23" stop-color="#F6F7F7"/><stop offset=".54" stop-color="#fff"/><stop offset="1" stop-color="#E1E7E9"/></linearGradient><linearGradient id="paint26_linear_341_569" x1="674.538" y1="342.165" x2="783.038" y2="337.23" gradientUnits="userSpaceOnUse"><stop stop-color="#CDD2D8"/><stop offset=".23" stop-color="#fff"/><stop offset=".54" stop-color="#fff"/><stop offset="1" stop-color="#F6F7F8"/></linearGradient><linearGradient id="paint27_linear_341_569" x1="735.219" y1="448.534" x2="747.97" y2="447.912" gradientUnits="userSpaceOnUse"><stop stop-color="#959FA4"/><stop offset=".23" stop-color="#F6F7F7"/><stop offset=".54" stop-color="#fff"/><stop offset="1" stop-color="#E1E7E9"/></linearGradient><filter id="filter0_f_341_569" x="0" y="0" width="1470" height="874" filterUnits="userSpaceOnUse" color-interpolation-filters="sRGB"><feFlood flood-opacity="0" result="BackgroundImageFix"/><feBlend in="SourceGraphic" in2="BackgroundImageFix" result="shape"/><feGaussianBlur stdDeviation="100" result="effect1_foregroundBlur_341_569"/></filter><filter id="filter1_f_341_569" x="347.307" y="430.195" width="35.403" height="35.403" filterUnits="userSpaceOnUse" color-interpolation-filters="sRGB"><feFlood flood-opacity="0" result="BackgroundImageFix"/><feBlend in="SourceGraphic" in2="BackgroundImageFix" result="shape"/><feGaussianBlur stdDeviation="5" result="effect1_foregroundBlur_341_569"/></filter><filter id="filter2_f_341_569" x="1089.71" y="422.714" width="28.571" height="28.571" filterUnits="userSpaceOnUse" color-interpolation-filters="sRGB"><feFlood flood-opacity="0" result="BackgroundImageFix"/><feBlend in="SourceGraphic" in2="BackgroundImageFix" result="shape"/><feGaussianBlur stdDeviation="5" result="effect1_foregroundBlur_341_569"/></filter></defs></svg>