<svg width="550" height="25" fill="none" xmlns="http://www.w3.org/2000/svg"><path d="M.46 24L9.134 1.216h6.528L24.237 24H17.58L11.213 4.64h2.304L6.989 24H.46zm5.633-3.84v-4.992h12.736v4.992H6.093zm39.74 4.288c-1.792 0-3.445-.299-4.96-.896a12.37 12.37 0 01-3.936-2.496 11.361 11.361 0 01-2.592-3.776c-.618-1.45-.928-3.019-.928-4.704 0-1.707.299-3.275.896-4.704a11.45 11.45 0 012.592-3.744 11.576 11.576 0 013.904-2.464c1.515-.597 3.168-.896 4.96-.896 1.792 0 3.435.299 4.928.896 1.515.576 2.827 1.397 3.936 2.464a10.97 10.97 0 012.56 3.776c.619 1.43.928 2.997.928 4.704 0 1.685-.31 3.253-.928 4.704a11.388 11.388 0 01-2.56 3.776 11.993 11.993 0 01-3.904 2.496c-1.493.576-3.125.864-4.896.864zm-.064-5.632c1.195 0 2.23-.256 3.104-.768a5.103 5.103 0 002.016-2.176c.47-.939.704-2.037.704-3.296 0-.939-.138-1.781-.416-2.528-.256-.768-.64-1.419-1.152-1.952a4.84 4.84 0 00-1.856-1.248c-.704-.299-1.504-.448-2.4-.448-1.194 0-2.23.256-3.104.768-.874.49-1.546 1.205-2.016 2.144-.47.917-.704 2.005-.704 3.264 0 .96.128 1.824.384 2.592.278.768.672 1.43 1.184 1.984.512.533 1.12.95 1.824 1.248.726.277 1.536.416 2.432.416zm36.195 5.568c-1.77 0-3.414-.288-4.928-.864a12.37 12.37 0 01-3.936-2.496 11.45 11.45 0 01-2.592-3.744c-.619-1.43-.928-2.987-.928-4.672 0-1.707.32-3.275.96-4.704a11.453 11.453 0 012.72-3.712 12.505 12.505 0 014.064-2.464c1.536-.597 3.178-.896 4.928-.896 2.112 0 4 .363 5.664 1.088 1.685.725 3.05 1.707 4.096 2.944l-4.32 4.32c-.79-.917-1.61-1.6-2.464-2.048-.854-.448-1.878-.672-3.072-.672-1.13 0-2.155.256-3.072.768a5.672 5.672 0 00-2.208 2.112c-.534.917-.8 1.995-.8 3.232s.245 2.325.736 3.264a5.515 5.515 0 002.112 2.144c.896.512 1.941.768 3.136.768 1.152 0 2.122-.224 2.912-.672a4.337 4.337 0 001.792-1.92c.426-.832.64-1.813.64-2.944L91.788 16l-10.592-.32v-5.12h12.64v.96c0 2.73-.502 5.056-1.504 6.976-.982 1.92-2.368 3.381-4.16 4.384-1.77 1.003-3.84 1.504-6.208 1.504zm27.9-9.28l-.48-6.08h1.856c.362 0 .682-.053.96-.16.277-.128.49-.31.64-.544a1.52 1.52 0 00.224-.832c0-.32-.075-.587-.224-.8a1.298 1.298 0 00-.608-.512c-.235-.128-.523-.192-.864-.192-.662 0-1.291.213-1.888.64a6.018 6.018 0 00-1.44 1.504l-3.712-3.744c.64-1.152 1.568-2.133 2.784-2.944 1.237-.832 2.752-1.248 4.544-1.248 1.429 0 2.688.32 3.776.96 1.109.619 1.973 1.45 2.592 2.496a6.44 6.44 0 01.928 3.392c0 1.365-.267 2.496-.8 3.392a5.988 5.988 0 01-2.048 2.144 9.319 9.319 0 01-2.688 1.12l1.376-2.208-.256 3.616h-4.672zm2.336 9.28c-1.003 0-1.835-.341-2.496-1.024-.662-.683-.992-1.515-.992-2.496 0-1.003.33-1.845.992-2.528.661-.683 1.493-1.024 2.496-1.024 1.002 0 1.824.341 2.464 1.024.661.683.992 1.525.992 2.528 0 .981-.331 1.813-.992 2.496-.64.683-1.462 1.024-2.464 1.024zm45.596 0c-1.75 0-3.382-.288-4.896-.864a12.354 12.354 0 01-3.936-2.496 11.624 11.624 0 01-2.656-3.744c-.619-1.45-.928-3.019-.928-4.704 0-1.707.309-3.275.928-4.704a11.49 11.49 0 012.624-3.712 12.192 12.192 0 013.936-2.432c1.493-.597 3.114-.896 4.864-.896 1.77 0 3.392.277 4.864.832 1.472.555 2.752 1.323 3.84 2.304l-4.256 4.288a5.46 5.46 0 00-1.888-1.312c-.726-.32-1.579-.48-2.56-.48a6.58 6.58 0 00-2.368.416 5.073 5.073 0 00-1.824 1.216c-.512.533-.918 1.184-1.216 1.952-.278.747-.416 1.59-.416 2.528 0 .96.138 1.824.416 2.592a5.89 5.89 0 001.216 1.92c.512.533 1.12.95 1.824 1.248a6.573 6.573 0 002.368.416c.96 0 1.813-.15 2.56-.448a5.472 5.472 0 001.984-1.312l4.288 4.288c-1.131.981-2.4 1.75-3.808 2.304-1.408.533-3.062.8-4.96.8zM178.382 24V1.216h6.4V24h-6.4zm5.216 0v-5.44h10.656V24h-10.656zm33.179.448c-1.792 0-3.445-.299-4.96-.896a12.376 12.376 0 01-3.936-2.496 11.37 11.37 0 01-2.592-3.776c-.619-1.45-.928-3.019-.928-4.704 0-1.707.299-3.275.896-4.704a11.458 11.458 0 012.592-3.744 11.575 11.575 0 013.904-2.464c1.515-.597 3.168-.896 4.96-.896 1.792 0 3.435.299 4.928.896 1.515.576 2.827 1.397 3.936 2.464a10.971 10.971 0 012.56 3.776c.619 1.43.928 2.997.928 4.704 0 1.685-.309 3.253-.928 4.704a11.39 11.39 0 01-2.56 3.776 11.994 11.994 0 01-3.904 2.496c-1.493.576-3.125.864-4.896.864zm-.064-5.632c1.195 0 2.229-.256 3.104-.768a5.1 5.1 0 002.016-2.176c.469-.939.704-2.037.704-3.296 0-.939-.139-1.781-.416-2.528-.256-.768-.64-1.419-1.152-1.952a4.843 4.843 0 00-1.856-1.248c-.704-.299-1.504-.448-2.4-.448-1.195 0-2.229.256-3.104.768-.875.49-1.547 1.205-2.016 2.144-.469.917-.704 2.005-.704 3.264 0 .96.128 1.824.384 2.592.277.768.672 1.43 1.184 1.984.512.533 1.12.95 1.824 1.248.725.277 1.536.416 2.432.416zm31.479 5.568c-1.942 0-3.638-.277-5.088-.832-1.43-.576-2.752-1.483-3.968-2.72l4-4c.832.79 1.706 1.397 2.624 1.824a7.2 7.2 0 002.944.608c.874 0 1.536-.128 1.984-.384.448-.277.672-.65.672-1.12 0-.47-.192-.853-.576-1.152-.384-.32-.896-.597-1.536-.832a31.691 31.691 0 00-2.08-.768 19.818 19.818 0 01-2.24-.928c-.747-.363-1.44-.8-2.08-1.312a6.206 6.206 0 01-1.504-1.952c-.384-.79-.576-1.75-.576-2.88 0-1.472.352-2.741 1.056-3.808.704-1.067 1.696-1.877 2.976-2.432 1.28-.576 2.784-.864 4.512-.864 1.706 0 3.285.277 4.736.832 1.472.533 2.688 1.301 3.648 2.304l-4.032 4c-.704-.683-1.408-1.184-2.112-1.504a5.21 5.21 0 00-2.304-.512c-.662 0-1.195.107-1.6.32-.384.213-.576.533-.576.96 0 .448.192.821.576 1.12.384.277.885.533 1.504.768.64.235 1.333.48 2.08.736.768.256 1.525.565 2.272.928a8.12 8.12 0 012.048 1.344 5.827 5.827 0 011.536 2.016c.384.81.576 1.792.576 2.944 0 2.325-.832 4.128-2.496 5.408-1.643 1.259-3.968 1.888-6.976 1.888zm21.74-.384V1.216h6.4V24h-6.4zm5.184 0v-5.312h12.224V24h-12.224zm0-9.024V9.792h11.04v5.184h-11.04zm0-8.448V1.216h12.032v5.312h-12.032zM315.319 24V1.216h6.4V24h-6.4zm25.228 0V1.216h6.4V24h-6.4zm-6.816-17.344v-5.44h20.064v5.44h-20.064zM385.59 24V1.216h6.4V24h-6.4zm-6.816-17.344v-5.44h20.064v5.44h-20.064zm42.428 17.792c-1.792 0-3.445-.299-4.96-.896a12.376 12.376 0 01-3.936-2.496 11.37 11.37 0 01-2.592-3.776c-.619-1.45-.928-3.019-.928-4.704 0-1.707.299-3.275.896-4.704a11.458 11.458 0 012.592-3.744 11.575 11.575 0 013.904-2.464c1.515-.597 3.168-.896 4.96-.896 1.792 0 3.435.299 4.928.896 1.515.576 2.827 1.397 3.936 2.464a10.971 10.971 0 012.56 3.776c.619 1.43.928 2.997.928 4.704 0 1.685-.309 3.253-.928 4.704a11.39 11.39 0 01-2.56 3.776 11.994 11.994 0 01-3.904 2.496c-1.493.576-3.125.864-4.896.864zm-.064-5.632c1.195 0 2.229-.256 3.104-.768a5.1 5.1 0 002.016-2.176c.469-.939.704-2.037.704-3.296 0-.939-.139-1.781-.416-2.528-.256-.768-.64-1.419-1.152-1.952a4.843 4.843 0 00-1.856-1.248c-.704-.299-1.504-.448-2.4-.448-1.195 0-2.229.256-3.104.768-.875.49-1.547 1.205-2.016 2.144-.469.917-.704 2.005-.704 3.264 0 .96.128 1.824.384 2.592.277.768.672 1.43 1.184 1.984.512.533 1.12.95 1.824 1.248.725.277 1.536.416 2.432.416zM450.013 24v-5.44h5.312c1.195 0 2.23-.213 3.104-.64a4.6 4.6 0 002.016-2.016c.47-.896.704-2.005.704-3.328s-.245-2.421-.736-3.296a4.457 4.457 0 00-2.016-1.952c-.853-.448-1.877-.672-3.072-.672h-5.632v-5.44h5.632c1.792 0 3.435.267 4.928.8 1.515.533 2.827 1.301 3.936 2.304a10.144 10.144 0 012.56 3.616c.619 1.387.928 2.944.928 4.672 0 1.728-.309 3.296-.928 4.704a10.213 10.213 0 01-2.56 3.584c-1.109 1.003-2.41 1.77-3.904 2.304-1.493.533-3.125.8-4.896.8h-5.376zm-4.288 0V1.216h6.4V24h-6.4zm32.467 0l8.672-22.784h6.528L501.968 24h-6.656l-6.368-19.36h2.304L484.72 24h-6.528zm5.632-3.84v-4.992h12.736v4.992h-12.736zm33.795-4l-8.672-14.944h7.36l6.56 12.192h-5.504l6.56-12.192h7.2l-8.736 14.944h-4.768zm-.736 7.84V13.824h6.4V24h-6.4zm26.597-9.056L542.36.576h6.88l-1.12 14.368h-4.64zm2.336 9.44c-1.002 0-1.834-.341-2.496-1.024-.661-.683-.992-1.515-.992-2.496 0-1.003.331-1.845.992-2.528.662-.683 1.494-1.024 2.496-1.024 1.003 0 1.824.341 2.464 1.024.662.683.992 1.525.992 2.528 0 .981-.33 1.813-.992 2.496-.64.683-1.461 1.024-2.464 1.024z" fill="#2F2F2F"/></svg>