<svg width="285" height="94" fill="none" xmlns="http://www.w3.org/2000/svg"><path d="M40.362 44.122c.303.804.46 1.58 1.177 1.362 2.477-.752 4.861-.656 5.23-.855 1.522-.82 3.547-.52 6.569-1.446 1.02-.312 2.084-.39 3.122-.612.138-.029.242-.295.352-.439-.141-.493-.408-.448-.608-.506-2.509-.727-2.425.182-2.942.076-.496-.101-.901.312-1.372.288-.176-.009-.354-.083-.553-.133-.487.465-.494.816-1.74.768-2.003-.078.202.331-3.12.2.138-.878-.14-.522 2.47-1.095.46-.101.926-.218 1.256-.764-.245-.37-.245-.37-1.229-.019-.182-.09-.727-.38-1.01-.43-.16-.027-.335.134-.448-.204.044-.142.068-.385.137-.41 1.608-.603 3.419-.155 4.686-1.031 1.488.366.856.252 2.423.435l.281-.692c1.616-.35 1.32-.235 1.438-.52-.696-.505-9.03.771-9.556.803-.35.02-.983.967-1.475.369-.43-.523-.94-.233-1.372-.604 2.497-1.403 3.522-1.067 9.735-1.952-.922-.671-3.694.413-7.389.182-.092-.006-.606-.544-.049-.864.596-.343.47-.198.5-.479-1.812-.022-1.925-.054-2.11.08-.69.498-1.424.596-2.199.593-1.028-.005-3.062.552-3.677.313.15-1.61 2.206-.967 6.712-1.636.372-.49-.418-.913-.645-.774-1.911 1.163-2.676-.12-3.637.323-1.008.464-2.102.2-3.126.533-.444.145-.93.068-1.4.052-.051-.002-.272-.427-.133-.605.249-.32.239-.266.92-.501.176-1.049.01-.797.733-1.203l.527.472c1.513 0 3.06.215 4.553-.324l-.203-.732c.188-.573.613-.278.909-.464.315-.2.649-.34.975-.506.555.7.818.284 1.73-.392-.716-.334-1.244.014-1.754.464-.551-.522.019-.405-2.042-.523-.105-1.036 4.602-.287 10.505-2.181.048-.016.08-.12.159-.248-.628-.16-1.201-.075-1.775.024-4.051.704-4.752-.107-1.458-.446 2.032-.208 1.443.083 1.83-.384-.605-.711-3.716.626-5.076-.06 2.065-1.801 4.457-1.473 5.738-2.378 1.113-.787 25.43-1.631 27.077-2.338 2.764-1.187 5.917-.793 14.08-1.972-1.19-.157-9.754.232-10.09.268-.435.047-4.8.828-6.852.423.085-.205.115-.4.19-.444 2.03-1.193 3.9-.974 6.952-.773 1.937.128 9.98-1.09 9.992-1.091 2.388-.308 3.09.328 4.634-.812 1.398-1.033 2.568-.584 4.675-.536.89.02 1.711-.542 2.618-.295.516.14 4.226-.073 4.247-.074-.022.348-.194.292-.311.306-7.676.936-7.53.83-7.859 1.093-.126.1-.385.817.044.985.658.257 96.522-9.361 98.226-9.657-2.397-.37-1.841-.123-2.199-1.001 1.472-.65 5.203-.994 5.431-.773.506.49 1.03.29 1.556.374-.118.626.212.4-1.507.959.297.278.543.144.778.145 2.481.008 1.932.96 3.695.79 9.217-.892 5.425-.879 9.098-1.235 28.957-2.812 28.612-3.44 29.434-2.067.088.97-.454.522-1.426.694-5.274.933-25.938 2.458-31.359 3.597-.047.01-5.046.321-10.364.767-.438.036-.399.559-.194.57 3.533.198 1.011-.217 4.744-.142 2.17.044 2.59-.276 3.354.014.112.042.256.086.344.017.667-.52 1.372-.112 2.073-.003 5.696.881 15.523-1.744 17.253-.499.672.484 2.473.51 3.153.028l-.292-1.213c.583-1.122 1.437-.89 2.328-.842-.046.46-.197 1.24.077 1.404.318.19.358.682.503 1.02 1.695-.055 3.296-.486 4.856-.955.563.195 1.07.546 1.613.426.519-.115 1.065-.079 1.569-.255 1.173-.412 2.323-.142 3.467.47.165.651-.305.64-.386 1.202l.152.9c-.117.134-.241.419-.376.415-1.237-.036-2.445.283-3.695.116-.892-.12-1.741.221-2.533.765-.263.18-.292.692-.053 1.436 2.117.102 5.901-.772 7.551-.398-.216 1.044-.339.12-12.87 2.386 1.641.416 1.047.244 2.319.704 1.506 2.118 3.249.804 6.627.68 3.048-.112 3.03-1.041 4.691-.076.21.997-.012.576 1.345 2.21-.328.663-.776.959-1.297 1.02-10.851 1.27-5.244-.26-10.145 1.22 1.773.33 31.259-3.01 36.271-3.051 1.363-.011 2.474 1.129 1.875 1.29-.558.15-5.662.495-14.937 1.435-12.455 1.263-10.672.942-10.962 2.034-.223.844-.632.272.522 1.387-.132.507.128.307-.939.795l-1.517-.63c-1.569 1.454-2.156.151-2.545 1.387.084.09.171.258.245.253.009 0 23.469-2.106 23.813-2.586.16-.983-.559-1.298-.752-2.013.711-.473 1.409-.058 2.099.244.145.064.261.35.379.516-.051.538-.3.773-.511 1.054-.127-.2-.138-.178.035-.063.854.946 3.514-.472 5.501.46.332.157.691.124 1.035.227.091.027.168.236.252.361l.027-.062c-2.032 1.487-3.028.239-1.379 1.613-.525 1.032.714.215-6.043 1.423l-.238 1.237c.741.954 6.586-1.153 8.116.423-1.357.67-4.498.235-6.202 1.182-.412.229-.92.12-1.218.148-.416.293-.317.707-.379 1.02-.067.341-.369.284-1.558.341l.093-.87c-.101-.102-.262-.384-.373-.356-1.337.334-.476-.28-7.545.436-.589.06-1.598.621-1.868.543-.891-.26-1.604.223-2.283.896-.882-.88-1.816-.825-2.709-.529-1.972.655-2.488.352-2.929.902.632.231 3.311.35 3.34.346.797-.133 1.611-.198 2.322-.784.562.786-.42.202 7.518.652 3.744.212 4.747-.593 5.934-.565.649.016 1.314.164 1.943.044 1.511-.29 3.054-.198 4.57-.409 1.956-.271 1.251.87 1.335 1.344 1.101 1.529-.49.68-9.953 2.103l-.609.915c-1.094-.03-1.299.917-1.157.933 1.25.144.658-.042 1.541.426-2.43.522-2.264.348-2.109 1.264.662.239 9.319-.828 10.046-.544-.093.14-.147.303-.215.31-.009.002-4.541.294-6.798 1.023-.314.102-.855-.135-1.914.114-.112.027-.179.35-.278.56.848.486 1.569-.038 2.327-.037.688.001 1.378.023 2.076.035-.038.676-.509.335-.629.739.216.267.59-.02.783.567-1.328.984-.725.91-2.702.145l-.514 1.225 1.002 1.652c4.149.482 7.426-.221 8.546.134-.951.571-3.243.227-4.615.742-.918.345-1.539-.534-2.573.543-.527 1.5-.207 2.277-3.837 2.12-.149-.007-.306-.258-.46-.396.78-.255 1.32-1.13 1.275-1.465-.014-.096-.182-.251-.26-.234-3.497.741-7.861-.219-7.84 1.711.796.443 1.455-.106 2.218-.496 1.232.624 2.092-.049 3.554-.448l1.111.98c-1.251.894.286.342-4.809.967-.693.085-1.396-.183-2.092.058-1.531.531-3.27.082-4.71.461-.533.14-4.357.772-4.713.533-1.326-.891-2.557-.036-3.821-.116-.052.416.093.544.26.63.636.33 1.678-.779 2.582.214.315.345 1.77.183 2.275.138 8.816-.767 8.612-.714 9.279-1.076.279-.15.572-.243.861-.067.588.358 1.015-.162 1.49-.393l2.018.372c1.187-.794 2.524-.928 3.895-.827 2.04.151 2.254-.017 2.336.51.037.242-.115.642-.364.757-2.548 1.18-2.92 2.153-4.452 1.645-.161-.347-.15-.047-.055-1.104-.431-.507-.89-.242-1.38-.23-1.227 1.334-.818 1.028-3.279.86-2.36-.16.043.197-4.38.338-.175.006-.347.053-.52.09-.275.061-.391.709-.196 1.082.9 1.73 1.376.987 1.553 1.792-2.232 1.267-3.083 1.937-4.986 2.054-.669.04-.702-.499-.748-1.458-.494-.417 1.004-.493-15.945.958-1.342.115-14.093 2.453-15.736 1.772l-.597.584c.36.523.785.221 1.151.495l-.727.56c.04.125.063.244.082.245 2.38.128 2.054.072 2.628.018.118.46-.112.348-.208.367-3.617.74-1.06.468-4.255 1.216.107.15.181.325.277.376.775.41 1.509-.139 2.276.04 2.246-.532 4.549-.53 6.817-.854 14.257-2.044 12.704-1.917 13.286-1.7.066.329-.02.411-1.111.595-3.322.56-.341.374-5.748.947-.569.06-5.542.589-6.296.85-1.54.535-1.384-.194-2.614.146-.284.078-.549.27-.857.174-.484-.152-.934-.043-1.385.166-1.1.51-10.104 1.181-10.429 1.48.042.053.187.259.287.244 2.474-.373 6.852-.55 7.216-.404-.39.686-.481.739-2.167 1.25l-.542.904c-2.401.915-4.757.946-7.262 1.416-3.284.616 15.832-.403 28.787-3.082.17.142.314.387.154.591-.297.38-.798.28-1.018.876.141-.36-.322.706-.894.55-1.498-.406-1.615.755-4.092 1.004-3.33.335-13.25 2.171-30.064 3.769-.59-1.152-.544-.982-1.908.21-.358.11-.475-.451-.794-.782-3.232.222-4.171.39-5.388.092-1.818-.447-1.118.995-5.586.162-.19-.035-.392-.804-.19-.777.896.117 1.733-.209 2.576-.48.087-.028.147-.202.263-.373-11.665.929-67.429 5.11-98.272 8.792-.313 1.108.075.645-1.796 1.829-.546.345-1.189-.107-1.848.387-.645 1.18 1.344.747-17.123 2.43-3.744.342-3.368.243-4.914.518-1.257.223-.18 1.212-3.126 1.114-1.957-.065-1.227.218-1.91-.567-4.038-.063-3.719 1.654-4.515.923l.026-1c2.355-1.64 2.217-.502 4.92-.92l-.009-.61-2.09-.787c.144-.645-.198-.155 1.234-.994.073-.043.096-.259.172-.487-.916.036-1.796.037-2.67.164-9.775 1.422-6.703.45-11.234 1.063-.756.102-1.515-.22-2.283-.09-.74.125-1.529-.132-2.297-.221-.047-.67.474-.317.59-.801-2.3-.069-1.91.58-2.338.513-.776-.122-1.485.347-2.256.281-1.982-.17-1.948.386-5.809.273-.11-.003-.233-.34-.361-.54.381-.302-.253-.3 3.862-.56.327-.02.908.356 1.038.24.82-.736 1.836-.345 2.712-.8-.512-1.184.013-1.07-23.341 1.4-3.776.4-4.028-.157-4.016 2.483l.028-.057c-1.218-.063-2.431.194-3.691-.316.07-.155.106-.334.169-.352.277-.08 1.537.131 1.342-.599-.074-.275-.535-.34-.636-.326-.424.063-.795-.218-1.263-.516 8.361-1.937 10.77-1.509 15.495-2.386.516-.095 1.023-.275 1.56-.129.49-.355 1.034-.19 1.562-.178 1.206.028 1.863-.435 2.779-.352.819.074 1.633-.122 2.468-.202-.468-1.13.113-.468-5.294-.348-2.57.057-3.699.626-6.476.696-3.33.083-3.103.554-4.191.505-2.617-.12-3.532.86-4.72.265-.515-.259-.88.186-2.645-.145-.789-.147-.584.089-4.578.116-.087 0-.427-.634-.097-.805.798-.412 9.51-.841 10.642-1.483.949-.538 1.935-.52 2.942-.468.156.008.305-.17.466-.267-.388-.739-.475-.095-3.112-.41-1.443-.17-2.896.47-4.36.373-2.424-.16-1.77.31-3.287.552-3.94.628-1.487.536-3.276.478-.044-.255-.118-.45-.086-.562.04-.135.17-.295.26-.28 2.426.4 5.32-1.78 7.91-1.55 1.486.134 1.36-.911.894-1.21-.109-.069-.233-.065-.346-.12-.106-.052-.207-.137-.317-.212 1.817-.606 1.038-.407 3.11-.694-5.53-.393-3.033-.238-4.512-.066-.07.009-.16-.172-.24-.265.104-.174.14-.5.733-.5 1.066-.001 2.069-.458 3.11-.635.129-.022.22-.345.328-.528.365.363.745.307.93-.165.327-.839.876-1.276 1.301-1.92.838.08.85.071 1.087-.952-1.044.489-2.138-.13-3.106.547.088.283.788 1.214-.041 2.103-.078.084-.094.295-.138.448-.52-.004-1.055-.37-1.566-.005-.138.097-.347-.005-.523-.026-.213-.026-.43-.434-.4-.794.043-.5.113-.99.17-1.484-.847-.347-1.652.04-2.474-.078-.753-.108-1.506-.342-2.242-.517-.137-.758.114-.548-1.527-.9.293-.706.659-.848 3.267-1.19 4.155-.542 4.922-.512 4.752-.706-.35-.4-.79.02-1.138-.432.023-.17.109-.65-.013-.698-2.957-1.123-2.122-.818-6.145-.725-.115-.425.057-.598.209-.618.755-.1 1.427-.658 2.206-.63.224.008.441-.136.78-.25-.82-.565-4.318.29-5.444-.16.624-.596 1.411-.215 2.013-.748-1.036-1.442-1.98-.265-7.715-.214.216-.529.6-.35.85-.58.289-.264.61-.453.905-.666-.152-.66-.238-.807-.438-.761-1.19.273-1.244.392-1.332.114-.289-.913 2.315-.593 3.511-1.522.68-.528.624-.13 5.252-.697-.077-.163-.105-.288-.15-.309-2.127-1.006-2.266.314-3.425.226-5.259-.402-3.425.24-4.86-.32.672-.667 1.398-.495 2.05-.69.624-.186 1.21-.552 1.88-.502.067.005 3.449.097 4.147-.066-.187-.302-.298-.623-.407-.636-.53-.059-1.07-.12-1.586-.026-2.19.4-5.45.148-5.783-.245.069-.197-.225-.1 1.867-1.035 3.103-1.387 6.37-.954 6.923-1.574-.553-.384-1.044-.074-1.542-.074-2.288-.003-1.62-.02-3.438.38-1.014-.56-.639-.378-1.57-.658.55-.882 1.209-.631 2.025-.632 1.822-.002 1.046-1.693 2.36-2.205 4.008-1.562 14.554-1.473 16.235-2.132.309-.12.323-.384.003-1.055l-1.44-.168c.136-.153.19-.264.26-.282 3.366-.886 2.715-.785 3.8-.228l-.334.685c.367.353.795.629 1.329.912a83.33 83.33 0 006.356-.472c.117-.527.056-.856-.22-1.007-1.283-.7-.73.42-4.522.22-.161-.01-.332-.188-.491-.312-.045-.034-.064-.155-.101-.253 1.386-.782 3.79.087 4.998-1.013l.022-1.583c1.273-1.451 3.744-.977 4.342-1.401.804-.57 1.713-.422 2.523-.716l.893.678c-.081.151-.12.308-.188.334-.28.105-.612.065-.847.27-.933.822-1.978.809-3.042.712-.52-.384-1.021-.38-1.583-.073.609.324 1.11.131 1.616.01zm198.906 6.384l.411-.03c.262.403.526.634.812.129-.295-.19-.566-.095-.84-.063-.262-.506-.125-.212-.561.25.044.037.104.121.129.104.111-.077.122-.22.049-.39zm-204.678.812c.06.24.103.282.111.124 0-.01-.092-.042-.142-.064-.065-.274-.033-.202-.152-.23l.183.17zm62.008-31.064c-.39.156-.342.09-.27.272.358-.526.235-.271.354-.389.008-.008.114-.328-.084.117zM23.88 73.246c-2.461.106-2.633.026-2.821.523 1.28.24 1.821.174 2.704-.349.041-.024.053-.149.078-.227.18-.11.243-.242.038.053zm51.192-38.21c-.678-.86-.912.772-.747 1.294.425-.182.519-1.078 1.041-1.008.22 1.103.895.187 2.09.876.211.121.177.092 3.879-.478-.535-.112-1.073-.193-1.578-.066-.555.139-1.037-.403-1.562-.406-.525-.003-1.05-.01-1.434-.013-.428-.11-.623-.635-.93-.511-.613.828-.417.748-.759.312zM55.564 74.093c-.52-.056-1.032-.32-1.562-.174-3.09.85-3.999.68-6.917 1.017.09.364-.166.214 1.348.679 2.183-1.545 6.824.28 7.09-1.575.146-.148.132-.166.041.053zm21.375-2.662c2.158-.508 2.588.898 4.976-.138-.627-.313-1.213.021-1.775-.386.182-.675.773-.219 1.006-.86-.607-.964-1.353-.324-1.959-.695-.131.171-.25.251-.293.393-.43 1.42-1.309 1.082-1.732 1.344-.085.052-.123.254-.182.388-.354.374-.835.546-.907 1.376-.012.147-.705.177-.803.186.334.895.856.693 1.282.858.287.11.572-.007.801-.574-.36-.48-.385-1.187-.414-1.892zm191.954-23.15c.124.1.134.079-.031.063-.003-1.004-.092-.655.445-1.51-.77-1.176-.101-.332-1.757-.407-.267-.012-.556-.275-.814-.49-.25-.211-.529.28-.759-.188.269-.539.413-.598.297-.825-.174-.34-.284-.285-1.472.004-.035.008-.054.119-.081.182l.333.942c-.26.388-.555.68-.714 1.102-.199.526-.371 1.054-.723 1.372.813.416 1.418.925 1.963.148.202-.492.133-1.258.654-1.52.26.308.647-.19.948.347l.172.822c.778.153.388.195 1.539-.042zm-16.41-1.642c-2.725 1.164-3.287 1.278 2.656.658 5.806-.606 5.53-.38 4.144-1.12l.236-1.246c-.244-.544-.004-1.038-.016-1.72-1.732.24-3.466.293-5.183.625.444.401.945-.074 1.37.428.211.697-.363.774-.377 1.292.439.686.441.696.895.524.155-.059.289-.302.454.017-.128.431.128.472-1.156.638-2.506.324-2.782.473-3.08-.149.166-.309.511-.37.529-.921-.804-.19-2.43-.022-2.704.344 1.226.692.536.427 1.665.122.255-.07.446.14.567.508zM75.775 25.495c-1.327-1.295-1.78-.434-3.788-.46-2.676-.034-3.95.696-4.688.683-2.955-.052-3.207-.25-4.76.706-.28-.071-.526-.215-.749-.176-1.899.333-3.84.296-5.924.812 1.32.607.86-.143 3.284.64 1.154.373 1.188-.354 1.5-.17.769.452 2.034-.496 2.775-.167.598.265 1.143-.202 1.737.076.201.094.488-.015.664-.189 1.294-1.272 2.265-.046 4.67-.216 5.03-.356 5.191-.819 5.239-1.6.473-.024 1.002.335 1.39-.288-.535-.411-.997-.363-1.35.35zM260.452 48.79c-.08-.133-.155-.363-.24-.383-1.801-.426-15.613 1.205-16.038 1.409 4.743.962 4.115.586 7.293.278 6.787-.657 6.644-.374 8.985-1.304zM23.221 79.186c.418.404-.122.531 3.251.343 5.18-.288 3.95.293 4.403.016 1.201-.731 1.753.146 3.987-.416.11-.028.172-.365.281-.62-2.833-1.62-2.322-1.343-3.33-.31-.447.011-.926.083-1.373-.293-.537-.452-1.049-.396-1.537-.082-1.169.75-1.373.24-3.987.429-.281.02-.356.482-.465.865-.428-.022-.846-.518-1.23.068zm25.049-7.484c.346-.197.71-.23.923-.744-1.543-.012-3.08-.422-4.601-.19-1.157.177-2.321.39-3.492.345-1.31-.051-2.526.527-3.807.631-.149.012-.281.244-.41.396-.73.87 8.978-.89 11.387-.438zm16.77 5.592c-1.994-.506-4.26.334-4.885.325-1.568-.023-6.516.48-8.202 1.168-.089.037-.145.217-.316.49 1.15.055 2.204.423 3.246.182 1.209-.279 1.456-1.25 3.324-1.326.69-.028 2.018-.41 2.978-.301 1.314.148 2.572-.184 3.855-.538zm179.971-48.49c2.32-.55 2.607-.293 2.932-1.13.067-.172-.071-.489-.239-.652-.765-.748-1.185-.757-4.843-.232-.336.048-.65.307-.964.501-.063.04-.082.225-.133.382.53.358 1.065.346 1.584.344.619-.002 1.112.706 1.663.787zM38.342 76.499c-.068.647-.069.65.065.736 1.57 1.02 3.406.181 7.477-.803-.213-.276-.345-.577-.463-.58-2.247-.044-2.773.602-4.175.116-.442-.154-2.41.317-2.904.53zm29.649-39.941c-.497-.116-1.013-.368-.973.176.075 1.025 1.42.276 2.089.35 1.128.123 2.198-.246 3.296-.364.076-.008.134-.194.22-.326-.503-1.253-.34-.883-.635-1.337-1.135-.155-2.894-.01-3.267.269l-.73 1.232zm176 21.394c1.579.431 5.529-.17 8.828-.358.279-.016.54-.246.792-.367-.015-.362-.035-.656-.241-.743-1.619-.683-2.695.912-4.121.722-.398-.053-5.247.745-5.258.746zM56.459 80.766c-4.97-.298-.686-.65-7.524.424-2.476.388-2.024.252-2.274.594 3.515.194 5.057-.11 9.483-.797.105-.017.198-.137.315-.221zm155.77-22.857c5.997-.467 5.69-.36 6.036-.708.178-.178-.048-.874-.651-.814-4.181.414-4.664.338-5.385 1.522zM96.777 23.82c2.576.16 9.276-.815 9.285-.816 5.742-.532-5.474-.04-9.285.816zm118.756 42.417c-.98-.108-2.558.058-4.231.451.346 1.947 1.185 1.956 2.41 1.572.236-.074.374-.323.239-.806-.618-.297-1.253.268-1.914-.179.057-.17.083-.375.136-.386 2.77-.59 2.948.217 3.36-.652zm20.156-11.088c2.06-.098 3.674-.226 4.437-.051.69.157 1.204-.545 1.858-.474.709.076.763-.061.784-.34-2.657.012-1.127-.186-6.797.584-.052.007-.095.09-.282.281zm29.472-13.926c.384.312 1.475.166 1.902.031 1.383-.437.105-1.744-1.222-1.591-.231.027-.257.493-.527.574-.342.103-.324.2-.153.986zM28.327 67.193c1.265-.13 2.563-.014 4.012-.518-.545-.07-.89-.141-1.232-.151-.41-.012-.558-.7-.927-.85-.568-.108-1.155-.223-1.74.05-.277 1.509-.247 1.141-.113 1.47zm38.442-.324c-1.083 1.358-2.294.516-3.998 1.242.134.095.192.17.243.167 5.792-.428 6.933-.384 6.185-.953-.71-.075-1.595.381-2.43-.456zm-9.95 1.751c-1.687-.184-5.322.255-7.2.573-.046.008-.07.183-.112.3 1.297.04 5.745-.313 6.99-.566.094-.019.17-.157.322-.307zm138.998-53.106c-.106-.471-.337-.652-.567-.657-1.156-.026-2.3.083-3.421.425.175.903.275.672 3.988.232zM32.134 69.864c-.613-.124-1.235-.365-1.804.163l.073.766c-.088.187-.445.077-.334.646 1.414.12 1.979.36 2.209-.47-.14-.692-.099-.398-.144-1.105zm35.63 5.55c-2.48-.629-3.35-.585-5.191-.074 2.208.433 3.185.822 5.19.073zM19.39 77.191c.835.237 1.423.228 1.981.068 1.195-.344 1.557-.166 4.675-.61-.195-.105-.254-.165-.306-.16-3.414.325-3.317.404-3.645.292-.85-.293-1.616.023-2.705.41zm23.29 2.575c-1.598.212-3.116.22-4.595.567-.032.422.19.535.335.525 2.676-.178 3.097-.346 3.97-.63.083-.026.137-.21.29-.462zm-.19-10.746c-.46.982-.585 1.005-.328 1.346 1.206.13 2.396-.244 3.609-.367.054-.006.09-.185.151-.32-.551-.262-1.068-.027-1.584-.14-.583-.128-1.163-.324-1.848-.52zm-9.877 3.688c.105.084.213.24.312.24.992-.009 1.976-.091 2.9-.577.054-.028.047-.28.078-.494-.531-.141-.672-.518-3.188.63-.045.02-.068.132-.102.201zm232.474-39.92c-.064.008-.11.174-.172.279 4.746.254 7.437-1.228.172-.28zM86.065 34.955c.946-.223 2.01-.038 3.096-.506-1.532-.461-2.046-.508-3.18-.187-.165.047-.18.367.084.693zm149.032 23.49c.171.25-.214.174 2.232.375.189.016.35-.23.397-.339.059-.14-.195-.499-.36-.513-.387-.035-2.092-.167-2.269.478zm1.258-29.451c-1.903-.524-1.526-.507-2.02-.175-.072.048-.169.52.072.634.727.344 1.376-.07 2.05-.242a64.77 64.77 0 00-.102-.217zM49.66 65.027c-.211-.206.13-.116-1.562-.395-1.28.753-1.65.185-1.565.831 1.044-.238 2.129.115 3.127-.436zm16.933 7.626c.197.904-.04.68 1.453.336.296-.068.59-.127.813-.493-.827-.407-1.535-.044-2.266.157zm-32.025-2.936c1.714.568 3.264.09 3.164-.155-.146-.357.163-.371-2.589-.236a.624.624 0 00-.575.392zm205.106-52.612c-.409 0-.818-.016-1.224.006-.404.022-.825-.392-1.213-.037.275.484 1.613.726 2.437.03zm.399 30.428c-.102-.226.19-.148-1.631-.598-.182-.045-.36.244-.281.466.05.14.151.317.236.339.228.058.471.103.688.04.327-.093.708.134.988-.247zm-24.565 15.532c-.978-.191-1.878-.32-2.813.145.555.206-.096.234 2.813-.145zM78.169 24.935c.156.512.494.329 1.256.206 1.018-.165 1.137-.047 1.29-.396-.052-.051-.108-.15-.154-.146-.858.08-2.037-.175-2.392.336zM203.975 57.27c-.799.161-.545.107-.76.17-.183.052-.335.407-.227.533.258.302.218.3 1.409-.343.044-.024.065-.133.096-.202-.288-.196-.164-.192-.518-.158zm16.866-36.571c-.505.016-1.967-.037-2.649.362 1.078.007 1.864-.164 2.649-.362zm4.235-.408l-2.378.226c.807.066 1.606.053 2.378-.226zm-10.777 1.222c1.159-.11.565-.024 2.321-.306-.802-.07-1.603-.158-2.321.306zM28.831 72.981c-1.405-.221-1.405-.221-2.169.16.08.096.153.249.231.265.683.146 1.337.072 1.938-.425zm68.167-39.975l-2.418.23c1.07.262 1.695-.118 2.418-.23zM59.835 73.285c-1.811.087-1.168.007-2.437.286.693.054 1.393.207 2.437-.286zm140.527-58.937c-1.105.043-1.475-.053-1.339.366.779.565 1.122.488 1.339-.366zm1.639 41.037c1.127.347 1.167.345 2.268-.057-.675-.166-.053-.19-2.268.057zM69.338 83.03c-1.557-.327-1.556-.311-2.013.142.665.176 1.209-.146 2.013-.142zm189.528-41.047c2.358-.224 2.737-.586.345-.431-.046.002-.085.1-.345.43zM54.959 27.158c-1.28-.05-1.28-.058-1.604.318 1.796-.171 1.481-.1 1.604-.318zm161.88 39.043c.569.106.952.014 1.335-.075.079-.018.143-.135.244-.235-.52-.115-1-.197-1.579.31zM57.495 70.266c-.768.029-1.222-.14-1.776.278.629.065 1.074-.048 1.776-.278zm-36.091-3.518c.355.952.362.943.872.805-.276-.528-.715-1.628-.872-.805zm38.438 1.733c-.76-.152-1.261-.267-1.807.086.593.337 1.067.06 1.807-.086zm20.219 5.655c.404.394.773.267 1.13-.033-.4-.327-.772-.272-1.13.033zm149.51-18.508c-.396-.325-.754-.213-1.112.04.402.4.752.167 1.112-.04zM58.433 70.187c.326.031.66.185.972-.04-.354-.317-.648.044-.972.04zm-19.239.294c.716.27.718.28 1.1-.258-.752-.293-.752-.296-1.1.258zm-.203 8.231c-.318-.238-.523-.204-.734.07l.734-.07zm5.164-5.485c-.294-.33-.551-.179-.806.034.29.272.557.26.806-.034zM251.521 51.85c-.294-.138-.546-.096-.829.1.306.067.568.144.829-.1zM67.184 69.436c-.28-.296-.523-.224-.748.068.279.287.526.254.748-.068zm-40.427 2.135c-.337-.555-.617-.227-.905.015.326.373.629.397.905-.015zm216.431-21.63c-.307-.116-.557-.147-.819.148.671.11.448.122.819-.148zm6.927-22.636c-.336-.339-.616-.229-1.024.158.425-.022.725.317 1.024-.158zm-1.5 20.405c.288.22.55.168.798-.063-.289-.23-.546-.129-.798.063zM40.736 51.645c-.604-.476-.6-.483-.642-.47-.133.04-.14.513.1.518.16.003.318-.026.542-.047zM244.11 14.313c-.255-.36-.475-.261-.684-.236-.052.007-.09.159-.134.244.18.136-.032.144.818-.008zm-36.696 54.323c-.171-.143-.013-.17-.574.06.106.15-.001.197.551.081.014-.003.015-.092.023-.141zm15.764-12.454c-.37-.157-.252-.153-.448.097.18.074.057.119.448-.097zm31.429-4.59c-.069-.026-.186-.216-.274.027l.274-.026zm-10.6-3.378c-.065-.188.006-.184-.325.001.212.092.128.092.325-.001zM53.578 64.637c.362.135.244.136.446-.1-.177-.066-.056-.11-.446.1zm-8.461.788c.106.158.002.16.4.015-.164-.23-.257-.13-.4-.015zm194.824-20.04c-.005-.121.064-.088-.445-.107.004.112-.064.08.445.108zM29.372 52.081c-.216-.35-.25-.21-.435.104.18.102.067.153.435-.104zm30.61-14.323c-.008-.084.052-.069-.39-.027.007.084-.052.069.39.027zm166.53-17.554c-.362-.107-.245-.11-.445.097.175.054.053.096.445-.097zm24.387 7.315c-.023-.165-.016-.364-.077-.486-.089-.179-.215-.116-.216.122-.001.142.099.3.163.441.005.012.084-.05.13-.077zm-47.362-13.216c.207-.046.209-.124.002-.198-.047-.017-.103.052-.156.08l.154.118zm.947-.167l.162-.072c-.166-.046-.121-.057-.162.072zm4.787-.499c-.018-.042-.038-.119-.053-.119-.138.004-.164.077-.066.168.025.024.078-.03.119-.049zM52.215 30.161c-.236-.147-.298.14-.043.12.018-.001.029-.078.043-.12zm11.473-1.106c0 .12-.028.098.13.057l-.13-.056zm-19.103 3.512c-.182-.145-.109-.142-.28-.008.178.146.105.145.28.008zm201.734-18.67c-.128-.21-.032-.219-.354-.017.127.206.032.219.354.018zM54.952 36.576c-.069-.149-.012-.144-.203-.066.068.135.011.13.203.066zm39.143-3.052c.037-.066.114-.16.103-.194-.068-.203-.181-.26-.304-.162-.048.038-.08.12-.12.18l.321.176zm-28.012 3.634c-.157-.149-.089-.14-.261-.041.163.151.095.14.26.04zm167.238-8.291c.005.144-.026.122.125.064l-.125-.064zm-195.22 22.6c-.036-.063-.07-.165-.11-.177-.168-.052-.163.512.061.39.031-.017.033-.14.048-.213zm3.829-.498c.222.139.271-.153.041-.118-.018.003-.028.077-.041.118zm2.14.27c.14.086.108.096.123-.02l-.123.02zm195.919-2.685c-.045-.04-.094-.12-.134-.114-.188.028-.191.112-.008.19.042.018.094-.049.142-.076zm9.326 3.57c.186-.103.196-.066-.014-.132l.014.132zm9.08-.855c-.008-.014-.118-.314-.25-.11-.085.129-.035.228.124.228.044 0 .084-.077.126-.118zM70.365 70.163c.136.086.108.1.119-.022l-.12.022zM269.977 51.24c-.114-.402-.429-.003-.125.07.04.01.083-.045.125-.07zM37.285 78.782l-.17.064c.175.047.126.054.17-.064zM205.97 68.87c-.134-.092-.102-.099-.12.015l.12-.015zm49.414-16.226c-.159-.132-.127-.16-.124.078l.124-.078zM34.528 74.182c-.114-.103-.09-.124-.091.059l.092-.059zm58.137 8.078c.11.111.085.13.092-.051l-.092.051zm152.229-68.296c-.067.189-.087.147.058.16l-.058-.16zM38.64 51.132c-.069.217-.09.17.063.18l-.063-.18zm225.086-17.92c.064-.153.079-.117-.046-.137l.046.137zm-243.2 33.44c.128.107.1.127.103-.054l-.104.054zm14.666 4.206c.056-.147.071-.113-.046-.127l.046.127zM55.45 88.602c-.008.007-37.449 4.155-37.458 4.153-3.89-1.112 37.325-4.23 37.458-4.153z" fill="#4CCD99"/><path d="M72 21.783c-.978.6-15.949 1.428-20.245 2.187-.263-1.802 1.41-.647 19.644-2.38.146-.013.303.093.602.193zm39.411-4.306c5.255-1.983 77.201-7.765 77.918-8.037.872-.33 1.45-.142 4.204.213-3.978.651-78.244 7.899-82.122 7.824zm-79.986 23.28c.283-.075.624-.026.837-.248.421-.437 2.258-.153 1.355-1.31.014-.085.01-.224.044-.25.64-.454 1.34-.419 2.043-.27.152.031.296.277.493.472-.02.442-.037.876-.053 1.249-.847.734-2.156.076-3.194 1.17-.222.234-.534.278-.794.402l-.695-.43c-.01-1.013.003-.868-.036-.785zM223.066 7.333c-3.142.868-9.516 1.054-7.617.627.009-.002 1.041-.05 1.532-.427 1.176-.902 4.731-.543 6.085-.2zm3.65-.226c-.021-.213-.077-.443-.04-.482.696-.751 4.345-.731 6.054-.74-2.053 1.239-4.048 1.095-6.014 1.222zM11.623 49.08c.16-.245.215-.417.292-.432.514-.108 1.028-.241 1.55-.257 4.965-.149 5.133-.697 5.499-.195-.257.286-7.237.88-7.341.884zm24.294-14.49c-.034.803-.567.723-.853 1.091-1.679-1.177-2.768-.543-2.825-1.218-.052-.617 2.148-.204 3.561-.034.037.004.073.1.117.161zM12.661 93.002c.127-.148.24-.398.382-.428a17.541 17.541 0 013.634-.373c.186 0 .277.46.062.542-.955.365-1.38-.267-2.382.29-.572.319-1.857-.296-1.696-.031zm21.711-50.166c-.204.916-.222 1.19-.447 1.267-1.512.52-1.677-.392-1.607-.63.162-.547.288-.618 1.332-.75.167-.02.343.05.722.113zm230.253-21.47c.373-.563-.209-.567 2.629-.638.072-.002.164.214.232.345.288.55-2.931.162-2.861.293zM39.884 31.418a6.361 6.361 0 01-3.354.344c1.066-.54 1.402-.577 3.354-.344zm-17.151 14.34c1.168-.86 1.787-1.65 2.457-.693.056.081.035.294.057.532-1.802.481-1.387.452-2.514.161zm218.332-35.68c.677-.45.677-.45 1.349.4-.047.21-.065.477-.158.648-.381.708-1.105-.08-1.191-1.048zM13.328 77.297c.505-1.094 1.608-1.203 1.505-.216-.448.376-.973.12-1.505.216zm62.638-56.094c-.823.534-1.69.52-2.641.556.282-.424-.243-.282 2.64-.556zM10.562 92.845c-.411 1.017-1.281.802-1.276.55.011-.537-.052-.424 1.276-.55z" fill="#4CCD99"/><path d="M264.59 21.3c-.41.526-1.228.347-1.769.248-.031-.006-.059-.132-.093-.215.233-.428.591-.274.9-.334.551-.108 1.062.486.962.302zM21.717 47.893c.758-.383 1.441-.36 2.233-.29-.834.475-.834.475-2.233.29zm-9.914 38.772c-1.047.181-1.175.264-1.232.015-.14-.612 1.51-1.046 1.232-.015zm-.858 3.678c.156.322.38.362.605.445.145.053.279.212.476.37-.767.719-1.942.385-1.615-.395.193-.46.734-.223.534-.42zm262.616-70.161c-.454.233-.945.437-1.484.266.17-.38.172-.367 1.484-.266zM241.046 5.124c.152-.214-.226-.139 1.907-.341-1.112.607-1.473.655-1.907.34zm-.715 64.032c.547-.296 1.134.047 1.932-.205-.702.51-1.129.632-1.682.523-.12-.023-.193-.464-.25-.318zM11.097 88.368c.404-.522.892-.094 1.333-.17-.838.4-.838.4-1.333.17zm247.677-66.261c-.406.22-.813.379-1.283.063.384-.405.795-.537 1.241-.489.013.002.028.277.042.426zM12.625 92.942c-.21.377.044.377-1.055.479-.261.023-.265-.524-.114-.516 1.325.071 1.244.16 1.169.037zm18.781-48.685c-.519.73-1.381.063-.87-.069.28-.072.57-.11.87.069zm15.273-3.614c-.378.072-.73.503-1.144.033.355-.441.748-.23 1.144-.033zm198.32-35.876c-.51.37-.885.483-1.293.114.346-.413.74-.398 1.293-.114zM7.208 64.665c-.414.353-.836.384-1.31.086.425-.315.835-.495 1.31-.086zM58.6 88.334c-.648.062-.56.081-.57-.029.645-.061.56-.08.57.03z" fill="#4CCD99"/><path d="M10.998 90.395c-.015-.03-.387-.634-.25-.888.282-.523.998.394.528.74-.197.145-.413.014-.278.148zm20.357-57.689c.226-.44.493-.415.795-.067-.25.248-.507.316-.795.067zm249.741 9.218c.32-.117.159-.123.623-.046-.301.13-.14.132-.623.046zm-15.8-16.05c.548-.151.351-.154.753-.014-.344.204-.141.19-.753.014zM34.933 83.996l-.55.107c.16-.288.32-.255.55-.107zm235.472-23.932c.012-.343.181-.12.28-.151.016.165.067.118-.28.151zm2.075-4.394c.109-.495-.073-.403.619-.469-.259.697-.787.237-.619.47zM15.671 76.368c.052.04.13.065.148.127.067.216-.164.374-.299.51-.17-.568-.217-.412.151-.637zm256.654-29.234c.126-.04.992-.446.78.082-.075.188-.114.13-.78-.082zm-11.307-25.548c-.493.566-.323.449-.663.277.238-.282.038-.253.706-.22l-.043-.057zm9.968-1.13c-.303.304-.167.291-.523.052.3-.296.163-.283.523-.052zM233.729 5.905c-.045.021-.106.083-.132.057-.104-.103-.073-.186.08-.191.014 0 .034.087.052.134zm-9.394 1.358c-.178.094-.106.102-.274-.035.176-.092.105-.1.274.035zm43.958 13.479c.01-.048.015-.136.031-.138.214-.035.184.309-.031.139zm-13.525 1.791l-.124-.09c.042-.023.087-.077.125-.064.17.058.169.118-.001.154zm1.814-.403l.054.17c-.049.023-.119.091-.143.063-.112-.133-.077-.223.089-.233zM45.668 42.866c-.175.116-.105.124-.269-.038.171-.115.101-.125.269.038zM279.733 28.1c.139.002.288-.112.408.128-.039.034-.093.11-.117.091-.306-.254-.233-.354-.291-.219zM8.187 64.623l-.123-.09c.041-.023.085-.077.123-.064.167.056.166.116 0 .154zm267.345-25.007l.053.119c-.044.02-.102.077-.13.051-.103-.094-.072-.164.077-.17zm-1.01 12.888c.012-.054.018-.153.036-.156.247-.037.207.338-.036.156zm-5.145 7.546c-.043.176.012.168-.184.1.043-.177-.011-.169.184-.1zM8.683 93.53c-.043.018-.098.07-.127.044-.146-.127-.062-.599.125-.274.026.044.003.152.002.23zm54.83-5.756c.195-.056.158-.086.146.095l-.146-.095zm1.201-.118c-.012.039-.02.109-.036.111-.205.026-.163-.257.036-.111z" fill="#4CCD99"/><path d="M272.375 55.848c-.107-.101-.071-.16.105-.177-.049-.07-.024-.097-.105.177zM16.6 86.565c.054.014.155.036.155.043-.001.192-.048.158-.128-.1l-.028.057zm18.658-48.89c.039.057.115.136.11.168-.046.237-.126.238-.199.001-.01-.031.058-.111.09-.169zm-3.806 3.024c-.082-.11-.077-.134-.027.058l.027-.058zm229.609-19.056c.05-.245.064-.226-.043-.057l.043.057zm-3.482 24.641c.212-.183.394-.354.585-.5.175-.134.408.014.384.236-.065.617-.636.67-.969.264zM29.605 66.387c.08-.173-.023-.157.387-.087-.116.26-.248.16-.387.087z" fill="#4CCD99"/><path fill-rule="evenodd" clip-rule="evenodd" d="M108.938 67.458c-2.666 0-5.133-.467-7.4-1.4a18.577 18.577 0 01-5.9-3.9 17.751 17.751 0 01-3.95-5.8c-.933-2.233-1.4-4.633-1.4-7.2 0-2.6.467-5 1.4-7.2a17.567 17.567 0 013.9-5.75 17.353 17.353 0 015.85-3.85c2.267-.933 4.734-1.4 7.4-1.4 2.634 0 5.067.467 7.3 1.4 2.267.9 4.234 2.183 5.9 3.85 1.7 1.633 3.017 3.567 3.95 5.8.934 2.2 1.4 4.6 1.4 7.2 0 2.567-.466 4.967-1.4 7.2a18.129 18.129 0 01-3.9 5.8c-1.666 1.633-3.633 2.917-5.9 3.85-2.233.933-4.65 1.4-7.25 1.4zm-.1-7.15c2.1 0 3.934-.467 5.5-1.4a9.482 9.482 0 003.7-3.9c.867-1.7 1.3-3.65 1.3-5.85 0-1.667-.25-3.167-.75-4.5-.5-1.367-1.216-2.533-2.15-3.5-.933-1-2.05-1.75-3.35-2.25-1.266-.533-2.683-.8-4.25-.8-2.1 0-3.95.467-5.55 1.4-1.566.9-2.783 2.183-3.65 3.85-.866 1.633-1.3 3.567-1.3 5.8 0 1.667.25 3.183.75 4.55s1.2 2.55 2.1 3.55a9.732 9.732 0 003.35 2.25c1.3.533 2.734.8 4.3.8zm37.684-28.75c2.666 0 5.116.433 7.35 1.3 2.266.833 4.233 2.05 5.9 3.65 1.7 1.567 3 3.433 3.9 5.6.933 2.133 1.4 4.5 1.4 7.1 0 2.567-.467 4.933-1.4 7.1a16.033 16.033 0 01-3.85 5.6c-1.667 1.567-3.634 2.783-5.9 3.65-2.234.867-4.667 1.3-7.3 1.3h-14.25v-35.3h14.15zm-.1 28.4h-6.2v-21.55h6.2c2.133 0 3.983.433 5.55 1.3 1.6.867 2.833 2.1 3.7 3.7.9 1.6 1.35 3.517 1.35 5.75s-.434 4.167-1.3 5.8c-.867 1.633-2.1 2.883-3.7 3.75-1.6.833-3.467 1.25-5.6 1.25zm20.995 6.9l14-35.3h7.1l13.85 35.3h-8.3l-2.315-6.4h-13.837l-2.348 6.4h-8.15zm17.465-25.389l4.554 12.589h-9.173l4.619-12.589z" fill="#fff"/><path d="M219.36 66.858v-15.01l12.55-20.29h-8.9l-7.525 12.89-7.525-12.89h-9.1l12.65 20.603v14.697h7.85zm-148.7-28.45v28.45h7.85v-28.45h11.05v-6.85H59.61v6.85h11.05z" fill="#fff"/></svg>