<svg width="52" height="52" fill="none" xmlns="http://www.w3.org/2000/svg"><rect width="52" height="52" rx="10" fill="#54B4DA"/><path fill-rule="evenodd" clip-rule="evenodd" d="M15.033 33.233a13.116 13.116 0 0010.951 5.892 13.04 13.04 0 0010.938-5.911 4.321 4.321 0 00.565-3.625 4.32 4.32 0 00-2.429-2.76l-.021-.01c-2.665-1.076-5.758-1.694-9.053-1.694-3.293 0-6.382.618-9.054 1.67l-.03.012a4.35 4.35 0 00-1.867 6.426zm10.951-20.358a5.684 5.684 0 00-5.68 5.68 5.683 5.683 0 005.68 5.681 5.682 5.682 0 005.68-5.68 5.683 5.683 0 00-5.68-5.681z" fill="#fff"/></svg>