<svg width="48" height="49" fill="none" xmlns="http://www.w3.org/2000/svg"><path d="M.938 47.666L4.2 35.769a22.874 22.874 0 01-3.075-11.475c.01-12.666 10.313-22.96 22.969-22.96 6.14 0 11.915 2.391 16.247 6.732 4.34 4.34 6.73 10.106 6.721 16.246-.009 12.657-10.312 22.96-22.968 22.96h-.01c-3.843 0-7.622-.966-10.978-2.794L.938 47.666z" fill="url(#paint0_linear_518_3445)"/><path d="M.104 48.5l3.375-12.328a23.729 23.729 0 01-3.17-11.888C.31 11.17 10.989.5 24.104.5c6.366 0 12.338 2.484 16.829 6.975 4.49 4.5 6.965 10.472 6.965 16.828-.01 13.116-10.678 23.784-23.793 23.784h-.01a23.786 23.786 0 01-11.372-2.896L.104 48.5zm13.2-7.612l.721.43a19.753 19.753 0 0010.07 2.757h.009c10.903 0 19.771-8.869 19.771-19.772a19.68 19.68 0 00-5.784-13.987c-3.731-3.741-8.7-5.794-13.978-5.794-10.913 0-19.781 8.869-19.781 19.772 0 3.731 1.04 7.369 3.018 10.518l.47.75-1.998 7.294 7.481-1.968z" fill="url(#paint1_linear_518_3445)"/><path fill-rule="evenodd" clip-rule="evenodd" d="M18.15 14.338c-.45-.994-.919-1.013-1.34-1.032-.348-.018-.741-.01-1.144-.01-.394 0-1.041.15-1.585.742-.543.59-2.081 2.034-2.081 4.959s2.128 5.756 2.428 6.15c.3.394 4.116 6.59 10.153 8.972 5.025 1.978 6.047 1.584 7.135 1.49 1.087-.093 3.515-1.434 4.012-2.822.497-1.387.497-2.578.347-2.821-.15-.244-.544-.394-1.144-.694-.59-.3-3.515-1.734-4.06-1.931-.543-.197-.937-.3-1.34.3-.393.59-1.537 1.93-1.884 2.325-.347.393-.694.45-1.284.15-.591-.3-2.513-.928-4.782-2.953-1.772-1.576-2.962-3.526-3.31-4.116-.346-.59-.037-.919.263-1.21.263-.262.591-.693.891-1.04.3-.347.394-.59.59-.994.197-.394.104-.74-.046-1.04-.132-.31-1.285-3.244-1.819-4.426z" fill="#fff"/><defs><linearGradient id="paint0_linear_518_3445" x1="24" y1="47.669" x2="24" y2="1.331" gradientUnits="userSpaceOnUse"><stop stop-color="#20B038"/><stop offset="1" stop-color="#60D66A"/></linearGradient><linearGradient id="paint1_linear_518_3445" x1="24" y1="48.5" x2="24" y2=".5" gradientUnits="userSpaceOnUse"><stop stop-color="#F9F9F9"/><stop offset="1" stop-color="#fff"/></linearGradient></defs></svg>